<svg xmlns="http://www.w3.org/2000/svg" width="375" height="143" viewBox="0 0 375 143">
    <defs>
        <radialGradient id="prefix__a" cx="26.437%" cy="41.459%" r="53.105%" fx="26.437%" fy="41.459%" gradientTransform="matrix(.99271 -.11972 .07459 .61053 -.029 .193)">
            <stop offset="0%" stop-color="#C8C8C8"/>
            <stop offset="100%" stop-color="#979797" stop-opacity="0"/>
        </radialGradient>
    </defs>
    <g fill="none" fill-rule="evenodd">
        <path fill="#36363B" d="M0 46H375V189H0z" transform="translate(0 -46)"/>
        <path stroke="url(#prefix__a)" stroke-width=".5" d="M382.136 146.241L191.533 45.518m190.603 95.475L198.07 42.323m184.065 93.669L211.827 43.394m170.309 87.596L225.244 45.634m156.892 80.354l-147.543-79.97m147.543 74.968l-142.513-76.95m142.513 71.948L246.569 42.516m135.567 68.466L259.71 45.017m122.425 60.963L259.71 40.015m122.425 60.963L259.71 35.014m122.425 60.962L259.71 30.012m122.425 60.962L259.71 25.01m122.425 60.962L259.71 20.008M382.136 80.97L259.71 15.006m122.425 60.962L259.71 10.004m122.425 60.962L259.71 5.002m122.425 60.963L259.71 0m41.214 105.16L140 237.092m164.907-130.05L143.982 238.972m164.927-129.93L147.984 240.973m164.928-129.93l-160.925 131.93m164.927-129.93L155.99 244.976m164.928-129.93l-160.925 131.93m164.928-129.93L163.995 248.976m164.927-129.93l-160.925 131.93m164.928-129.93L172 252.979m164.927-129.93l-160.925 131.93m164.928-129.93L180.005 256.98m164.928-129.93l-160.926 131.93m164.928-129.93L188.01 260.982m164.928-129.93L192.013 262.98m164.927-129.93L196.015 264.982m164.928-129.93L200.018 266.983m164.928-129.93L204.02 268.983m164.928-129.93L208.023 270.986m164.928-129.93l-160.925 131.93m164.927-129.93L216.028 274.986m164.928-129.93L220.03 276.986m164.927-129.93L224.033 278.989m164.928-129.93l-160.925 131.93m164.928-129.93L232.039 282.99m164.927-129.93L236.041 284.99M400.97 155.06L240.044 286.99M404.97 157.06L244.046 288.993m164.928-129.93L248.05 290.991m164.928-129.93L252.052 292.993m164.927-129.93l-160.925 131.93m164.928-129.93L260.057 296.996m164.927-129.93L264.06 298.994m164.928-129.93L268.062 300.996m164.928-129.93l-160.925 131.93m164.927-129.93L276.067 304.999m164.928-129.93L280.07 306.998m164.927-129.93L284.072 309M449 179.07L288.075 311" opacity=".42" transform="translate(0 -46)"/>
    </g>
</svg>
