<svg xmlns="http://www.w3.org/2000/svg" xmlns:xlink="http://www.w3.org/1999/xlink" width="49" height="48" viewBox="0 0 49 48">
    <defs>
        <path id="prefix__a" d="M0 0L40 0 40 40 0 40z"/>
    </defs>
    <g fill="none" fill-rule="evenodd" transform="translate(.5)">
        <g transform="translate(4 4)">
            <mask id="prefix__b" fill="#fff">
                <use xlink:href="#prefix__a"/>
            </mask>
            <path fill="#78B5B5" d="M20 40C8.954 40 0 31.045 0 20S8.954 0 20 0c11.045 0 20 8.955 20 20s-8.955 20-20 20z" mask="url(#prefix__b)"/>
        </g>
        <g>
            <path fill="#FFF" d="M20.206 10.103c0 5.58-4.524 10.103-10.103 10.103C4.523 20.206 0 15.683 0 10.103S4.523 0 10.103 0c5.579 0 10.103 4.523 10.103 10.103" transform="translate(14 14)"/>
            <g stroke="#78B5B5" stroke-linecap="round" stroke-linejoin="round" stroke-width="1.5">
                <path d="M4.358 3.171c-.085-.62-.459-1.99-2.1-2.036-.634-.018-1.275.182-1.695.729C.112 2.452.017 3.35.41 4.001c.576.953 1.683 1.056 2.597 1.333.82.247 1.614.702 1.603 1.762-.012 1.29-1.333 2.151-2.405 2.013C1.934 9.074.463 9.023 0 7.412M2.258 1.135L2.258.122M2.205 9.109L2.205 10.225" transform="translate(14 14) translate(8 5)"/>
            </g>
        </g>
        <circle cx="24" cy="24" r="23" stroke="#78B5B5" stroke-linejoin="bevel" stroke-width="2" opacity=".3"/>
    </g>
</svg>
