<svg xmlns="http://www.w3.org/2000/svg" width="49" height="48" viewBox="0 0 49 48">
    <g fill="none" fill-rule="evenodd" transform="translate(.5)">
        <path fill="#446687" d="M24 44C12.954 44 4 35.045 4 24 4 12.954 12.954 4 24 4s20 8.954 20 20c0 11.045-8.954 20-20 20z"/>
        <g>
            <path fill="#FFF" d="M6.69 5.435c0-.808.142-1.582.39-2.307C6.207 2.11 5.038 1.24 3.633 1.375c-.251.024-.417.277-.321.51L4.182 4c.061.152.013.325-.115.428-.598.478-2.22 1.949-2.433 4.023-.018.19-.168.34-.359.34H.367c-.202 0-.367.163-.367.365v3.11c0 .202.165.367.367.367h1.052c.135 0 .255.067.32.186.307.575 1.363 2.326 3.202 3.006.072.027.136.076.177.143l1.009 1.622c.102.164.279.262.47.262h1.446c.192 0 .37-.098.471-.262l.964-1.552c.067-.107.186-.172.312-.172h.865c.127 0 .244.065.31.172l.965 1.552c.102.164.28.262.471.262h1.446c.192 0 .369-.098.47-.262l1.04-1.67c.022-.036.05-.067.084-.092 1.692-1.262 3.102-3.068 3.321-5.22-1.284 1.222-3.015 1.978-4.922 1.978-3.942 0-7.15-3.207-7.15-7.15" transform="translate(14 15)"/>
            <path fill="#FFF" d="M13.84 0c-2.556 0-4.69 1.78-5.268 4.16-.1.411-.168.834-.168 1.275 0 2.997 2.44 5.436 5.436 5.436 1.356 0 2.584-.517 3.537-1.343 1.153-.997 1.898-2.453 1.898-4.093C19.275 2.438 16.836 0 13.84 0" transform="translate(14 15)"/>
            <path fill="#446687" d="M5.088 8.582c0 .411-.334.746-.747.746-.412 0-.746-.335-.746-.746 0-.413.334-.746.746-.746.413 0 .747.333.747.746" transform="translate(14 15)"/>
            <path stroke="#446687" stroke-linecap="round" stroke-linejoin="round" stroke-width="1.2" d="M16.296 6.97c-.455.578-1.16.948-1.95.948-1.372 0-2.484-1.112-2.484-2.482 0-1.372 1.112-2.483 2.483-2.483.826 0 1.556.403 2.007 1.022M11.328 4.695L13.764 4.695M11.328 6.176L13.764 6.176" transform="translate(14 15)"/>
        </g>
        <circle cx="24" cy="24" r="23" stroke="#446687" stroke-linejoin="bevel" stroke-width="2" opacity=".3"/>
    </g>
</svg>
