<svg xmlns="http://www.w3.org/2000/svg" width="49" height="48" viewBox="0 0 49 48">
    <g fill="none" fill-rule="evenodd" transform="translate(.5)">
        <g>
            <path fill="#B771B8" d="M20 40.003c-11.046 0-20-8.919-20-19.919C0 9.083 8.954.166 20 .166c11.047 0 20 8.917 20 19.918 0 11-8.953 19.919-20 19.919z" transform="translate(4 4)"/>
            <path fill="#FFF" d="M25.27 15.41c-.281-.275-.619-.572-.991-.778l.563-.612c.38-.415.777-.815 1.143-1.243.31-.363.639-.767.574-1.277-.1-.773-.996-.602-1.521-.448-.422.124-.89.172-1.26-.109-.325-.248-.5-.642-.858-.86-.3-.181-.7-.16-.987.04-.304.212-.419.591-.647.87-.111.133-.246.25-.4.336-.233.13-.465.172-.72.083-.231-.08-.431-.234-.584-.42-.229-.278-.343-.657-.648-.868-.286-.2-.687-.222-.987-.04-.357.217-.532.611-.858.86-.369.28-.838.232-1.26.108-.526-.154-1.421-.325-1.52.448-.064.51.264.914.573 1.277.366.428.763.828 1.143 1.243l.564.612c-.373.206-.71.503-.992.777-1.895 1.84-3.754 4.192-3.586 6.979.111 1.827.83 3.7 2.25 4.939 1.522 1.323 4.146 1.743 6.139 1.794v.004l.034-.002c.01 0 .023 0 .033.002v-.004c1.994-.05 4.618-.47 6.139-1.794 1.42-1.239 2.14-3.112 2.25-4.94.167-2.786-1.69-5.138-3.585-6.978" transform="translate(4 4)"/>
            <path fill="#B771B8" d="M25.347 18.928l-3.557.578c-.277.046-.403.372-.224.588l.691.843-1.47 1.174-1.8-1.81c-.265-.265-.686-.286-.974-.05l-3.746 3.052c-.31.252-.356.707-.101 1.015.143.176.35.266.56.266.163 0 .324-.054.46-.163l3.235-2.636 1.79 1.8c.154.154.357.218.557.206.075-.002.15-.016.222-.042.01-.003.02-.011.03-.017.061-.025.12-.052.174-.094l1.98-1.582.674.818c.177.217.523.16.623-.101l1.276-3.358c.1-.262-.123-.533-.4-.487" transform="translate(4 4)"/>
            <path fill="#B771B8" d="M20 40.003c-11.046 0-20-8.919-20-19.919C0 9.083 8.954.166 20 .166c11.047 0 20 8.917 20 19.918 0 11-8.953 19.919-20 19.919z" transform="translate(4 4)"/>
            <path fill="#FFF" d="M25.27 15.41c-.281-.275-.619-.572-.991-.778l.563-.612c.38-.415.777-.815 1.143-1.243.31-.363.639-.767.574-1.277-.1-.773-.996-.602-1.521-.448-.422.124-.89.172-1.26-.109-.325-.248-.5-.642-.858-.86-.3-.181-.7-.16-.987.04-.304.212-.419.591-.647.87-.111.133-.246.25-.4.336-.233.13-.465.172-.72.083-.231-.08-.431-.234-.584-.42-.229-.278-.343-.657-.648-.868-.286-.2-.687-.222-.987-.04-.357.217-.532.611-.858.86-.369.28-.838.232-1.26.108-.526-.154-1.421-.325-1.52.448-.064.51.264.914.573 1.277.366.428.763.828 1.143 1.243l.564.612c-.373.206-.71.503-.992.777-1.895 1.84-3.754 4.192-3.586 6.979.111 1.827.83 3.7 2.25 4.939 1.522 1.323 4.146 1.743 6.139 1.794v.004l.034-.002c.01 0 .023 0 .033.002v-.004c1.994-.05 4.618-.47 6.139-1.794 1.42-1.239 2.14-3.112 2.25-4.94.167-2.786-1.69-5.138-3.585-6.978" transform="translate(4 4)"/>
            <path fill="#B771B8" d="M25.347 18.928l-3.557.578c-.277.046-.403.372-.224.588l.691.843-1.47 1.174-1.8-1.81c-.265-.265-.686-.286-.974-.05l-3.746 3.052c-.31.252-.356.707-.101 1.015.143.176.35.266.56.266.163 0 .324-.054.46-.163l3.235-2.636 1.79 1.8c.154.154.357.218.557.206.075-.002.15-.016.222-.042.01-.003.02-.011.03-.017.061-.025.12-.052.174-.094l1.98-1.582.674.818c.177.217.523.16.623-.101l1.276-3.358c.1-.262-.123-.533-.4-.487" transform="translate(4 4)"/>
        </g>
        <circle cx="24" cy="24" r="23" stroke="#B771B8" stroke-linejoin="bevel" stroke-width="2" opacity=".3"/>
    </g>
</svg>
