<svg xmlns="http://www.w3.org/2000/svg" width="48" height="48" viewBox="0 0 48 48">
    <g fill="none" fill-rule="evenodd" transform="translate(-472 -1150)">
        <path fill="#C38B47" d="M496 1194c-11.046 0-20-8.954-20-20s8.954-20 20-20 20 8.954 20 20-8.954 20-20 20z"/>
        <path fill="#FFF" d="M506 1173.487l-8.511 9.513 2.834-9.513H506zm-15.403 0l2.837 9.425-8.434-9.425h5.597zm7.331 0l-2.455 8.24-2.48-8.24h4.935zm.824-7.487c1.716 0 2.335.008 2.555.014l4.693 5.245h-5.68zm-6.523.014l-1.621 5.245h-5.606l4.684-5.235 2.543-.01zm4.13-.012l1.566 5.256h-4.914l1.623-5.252 1.724-.004z"/>
        <path fill="#FFF" d="M490.537 1166.01L486 1171 491.43 1171 493 1166zM494.652 1165.004L493 1170 498 1170 496.406 1165zM486 1173L494 1183 491.309 1173zM495.513 1181L498 1173 493 1173zM500.664 1173L498 1183 506 1173zM500.514 1170H506l-4.532-4.987c-.212-.006-.81-.013-2.468-.013l1.514 5z"/>
        <circle cx="496" cy="1174" r="23" stroke="#F0E4D4" stroke-width="2"/>
    </g>
</svg>
