<svg xmlns="http://www.w3.org/2000/svg" xmlns:xlink="http://www.w3.org/1999/xlink" width="54" height="54" viewBox="0 0 54 54">
    <defs>
        <filter id="prefix__a" width="128.8%" height="124.4%" x="-10.3%" y="-10.3%" filterUnits="objectBoundingBox">
            <feMorphology in="SourceAlpha" operator="dilate" radius="1" result="shadowSpreadOuter1"/>
            <feOffset dx="1.2" dy=".5" in="shadowSpreadOuter1" result="shadowOffsetOuter1"/>
            <feGaussianBlur in="shadowOffsetOuter1" result="shadowBlurOuter1" stdDeviation=".05"/>
            <feComposite in="shadowBlurOuter1" in2="SourceAlpha" operator="out" result="shadowBlurOuter1"/>
            <feColorMatrix in="shadowBlurOuter1" values="0 0 0 0 0.660750679 0 0 0 0 0.446941269 0 0 0 0 0.138105454 0 0 0 0.377786276 0"/>
        </filter>
        <filter id="prefix__c" width="158.6%" height="172.9%" x="-16.7%" y="-27.6%" filterUnits="objectBoundingBox">
            <feMorphology in="SourceAlpha" operator="dilate" radius="1" result="shadowSpreadOuter1"/>
            <feOffset dx="1.2" dy=".5" in="shadowSpreadOuter1" result="shadowOffsetOuter1"/>
            <feMorphology in="SourceAlpha" radius="1" result="shadowInner"/>
            <feOffset dx="1.2" dy=".5" in="shadowInner" result="shadowInner"/>
            <feComposite in="shadowOffsetOuter1" in2="shadowInner" operator="out" result="shadowOffsetOuter1"/>
            <feGaussianBlur in="shadowOffsetOuter1" result="shadowBlurOuter1" stdDeviation=".05"/>
            <feColorMatrix in="shadowBlurOuter1" values="0 0 0 0 0.660750679 0 0 0 0 0.446941269 0 0 0 0 0.138105454 0 0 0 0.377786276 0"/>
        </filter>
        <circle id="prefix__b" cx="8" cy="8" r="8"/>
        <path id="prefix__d" d="M4 8L7.2 11 12 5"/>
    </defs>
    <g fill="none" fill-rule="evenodd" transform="translate(-239 -1212)">
        <g>
            <path fill="#C38B47" d="M20 40C8.955 40 0 31.046 0 20S8.955 0 20 0c11.046 0 20 8.954 20 20s-8.954 20-20 20z" transform="translate(243 1218)"/>
            <path fill="#FFF" d="M10.468 22.199l1.271.3c1.368.318 2.737.634 4.106.951l3.148.73c.715.166 1.48.32 2.143.661.408.21.853.81.57 1.273-.202.327-.675.339-1.007.372-.416.044-.835.02-1.246-.04-.861-.127-1.687-.412-2.51-.68l-.709-.23c-.447-.144-.923.105-1.065.552-.141.447.107.924.554 1.066l.686.224c1.194.396 2.505.828 3.855.828.494 0 .992-.056 1.493-.196 1.032-.286 1.925-.912 2.98-1.142.67-.144 1.446-.295 2.172-.193.46.062.938.204 1.316.484.204.152.65.595.2.78l-3.136 1.29c-.14.055-.28.11-.417.17l-3.936 1.62c-.647.265-1.373.271-2.024.017l-.416-.162c-.002.003-2.043-.8-2.043-.8l-2.311-.901c-.031-.014-.061-.031-.092-.044-1.134-.489-2.274-.963-3.418-1.417-.053-.02-.11-.03-.164-.03V22.2zM20 8c3.865 0 7 3.133 7 7 0 3.865-3.135 6.999-7 6.999S13 18.865 13 15c0-3.867 3.135-7 7-7zm-.094 2.746c-.458 0-.826.36-.856.81-.419.128-.784.34-1.058.664-.598.71-.667 1.727-.173 2.475.54.809 1.418 1.014 2.062 1.164.118.027.235.054.347.086.546.149.543.284.543.333-.001.094-.055.189-.156.279-.173.153-.434.243-.714.21-.122-.013-.345-.034-.534-.144-.091-.053-.16-.117-.214-.202-.257-.406-.797-.523-1.2-.267-.405.258-.524.794-.265 1.199.202.32.472.58.805.772.173.101.342.166.505.22v.04c0 .48.39.868.869.868.472 0 .852-.378.864-.848.377-.107.737-.286 1.03-.543.476-.418.74-.972.747-1.566.007-.57-.223-1.59-1.82-2.028-.133-.035-.272-.07-.413-.102-.53-.123-.862-.215-1.007-.434-.067-.098-.042-.277.05-.39.14-.165.413-.178.566-.18.393.01.51.161.553.22.291.38.835.457 1.218.162.38-.29.455-.836.163-1.217-.204-.267-.547-.562-1.05-.74-.014-.467-.392-.841-.862-.841z" transform="translate(243 1218)"/>
        </g>
        <circle cx="263" cy="1238" r="23" stroke="#F0E4D4" stroke-width="2"/>
        <g fill-rule="nonzero" transform="translate(274 1247)">
            <use fill="#000" filter="url(#prefix__a)" xlink:href="#prefix__b"/>
            <use fill="#FFF" stroke="#F0E4D4" stroke-width="2" xlink:href="#prefix__b"/>
            <g>
                <use fill="#000" filter="url(#prefix__c)" xlink:href="#prefix__d"/>
                <use stroke="#D2AF80" stroke-width="2" xlink:href="#prefix__d"/>
            </g>
        </g>
    </g>
</svg>
