<svg xmlns="http://www.w3.org/2000/svg" width="48" height="48" viewBox="0 0 48 48">
    <g fill="none" fill-rule="evenodd" transform="translate(-121 -1151)">
        <circle cx="145" cy="1175" r="23" stroke="#F0E4D4" stroke-width="2"/>
        <g>
            <path fill="#C38B47" d="M20 39C8.955 39 0 30.046 0 19S8.955-1 20-1c11.046 0 20 8.954 20 20s-8.954 20-20 20z" transform="translate(125 1156)"/>
            <path fill="#FFF" d="M20.133 8l9.174 6.723v13.09l-4.106-.001v-7.52c0-1.045-.847-1.893-1.893-1.893h-6.31c-1.046 0-1.894.848-1.894 1.894v7.519H11V14.675L20.108 8h.025zM23.2 20.398v7.414h-6.099l.001-7.414h6.098z" transform="translate(125 1156)"/>
        </g>
    </g>
</svg>
