<svg xmlns="http://www.w3.org/2000/svg" width="52" height="52" viewBox="0 0 52 52">
    <g fill="none" fill-rule="evenodd" transform="translate(-121 -541)">
        <g transform="translate(121 541)">
            <path fill="#C38B47" d="M46 26c0 11.045-8.955 20-20 20-11.046 0-20-8.955-20-20S14.954 6 26 6c11.045 0 20 8.955 20 20"/>
            <ellipse cx="23.924" cy="18.921" stroke="#FFF" stroke-width="1.5" rx="1.583" ry="2.25" transform="rotate(-45 23.924 18.921)"/>
            <ellipse cx="28.128" cy="18.921" stroke="#FFF" stroke-width="1.5" rx="1.583" ry="2.25" transform="scale(-1 1) rotate(-45 0 86.829)"/>
            <rect width="14.963" height="13.894" x="18.521" y="20.012" fill="#FFF" rx=".5"/>
            <rect width="17.1" height="3" x="17.45" y="19.9" fill="#FFF" rx=".5"/>
            <path fill="#C38B47" d="M24.398 22.906H27.604V33.906H24.398z"/>
            <path fill="#C38B47" d="M46 26c0 11.045-8.955 20-20 20-11.046 0-20-8.955-20-20S14.954 6 26 6c11.045 0 20 8.955 20 20"/>
            <g transform="translate(17 14.5)">
                <g stroke="#FFF" stroke-width="1.5" transform="translate(2.704 .572)">
                    <ellipse cx="4.22" cy="3.849" rx="1.583" ry="2.25" transform="rotate(-45 4.22 3.849)"/>
                    <ellipse cx="8.424" cy="3.849" rx="1.583" ry="2.25" transform="scale(-1 1) rotate(-45 0 24.186)"/>
                </g>
                <rect width="14.963" height="13.894" x="1.521" y="5.513" fill="#FFF" rx=".5"/>
                <rect width="17.1" height="3" x=".45" y="5.4" fill="#FFF" rx=".5"/>
                <path fill="#C38B47" d="M7.398 8.406H10.604V19.406H7.398z"/>
            </g>
        </g>
        <path fill="#C38B47" d="M167 567c0 11.045-8.955 20-20 20-11.046 0-20-8.955-20-20s8.954-20 20-20c11.045 0 20 8.955 20 20"/>
        <ellipse cx="144.924" cy="559.921" stroke="#FFF" stroke-width="1.5" rx="1.583" ry="2.25" transform="rotate(-45 144.924 559.921)"/>
        <ellipse cx="149.128" cy="559.921" stroke="#FFF" stroke-width="1.5" rx="1.583" ry="2.25" transform="scale(-1 1) rotate(-45 0 919.949)"/>
        <rect width="15" height="14" x="140" y="561" fill="#FFF" rx=".5"/>
        <rect width="17" height="3" x="139" y="561" fill="#FFF" rx=".5"/>
        <path fill="#C38B47" d="M167 567c0 11.045-8.955 20-20 20-11.046 0-20-8.955-20-20s8.954-20 20-20c11.045 0 20 8.955 20 20"/>
        <g transform="translate(138 555)">
            <g stroke="#FFF" stroke-width="1.5" transform="translate(2.704 .572)">
                <ellipse cx="4.22" cy="3.849" rx="1.583" ry="2.25" transform="rotate(-45 4.22 3.849)"/>
                <ellipse cx="8.424" cy="3.849" rx="1.583" ry="2.25" transform="scale(-1 1) rotate(-45 0 24.186)"/>
            </g>
            <rect width="14.963" height="13.894" x="1.521" y="5.513" fill="#FFF" rx=".5"/>
            <rect width="17.1" height="3" x=".45" y="5.4" fill="#FFF" rx=".5"/>
            <path fill="#C38B47" d="M7.398 8.406H10.604V19.406H7.398z"/>
        </g>
    </g>
</svg>
