<svg xmlns="http://www.w3.org/2000/svg" width="52" height="52" viewBox="0 0 52 52">
    <g fill="none" fill-rule="evenodd" transform="translate(-121 -604)">
        <ellipse cx="144.924" cy="622.921" stroke="#FFF" stroke-width="1.5" rx="1.583" ry="2.25" transform="rotate(-45 144.924 622.921)"/>
        <ellipse cx="149.128" cy="622.921" stroke="#FFF" stroke-width="1.5" rx="1.583" ry="2.25" transform="scale(-1 1) rotate(-45 0 982.949)"/>
        <rect width="15" height="14" x="140" y="624" fill="#FFF" rx=".5"/>
        <rect width="17" height="3" x="139" y="624" fill="#FFF" rx=".5"/>
        <path fill="#B5B4B4" d="M167 630c0 11.045-8.955 20-20 20-11.046 0-20-8.955-20-20s8.954-20 20-20c11.045 0 20 8.955 20 20"/>
        <g transform="translate(138 618)">
            <g stroke="#FFF" stroke-width="1.5" transform="translate(2.704 .572)">
                <ellipse cx="4.22" cy="3.849" rx="1.583" ry="2.25" transform="rotate(-45 4.22 3.849)"/>
                <ellipse cx="8.424" cy="3.849" rx="1.583" ry="2.25" transform="scale(-1 1) rotate(-45 0 24.186)"/>
            </g>
            <rect width="14.963" height="13.894" x="1.521" y="5.513" fill="#FFF" rx=".5"/>
            <rect width="17.1" height="3" x=".45" y="5.4" fill="#FFF" rx=".5"/>
            <path fill="#B5B4B4" d="M7.398 8.406H10.604V19.406H7.398z"/>
        </g>
    </g>
</svg>
