<svg xmlns="http://www.w3.org/2000/svg" width="52" height="52" viewBox="0 0 52 52">
    <g fill="none" fill-rule="evenodd" transform="translate(-193 -604)">
        <path fill="#B5B4B4" d="M239 630c0 11.045-8.955 20-20 20-11.046 0-20-8.955-20-20s8.954-20 20-20c11.045 0 20 8.955 20 20"/>
        <rect width="2" height="12" x="206" y="624" fill="#FFF" fill-rule="nonzero" rx=".75"/>
        <path fill="#FFF" fill-rule="nonzero" d="M213 624c1.657 0 3 1.343 3 3v6c0 1.657-1.343 3-3 3s-3-1.343-3-3v-6c0-1.657 1.343-3 3-3zm0 1.8c-.615 0-1.123.463-1.192 1.06l-.008.14v6c0 .663.537 1.2 1.2 1.2.615 0 1.123-.463 1.192-1.06l.008-.14v-6c0-.663-.537-1.2-1.2-1.2zM220 624c1.657 0 3 1.343 3 3v6c0 1.657-1.343 3-3 3s-3-1.343-3-3v-6c0-1.657 1.343-3 3-3zm0 1.8c-.615 0-1.123.463-1.192 1.06l-.008.14v6c0 .663.537 1.2 1.2 1.2.615 0 1.123-.463 1.192-1.06l.008-.14v-6c0-.663-.537-1.2-1.2-1.2zM231.428 624.048l.292.196c.344.23.436.696.205 1.04l-.017.025-3.422 4.679 3.422 4.68c.244.334.171.803-.163 1.048l-.025.017-.292.196c-.334.224-.786.145-1.023-.18l-2.527-3.455v2.956c0 .414-.335.75-.75.75h-.378c-.414 0-.75-.336-.75-.75v-10.493c0-.415.336-.75.75-.75h.379c.414 0 .75.335.75.75l-.001 2.925 2.527-3.454c.237-.325.689-.404 1.023-.18z"/>
    </g>
</svg>
