<svg xmlns="http://www.w3.org/2000/svg" xmlns:xlink="http://www.w3.org/1999/xlink" width="52" height="52" viewBox="0 0 52 52">
    <defs>
        <path id="prefix__a" d="M0.759 0.632L7.98 0.632 7.98 6.041 0.759 6.041z"/>
    </defs>
    <g fill="none" fill-rule="evenodd">
        <path fill="#B5B4B4" d="M40 20c0 11.046-8.954 20-20 20C8.955 40 0 31.046 0 20S8.955 0 20 0c11.046 0 20 8.954 20 20" transform="translate(6 6)"/>
        <g>
            <path fill="#FFF" fill-rule="nonzero" d="M4.668 1.319L.002 6.703 5.587 6.703 7.202 1.308zM9.598 1.3L7.981 6.703 12.876 6.703 11.316 1.296zM0 8.995L8.403 18.689 5.576 8.995zM10.434 17.471L12.88 8.995 7.963 8.995zM15.266 8.995L12.442 18.78 20.921 8.995z" transform="translate(6 6) translate(9.5 10)"/>
            <g transform="translate(6 6) translate(9.5 10) translate(12.941 .662)">
                <mask id="prefix__b" fill="#fff">
                    <use xlink:href="#prefix__a"/>
                </mask>
                <path fill="#FFF" fill-rule="nonzero" d="M.759.632l1.562 5.41H7.98L3.304.645C3.086.64 2.468.632.76.632" mask="url(#prefix__b)"/>
            </g>
        </g>
    </g>
</svg>
