<svg xmlns="http://www.w3.org/2000/svg" xmlns:xlink="http://www.w3.org/1999/xlink" width="40" height="40" viewBox="0 0 40 40">
    <defs>
        <path id="prefix__a" d="M121 720L161 720 161 760 121 760z"/>
        <path id="prefix__b" d="M131.687 728.724l.232.008c2.055.13 3.285 1.952 3.285 1.952l.702.88.365-.006.366-.007-.132.402c-.287.942-.432 1.905-.432 2.88l.003.278c.148 5.47 4.631 9.877 10.118 9.877l.327-.006c2.823-.093 5.455-1.39 7.28-3.488l-.019.341c-.15 2.04-1.02 3.926-2.364 5.527l-.311.36c-.738.838-1.56 1.63-2.45 2.296l-.048.041c-.029.029-.055.06-.076.097l-1.524 2.458-.06.085c-.154.188-.386.301-.63.301h-2.123l-.104-.007c-.24-.031-.457-.17-.586-.38l-1.416-2.285-.055-.074c-.101-.113-.247-.18-.402-.18h-1.268l-.092.008c-.15.026-.284.114-.365.246l-1.415 2.286-.061.085c-.153.188-.384.301-.63.301h-2.122l-.104-.007c-.24-.031-.457-.17-.587-.38l-1.48-2.389-.051-.068c-.057-.063-.129-.11-.209-.141l-.295-.118c-2.515-1.074-3.97-3.492-4.403-4.308l-.053-.081c-.1-.125-.25-.193-.415-.193h-1.544l-.087-.007c-.257-.042-.452-.265-.452-.534v-4.578l.007-.087c.042-.257.264-.452.532-.452h1.332l.091-.008c.236-.042.412-.244.436-.49l.04-.313c.433-2.89 2.681-4.933 3.53-5.61l.066-.062c.139-.153.182-.375.101-.57l-1.273-3.112-.028-.087c-.073-.317.16-.632.497-.664.121-.01.24-.017.356-.017zM146.194 727l.248.004c4.113.129 7.426 3.451 7.554 7.58l.004.248-.008.352c-.044.931-.261 1.816-.603 2.636l-.134.304-.117.241c-1.247 2.462-3.736 4.184-6.65 4.293l-.294.005-.247-.004c-4.112-.128-7.424-3.45-7.553-7.578l-.003-.249.008-.36c.052-1.07.334-2.075.77-2.994 1.255-2.64 3.918-4.478 7.025-4.478zm.01 3.317c-.428 0-.772.347-.772.775v.087c-.476.121-.892.344-1.195.704-.602.72-.675 1.752-.174 2.51.551.832 1.441 1.04 2.157 1.207l.386.096c.737.203.734.427.733.548-.002.198-.128.35-.234.443-.2.18-.488.285-.79.285-.044 0-.087-.003-.132-.007-.623-.06-.946-.278-1.08-.737-.1-.336-.405-.557-.74-.557-.073 0-.146.01-.218.031-.41.12-.645.55-.524.962.154.53.587 1.377 1.768 1.715v.188c0 .43.346.775.772.775.428 0 .773-.346.773-.775v-.115c.436-.101.856-.303 1.193-.6.482-.427.751-.993.757-1.591.008-.703-.309-1.632-1.868-2.061-.145-.039-.294-.075-.445-.11-.628-.146-1.023-.258-1.221-.554-.117-.18-.088-.467.07-.654.205-.242.577-.26.764-.265.232.006.852.021.962.868.052.392.392.676.772.676.031 0 .064-.001.095-.006.423-.056.72-.445.666-.87-.112-.862-.63-1.772-1.702-2.092v-.1c0-.429-.346-.776-.772-.776z"/>
        <linearGradient id="prefix__c" x1="100%" x2="0%" y1="88.003%" y2="29.515%">
            <stop offset="0%" stop-color="#A16B28"/>
            <stop offset="100%" stop-color="#F2CB91"/>
        </linearGradient>
    </defs>
    <g fill="none" fill-rule="evenodd" transform="translate(-121 -720)">
        <use fill="url(#prefix__c)" xlink:href="#prefix__b"/>
    </g>
</svg>
