<svg xmlns="http://www.w3.org/2000/svg" xmlns:xlink="http://www.w3.org/1999/xlink" width="40" height="40" viewBox="0 0 40 40">
    <defs>
        <path id="prefix__a" d="M336 776L376 776 376 816 336 816z"/>
        <path id="prefix__b" d="M336 776L376 776 376 816 336 816z"/>
        <linearGradient id="prefix__c" x1="74.11%" x2="1.273%" y1="77.395%" y2="31.749%">
            <stop offset="0%" stop-color="#B3ADC7"/>
            <stop offset="100%" stop-color="#FFF"/>
        </linearGradient>
    </defs>
    <g fill="none" fill-rule="evenodd" transform="translate(-336 -776)">
        <path fill="url(#prefix__c)" d="M355.314 783l.306.004c6.409.159 11.589 5.292 11.97 11.74h-.003l-.002-.002-.225.008c-.82.054-1.581.405-2.168 1l-.153.165c-.292.338-.507.72-.646 1.124h-1.079l-.185.005c-1.78.098-3.198 1.6-3.198 3.431l.005.189c.096 1.806 1.575 3.245 3.378 3.245h1.08v.006l-.236.256c-2.237 2.355-5.366 3.829-8.844 3.829l-.304-.004c-6.662-.163-12.01-5.696-12.01-12.495 0-6.904 5.512-12.501 12.314-12.501zm12.27 14.007l.127.007c.252.027.496.138.69.335l2.261 2.297.098.114c.061.08.112.168.15.261l.039.11c.033.11.051.226.051.344l-.01.155c-.014.102-.041.202-.08.296l-.066.137c-.05.087-.112.168-.182.239l-2.262 2.295-.1.091c-.21.17-.464.253-.715.253l-.127-.007c-.253-.028-.496-.14-.69-.337l-.09-.102c-.36-.46-.33-1.13.09-1.555l.289-.292h-3.743l-.126-.007c-.578-.064-1.028-.563-1.028-1.166l.006-.128c.063-.588.553-1.044 1.148-1.044h3.744l-.29-.295-.09-.102c-.36-.46-.33-1.13.09-1.557.226-.23.52-.342.817-.342zm-12.404-8.782l-.126.007c-.58.063-1.029.561-1.029 1.165v.236l-.237.063c-.704.206-1.32.563-1.771 1.105l-.133.17c-.844 1.152-.914 2.72-.152 3.887l.153.216c.892 1.172 2.24 1.492 3.337 1.753l.333.081.326.083.179.053c1.02.318 1.119.683 1.126.917v.073l-.012.138c-.051.312-.25.55-.42.7-.351.317-.849.512-1.376.512l-.124-.004-.123-.012-.128-.013c-.648-.075-1.387-.293-1.708-1.125l-.052-.117c-.27-.523-.888-.766-1.444-.547l-.114.053c-.516.273-.757.901-.54 1.465l.056.137c.373.874 1.148 1.867 2.751 2.3v.408l.007.127c.063.588.553 1.045 1.148 1.045l.125-.007c.579-.064 1.03-.561 1.03-1.165v-.292l.245-.059c.648-.174 1.269-.496 1.772-.943l.16-.151c.672-.67 1.047-1.523 1.055-2.424v-.119c-.024-1.12-.585-2.54-3.001-3.21l-.368-.096-.378-.09-.239-.058c-.927-.227-1.525-.429-1.85-.928l-.06-.108c-.153-.342-.082-.818.185-1.136l.108-.113c.376-.346.93-.395 1.26-.377l.183.01c.819.072 1.128.474 1.29.78l.065.108c.331.486.976.648 1.501.365l.108-.066c.478-.335.642-.99.36-1.523l-.113-.196c-.506-.829-1.267-1.395-2.212-1.656v-.25l-.007-.128c-.062-.587-.551-1.044-1.146-1.044z"/>
    </g>
</svg>
