<svg xmlns="http://www.w3.org/2000/svg" xmlns:xlink="http://www.w3.org/1999/xlink" width="44" height="44" viewBox="0 0 44 44">
    <defs>
        <filter id="prefix__b" width="161.6%" height="170.7%" x="-26.4%" y="-25.3%" filterUnits="objectBoundingBox">
            <feOffset dx="1" dy="2" in="SourceAlpha" result="shadowOffsetOuter1"/>
            <feGaussianBlur in="shadowOffsetOuter1" result="shadowBlurOuter1" stdDeviation="2"/>
            <feColorMatrix in="shadowBlurOuter1" values="0 0 0 0 0.660750679 0 0 0 0 0.446941269 0 0 0 0 0.138105454 0 0 0 0.604867788 0"/>
        </filter>
        <filter id="prefix__d" width="209.5%" height="209.7%" x="-46.9%" y="-39.2%" filterUnits="objectBoundingBox">
            <feOffset dx="1" dy="2" in="SourceAlpha" result="shadowOffsetOuter1"/>
            <feGaussianBlur in="shadowOffsetOuter1" result="shadowBlurOuter1" stdDeviation="2"/>
            <feColorMatrix in="shadowBlurOuter1" values="0 0 0 0 0.660750679 0 0 0 0 0.446941269 0 0 0 0 0.138105454 0 0 0 0.604867788 0"/>
        </filter>
        <path id="prefix__c" d="M16.8 15.246c-4.57 0-8.274-3.704-8.274-8.273.001-.908.155-1.809.455-2.666h-.594l-.58-.72C7.08 2.568 5.898 1.973 4.647 1.996c-.141.015-.269.094-.345.215-.076.12-.093.269-.046.404L5.305 5.14c.074.18.017.388-.139.505-1.55 1.179-2.594 2.904-2.918 4.826-.019.224-.204.398-.43.404H.734c-.245 0-.443.198-.443.442v3.726c-.003.119.042.233.126.317.084.083.198.129.317.125h1.263c.158.003.302.09.379.228.808 1.602 2.148 2.874 3.79 3.6.086.037.16.098.214.177l1.2 1.983c.125.193.338.31.568.315h1.73c.232 0 .447-.119.57-.315l1.161-1.857c.072-.135.214-.218.367-.215h1.036c.155-.002.3.08.378.215l1.213 1.857c.118.194.328.314.556.315h1.73c.232 0 .447-.119.569-.315l1.263-2.009c.027-.04.061-.074.101-.1.835-.636 1.594-1.365 2.261-2.173 1.165-1.33 1.85-3.01 1.945-4.775-1.573 1.793-3.841 2.824-6.227 2.83z"/>
        <path id="prefix__e" d="M16.8.594c-3.17-.012-5.867 2.305-6.333 5.44-.467 3.135 1.44 6.137 4.476 7.048 3.036.911 6.28-.545 7.617-3.419.405-.84.617-1.759.619-2.69C23.172 3.453 20.32.6 16.8.593zm1.579 8.842c-.285.24-.622.41-.985.492v.089c0 .349-.283.631-.632.631-.349 0-.631-.282-.631-.631v-.152c-.697-.176-1.246-.71-1.44-1.402-.098-.335.094-.685.429-.783h.177c.28.004.524.188.606.455.114.379.366.556.884.606h.101c.235.002.463-.078.645-.227.112-.091.185-.223.202-.367 0-.088 0-.278-.607-.442l-.315-.126c-.697-.071-1.333-.428-1.756-.985-.409-.624-.368-1.441.1-2.021.256-.289.597-.488.974-.569v-.076c0-.348.282-.631.631-.631.349 0 .632.283.632.631v.089c.77.227 1.323.904 1.39 1.705.044.345-.199.662-.544.707h-.076c-.321.003-.593-.236-.631-.555-.003-.2-.09-.389-.238-.52-.15-.133-.347-.196-.546-.175-.23-.02-.46.058-.631.215-.114.158-.114.372 0 .53.164.24.48.329.998.442l.366.101c1.263.341 1.529 1.1 1.529 1.668-.018.503-.247.976-.632 1.3z"/>
        <linearGradient id="prefix__a" x1="100%" x2="0%" y1="94.074%" y2="26.242%">
            <stop offset="0%" stop-color="#A16B28"/>
            <stop offset="100%" stop-color="#F2CB91"/>
        </linearGradient>
    </defs>
    <g fill="none" fill-rule="evenodd">
        <path fill="url(#prefix__a)" d="M1014 935c-12.15 0-22-9.85-22-22s9.85-22 22-22 22 9.85 22 22-9.85 22-22 22z" transform="translate(-992 -891)"/>
        <g fill-rule="nonzero" transform="translate(-992 -891) translate(1002 902)">
            <use fill="#000" filter="url(#prefix__b)" xlink:href="#prefix__c"/>
            <use fill="#FFF" xlink:href="#prefix__c"/>
            <g>
                <use fill="#000" filter="url(#prefix__d)" xlink:href="#prefix__e"/>
                <use fill="#FFF" xlink:href="#prefix__e"/>
            </g>
        </g>
    </g>
</svg>
