<svg xmlns="http://www.w3.org/2000/svg" xmlns:xlink="http://www.w3.org/1999/xlink" width="44" height="44" viewBox="0 0 44 44">
    <defs>
        <filter id="prefix__b" width="160.9%" height="170%" x="-26.1%" y="-25%" filterUnits="objectBoundingBox">
            <feOffset dx="1" dy="2" in="SourceAlpha" result="shadowOffsetOuter1"/>
            <feGaussianBlur in="shadowOffsetOuter1" result="shadowBlurOuter1" stdDeviation="2"/>
            <feColorMatrix in="shadowBlurOuter1" values="0 0 0 0 0.445793705 0 0 0 0 0.442356889 0 0 0 0 0.4373926 0 0 0 0.604867788 0"/>
        </filter>
        <filter id="prefix__d" width="207.7%" height="207.7%" x="-46.2%" y="-38.5%" filterUnits="objectBoundingBox">
            <feOffset dx="1" dy="2" in="SourceAlpha" result="shadowOffsetOuter1"/>
            <feGaussianBlur in="shadowOffsetOuter1" result="shadowBlurOuter1" stdDeviation="2"/>
            <feColorMatrix in="shadowBlurOuter1" values="0 0 0 0 0.445793705 0 0 0 0 0.442356889 0 0 0 0 0.4373926 0 0 0 0.604867788 0"/>
        </filter>
        <path id="prefix__c" d="M1018.7 977.389c-4.622 0-8.369-3.743-8.369-8.36.001-.917.157-1.827.46-2.693h-.6l-.588-.727c-.734-1.03-1.93-1.632-3.195-1.608-.143.015-.272.095-.349.217-.077.122-.094.272-.047.408l1.06 2.553c.075.182.018.392-.14.51-1.569 1.19-2.624 2.934-2.951 4.876-.02.226-.207.402-.435.408h-1.099c-.247 0-.447.2-.447.447v3.765c-.003.12.043.235.127.32.085.084.2.13.32.126h1.278c.16.003.306.09.384.23.817 1.619 2.172 2.905 3.833 3.637.088.038.163.1.217.18l1.214 2.003c.127.195.342.314.575.319h1.75c.234 0 .452-.12.575-.32l1.176-1.875c.072-.137.216-.22.37-.217h1.048c.158-.003.305.08.384.217l1.226 1.876c.12.196.332.317.563.319h1.75c.234 0 .451-.12.575-.32l1.278-2.028c.027-.04.062-.075.102-.102.844-.642 1.612-1.378 2.287-2.196 1.178-1.343 1.871-3.041 1.968-4.824-1.592 1.812-3.886 2.853-6.3 2.859z"/>
        <path id="prefix__e" d="M1018.512 962c-3.223-.012-5.967 2.35-6.44 5.544-.475 3.194 1.464 6.253 4.552 7.18 3.087.929 6.387-.555 7.747-3.483.411-.855.627-1.792.629-2.741-.007-3.587-2.908-6.493-6.488-6.5zm1.606 9.01c-.29.244-.633.416-1.002.501v.09c0 .356-.287.644-.642.644-.355 0-.643-.288-.643-.644v-.154c-.708-.18-1.266-.724-1.464-1.429-.1-.34.096-.698.437-.798h.18c.284.004.533.192.616.464.116.386.373.566.9.617h.102c.24.003.471-.08.655-.231.115-.093.189-.227.206-.373 0-.09 0-.284-.617-.451l-.32-.129c-.71-.072-1.356-.435-1.786-1.004-.416-.635-.375-1.468.102-2.059.26-.294.607-.496.99-.579v-.077c0-.356.287-.644.642-.644.355 0 .642.288.642.644v.09c.784.231 1.346.921 1.413 1.737.046.352-.201.674-.552.721h-.077c-.327.003-.603-.241-.643-.566-.002-.203-.09-.396-.241-.53-.152-.135-.353-.2-.555-.178-.235-.02-.468.06-.642.219-.116.161-.116.379 0 .54.167.245.488.335 1.015.45l.372.104c1.285.347 1.555 1.12 1.555 1.699-.018.513-.251.994-.643 1.325z"/>
        <linearGradient id="prefix__a" x1="100%" x2="0%" y1="94.074%" y2="26.242%">
            <stop offset="0%" stop-color="#7D7D7D"/>
            <stop offset="100%" stop-color="#D8D3D3"/>
        </linearGradient>
    </defs>
    <g fill="none" fill-rule="evenodd">
        <path fill="url(#prefix__a)" d="M1014 995c-12.15 0-22-9.85-22-22s9.85-22 22-22 22 9.85 22 22-9.85 22-22 22z" transform="translate(-992 -951)"/>
        <g fill-rule="nonzero" transform="translate(-992 -951)">
            <use fill="#000" filter="url(#prefix__b)" xlink:href="#prefix__c"/>
            <use fill="#FFF" xlink:href="#prefix__c"/>
        </g>
        <g fill-rule="nonzero" transform="translate(-992 -951)">
            <use fill="#000" filter="url(#prefix__d)" xlink:href="#prefix__e"/>
            <use fill="#FFF" xlink:href="#prefix__e"/>
        </g>
    </g>
</svg>
