<svg xmlns="http://www.w3.org/2000/svg" xmlns:xlink="http://www.w3.org/1999/xlink" width="44" height="44" viewBox="0 0 44 44">
    <defs>
        <filter id="prefix__b" width="173.5%" height="173.5%" x="-31.5%" y="-26.2%" filterUnits="objectBoundingBox">
            <feOffset dx="1" dy="2" in="SourceAlpha" result="shadowOffsetOuter1"/>
            <feGaussianBlur in="shadowOffsetOuter1" result="shadowBlurOuter1" stdDeviation="2"/>
            <feColorMatrix in="shadowBlurOuter1" values="0 0 0 0 0.660750679 0 0 0 0 0.446941269 0 0 0 0 0.138105454 0 0 0 0.604867788 0"/>
        </filter>
        <filter id="prefix__d" width="304.1%" height="367.7%" x="-87.5%" y="-95.6%" filterUnits="objectBoundingBox">
            <feOffset dx="1" dy="2" in="SourceAlpha" result="shadowOffsetOuter1"/>
            <feGaussianBlur in="shadowOffsetOuter1" result="shadowBlurOuter1" stdDeviation="2"/>
            <feColorMatrix in="shadowBlurOuter1" values="0 0 0 0 0.660750679 0 0 0 0 0.446941269 0 0 0 0 0.138105454 0 0 0 0.604867788 0"/>
        </filter>
        <path id="prefix__c" d="M15.906 16.247c-.977.066-1.91-.418-2.418-1.255-.508-.837-.508-1.888 0-2.725.509-.837 1.44-1.32 2.418-1.255h.835c.126-.368.336-.703.612-.977.49-.49 1.154-.766 1.847-.764-.27-4.527-3.692-8.235-8.182-8.869C6.528-.23 2.214 2.387.703 6.662c-1.511 4.275.199 9.023 4.089 11.352 3.89 2.33 8.883 1.595 11.937-1.755h-.835l.012-.012zm-3.894-2.494c-.446.387-.985.651-1.565.765v.223c0 .494-.4.894-.894.894s-.894-.4-.894-.894v-.317c-.985-.215-1.798-.908-2.165-1.848-.185-.464.042-.99.506-1.176.223-.092.473-.09.695.005.221.095.395.276.481.5.254.554.817.898 1.424.871.454.06.912-.077 1.259-.376.192-.158.311-.387.33-.635 0-.189 0-.518-1.013-.8l-.505-.118c-1.062-.095-2.041-.612-2.718-1.435-.616-.966-.53-2.221.212-3.094.407-.457.952-.767 1.553-.883v-.247c0-.494.4-.894.894-.894s.894.4.894.894v.2c.772.196 1.426.709 1.8 1.412.151.282.14.623-.027.894-.169.272-.47.434-.789.424-.32-.01-.61-.19-.76-.47-.233-.423-.699-.66-1.177-.6-.39-.048-.78.086-1.059.364-.225.268-.262.646-.094.953.27.411.788.553 1.612.753l.576.14c1.941.53 2.353 1.671 2.353 2.53-.016.758-.354 1.472-.93 1.965z"/>
        <path id="prefix__e" d="M21.588 13l-1.753-1.753c-.348-.345-.91-.345-1.259 0-.17.168-.264.397-.264.635 0 .239.095.468.264.636l.224.223h-2.894c-.494 0-.894.4-.894.894s.4.894.894.894h2.918l-.224.224c-.294.355-.27.876.057 1.202.326.326.846.35 1.202.057l1.753-1.753c.08-.082.143-.178.188-.283.047-.107.071-.223.07-.34 0-.122-.024-.242-.07-.354-.052-.107-.124-.202-.212-.282z"/>
        <linearGradient id="prefix__a" x1="100%" x2="0%" y1="94.074%" y2="26.242%">
            <stop offset="0%" stop-color="#A16B28"/>
            <stop offset="100%" stop-color="#F2CB91"/>
        </linearGradient>
    </defs>
    <g fill="none" fill-rule="evenodd">
        <path fill="url(#prefix__a)" d="M1147 913c0 12.15-9.849 22-22 22-12.15 0-22-9.85-22-22s9.85-22 22-22c12.151 0 22 9.85 22 22" transform="translate(-1103 -891)"/>
        <g fill-rule="nonzero" transform="translate(-1103 -891) translate(1115 903)">
            <use fill="#000" filter="url(#prefix__b)" xlink:href="#prefix__c"/>
            <use fill="#FFF" xlink:href="#prefix__c"/>
            <g>
                <use fill="#000" filter="url(#prefix__d)" xlink:href="#prefix__e"/>
                <use fill="#FFF" xlink:href="#prefix__e"/>
            </g>
        </g>
    </g>
</svg>
