<svg xmlns="http://www.w3.org/2000/svg" xmlns:xlink="http://www.w3.org/1999/xlink" width="44" height="44" viewBox="0 0 44 44">
    <defs>
        <linearGradient id="prefix__a" x1="100%" x2="0%" y1="94.074%" y2="26.242%">
            <stop offset="0%" stop-color="#A16B28"/>
            <stop offset="100%" stop-color="#F2CB91"/>
        </linearGradient>
        <filter id="prefix__b" width="162.6%" height="193.7%" x="-26.8%" y="-33.5%" filterUnits="objectBoundingBox">
            <feOffset dx="1" dy="2" in="SourceAlpha" result="shadowOffsetOuter1"/>
            <feGaussianBlur in="shadowOffsetOuter1" result="shadowBlurOuter1" stdDeviation="2"/>
            <feColorMatrix in="shadowBlurOuter1" values="0 0 0 0 0.660750679 0 0 0 0 0.446941269 0 0 0 0 0.138105454 0 0 0 0.604867788 0"/>
        </filter>
        <path id="prefix__c" d="M33.35 17.454V15.74c0-.464-.185-.908-.514-1.235-.33-.327-.775-.508-1.239-.505H12.74c-.96 0-1.74.78-1.74 1.74v11.45c-.003.464.178.91.505 1.239.327.329.771.514 1.235.514h18.857c.465 0 .911-.185 1.24-.514.328-.328.513-.774.513-1.239v-9.736zm-5.399 4.363c-.295.392-.722.665-1.202.767-.768.1-1.542.148-2.316.141h-.281c-.062.054-.117.114-.167.18l-3.07 3.837c-.116.156-.27.28-.448.358h-.499c-.345 0-.537-.127-.563-.307.002-.144.028-.286.077-.422 0 0 1.177-3.607 1.177-3.62H18.689c-.066.053-.126.113-.18.179l-1.087 1.28s-.281.319-.46.345c-.094.012-.188.012-.282 0 0 0-.37 0-.41-.32-.006-.144.016-.287.065-.422.243-.87.588-2.163.614-2.354.026-.192-.371-1.484-.614-2.354-.09-.32-.077-.538 0-.627.082-.062.18-.102.281-.115.147-.041.302-.041.448 0 .111.084.21.183.294.294l1.088 1.28c.058.073.127.138.204.191h1.945l-1.177-3.62c-.166-.512 0-.614.077-.64.156-.04.32-.035.473.013h.09c.19-.017.383.009.563.076.104.092.202.19.294.295l3.07 3.838.192.204h.256c.774-.006 1.548.04 2.316.141.478.108.903.38 1.202.768.113.189.113.425 0 .614z"/>
    </defs>
    <g fill="none" fill-rule="evenodd">
        <path fill="url(#prefix__a)" d="M44 22c0 12.15-9.849 22-22 22C9.85 44 0 34.15 0 22 0 9.852 9.85 0 22 0c12.151 0 22 9.851 22 22"/>
        <g fill-rule="nonzero">
            <use fill="#000" filter="url(#prefix__b)" xlink:href="#prefix__c"/>
            <use fill="#FFF" xlink:href="#prefix__c"/>
        </g>
    </g>
</svg>
