<svg xmlns="http://www.w3.org/2000/svg" width="48" height="48" viewBox="0 0 48 48">
    <g fill="none" fill-rule="evenodd">
        <path fill="#C38B47" d="M24 44C12.954 44 4 35.046 4 24S12.954 4 24 4s20 8.954 20 20-8.954 20-20 20z"/>
        <circle cx="24" cy="24" r="23" stroke="#F0E4D4" stroke-width="2"/>
        <g transform="translate(15 13)">
            <g stroke="#FFF" stroke-width="1.5" transform="translate(2.704 .572)">
                <ellipse cx="4.22" cy="3.849" rx="1.583" ry="2.25" transform="rotate(-45 4.22 3.849)"/>
                <ellipse cx="8.424" cy="3.849" rx="1.583" ry="2.25" transform="scale(-1 1) rotate(-45 0 24.186)"/>
            </g>
            <rect width="14.963" height="13.894" x="1.521" y="5.513" fill="#FFF" rx=".5"/>
            <rect width="17.1" height="3" x=".45" y="5.4" fill="#FFF" rx=".5"/>
            <path fill="#C38B47" d="M7.398 8.406H10.604V19.406H7.398z"/>
        </g>
    </g>
</svg>
