<svg xmlns="http://www.w3.org/2000/svg" xmlns:xlink="http://www.w3.org/1999/xlink" width="40" height="40" viewBox="0 0 40 40">
    <defs>
        <filter id="o1il5rbpeb" width="155.2%" height="214.3%" x="-22.1%" y="-45.7%" filterUnits="objectBoundingBox">
            <feOffset dx="1" dy="1" in="SourceAlpha" result="shadowOffsetOuter1"/>
            <feGaussianBlur in="shadowOffsetOuter1" result="shadowBlurOuter1" stdDeviation="1.5"/>
            <feColorMatrix in="shadowBlurOuter1" values="0 0 0 0 0.660750679 0 0 0 0 0.446941269 0 0 0 0 0.138105454 0 0 0 0.604867788 0"/>
        </filter>
        <filter id="6x23c0q5nd" width="172.7%" height="172.7%" x="-29.1%" y="-29.1%" filterUnits="objectBoundingBox">
            <feOffset dx="1" dy="1" in="SourceAlpha" result="shadowOffsetOuter1"/>
            <feGaussianBlur in="shadowOffsetOuter1" result="shadowBlurOuter1" stdDeviation="1.5"/>
            <feColorMatrix in="shadowBlurOuter1" values="0 0 0 0 0.660750679 0 0 0 0 0.446941269 0 0 0 0 0.138105454 0 0 0 0.604867788 0"/>
        </filter>
        <path id="zwdacci8cc" d="M28.982 27.31c-.378-.272-.854-.41-1.314-.47-.726-.098-1.5.048-2.17.188-1.053.223-1.945.83-2.975 1.107-.5.136-.998.19-1.491.19-1.348 0-2.657-.419-3.85-.803l-.684-.217c-.447-.138-.695-.6-.554-1.034.142-.433.617-.674 1.064-.535l.707.222c.823.26 1.647.537 2.507.66.41.059.83.082 1.244.04.331-.033.804-.044 1.005-.362.284-.449-.16-1.03-.568-1.234-.662-.33-1.426-.48-2.14-.64l-3.144-.708-4.1-.922-1.269-.292v5.318c.054 0 .11.008.164.028 1.142.44 2.28.9 3.413 1.374.03.013.06.029.091.043l2.308.874s2.038.779 2.04.775l.416.158c.65.246 1.374.24 2.021-.018l3.93-1.57c.138-.058.277-.112.416-.165 0 0 3.108-1.242 3.131-1.25.451-.18.005-.61-.198-.757"/>
        <path id="9yjztfchle" d="M20 8.75c3.796 0 6.875 3.078 6.875 6.876 0 3.796-3.079 6.874-6.875 6.874s-6.875-3.078-6.875-6.874c0-3.798 3.079-6.876 6.875-6.876zm-.093 2.5c-.457 0-.823.37-.853.834-.418.131-.782.35-1.055.683-.596.73-.665 1.775-.172 2.545.537.832 1.413 1.043 2.055 1.197.117.028.234.056.346.088.544.153.541.293.541.343-.001.096-.055.194-.156.287-.172.157-.432.25-.711.216-.121-.013-.344-.035-.532-.148-.091-.055-.159-.12-.214-.208-.256-.417-.794-.538-1.195-.275-.404.266-.523.818-.265 1.234.202.329.47.596.802.794.173.104.341.17.504.226v.041c0 .493.388.893.866.893.47 0 .849-.39.86-.872.376-.11.735-.294 1.028-.559.473-.43.737-1 .744-1.61.006-.586-.223-1.637-1.814-2.086-.133-.037-.27-.071-.411-.105-.528-.126-.86-.221-1.004-.447-.066-.1-.042-.285.05-.4.14-.17.411-.184.564-.187.391.011.508.167.551.227.29.392.832.47 1.213.167.38-.298.454-.86.163-1.251-.203-.275-.545-.579-1.046-.763-.014-.479-.391-.864-.86-.864z"/>
        <linearGradient id="324ugrlqda" x1="100%" x2="0%" y1="94.074%" y2="26.242%">
            <stop offset="0%" stop-color="#A16B28"/>
            <stop offset="100%" stop-color="#F2CB91"/>
        </linearGradient>
    </defs>
    <g fill="none" fill-rule="evenodd">
        <path fill="url(#324ugrlqda)" d="M40 20c0 11.046-8.954 20-20 20C8.955 40 0 31.046 0 20S8.955 0 20 0c11.046 0 20 8.954 20 20"/>
        <g fill-rule="nonzero">
            <use fill="#000" filter="url(#o1il5rbpeb)" xlink:href="#zwdacci8cc"/>
            <use fill="#FFF" xlink:href="#zwdacci8cc"/>
        </g>
        <g fill-rule="nonzero">
            <use fill="#000" filter="url(#6x23c0q5nd)" xlink:href="#9yjztfchle"/>
            <use fill="#FFF" xlink:href="#9yjztfchle"/>
        </g>
    </g>
</svg>
