<svg xmlns="http://www.w3.org/2000/svg" width="24" height="24" viewBox="0 0 24 24">
    <g fill="none" fill-rule="evenodd" stroke-linecap="round" stroke-linejoin="round" stroke-width="1.5">
        <path stroke="#1E1E1E" d="M19.848 7.645c-.026-.036-.643-.885-1.736-1.109-.988-.203-3.245-.214-3.34-.215-.156 0-.3-.01-.367-.02-.065-.053-.198-.184-.285-.292L9.69.54C9.597.421 9.401.2 9.277.113c-.211-.146-.755-.11-.817-.106l-.12.01c-.164.01-.46.043-.602.127-.085.049-.339.199-.103.923l1.693 5.229-2.426.002c-.16 0-.306-.012-.373-.02-.067-.051-.206-.18-.297-.287L4.671 4.154c-.012-.013-.271-.318-.435-.417-.221-.134-.644-.066-.647-.066-.12.024-.29.08-.4.157-.193.14-.225.446-.096.91.35 1.256.85 3.121.888 3.406-.038.286-.538 2.15-.888 3.407-.028.098-.115.433-.088.606.055.357.561.456.584.459.126.024.297.032.408.018.263-.031.608-.423.674-.5l1.561-1.838c.101-.118.204-.221.254-.267.083-.017.272-.038.416-.038l2.426.001-1.693 5.23c-.051.156-.133.441-.111.603.036.26.311.41.815.448l.121.009c.078.005.19.011.302.011.11 0 .22-.006.293-.021.252-.055.598-.475.637-.523l4.428-5.47c.098-.12.196-.225.245-.273.082-.017.268-.04.406-.04.096 0 2.353-.011 3.342-.214 1.092-.224 1.71-1.072 1.735-1.108.203-.285.203-.715 0-.999z" transform="translate(1 4)"/>
        <path stroke="#C19438" stroke-dasharray="2 3" d="M1 8.5L0 8.5" transform="translate(1 4)"/>
    </g>
</svg>
