<?xml version="1.0" encoding="UTF-8"?>
<svg width="55px" height="51px" viewBox="0 0 55 51" version="1.1" xmlns="http://www.w3.org/2000/svg" xmlns:xlink="http://www.w3.org/1999/xlink">
    <title>icon/60x60/star</title>
    <defs>
        <linearGradient x1="100%" y1="94.0742431%" x2="0%" y2="26.24216%" id="linearGradient-1">
            <stop stop-color="#A16B28" offset="0%"></stop>
            <stop stop-color="#F2CB91" offset="100%"></stop>
        </linearGradient>
    </defs>
    <g id="Symbols" stroke="none" stroke-width="1" fill="none" fill-rule="evenodd">
        <g id="icon/badge/cell" transform="translate(-129.000000, -1297.000000)" fill="url(#linearGradient-1)">
            <g id="icon/60x60/star" transform="translate(127.000000, 1294.000000)">
                <g id="Group">
                    <path d="M7.21503587,39 C7.21503587,42.0381307 5.47325871,43.8946152 2,43.8946152 C5.44297746,43.8946152 7.21503587,46.3783439 7.21503587,49 C7.21503587,46.4392588 8.72205532,43.8946152 12,43.8946152 C8.80018093,43.8946152 7.21503587,42.0904541 7.21503587,39 Z" id="Path-6-Copy"></path>
                    <path d="M53.1720287,46 C53.1720287,48.4305045 51.778607,49.9156922 49,49.9156922 C51.754382,49.9156922 53.1720287,51.9026752 53.1720287,54 C53.1720287,51.9514071 54.3776443,49.9156922 57,49.9156922 C54.4401447,49.9156922 53.1720287,48.4723633 53.1720287,46 Z" id="Path-6-Copy-3"></path>
                    <path d="M47.2150359,3 C47.2150359,6.03813066 45.4732587,7.89461524 42,7.89461524 C45.4429775,7.89461524 47.2150359,10.3783439 47.2150359,13 C47.2150359,10.4392588 48.7220553,7.89461524 52,7.89461524 C48.8001809,7.89461524 47.2150359,6.09045411 47.2150359,3 Z" id="Path-6-Copy-2"></path>
                </g>
            </g>
        </g>
    </g>
</svg>