<svg xmlns="http://www.w3.org/2000/svg" width="60" height="60" viewBox="0 0 60 60">
    <defs>
        <linearGradient id="prefix__a" x1="100%" x2="0%" y1="94.074%" y2="26.242%">
            <stop offset="0%" stop-color="#A16B28"/>
            <stop offset="100%" stop-color="#F2CB91"/>
        </linearGradient>
    </defs>
    <g fill="none" fill-rule="evenodd">
        <g fill="url(#prefix__a)" transform="translate(2 3)">
            <path d="M5.215 36c0 3.038-1.742 4.895-5.215 4.895 3.443 0 5.215 2.483 5.215 5.105 0-2.56 1.507-5.105 4.785-5.105-3.2 0-4.785-1.805-4.785-4.895zM51.172 43c0 2.43-1.393 3.916-4.172 3.916 2.754 0 4.172 1.987 4.172 4.084 0-2.049 1.206-4.084 3.828-4.084-2.56 0-3.828-1.444-3.828-3.916zM45.215 0c0 3.038-1.742 4.895-5.215 4.895 3.443 0 5.215 2.483 5.215 5.105 0-2.56 1.507-5.105 4.785-5.105-3.2 0-4.785-1.805-4.785-4.895z"/>
        </g>
    </g>
</svg>
