<svg xmlns="http://www.w3.org/2000/svg" width="24" height="24" viewBox="0 0 24 24">
    <g fill="none" fill-rule="evenodd">
        <path fill="#C19438" d="M14.63 2.768c.525 0 .95.423.95.947 0 .522-.425.947-.95.947-.525 0-.95-.425-.95-.947 0-.524.425-.947.95-.947M14.63 6.61c.525 0 .95.422.95.946 0 .522-.425.947-.95.947-.525 0-.95-.425-.95-.947 0-.524.425-.947.95-.947M12.703 4.688c.525 0 .95.424.95.947 0 .523-.425.948-.95.948-.525 0-.95-.425-.95-.948 0-.523.425-.947.95-.947M16.557 4.688c.524 0 .95.424.95.947 0 .523-.426.948-.95.948-.525 0-.95-.425-.95-.948 0-.523.425-.947.95-.947" transform="translate(2 5)"/>
        <path stroke="#1E1E1E" stroke-linecap="round" stroke-linejoin="round" stroke-width="1.5" d="M10.236 1.528c-.97-.103-1.927-.303-2.866-.563C6.475.715 5.554.5 4.637.788 2.91 1.333 2.12 3.085 1.63 4.68 1.056 6.544.547 8.584.671 10.548c.045.716.182 1.62.865 2.014.86.498 2.078-.076 2.816-.565.858-.568 1.58-1.318 2.467-1.847.988-.587 2.24-.861 3.383-.861" transform="translate(2 5)"/>
        <path stroke="#1E1E1E" stroke-linecap="round" stroke-linejoin="round" stroke-width="1.5" d="M10.176 1.528c.97-.103 1.927-.303 2.866-.563.895-.25 1.817-.466 2.733-.177 1.728.545 2.518 2.297 3.008 3.893.572 1.863 1.083 3.903.958 5.867-.045.716-.182 1.62-.865 2.014-.86.498-2.077-.076-2.816-.565-.859-.568-1.58-1.318-2.467-1.847-.987-.587-2.239-.861-3.383-.861" transform="translate(2 5)"/>
        <path stroke="#C19438" stroke-linecap="round" stroke-linejoin="round" stroke-width="1.5" d="M4.111 5.404L7.434 5.404M5.772 3.748L5.772 7.059" transform="translate(2 5)"/>
    </g>
</svg>
