<svg xmlns="http://www.w3.org/2000/svg" width="24" height="24" viewBox="0 0 24 24">
    <g fill="none" fill-rule="evenodd">
        <path stroke="#1E1E1E" stroke-linecap="round" stroke-linejoin="round" stroke-width="1.5" d="M0.675 17.663L14.4 17.663 14.4 0.675 0.675 0.675z" transform="translate(5 3)"/>
        <path stroke="#1E1E1E" stroke-linecap="round" stroke-linejoin="round" stroke-width="1.5" d="M4.405 17.627L7.6 17.627 7.6 11.333 4.405 11.333zM7.6 17.627L10.794 17.627 10.794 11.333 7.6 11.333z" transform="translate(5 3)"/>
        <path fill="#C19438" d="M6.49 8.976H4.73c-.176 0-.32-.142-.32-.319v-1.76c0-.176.144-.318.32-.318h1.76c.175 0 .318.142.318.318v1.76c0 .177-.143.319-.318.319M6.49 5.35H4.73c-.176 0-.32-.143-.32-.319v-1.76c0-.175.144-.317.32-.317h1.76c.175 0 .318.142.318.317v1.76c0 .176-.143.319-.318.319M10.468 8.976h-1.76c-.175 0-.319-.142-.319-.319v-1.76c0-.176.144-.318.32-.318h1.76c.175 0 .318.142.318.318v1.76c0 .177-.143.319-.319.319M10.468 5.35h-1.76c-.175 0-.319-.143-.319-.319v-1.76c0-.175.144-.317.32-.317h1.76c.175 0 .318.142.318.317v1.76c0 .176-.143.319-.319.319" transform="translate(5 3)"/>
    </g>
</svg>
