<?xml version="1.0" encoding="utf-8"?>
<!-- Generator: Adobe Illustrator 16.0.0, SVG Export Plug-In . SVG Version: 6.00 Build 0)  -->
<!DOCTYPE svg PUBLIC "-//W3C//DTD SVG 1.1//EN" "http://www.w3.org/Graphics/SVG/1.1/DTD/svg11.dtd">
<svg version="1.1" id="圖層_1" xmlns="http://www.w3.org/2000/svg" xmlns:xlink="http://www.w3.org/1999/xlink" x="0px" y="0px"
	 width="17px" height="16px" viewBox="0 0 17 16" enable-background="new 0 0 17 16" xml:space="preserve">
<g>
	<path fill="#D4B572" d="M8.5,13.917c3.566,0,6.459-2.893,6.459-6.459C14.959,3.891,12.066,1,8.5,1C4.933,1,2.042,3.891,2.042,7.458
		C2.042,11.024,4.933,13.917,8.5,13.917z M8.5,12.667c-2.876,0-5.208-2.332-5.208-5.209c0-2.876,2.332-5.208,5.208-5.208
		c2.877,0,5.209,2.332,5.209,5.208C13.709,10.335,11.377,12.667,8.5,12.667z"/>
	<path fill="#D4B572" d="M8.5,5.792c0.346,0,0.625-0.28,0.625-0.625c0-0.346-0.28-0.625-0.625-0.625s-0.625,0.28-0.625,0.625
		S8.155,5.792,8.5,5.792z M8.5,10.792c0.346,0,0.625-0.279,0.625-0.625V6.833c0-0.345-0.28-0.625-0.625-0.625
		s-0.625,0.28-0.625,0.625v3.334C7.875,10.513,8.155,10.792,8.5,10.792z"/>
</g>
</svg>
