<svg xmlns="http://www.w3.org/2000/svg" width="17" height="16" viewBox="0 0 17 16">
    <g fill="#D4B572">
        <path d="M6.458 12.917c3.567 0 6.459-2.892 6.459-6.459C12.917 2.891 10.025 0 6.458 0 2.891 0 0 2.891 0 6.458s2.891 6.459 6.458 6.459zm0-1.25c-2.876 0-5.208-2.332-5.208-5.209 0-2.876 2.332-5.208 5.208-5.208 2.877 0 5.209 2.332 5.209 5.208 0 2.877-2.332 5.209-5.209 5.209z" transform="translate(2.042 1.542)"/>
        <path d="M6.458 4.792c.346 0 .625-.28.625-.625 0-.346-.28-.625-.625-.625s-.625.28-.625.625.28.625.625.625zm0 5c.346 0 .625-.28.625-.625V5.833c0-.345-.28-.625-.625-.625s-.625.28-.625.625v3.334c0 .345.28.625.625.625z" transform="translate(2.042 1.542)"/>
    </g>
</svg>
