<svg xmlns="http://www.w3.org/2000/svg" width="24" height="24" viewBox="0 0 24 24">
    <g fill="none" fill-rule="evenodd" stroke-linecap="round" stroke-linejoin="round" stroke-width="1.5">
        <path stroke="#1E1E1E" d="M10.31 4.1c1.408.028 2.778.687 3.735 1.791 1.235 1.426 1.594 3.493.81 5.233-.634 1.405-2.046 2.295-2.607 3.745-.238.616-.328 1.298-1.162 1.298H9.429c-.834 0-.924-.682-1.163-1.298-.56-1.45-1.973-2.34-2.606-3.745-1.139-2.526.173-5.497 2.659-6.617.646-.291 1.322-.42 1.99-.407zM9.146 18.548L11.369 18.548" transform="translate(2 3)"/>
        <path stroke="#C19438" d="M4.161 4.118L3.455 3.416M1.651 10.115L.653 10.115M4.146 16.118L3.44 16.82M10.184 1.64L10.184.648M16.229 4.118L16.935 3.416M18.739 10.115L19.737 10.115M16.244 16.118L16.95 16.82" transform="translate(2 3)"/>
    </g>
</svg>
