<svg xmlns="http://www.w3.org/2000/svg" width="24" height="24" viewBox="0 0 24 24">
    <g fill="none" fill-rule="evenodd">
        <path stroke="#1E1E1E" stroke-linecap="round" stroke-linejoin="round" stroke-width="1.5" d="M8.539 16.426L19.775 16.426M16.425 8.54c0 4.355-3.53 7.885-7.886 7.885S.652 12.895.652 8.54 4.182.652 8.54.652c4.355 0 7.886 3.53 7.886 7.887z" transform="translate(2 3)"/>
        <path fill="#C19438" d="M8.725 5.971h-.377c-.518 0-.942-.423-.942-.942v-.377c0-.518.424-.942.942-.942h.377c.52 0 .943.424.943.942v.377c0 .519-.424.942-.943.942" transform="translate(2 3)"/>
        <path stroke="#C19438" stroke-width=".5" d="M8.725 5.971h-.377c-.518 0-.942-.423-.942-.942v-.377c0-.518.424-.942.942-.942h.377c.52 0 .943.424.943.942v.377c0 .519-.424.942-.943.942z" transform="translate(2 3)"/>
        <path fill="#C19438" d="M8.73 13.369h-.377c-.519 0-.943-.425-.943-.944v-.376c0-.518.424-.943.943-.943h.376c.518 0 .943.425.943.943v.376c0 .52-.425.944-.943.944" transform="translate(2 3)"/>
        <path stroke="#C19438" stroke-width=".5" d="M8.73 13.369h-.377c-.519 0-.943-.425-.943-.944v-.376c0-.518.424-.943.943-.943h.376c.518 0 .943.425.943.943v.376c0 .52-.425.944-.943.944z" transform="translate(2 3)"/>
        <path fill="#C19438" d="M4.991 9.61h-.376c-.518 0-.943-.423-.943-.942v-.377c0-.518.425-.943.943-.943h.376c.519 0 .943.425.943.943v.377c0 .519-.424.943-.943.943" transform="translate(2 3)"/>
        <path stroke="#C19438" stroke-width=".5" d="M4.991 9.61h-.376c-.518 0-.943-.423-.943-.942v-.377c0-.518.425-.943.943-.943h.376c.519 0 .943.425.943.943v.377c0 .519-.424.943-.943.943z" transform="translate(2 3)"/>
        <path fill="#C19438" d="M12.462 9.637h-.376c-.518 0-.943-.423-.943-.942v-.377c0-.518.425-.943.943-.943h.376c.52 0 .944.425.944.943v.377c0 .519-.425.942-.944.942" transform="translate(2 3)"/>
        <path stroke="#C19438" stroke-width=".5" d="M12.462 9.637h-.376c-.518 0-.943-.423-.943-.942v-.377c0-.518.425-.943.943-.943h.376c.52 0 .944.425.944.943v.377c0 .519-.425.942-.944.942z" transform="translate(2 3)"/>
    </g>
</svg>
