<svg xmlns="http://www.w3.org/2000/svg" width="36" height="25" viewBox="0 0 36 25">
    <path fill="#784F1D" stroke="#BE9559" stroke-width=".5" d="M.435 21.826c3.576-1.824 5.823-3.42 6.741-4.788.918-1.368 1.45-3.342 1.593-5.922h.45c.216 2.136.591 3.849 1.125 5.139s1.263 2.463 2.187 3.519c.924 1.056 1.464 1.584 1.62 1.584.048 0 .12-.042.216-.126.468-.456 1.104-.684 1.908-.684.204 0 .42.012.648.036h0l.072-.324c-2.016-.876-3.6-2.004-4.752-3.384-1.152-1.38-1.998-3.3-2.538-5.76h6.588c.288 0 .432-.042.432-.126 0-.108-.285-.444-.855-1.008-.57-.564-.92-.846-1.053-.846-.084 0-.186.072-.306.216h0l-.972 1.134H8.823c.024-.504.048-1.182.072-2.034.024-.852.07-1.392.135-1.62.066-.228.201-.402.405-.522.204-.12.306-.21.306-.27 0-.06-.03-.111-.09-.153-.06-.042-.339-.132-.837-.27-.498-.138-1.053-.273-1.665-.405.06 1.464.09 2.559.09 3.285s-.018 1.389-.054 1.989h0-5.598c-.408 0-.708-.03-.9-.09h0l.324.846c.24-.084.492-.126.756-.126H7.15c-.132 2.376-.63 4.266-1.494 5.67s-2.67 2.988-5.418 4.752h0l.198.288zm18.144.108c1.14-1.092 2.007-2.223 2.601-3.393.594-1.17.897-2.625.91-4.365h9.503v.828c0 .18.054.27.162.27.108 0 .39-.081.846-.243.456-.162.684-.327.684-.495 0-.036-.009-.111-.027-.225-.018-.114-.027-.321-.027-.621v-3.51c.42-.204.63-.393.63-.567 0-.174-.29-.405-.873-.693-.582-.288-.912-.432-.99-.432-.078 0-.147.048-.207.144h0l-.396.648h-9.288c.012-.18.018-.438.018-.774 2.652-.252 5.214-.72 7.686-1.404.336-.084.693-.126 1.071-.126s.7.03.963.09c.084.024.153.015.207-.027.054-.042.081-.096.081-.162s-.015-.123-.045-.171c-.03-.048-.177-.204-.44-.468-.265-.264-.6-.576-1.009-.936-2.616 1.176-5.412 2.076-8.388 2.7-.516-.312-1.092-.588-1.728-.828.048 1.788.072 3.543.072 5.265 0 1.722-.042 2.988-.126 3.798-.084.81-.282 1.623-.594 2.439-.312.816-.828 1.83-1.548 3.042h0l.252.216zm13.014-8.262H22.09l.018-3.888h9.486v3.888z"/>
</svg>
