<svg xmlns="http://www.w3.org/2000/svg" width="48" height="48" viewBox="0 0 48 48">
    <g fill="none" fill-rule="evenodd" transform="translate(-603 -1149)">
        <path fill="#C38B47" d="M627 1193c-11.046 0-20-8.954-20-20s8.954-20 20-20 20 8.954 20 20-8.954 20-20 20z"/>
        <path fill="#FFF" d="M632.426 1176.535c-.86 0-1.557-.711-1.557-1.59 0-.88.697-1.592 1.557-1.592s1.556.713 1.556 1.592c0 .879-.696 1.59-1.556 1.59m-11.897 0c-.859 0-1.556-.711-1.556-1.59 0-.88.697-1.592 1.556-1.592.86 0 1.557.713 1.557 1.592 0 .879-.697 1.59-1.557 1.59m13.613-5.247h-.037l.001-.04-.589-1.467h1.69c.428 0 .775-.355.775-.793 0-.437-.347-.791-.775-.791h-2.282c-.015 0-.027.008-.044.009l-1.485-3.69c-.126-.313-.425-.516-.756-.516h-8.351c-.33 0-.628.203-.754.516l-1.483 3.68h-2.278c-.428 0-.774.355-.774.792 0 .438.346.793.774.793h1.64l-.59 1.466v.041H618.033c-.563 0-1.02.467-1.02 1.043v6.24h1.623v.357c0 .98.654 1.888 1.6 2.045 1.204.2 2.246-.745 2.246-1.94l.005-.463h8.029v.36c0 .979.655 1.886 1.6 2.043 1.205.2 2.246-.745 2.246-1.94l.02-.463H636v-6.24c0-.575-.457-1.042-1.02-1.042h-.838z"/>
        <circle cx="627" cy="1173" r="23" stroke="#F0E4D4" stroke-width="2"/>
    </g>
</svg>
