<svg xmlns="http://www.w3.org/2000/svg" width="49" height="48" viewBox="0 0 49 48">
    <g fill="none" fill-rule="evenodd" transform="translate(.5)">
        <g>
            <path fill="#EA9C4E" d="M20 40C8.955 40 0 31.045 0 20 0 8.954 8.955 0 20 0c11.046 0 20 8.954 20 20 0 11.045-8.954 20-20 20z" transform="translate(4 4)"/>
            <path fill="#FFF" d="M30.243 19.622c0 5.313-4.307 9.621-9.621 9.621-5.313 0-9.622-4.308-9.622-9.621C11 14.307 15.309 10 20.622 10c5.314 0 9.621 4.307 9.621 9.622" transform="translate(4 4)"/>
            <path stroke="#EA9C4E" stroke-linecap="round" stroke-linejoin="round" stroke-width="1.5" d="M24.309 22.647c-.88 1.117-2.244 1.833-3.776 1.833-2.653 0-4.804-2.15-4.804-4.804 0-2.653 2.151-4.804 4.804-4.804 1.597 0 3.012.779 3.887 1.978M14.694 18.244L19.409 18.244M14.694 21.108L19.409 21.108" transform="translate(4 4)"/>
        </g>
        <circle cx="24" cy="24" r="23" stroke="#EA9C4E" stroke-linejoin="bevel" stroke-width="2" opacity=".3"/>
    </g>
</svg>
