<svg xmlns="http://www.w3.org/2000/svg" xmlns:xlink="http://www.w3.org/1999/xlink" width="54" height="54" viewBox="0 0 54 54">
    <defs>
        <filter id="prefix__a" width="128.8%" height="124.4%" x="-10.3%" y="-10.3%" filterUnits="objectBoundingBox">
            <feMorphology in="SourceAlpha" operator="dilate" radius="1" result="shadowSpreadOuter1"/>
            <feOffset dx="1.2" dy=".5" in="shadowSpreadOuter1" result="shadowOffsetOuter1"/>
            <feGaussianBlur in="shadowOffsetOuter1" result="shadowBlurOuter1" stdDeviation=".05"/>
            <feComposite in="shadowBlurOuter1" in2="SourceAlpha" operator="out" result="shadowBlurOuter1"/>
            <feColorMatrix in="shadowBlurOuter1" values="0 0 0 0 0.660750679 0 0 0 0 0.446941269 0 0 0 0 0.138105454 0 0 0 0.377786276 0"/>
        </filter>
        <filter id="prefix__c" width="158.6%" height="172.9%" x="-16.7%" y="-27.6%" filterUnits="objectBoundingBox">
            <feMorphology in="SourceAlpha" operator="dilate" radius="1" result="shadowSpreadOuter1"/>
            <feOffset dx="1.2" dy=".5" in="shadowSpreadOuter1" result="shadowOffsetOuter1"/>
            <feMorphology in="SourceAlpha" radius="1" result="shadowInner"/>
            <feOffset dx="1.2" dy=".5" in="shadowInner" result="shadowInner"/>
            <feComposite in="shadowOffsetOuter1" in2="shadowInner" operator="out" result="shadowOffsetOuter1"/>
            <feGaussianBlur in="shadowOffsetOuter1" result="shadowBlurOuter1" stdDeviation=".05"/>
            <feColorMatrix in="shadowBlurOuter1" values="0 0 0 0 0.660750679 0 0 0 0 0.446941269 0 0 0 0 0.138105454 0 0 0 0.377786276 0"/>
        </filter>
        <circle id="prefix__b" cx="8" cy="8" r="8"/>
        <path id="prefix__d" d="M4 8L7.2 11 12 5"/>
    </defs>
    <g fill="none" fill-rule="evenodd" transform="translate(-121 -1212)">
        <path fill="#C38B47" d="M145 1258c-11.046 0-20-8.954-20-20s8.954-20 20-20 20 8.954 20 20-8.954 20-20 20z"/>
        <path fill="#FFF" d="M144.98 1227l9.02 6.787V1247l-4.037-.001v-7.59c0-1.056-.833-1.912-1.862-1.912h-6.204c-1.028 0-1.862.856-1.862 1.912l-.001 7.59L136 1247v-13.263l8.955-6.737h.024zm3.016 12.515V1247H142v-7.484h5.996z"/>
        <circle cx="145" cy="1238" r="23" stroke="#F0E4D4" stroke-width="2"/>
        <g fill-rule="nonzero" transform="translate(156 1246)">
            <use fill="#000" filter="url(#prefix__a)" xlink:href="#prefix__b"/>
            <use fill="#FFF" stroke="#F0E4D4" stroke-width="2" xlink:href="#prefix__b"/>
            <g>
                <use fill="#000" filter="url(#prefix__c)" xlink:href="#prefix__d"/>
                <use stroke="#D2AF80" stroke-width="2" xlink:href="#prefix__d"/>
            </g>
        </g>
    </g>
</svg>
