<svg xmlns="http://www.w3.org/2000/svg" width="52" height="52" viewBox="0 0 52 52">
    <g fill="none" fill-rule="evenodd">
        <path fill="#B5B4B4" d="M554 650c-11.046 0-20-8.954-20-20s8.954-20 20-20 20 8.954 20 20-8.954 20-20 20z" transform="translate(-528 -604)"/>
        <path fill="#FFF" fill-rule="nonzero" d="M558.664 621c2.947 0 5.336 2.448 5.336 5.47 0 5.073-4.52 9.354-8.103 11.989-.732.539-1.5 1.03-2.286 1.484l-.127.057-.095-.057c-.786-.455-1.554-.945-2.288-1.484-3.581-2.635-8.101-6.916-8.101-11.99 0-3.02 2.388-5.469 5.334-5.469 2.496 0 4.584 1.762 5.165 4.137.583-2.375 2.67-4.137 5.165-4.137zm-5.143 6.569c-.543 0-.983.451-.983 1.008l-.001 1.208h-1.177l-.114.007c-.49.058-.87.484-.87 1.001 0 .557.441 1.009.984 1.009h1.177v1.207l.007.118c.057.501.473.89.977.89.543 0 .984-.451.984-1.008v-1.207h1.178l.114-.007c.49-.058.87-.484.87-1.002 0-.557-.441-1.008-.984-1.008h-1.178v-1.208l-.007-.118c-.057-.501-.472-.89-.977-.89z" transform="translate(-528 -604)"/>
    </g>
</svg>
