<svg xmlns="http://www.w3.org/2000/svg" xmlns:xlink="http://www.w3.org/1999/xlink" width="54" height="54" viewBox="0 0 54 54">
    <defs>
        <filter id="prefix__a" width="128.8%" height="124.4%" x="-10.3%" y="-10.3%" filterUnits="objectBoundingBox">
            <feMorphology in="SourceAlpha" operator="dilate" radius="1" result="shadowSpreadOuter1"/>
            <feOffset dx="1.2" dy=".5" in="shadowSpreadOuter1" result="shadowOffsetOuter1"/>
            <feGaussianBlur in="shadowOffsetOuter1" result="shadowBlurOuter1" stdDeviation=".05"/>
            <feComposite in="shadowBlurOuter1" in2="SourceAlpha" operator="out" result="shadowBlurOuter1"/>
            <feColorMatrix in="shadowBlurOuter1" values="0 0 0 0 0.660750679 0 0 0 0 0.446941269 0 0 0 0 0.138105454 0 0 0 0.377786276 0"/>
        </filter>
        <filter id="prefix__c" width="158.6%" height="172.9%" x="-16.7%" y="-27.6%" filterUnits="objectBoundingBox">
            <feMorphology in="SourceAlpha" operator="dilate" radius="1" result="shadowSpreadOuter1"/>
            <feOffset dx="1.2" dy=".5" in="shadowSpreadOuter1" result="shadowOffsetOuter1"/>
            <feMorphology in="SourceAlpha" radius="1" result="shadowInner"/>
            <feOffset dx="1.2" dy=".5" in="shadowInner" result="shadowInner"/>
            <feComposite in="shadowOffsetOuter1" in2="shadowInner" operator="out" result="shadowOffsetOuter1"/>
            <feGaussianBlur in="shadowOffsetOuter1" result="shadowBlurOuter1" stdDeviation=".05"/>
            <feColorMatrix in="shadowBlurOuter1" values="0 0 0 0 0.660750679 0 0 0 0 0.446941269 0 0 0 0 0.138105454 0 0 0 0.377786276 0"/>
        </filter>
        <circle id="prefix__b" cx="8" cy="8" r="8"/>
        <path id="prefix__d" d="M4 8L7.2 11 12 5"/>
    </defs>
    <g fill="none" fill-rule="evenodd" transform="translate(-603 -1210)">
        <path fill="#C38B47" d="M627 1256c-11.046 0-20-8.954-20-20s8.954-20 20-20 20 8.954 20 20-8.954 20-20 20z"/>
        <path fill="#FFF" d="M632.426 1239.535c-.86 0-1.557-.711-1.557-1.59 0-.88.697-1.592 1.557-1.592s1.556.713 1.556 1.592c0 .879-.696 1.59-1.556 1.59m-11.897 0c-.859 0-1.556-.711-1.556-1.59 0-.88.697-1.592 1.556-1.592.86 0 1.557.713 1.557 1.592 0 .879-.697 1.59-1.557 1.59m13.613-5.247h-.037l.001-.04-.589-1.467h1.69c.428 0 .775-.355.775-.793 0-.437-.347-.791-.775-.791h-2.282c-.015 0-.027.008-.044.009l-1.485-3.69c-.126-.313-.425-.516-.756-.516h-8.351c-.33 0-.628.203-.754.516l-1.483 3.68h-2.278c-.428 0-.774.355-.774.792 0 .438.346.793.774.793h1.64l-.59 1.466v.041H618.033c-.563 0-1.02.467-1.02 1.043v6.24h1.623v.357c0 .98.654 1.888 1.6 2.045 1.204.2 2.246-.745 2.246-1.94l.005-.463h8.029v.36c0 .979.655 1.886 1.6 2.043 1.205.2 2.246-.745 2.246-1.94l.02-.463H636v-6.24c0-.575-.457-1.042-1.02-1.042h-.838z"/>
        <circle cx="627" cy="1236" r="23" stroke="#F0E4D4" stroke-width="2"/>
        <g fill-rule="nonzero" transform="translate(638 1245)">
            <use fill="#000" filter="url(#prefix__a)" xlink:href="#prefix__b"/>
            <use fill="#FFF" stroke="#F0E4D4" stroke-width="2" xlink:href="#prefix__b"/>
            <g>
                <use fill="#000" filter="url(#prefix__c)" xlink:href="#prefix__d"/>
                <use stroke="#D2AF80" stroke-width="2" xlink:href="#prefix__d"/>
            </g>
        </g>
    </g>
</svg>
