<svg xmlns="http://www.w3.org/2000/svg" width="52" height="52" viewBox="0 0 52 52">
    <g fill="none" fill-rule="evenodd">
        <path fill="#B5B4B4" d="M316 631c0 11.046-8.954 20-20 20s-20-8.954-20-20 8.954-20 20-20 20 8.954 20 20" transform="translate(-270 -605)"/>
        <path fill="#FFF" fill-rule="nonzero" d="M304.61 637.947c-.375-.28-.849-.42-1.306-.483-.72-.101-1.49.05-2.154.194-1.046.229-1.931.853-2.955 1.138-.496.14-.99.196-1.48.196-1.339 0-2.639-.431-3.824-.826l-.68-.224c-.443-.142-.689-.617-.55-1.063.141-.445.613-.694 1.057-.55l.703.228c.816.268 1.635.552 2.489.678.408.06.824.085 1.236.042.329-.034.798-.045.998-.372.281-.462-.16-1.06-.564-1.27-.658-.34-1.417-.493-2.126-.658-1.04-.243-2.082-.485-3.122-.729l-4.072-.948-1.26-.3v5.47c.054 0 .11.009.163.03 1.134.452 2.264.925 3.39 1.412.03.013.06.03.09.044l2.292.9s2.024.8 2.026.796l.413.162c.646.254 1.365.248 2.007-.018l3.903-1.615c.137-.059.275-.114.413-.17l3.11-1.285c.447-.186.005-.627-.198-.779M296 619c3.865 0 7 3.134 7 7s-3.135 7-7 7-7-3.134-7-7 3.135-7 7-7zm-.094 2.746c-.458 0-.826.36-.856.81-.419.128-.784.341-1.058.665-.598.71-.667 1.726-.173 2.474.54.81 1.418 1.014 2.062 1.164.118.028.235.055.347.087.546.148.543.284.543.332-.001.094-.055.19-.156.28-.173.152-.434.242-.714.21-.122-.013-.345-.034-.534-.144-.091-.053-.16-.117-.214-.202-.257-.406-.797-.523-1.2-.268-.405.259-.524.795-.265 1.2.202.32.472.58.805.772.173.1.342.166.505.22v.04c0 .48.39.868.869.868.472 0 .852-.378.864-.848.377-.107.737-.286 1.03-.543.476-.418.74-.973.747-1.566.007-.57-.223-1.591-1.82-2.029-.133-.035-.272-.069-.413-.101-.53-.123-.862-.216-1.007-.435-.067-.098-.042-.277.05-.389.14-.166.413-.179.566-.181.393.01.51.162.553.22.291.381.835.457 1.218.162.38-.29.455-.835.163-1.216-.204-.268-.547-.563-1.05-.742-.014-.465-.392-.84-.862-.84z" transform="translate(-270 -605)"/>
    </g>
</svg>
