<svg xmlns="http://www.w3.org/2000/svg" width="49" height="48" viewBox="0 0 49 48">
    <g fill="none" fill-rule="evenodd" transform="translate(.5)">
        <g>
            <path fill="#EA8181" d="M20 39.999c-11.045 0-20-8.955-20-20C0 8.953 8.955 0 20 0s20 8.953 20 20c0 11.044-8.955 19.999-20 19.999z" transform="translate(4 4)"/>
            <path fill="#FFF" d="M24.936 15.608c-.287-.28-.629-.582-1.005-.79l.57-.623c.386-.422.787-.829 1.157-1.264.314-.37.647-.78.582-1.297-.1-.786-1.008-.613-1.542-.456-.426.126-.9.175-1.273-.111-.33-.251-.509-.653-.87-.873-.304-.185-.71-.164-.999.04-.308.216-.425.6-.656.882-.112.137-.249.256-.404.343-.237.131-.47.175-.73.085-.234-.082-.435-.238-.59-.428-.23-.282-.349-.666-.656-.882-.29-.204-.696-.225-.999-.04-.362.22-.54.622-.87.873-.373.286-.847.237-1.273.11-.534-.156-1.44-.33-1.542.457-.066.518.267.928.582 1.297.37.435.772.842 1.157 1.264l.57.623c-.376.208-.718.51-1.005.79-1.918 1.87-3.8 4.261-3.628 7.094.112 1.858.839 3.762 2.278 5.02 1.54 1.345 4.196 1.774 6.214 1.825v.002h.068v-.002c2.018-.051 4.674-.48 6.215-1.825 1.437-1.258 2.165-3.162 2.277-5.02.17-2.833-1.71-5.225-3.628-7.094" transform="translate(4 4)"/>
            <path fill="#EA8181" d="M19.057 22.195l.979-2.62.979 2.62h-1.958zm4.469 2.527l-2.802-7.504c-.108-.287-.381-.477-.688-.477-.306 0-.579.19-.686.477l-2.802 7.503c-.142.38.051.803.43.944.383.148.804-.052.944-.43l.588-1.571h3.054l.587 1.573c.11.294.39.477.688.477.085 0 .171-.015.256-.047.38-.142.573-.564.43-.945z" transform="translate(4 4)"/>
        </g>
        <circle cx="24" cy="24" r="23" stroke="#EA8181" stroke-linejoin="bevel" stroke-width="2" opacity=".3"/>
    </g>
</svg>
