<svg xmlns="http://www.w3.org/2000/svg" width="49" height="48" viewBox="0 0 49 48">
    <g fill="none" fill-rule="evenodd" transform="translate(.5)">
        <path fill="#5E845E" d="M23.915 43.83C12.915 43.83 4 34.913 4 23.915 4 12.915 12.916 4 23.915 4c11 0 19.915 8.916 19.915 19.915 0 10.998-8.916 19.915-19.915 19.915z"/>
        <g>
            <path fill="#FFF" d="M7.06 5.757c0-.803.135-1.573.377-2.298-.916-1.098-2.16-2.062-3.664-1.919-.26.025-.432.288-.333.53l.903 2.196c.065.158.016.338-.118.444-.623.496-2.308 2.023-2.528 4.179-.02.197-.175.352-.374.352H.381c-.21 0-.381.171-.381.38v3.231c0 .21.17.38.38.38h1.093c.14 0 .266.07.332.194.318.598 1.418 2.415 3.326 3.122.076.029.142.079.184.148l1.048 1.686c.104.17.29.272.49.272h1.501c.2 0 .384-.102.49-.272l1.002-1.612c.068-.111.19-.18.322-.18h.898c.132 0 .255.069.324.18l1.002 1.612c.105.17.29.272.49.272h1.5c.199 0 .384-.102.489-.272l1.079-1.736c.024-.036.052-.068.088-.094 1.803-1.344 3.307-3.283 3.473-5.595-1.322 1.305-3.136 2.115-5.136 2.115-4.032 0-7.314-3.282-7.314-7.315" transform="translate(14 15)"/>
            <path fill="#FFF" d="M14.375 0C11.68 0 9.42 1.863 8.795 4.367c-.111.446-.177.91-.177 1.39 0 3.176 2.582 5.758 5.757 5.758 1.453 0 2.777-.545 3.79-1.435 1.203-1.056 1.967-2.6 1.967-4.322C20.132 2.583 17.55 0 14.375 0" transform="translate(14 15)"/>
            <path fill="#5E845E" d="M5.284 9.026c0 .428-.348.776-.775.776-.429 0-.775-.348-.775-.776 0-.429.346-.775.775-.775.427 0 .775.346.775.775M14.957 5.138c-.112-.03-.23-.058-.348-.086-.45-.104-.73-.182-.854-.367-.056-.085-.036-.236.044-.33.118-.141.35-.151.478-.154.333.01.432.137.47.187.246.322.706.386 1.03.137.322-.246.385-.708.137-1.031-.173-.226-.462-.476-.887-.628-.014-.394-.334-.712-.731-.712-.39 0-.7.306-.726.687-.354.108-.664.29-.896.563-.506.6-.566 1.462-.145 2.096.456.684 1.2.858 1.745.985.1.023.2.047.295.073.462.126.46.241.46.281 0 .081-.046.16-.133.238-.145.129-.368.205-.606.178-.1-.011-.29-.03-.451-.122-.077-.045-.135-.1-.18-.172-.22-.343-.676-.443-1.017-.226-.343.218-.445.673-.225 1.016.171.27.4.49.682.654.145.085.29.14.426.185v.034c0 .407.332.736.738.736.4 0 .722-.321.732-.719.32-.09.624-.24.872-.46.402-.352.628-.823.633-1.326.005-.482-.19-1.347-1.543-1.717z" transform="translate(14 15)"/>
        </g>
        <circle cx="24" cy="24" r="23" stroke="#5E845E" stroke-linejoin="bevel" stroke-width="2" opacity=".3"/>
    </g>
</svg>
