<svg xmlns="http://www.w3.org/2000/svg" xmlns:xlink="http://www.w3.org/1999/xlink" width="64" height="64" viewBox="0 0 64 64">
    <defs>
        <linearGradient id="prefix__a" x1="100%" x2="0%" y1="94.074%" y2="26.242%">
            <stop offset="0%" stop-color="#A16B28"/>
            <stop offset="100%" stop-color="#F2CB91"/>
        </linearGradient>
        <filter id="prefix__b" width="138.9%" height="158.3%" x="-16.7%" y="-20.8%" filterUnits="objectBoundingBox">
            <feOffset dx="1" dy="2" in="SourceAlpha" result="shadowOffsetOuter1"/>
            <feGaussianBlur in="shadowOffsetOuter1" result="shadowBlurOuter1" stdDeviation="2"/>
            <feColorMatrix in="shadowBlurOuter1" values="0 0 0 0 0.660750679 0 0 0 0 0.446941269 0 0 0 0 0.138105454 0 0 0 0.604867788 0"/>
        </filter>
        <path id="prefix__c" d="M906 915.548v-2.753c0-.745-.298-1.459-.828-1.984-.53-.524-1.248-.816-1.995-.81h-30.374c-1.548 0-2.803 1.25-2.803 2.794V931.184c-.005.746.287 1.462.814 1.99.526.529 1.242.826 1.989.826h30.374c.749 0 1.467-.297 1.996-.825.53-.527.827-1.243.827-1.99v-15.637zm-8.696 7.007c-.475.63-1.163 1.068-1.937 1.233-1.237.161-2.483.237-3.73.226h-.453c-.1.086-.189.183-.268.287l-4.946 6.165c-.187.25-.435.448-.72.575H884.444c-.556 0-.865-.205-.906-.493.002-.231.044-.46.123-.678 0 0 1.896-5.795 1.896-5.815h-3.173c-.107.085-.203.181-.289.288l-1.751 2.054s-.454.514-.742.555c-.15.02-.303.02-.453 0 0 0-.598 0-.66-.514-.01-.23.024-.46.103-.678.392-1.397.948-3.472.99-3.78.04-.309-.598-2.384-.99-3.781-.144-.514-.124-.863 0-1.007.133-.1.289-.163.453-.185.236-.066.486-.066.722 0 .179.135.338.294.474.473l1.751 2.054c.093.12.205.223.33.309h3.132l-1.896-5.815c-.268-.822 0-.987.124-1.028.251-.063.515-.056.762.02h.145c.307-.027.617.016.906.124.168.147.327.305.474.473l4.946 6.164.309.329h.412c1.247-.011 2.493.064 3.73.226.77.172 1.456.609 1.937 1.233.181.304.181.682 0 .986z"/>
    </defs>
    <g fill="none" fill-rule="evenodd">
        <path fill="url(#prefix__a)" d="M888 955c-17.672 0-32-14.326-32-32.001C856 905.326 870.328 891 888 891c17.674 0 32 14.326 32 31.999C920 940.674 905.674 955 888 955z" transform="translate(-856 -891)"/>
        <g fill-rule="nonzero" transform="translate(-856 -891)">
            <use fill="#000" filter="url(#prefix__b)" xlink:href="#prefix__c"/>
            <use fill="#FFF" xlink:href="#prefix__c"/>
        </g>
    </g>
</svg>
