<svg xmlns="http://www.w3.org/2000/svg" xmlns:xlink="http://www.w3.org/1999/xlink" width="36" height="36" viewBox="0 0 36 36">
    <defs>
        <linearGradient id="prefix__a" x1="100%" x2="0%" y1="94.074%" y2="26.242%">
            <stop offset="0%" stop-color="#A16B28"/>
            <stop offset="100%" stop-color="#F2CB91"/>
        </linearGradient>
        <filter id="prefix__b" width="170%" height="204.7%" x="-30%" y="-37.4%" filterUnits="objectBoundingBox">
            <feOffset dx="1" dy="2" in="SourceAlpha" result="shadowOffsetOuter1"/>
            <feGaussianBlur in="shadowOffsetOuter1" result="shadowBlurOuter1" stdDeviation="2"/>
            <feColorMatrix in="shadowBlurOuter1" values="0 0 0 0 0.660750679 0 0 0 0 0.446941269 0 0 0 0 0.138105454 0 0 0 0.604867788 0"/>
        </filter>
        <path id="prefix__c" d="M28 14.091v-1.534c0-.415-.166-.813-.46-1.105-.295-.292-.693-.455-1.108-.452H9.557C8.697 11 8 11.697 8 12.557v10.246c-.003.415.16.814.452 1.108.292.295.69.46 1.105.46h16.875c.416 0 .814-.165 1.109-.459.294-.294.459-.693.459-1.109v-8.712zm-4.831 3.904c-.264.351-.646.595-1.076.687-.687.09-1.38.132-2.072.126h-.252c-.055.048-.105.102-.149.16l-2.748 3.434c-.104.14-.242.25-.4.321h-.447c-.309 0-.48-.114-.503-.275.001-.129.024-.256.068-.378 0 0 1.053-3.228 1.053-3.24H14.88c-.059.048-.112.102-.16.16l-.973 1.146s-.252.286-.412.309c-.084.011-.168.011-.252 0 0 0-.332 0-.366-.286-.006-.129.013-.257.057-.378.217-.779.527-1.935.55-2.107.022-.171-.333-1.328-.55-2.106-.08-.286-.069-.48 0-.561.074-.055.16-.09.252-.103.13-.037.27-.037.4 0 .1.075.189.164.264.263l.973 1.145c.052.066.113.124.183.172h1.74l-1.053-3.24c-.149-.458 0-.55.069-.572.14-.036.286-.032.423.011h.08c.171-.015.343.008.504.069.093.082.181.17.263.263l2.748 3.434.172.184h.229c.692-.007 1.385.036 2.072.126.428.096.808.339 1.076.686.1.17.1.38 0 .55z"/>
    </defs>
    <g fill="none" fill-rule="evenodd">
        <path fill="url(#prefix__a)" d="M18 36C8.06 36 0 27.941 0 18S8.06 0 18 0c9.942 0 18 8.059 18 18s-8.058 18-18 18z"/>
        <g fill-rule="nonzero">
            <use fill="#000" filter="url(#prefix__b)" xlink:href="#prefix__c"/>
            <use fill="#FFF" xlink:href="#prefix__c"/>
        </g>
    </g>
</svg>
