<svg xmlns="http://www.w3.org/2000/svg" width="24" height="24" viewBox="0 0 24 24">
    <g fill="none" fill-rule="evenodd">
        <path fill="#1E1E1E" d="M5.726 14c0 .921-.756 1.668-1.69 1.668-.932 0-1.688-.747-1.688-1.669M16.165 14c0 .921-.756 1.668-1.689 1.668s-1.69-.747-1.69-1.669" transform="translate(3 4)"/>
        <path stroke="#1E1E1E" stroke-linecap="round" stroke-linejoin="round" stroke-width="1.5" d="M3.168 4.902L.721 4.902M17.795 4.902L15.333 4.902M9.25.667H5.504c-.258 0-.49.153-.589.389L2.51 6.677h13.43l-2.403-5.621c-.099-.236-.33-.39-.59-.39H9.2" transform="translate(3 4)"/>
        <path stroke="#1E1E1E" stroke-linecap="round" stroke-linejoin="round" stroke-width="1.5" d="M17.85 13.714H.675V8.258c0-.876.72-1.587 1.607-1.587h13.96c.888 0 1.608.711 1.608 1.587v5.456z" transform="translate(3 4)"/>
        <path fill="#C19438" d="M5.378 9.958c0 .746-.612 1.35-1.368 1.35-.755 0-1.368-.604-1.368-1.35 0-.746.613-1.352 1.368-1.352.756 0 1.368.606 1.368 1.352M15.83 9.958c0 .746-.612 1.35-1.368 1.35-.755 0-1.368-.604-1.368-1.35 0-.746.613-1.352 1.368-1.352.756 0 1.368.606 1.368 1.352" transform="translate(3 4)"/>
    </g>
</svg>
