<svg xmlns="http://www.w3.org/2000/svg" xmlns:xlink="http://www.w3.org/1999/xlink" width="64" height="64" viewBox="0 0 64 64">
    <defs>
        <filter id="prefix__b" width="143.2%" height="143.2%" x="-18.5%" y="-15.4%" filterUnits="objectBoundingBox">
            <feOffset dx="1" dy="2" in="SourceAlpha" result="shadowOffsetOuter1"/>
            <feGaussianBlur in="shadowOffsetOuter1" result="shadowBlurOuter1" stdDeviation="2"/>
            <feColorMatrix in="shadowBlurOuter1" values="0 0 0 0 0.660750679 0 0 0 0 0.446941269 0 0 0 0 0.138105454 0 0 0 0.604867788 0"/>
        </filter>
        <filter id="prefix__d" width="220.1%" height="257.5%" x="-51.5%" y="-56.2%" filterUnits="objectBoundingBox">
            <feOffset dx="1" dy="2" in="SourceAlpha" result="shadowOffsetOuter1"/>
            <feGaussianBlur in="shadowOffsetOuter1" result="shadowBlurOuter1" stdDeviation="2"/>
            <feColorMatrix in="shadowBlurOuter1" values="0 0 0 0 0.660750679 0 0 0 0 0.446941269 0 0 0 0 0.138105454 0 0 0 0.604867788 0"/>
        </filter>
        <path id="prefix__c" d="M27.04 27.62c-1.661.111-3.246-.712-4.11-2.134-.865-1.423-.865-3.209 0-4.632.864-1.422 2.449-2.245 4.11-2.134h1.42c.214-.626.57-1.194 1.04-1.66.832-.834 1.962-1.302 3.14-1.3-.46-7.694-6.276-14-13.909-15.076C11.098-.392 3.764 4.058 1.195 11.326c-2.569 7.267.338 15.338 6.951 19.298 6.613 3.96 15.1 2.712 20.294-2.984h-1.42l.02-.02zm-6.62-4.24c-.758.658-1.675 1.107-2.66 1.3v.38c0 .84-.68 1.52-1.52 1.52s-1.52-.68-1.52-1.52v-.54c-1.675-.365-3.056-1.543-3.68-3.14-.314-.79.07-1.685.86-2 .379-.157.805-.154 1.181.008.377.162.672.47.819.852.43.94 1.387 1.525 2.42 1.48.772.1 1.55-.132 2.14-.64.327-.268.53-.658.56-1.08 0-.32 0-.88-1.72-1.36l-.86-.2c-1.805-.161-3.47-1.04-4.62-2.44-1.047-1.643-.9-3.775.36-5.26.692-.776 1.62-1.303 2.64-1.5v-.42c0-.84.68-1.52 1.52-1.52s1.52.68 1.52 1.52v.34c1.313.332 2.424 1.204 3.06 2.4.257.479.24 1.058-.046 1.52-.286.463-.797.737-1.34.72-.544-.016-1.037-.321-1.294-.8-.395-.717-1.187-1.122-2-1.02-.663-.08-1.327.148-1.8.62-.383.455-.446 1.099-.16 1.62.46.7 1.34.94 2.74 1.28l.98.24c3.3.9 4 2.84 4 4.3-.027 1.288-.602 2.503-1.58 3.34z"/>
        <path id="prefix__e" d="M36.7 22.1l-2.98-2.98c-.592-.587-1.548-.587-2.14 0-.288.285-.45.674-.45 1.08s.162.795.45 1.08l.38.38h-4.92c-.84 0-1.52.68-1.52 1.52s.68 1.52 1.52 1.52H32l-.38.38c-.5.604-.458 1.489.097 2.043.554.555 1.439.596 2.043.097l2.98-2.98c.136-.139.244-.301.32-.48.08-.183.12-.38.12-.58-.001-.206-.042-.41-.12-.6-.088-.182-.21-.345-.36-.48z"/>
        <linearGradient id="prefix__a" x1="100%" x2="0%" y1="94.074%" y2="26.242%">
            <stop offset="0%" stop-color="#A16B28"/>
            <stop offset="100%" stop-color="#F2CB91"/>
        </linearGradient>
    </defs>
    <g fill="none" fill-rule="evenodd">
        <path fill="url(#prefix__a)" d="M691 955c-17.672 0-32-14.326-32-32.001C659 905.326 673.328 891 691 891c17.674 0 32 14.326 32 31.999C723 940.674 708.674 955 691 955z" transform="translate(-659 -891)"/>
        <g fill-rule="nonzero" transform="translate(-659 -891) translate(675 906)">
            <use fill="#000" filter="url(#prefix__b)" xlink:href="#prefix__c"/>
            <use fill="#FFF" xlink:href="#prefix__c"/>
            <g>
                <use fill="#000" filter="url(#prefix__d)" xlink:href="#prefix__e"/>
                <use fill="#FFF" xlink:href="#prefix__e"/>
            </g>
        </g>
    </g>
</svg>
