<svg xmlns="http://www.w3.org/2000/svg" xmlns:xlink="http://www.w3.org/1999/xlink" width="36" height="36" viewBox="0 0 36 36">
    <defs>
        <filter id="prefix__b" width="177.4%" height="177.3%" x="-33.2%" y="-27.6%" filterUnits="objectBoundingBox">
            <feOffset dx="1" dy="2" in="SourceAlpha" result="shadowOffsetOuter1"/>
            <feGaussianBlur in="shadowOffsetOuter1" result="shadowBlurOuter1" stdDeviation="2"/>
            <feColorMatrix in="shadowBlurOuter1" values="0 0 0 0 0.660750679 0 0 0 0 0.446941269 0 0 0 0 0.138105454 0 0 0 0.604867788 0"/>
        </filter>
        <filter id="prefix__d" width="314.9%" height="381.8%" x="-92.1%" y="-100.7%" filterUnits="objectBoundingBox">
            <feOffset dx="1" dy="2" in="SourceAlpha" result="shadowOffsetOuter1"/>
            <feGaussianBlur in="shadowOffsetOuter1" result="shadowBlurOuter1" stdDeviation="2"/>
            <feColorMatrix in="shadowBlurOuter1" values="0 0 0 0 0.660750679 0 0 0 0 0.446941269 0 0 0 0 0.138105454 0 0 0 0.604867788 0"/>
        </filter>
        <path id="prefix__c" d="M15.11 15.435c-.928.062-1.813-.398-2.296-1.193-.483-.795-.483-1.793 0-2.588.483-.795 1.368-1.255 2.297-1.193h.793c.12-.35.319-.667.581-.927.465-.467 1.097-.728 1.755-.727-.257-4.3-3.507-7.823-7.773-8.425C6.202-.219 2.104 2.268.667 6.33-.767 10.39.858 14.9 4.553 17.113c3.696 2.213 8.439 1.516 11.34-1.667H15.1l.012-.011zm-3.699-2.37c-.423.368-.936.619-1.486.727v.212c0 .47-.38.85-.85.85-.469 0-.85-.38-.85-.85v-.302c-.935-.203-1.707-.862-2.056-1.754-.175-.442.04-.942.481-1.118.212-.088.45-.086.66.005.21.09.376.262.458.476.24.525.775.852 1.352.827.431.056.866-.074 1.196-.358.183-.15.296-.368.313-.604 0-.178 0-.491-.961-.76l-.48-.111c-1.01-.09-1.94-.582-2.583-1.364-.585-.918-.503-2.11.201-2.94.387-.433.905-.727 1.476-.837v-.235c0-.47.38-.85.85-.85.468 0 .849.38.849.85v.19c.733.186 1.354.673 1.71 1.341.143.268.133.591-.026.85-.16.258-.446.411-.75.402-.303-.01-.578-.18-.722-.447-.22-.401-.664-.627-1.118-.57-.37-.045-.741.083-1.006.346-.213.255-.249.614-.089.905.257.392.749.526 1.531.716l.548.134c1.844.503 2.235 1.587 2.235 2.403-.015.72-.336 1.398-.883 1.866z"/>
        <path id="prefix__e" d="M20.509 12.35l-1.665-1.665c-.332-.328-.865-.328-1.196 0-.161.16-.252.377-.252.603 0 .227.09.444.252.604l.212.212h-2.75c-.469 0-.849.38-.849.85 0 .469.38.849.85.849h2.771l-.212.212c-.28.338-.256.832.054 1.142.31.31.804.333 1.142.054l1.665-1.665c.076-.078.137-.169.179-.268.045-.103.067-.213.067-.324 0-.116-.023-.23-.067-.336-.05-.101-.117-.192-.201-.268z"/>
        <linearGradient id="prefix__a" x1="100%" x2="0%" y1="94.074%" y2="26.242%">
            <stop offset="0%" stop-color="#A16B28"/>
            <stop offset="100%" stop-color="#F2CB91"/>
        </linearGradient>
    </defs>
    <g fill="none" fill-rule="evenodd">
        <path fill="url(#prefix__a)" d="M36 18c0 9.941-8.058 18-18 18-9.94 0-18-8.059-18-18S8.06 0 18 0c9.942 0 18 8.059 18 18"/>
        <g fill-rule="nonzero" transform="translate(9 9)">
            <use fill="#000" filter="url(#prefix__b)" xlink:href="#prefix__c"/>
            <use fill="#FFF" xlink:href="#prefix__c"/>
            <g>
                <use fill="#000" filter="url(#prefix__d)" xlink:href="#prefix__e"/>
                <use fill="#FFF" xlink:href="#prefix__e"/>
            </g>
        </g>
    </g>
</svg>
