<svg xmlns="http://www.w3.org/2000/svg" xmlns:xlink="http://www.w3.org/1999/xlink" width="36" height="36" viewBox="0 0 36 36">
    <defs>
        <filter id="prefix__b" width="167.2%" height="177.2%" x="-28.8%" y="-27.6%" filterUnits="objectBoundingBox">
            <feOffset dx="1" dy="2" in="SourceAlpha" result="shadowOffsetOuter1"/>
            <feGaussianBlur in="shadowOffsetOuter1" result="shadowBlurOuter1" stdDeviation="2"/>
            <feColorMatrix in="shadowBlurOuter1" values="0 0 0 0 0.660750679 0 0 0 0 0.446941269 0 0 0 0 0.138105454 0 0 0 0.604867788 0"/>
        </filter>
        <filter id="prefix__d" width="219.5%" height="219.7%" x="-51.2%" y="-42.8%" filterUnits="objectBoundingBox">
            <feOffset dx="1" dy="2" in="SourceAlpha" result="shadowOffsetOuter1"/>
            <feGaussianBlur in="shadowOffsetOuter1" result="shadowBlurOuter1" stdDeviation="2"/>
            <feColorMatrix in="shadowBlurOuter1" values="0 0 0 0 0.660750679 0 0 0 0 0.446941269 0 0 0 0 0.138105454 0 0 0 0.604867788 0"/>
        </filter>
        <path id="prefix__c" d="M15.4 13.976c-4.189 0-7.584-3.396-7.584-7.584 0-.832.142-1.658.417-2.444h-.545l-.532-.66C6.49 2.354 5.408 1.808 4.26 1.83c-.13.014-.247.087-.317.197-.07.111-.085.247-.042.37l.961 2.317c.068.165.015.355-.127.463-1.422 1.08-2.379 2.662-2.675 4.423-.018.206-.187.365-.394.37H.672c-.224 0-.406.182-.406.406v3.416c-.003.108.039.213.115.29.077.076.182.118.29.115H1.83c.145.002.278.082.348.208.741 1.469 1.969 2.635 3.474 3.3.08.034.148.09.196.162l1.1 1.818c.115.177.31.285.521.29h1.587c.212 0 .409-.11.52-.29l1.066-1.702c.066-.124.196-.2.336-.197h.95c.142-.002.275.073.347.197l1.111 1.702c.109.178.301.288.51.29h1.586c.212 0 .41-.11.521-.29l1.158-1.84c.025-.037.056-.069.093-.093.765-.582 1.46-1.25 2.072-1.992 1.068-1.218 1.696-2.76 1.783-4.377-1.442 1.644-3.521 2.589-5.708 2.594z"/>
        <path id="prefix__e" d="M15.4.544c-2.905-.01-5.378 2.114-5.806 4.987-.427 2.874 1.32 5.626 4.104 6.461 2.783.835 5.756-.5 6.982-3.134.371-.77.565-1.612.567-2.466C21.241 3.165 18.627.55 15.4.544zm1.447 8.105c-.26.22-.57.376-.903.452v.081c0 .32-.259.58-.579.58-.32 0-.579-.26-.579-.58v-.139c-.638-.161-1.141-.652-1.32-1.285-.09-.307.087-.628.394-.718h.162c.256.004.48.172.556.417.104.347.336.51.81.556h.093c.215.002.424-.072.59-.209.104-.083.17-.204.186-.336 0-.08 0-.254-.556-.405l-.29-.116c-.638-.065-1.22-.392-1.609-.903-.375-.572-.337-1.32.093-1.852.234-.265.546-.447.891-.521V3.6c0-.32.26-.579.58-.579.319 0 .578.26.578.58v.08c.707.208 1.213.83 1.274 1.563.041.317-.182.607-.498.649h-.07c-.294.002-.543-.217-.578-.51-.003-.182-.082-.356-.218-.477-.137-.121-.319-.18-.5-.16-.212-.017-.422.054-.58.197-.104.146-.104.341 0 .487.151.22.44.3.915.405l.336.092c1.158.313 1.401 1.008 1.401 1.529-.015.461-.226.895-.579 1.192z"/>
        <linearGradient id="prefix__a" x1="100%" x2="0%" y1="94.074%" y2="26.242%">
            <stop offset="0%" stop-color="#A16B28"/>
            <stop offset="100%" stop-color="#F2CB91"/>
        </linearGradient>
    </defs>
    <g fill="none" fill-rule="evenodd">
        <path fill="url(#prefix__a)" d="M36 18c0 9.941-8.058 18-18 18-9.94 0-18-8.059-18-18S8.06 0 18 0c9.942 0 18 8.059 18 18"/>
        <g fill-rule="nonzero" transform="translate(7 8)">
            <use fill="#000" filter="url(#prefix__b)" xlink:href="#prefix__c"/>
            <use fill="#FFF" xlink:href="#prefix__c"/>
            <g>
                <use fill="#000" filter="url(#prefix__d)" xlink:href="#prefix__e"/>
                <use fill="#FFF" xlink:href="#prefix__e"/>
            </g>
        </g>
    </g>
</svg>
