<svg xmlns="http://www.w3.org/2000/svg" xmlns:xlink="http://www.w3.org/1999/xlink" width="64" height="64" viewBox="0 0 64 64">
    <defs>
        <filter id="prefix__b" width="138.9%" height="144.7%" x="-16.7%" y="-16%" filterUnits="objectBoundingBox">
            <feOffset dx="1" dy="2" in="SourceAlpha" result="shadowOffsetOuter1"/>
            <feGaussianBlur in="shadowOffsetOuter1" result="shadowBlurOuter1" stdDeviation="2"/>
            <feColorMatrix in="shadowBlurOuter1" values="0 0 0 0 0.660750679 0 0 0 0 0.446941269 0 0 0 0 0.138105454 0 0 0 0.604867788 0"/>
        </filter>
        <filter id="prefix__d" width="169.2%" height="169.3%" x="-29.6%" y="-24.8%" filterUnits="objectBoundingBox">
            <feOffset dx="1" dy="2" in="SourceAlpha" result="shadowOffsetOuter1"/>
            <feGaussianBlur in="shadowOffsetOuter1" result="shadowBlurOuter1" stdDeviation="2"/>
            <feColorMatrix in="shadowBlurOuter1" values="0 0 0 0 0.660750679 0 0 0 0 0.446941269 0 0 0 0 0.138105454 0 0 0 0.604867788 0"/>
        </filter>
        <path id="prefix__c" d="M26.6 24.14c-7.235 0-13.1-5.865-13.1-13.1.002-1.437.245-2.864.72-4.22h-.94l-.92-1.14c-1.149-1.614-3.02-2.557-5-2.52-.225.024-.426.15-.547.34-.12.191-.148.427-.073.64l1.66 4c.117.286.026.614-.22.8-2.456 1.866-4.108 4.598-4.62 7.64-.03.355-.323.631-.68.64H1.16c-.387 0-.7.313-.7.7v5.9c-.006.187.066.369.199.501.132.133.314.205.501.199h2c.25.004.479.141.6.36 1.28 2.537 3.4 4.551 6 5.7.138.059.256.156.34.28L12 34c.199.305.536.493.9.5h2.74c.366 0 .707-.189.9-.5l1.84-2.94c.113-.214.338-.346.58-.34h1.64c.247-.004.477.126.6.34L23.12 34c.187.308.52.497.88.5h2.74c.366 0 .707-.189.9-.5l2-3.18c.043-.063.097-.117.16-.16 1.322-1.005 2.523-2.16 3.58-3.44 1.844-2.104 2.928-4.766 3.08-7.56-2.491 2.84-6.083 4.47-9.86 4.48z"/>
        <path id="prefix__e" d="M26.6.94C21.581.92 17.31 4.59 16.572 9.554c-.738 4.964 2.28 9.717 7.088 11.16 4.806 1.442 9.943-.864 12.06-5.414.641-1.329.976-2.785.98-4.26C36.689 5.466 32.174.951 26.6.94zm2.5 14c-.45.38-.985.648-1.56.78v.14c0 .552-.448 1-1 1s-1-.448-1-1v-.24c-1.102-.28-1.972-1.126-2.28-2.22-.155-.53.15-1.085.68-1.24h.28c.442.006.83.297.96.72.18.6.58.88 1.4.96h.16c.372.004.733-.124 1.02-.36.178-.144.293-.352.32-.58 0-.14 0-.44-.96-.7l-.5-.2c-1.103-.112-2.11-.677-2.78-1.56-.647-.988-.583-2.281.16-3.2.404-.456.944-.772 1.54-.9v-.12c0-.552.448-1 1-1s1 .448 1 1v.14c1.22.36 2.095 1.432 2.2 2.7.07.547-.314 1.047-.86 1.12h-.12c-.509.004-.939-.375-1-.88-.004-.316-.14-.615-.377-.824-.236-.21-.55-.31-.863-.276-.366-.03-.729.092-1 .34-.18.251-.18.589 0 .84.26.38.76.52 1.58.7l.58.16c2 .54 2.42 1.74 2.42 2.64-.027.797-.39 1.546-1 2.06z"/>
        <linearGradient id="prefix__a" x1="100%" x2="0%" y1="94.074%" y2="26.242%">
            <stop offset="0%" stop-color="#A16B28"/>
            <stop offset="100%" stop-color="#F2CB91"/>
        </linearGradient>
    </defs>
    <g fill="none" fill-rule="evenodd">
        <path fill="url(#prefix__a)" d="M614 923.999C614 941.674 599.674 956 582 956c-17.672 0-32-14.326-32-32.001C550 906.326 564.328 892 582 892c17.674 0 32 14.326 32 31.999" transform="translate(-550 -892)"/>
        <g fill-rule="nonzero" transform="translate(-550 -892) translate(563 906)">
            <use fill="#000" filter="url(#prefix__b)" xlink:href="#prefix__c"/>
            <use fill="#FFF" xlink:href="#prefix__c"/>
            <g>
                <use fill="#000" filter="url(#prefix__d)" xlink:href="#prefix__e"/>
                <use fill="#FFF" xlink:href="#prefix__e"/>
            </g>
        </g>
    </g>
</svg>
