<svg xmlns="http://www.w3.org/2000/svg" width="24" height="24" viewBox="0 0 24 24">
    <g fill="none" fill-rule="evenodd" stroke-linecap="round" stroke-linejoin="round" stroke-width="1.5">
        <path stroke="#1E1E1E" d="M17.33 9.003c0 4.598-3.729 8.326-8.328 8.326-4.599 0-8.327-3.728-8.327-8.326 0-4.6 3.728-8.328 8.327-8.328 4.6 0 8.327 3.729 8.327 8.328z" transform="translate(3 3)"/>
        <path stroke="#C19438" d="M11.887 8.492c.364.244.364.777 0 1.02l-1.852 1.24-1.659 1.11c-.408.273-.955-.02-.955-.51V6.653c0-.491.547-.784.955-.51l1.66 1.11 1.851 1.239z" transform="translate(3 3)"/>
    </g>
</svg>
