<svg xmlns="http://www.w3.org/2000/svg" xmlns:xlink="http://www.w3.org/1999/xlink" width="48" height="48" viewBox="0 0 48 48">
    <defs>
        <linearGradient id="1gcn87jnfa" x1="37.834%" x2="69.559%" y1="6.781%" y2="100%">
            <stop offset="0%" stop-color="#3B3B3B"/>
            <stop offset="100%" stop-color="#242424"/>
        </linearGradient>
        <linearGradient id="r3ps9d3dme" x1="35.092%" x2="73.999%" y1="0%" y2="100%">
            <stop offset="0%" stop-color="#BA8E4E"/>
            <stop offset="34.927%" stop-color="#DFB77D"/>
            <stop offset="53.353%" stop-color="#FFDFB0"/>
            <stop offset="100%" stop-color="#B38348"/>
        </linearGradient>
        <linearGradient id="x7xc8kqysd" x1="89.878%" x2="19.977%" y1="95.969%" y2="0%">
            <stop offset="0%" stop-color="#6C522F"/>
            <stop offset="24.835%" stop-color="#BFA177"/>
            <stop offset="50.306%" stop-color="#A57D42"/>
            <stop offset="100%" stop-color="#FFE5B1"/>
        </linearGradient>
        <linearGradient id="8mlwu7y0uf" x1="0%" x2="66.067%" y1="38.265%" y2="89.334%">
            <stop offset="0%" stop-color="#39260D"/>
            <stop offset="48.129%" stop-color="#AB8347"/>
            <stop offset="100%" stop-color="#3A3731"/>
        </linearGradient>
        <filter id="25dh75musc" width="104.6%" height="104.6%" x="-2.3%" y="-2.3%" filterUnits="objectBoundingBox">
            <feMorphology in="SourceAlpha" radius=".1" result="shadowSpreadInner1"/>
            <feGaussianBlur in="shadowSpreadInner1" result="shadowBlurInner1" stdDeviation=".25"/>
            <feOffset dy="-1" in="shadowBlurInner1" result="shadowOffsetInner1"/>
            <feComposite in="shadowOffsetInner1" in2="SourceAlpha" k2="-1" k3="1" operator="arithmetic" result="shadowInnerInner1"/>
            <feColorMatrix in="shadowInnerInner1" result="shadowMatrixInner1" values="0 0 0 0 0.724326313 0 0 0 0 0.724326313 0 0 0 0 0.724326313 0 0 0 0.1 0"/>
            <feMorphology in="SourceAlpha" radius=".4" result="shadowSpreadInner2"/>
            <feGaussianBlur in="shadowSpreadInner2" result="shadowBlurInner2" stdDeviation=".25"/>
            <feOffset dy="-1.3" in="shadowBlurInner2" result="shadowOffsetInner2"/>
            <feComposite in="shadowOffsetInner2" in2="SourceAlpha" k2="-1" k3="1" operator="arithmetic" result="shadowInnerInner2"/>
            <feColorMatrix in="shadowInnerInner2" result="shadowMatrixInner2" values="0 0 0 0 0 0 0 0 0 0 0 0 0 0 0 0 0 0 0.6 0"/>
            <feMerge>
                <feMergeNode in="shadowMatrixInner1"/>
                <feMergeNode in="shadowMatrixInner2"/>
            </feMerge>
        </filter>
        <filter id="2uvzfs3y0h" width="108.3%" height="108.3%" x="-4.2%" y="-4.2%" filterUnits="objectBoundingBox">
            <feGaussianBlur in="SourceAlpha" result="shadowBlurInner1" stdDeviation=".5"/>
            <feOffset in="shadowBlurInner1" result="shadowOffsetInner1"/>
            <feComposite in="shadowOffsetInner1" in2="SourceAlpha" k2="-1" k3="1" operator="arithmetic" result="shadowInnerInner1"/>
            <feColorMatrix in="shadowInnerInner1" values="0 0 0 0 0.2362149 0 0 0 0 0.141786934 0 0 0 0 0.0130215264 0 0 0 1 0"/>
        </filter>
        <circle id="hb5vcjqtdb" cx="24" cy="24" r="24"/>
        <path id="4aov3d26ig" d="M24 20c3.314 0 6 2.686 6 6s-2.686 6-6 6-6-2.686-6-6 2.686-6 6-6zm.95 2h-1.572v.784c-.913.206-1.589.923-1.589 1.997 0 1.246.661 1.702 2.07 2.052l.127.031c.815.202.98.303.98.51 0 .818-1.933.726-1.933-.301H21.79l.008.19c.078.996.769 1.624 1.58 1.866l.001.871h1.572v-.882c.712-.237 1.26-.814 1.26-1.744 0-1.106-.572-1.458-1.943-1.796l-.125-.031c-.89-.222-1.109-.372-1.109-.766 0-.471.366-.753.95-.735.584.017.984.333.984.735h1.244l-.007-.174c-.064-.797-.566-1.39-1.253-1.683L24.95 22z"/>
    </defs>
    <g fill="none" fill-rule="evenodd">
        <use fill="url(#1gcn87jnfa)" xlink:href="#hb5vcjqtdb"/>
        <use fill="#000" filter="url(#25dh75musc)" xlink:href="#hb5vcjqtdb"/>
        <path fill="url(#r3ps9d3dme)" stroke="url(#x7xc8kqysd)" stroke-width=".5" d="M29.016 16.851c.244-.255 1.748-.787 2.226-1.323.404-.455.833-.96.748-1.6-.13-.967-1.299-.753-1.984-.56-.55.156-1.16.216-1.643-.136-.425-.31-.653-.804-1.12-1.076-.39-.228-.914-.201-1.288.05-.396.265-.545.74-.844 1.087 0 0 0 0 0 0-.426.497-1.138.635-1.72.335-.256-.131-.423-.243-.502-.335-.298-.348-.448-.822-.846-1.087-.372-.251-.896-.278-1.286-.05-.467.272-.695.765-1.12 1.076-.481.352-1.092.292-1.643.137-.687-.194-1.854-.408-1.984.56-.083.638.345 1.144.749 1.6.477.535 1.98 1.067 2.225 1.322-.486.258-.925.63-1.294.974-2.471 2.303-4.895 5.25-4.676 8.739.144 2.287 1.082 4.633 2.935 6.184 1.984 1.658 5.407 2.184 8.007 2.248.014.003.03.001.045.001l.043.003c2.6-.068 6.023-.594 8.007-2.252 1.853-1.55 2.79-3.897 2.935-6.184.218-3.49-2.205-6.436-4.676-8.74-.368-.343-.808-.715-1.294-.973z"/>
        <g>
            <use fill="url(#8mlwu7y0uf)" xlink:href="#4aov3d26ig"/>
            <use fill="#000" filter="url(#2uvzfs3y0h)" xlink:href="#4aov3d26ig"/>
        </g>
    </g>
</svg>
