<svg xmlns="http://www.w3.org/2000/svg" width="20" height="20" viewBox="0 0 20 20">
    <defs>
        <linearGradient id="prefix__a" x1="40.34%" x2="58.651%" y1="2.23%" y2="65.196%">
            <stop offset="0%" stop-color="#E9A85B"/>
            <stop offset="100%" stop-color="#C38B47"/>
        </linearGradient>
    </defs>
    <path fill="url(#prefix__a)" fill-rule="evenodd" d="M6.817 11.818l3.222.02 2.234.013v.91l-5.494-.034c-1.605-.01-3.028 1.03-3.5 2.56l-.612 1.986H17.16l-.318-.91h1.014l.183.513c.183.513-.095 1.073-.62 1.251-.107.036-.219.055-.332.055H2.74c-.556 0-1.007-.44-1.007-.982 0-.098.015-.196.044-.29l.607-1.92c.598-1.896 2.4-3.184 4.434-3.172zm9.383-1.363v2.272h2.273v.746H16.2v2.272h-.745v-2.272h-2.273v-.746h2.273v-2.272h.745zm-5.973-8.637c2.308 0 3.41 1.56 3.41 4.091 0 2.247-1.513 4.091-3.41 4.091-1.896 0-3.409-1.844-3.409-4.09 0-2.532 1.101-4.092 3.41-4.092z"/>
</svg>
