<svg xmlns="http://www.w3.org/2000/svg" xmlns:xlink="http://www.w3.org/1999/xlink" width="48" height="48" viewBox="0 0 48 48">
    <defs>
        <linearGradient id="221oow9zda" x1="37.834%" x2="69.559%" y1="6.781%" y2="100%">
            <stop offset="0%" stop-color="#3B3B3B"/>
            <stop offset="100%" stop-color="#242424"/>
        </linearGradient>
        <linearGradient id="vb5eeve6he" x1="43.946%" x2="66.696%" y1="17.148%" y2="87.888%">
            <stop offset="0%" stop-color="#BA8E4E"/>
            <stop offset="34.927%" stop-color="#DFB77D"/>
            <stop offset="59.665%" stop-color="#FFDFB0"/>
            <stop offset="100%" stop-color="#B38348"/>
        </linearGradient>
        <linearGradient id="0om7dt9n1d" x1="68.207%" x2="36.538%" y1="91.167%" y2="11.016%">
            <stop offset="0%" stop-color="#CAB08D"/>
            <stop offset="25.599%" stop-color="#A57D42"/>
            <stop offset="100%" stop-color="#FFE5B1"/>
        </linearGradient>
        <linearGradient id="vi4btklhff" x1="0%" x2="66.067%" y1="49.883%" y2="50.393%">
            <stop offset="0%" stop-color="#39260D"/>
            <stop offset="48.129%" stop-color="#AB8347"/>
            <stop offset="100%" stop-color="#3A3731"/>
        </linearGradient>
        <linearGradient id="vk0a8nedjk" x1="0%" x2="66.067%" y1="38.265%" y2="89.334%">
            <stop offset="0%" stop-color="#39260D"/>
            <stop offset="48.129%" stop-color="#AB8347"/>
            <stop offset="100%" stop-color="#3A3731"/>
        </linearGradient>
        <filter id="zc5h5dfvtc" width="104.6%" height="104.6%" x="-2.3%" y="-2.3%" filterUnits="objectBoundingBox">
            <feMorphology in="SourceAlpha" radius=".1" result="shadowSpreadInner1"/>
            <feGaussianBlur in="shadowSpreadInner1" result="shadowBlurInner1" stdDeviation=".25"/>
            <feOffset dy="-1" in="shadowBlurInner1" result="shadowOffsetInner1"/>
            <feComposite in="shadowOffsetInner1" in2="SourceAlpha" k2="-1" k3="1" operator="arithmetic" result="shadowInnerInner1"/>
            <feColorMatrix in="shadowInnerInner1" result="shadowMatrixInner1" values="0 0 0 0 0.724326313 0 0 0 0 0.724326313 0 0 0 0 0.724326313 0 0 0 0.1 0"/>
            <feMorphology in="SourceAlpha" radius=".4" result="shadowSpreadInner2"/>
            <feGaussianBlur in="shadowSpreadInner2" result="shadowBlurInner2" stdDeviation=".25"/>
            <feOffset dy="-1.3" in="shadowBlurInner2" result="shadowOffsetInner2"/>
            <feComposite in="shadowOffsetInner2" in2="SourceAlpha" k2="-1" k3="1" operator="arithmetic" result="shadowInnerInner2"/>
            <feColorMatrix in="shadowInnerInner2" result="shadowMatrixInner2" values="0 0 0 0 0 0 0 0 0 0 0 0 0 0 0 0 0 0 0.6 0"/>
            <feMerge>
                <feMergeNode in="shadowMatrixInner1"/>
                <feMergeNode in="shadowMatrixInner2"/>
            </feMerge>
        </filter>
        <filter id="gkyqzuutbh" width="110%" height="200%" x="-5%" y="-50%" filterUnits="objectBoundingBox">
            <feGaussianBlur in="SourceAlpha" result="shadowBlurInner1" stdDeviation=".5"/>
            <feOffset in="shadowBlurInner1" result="shadowOffsetInner1"/>
            <feComposite in="shadowOffsetInner1" in2="SourceAlpha" k2="-1" k3="1" operator="arithmetic" result="shadowInnerInner1"/>
            <feColorMatrix in="shadowInnerInner1" values="0 0 0 0 0.2362149 0 0 0 0 0.141786934 0 0 0 0 0.0130215264 0 0 0 1 0"/>
        </filter>
        <filter id="y156n51yvj" width="110%" height="200%" x="-5%" y="-50%" filterUnits="objectBoundingBox">
            <feGaussianBlur in="SourceAlpha" result="shadowBlurInner1" stdDeviation=".5"/>
            <feOffset in="shadowBlurInner1" result="shadowOffsetInner1"/>
            <feComposite in="shadowOffsetInner1" in2="SourceAlpha" k2="-1" k3="1" operator="arithmetic" result="shadowInnerInner1"/>
            <feColorMatrix in="shadowInnerInner1" values="0 0 0 0 0.2362149 0 0 0 0 0.141786934 0 0 0 0 0.0130215264 0 0 0 1 0"/>
        </filter>
        <filter id="l9nvoqdukm" width="110%" height="110%" x="-5%" y="-5%" filterUnits="objectBoundingBox">
            <feGaussianBlur in="SourceAlpha" result="shadowBlurInner1" stdDeviation=".5"/>
            <feOffset in="shadowBlurInner1" result="shadowOffsetInner1"/>
            <feComposite in="shadowOffsetInner1" in2="SourceAlpha" k2="-1" k3="1" operator="arithmetic" result="shadowInnerInner1"/>
            <feColorMatrix in="shadowInnerInner1" values="0 0 0 0 0.2362149 0 0 0 0 0.141786934 0 0 0 0 0.0130215264 0 0 0 1 0"/>
        </filter>
        <path id="f8t9vp48vg" d="M3 18H13V19H3z"/>
        <path id="kxkftl354i" d="M3 15H13V16H3z"/>
        <path id="69v4svo1sl" d="M8 3c2.761 0 5 2.239 5 5s-2.239 5-5 5-5-2.239-5-5 2.239-5 5-5zm.791 1.667h-1.31v.653c-.76.172-1.323.769-1.323 1.664 0 1.039.55 1.419 1.724 1.71l.106.026c.68.168.817.253.817.425 0 .681-1.61.605-1.61-.251H6.158l.007.169c.069.824.642 1.343 1.316 1.544v.726h1.31l.001-.735c.593-.197 1.05-.678 1.05-1.453 0-.922-.477-1.215-1.62-1.497l-.104-.026c-.742-.184-.923-.31-.923-.638 0-.393.304-.627.79-.613.487.015.82.278.82.613h1.037l-.006-.155c-.057-.659-.474-1.15-1.044-1.392v-.77z"/>
        <circle id="zwj18yy57b" cx="24" cy="24" r="24"/>
    </defs>
    <g fill="none" fill-rule="evenodd">
        <use fill="url(#221oow9zda)" xlink:href="#zwj18yy57b"/>
        <use fill="#000" filter="url(#zc5h5dfvtc)" xlink:href="#zwj18yy57b"/>
        <g transform="translate(16 12)">
            <path fill="url(#vb5eeve6he)" stroke="url(#0om7dt9n1d)" stroke-width=".5" d="M0 0L16 0 16 24 14 22 12 24 10 22 8 24 6 22 4 24 2 22 0 24z"/>
            <use fill="url(#vi4btklhff)" xlink:href="#f8t9vp48vg"/>
            <use fill="#000" filter="url(#gkyqzuutbh)" xlink:href="#f8t9vp48vg"/>
            <use fill="url(#vi4btklhff)" xlink:href="#kxkftl354i"/>
            <use fill="#000" filter="url(#y156n51yvj)" xlink:href="#kxkftl354i"/>
            <g>
                <use fill="url(#vk0a8nedjk)" xlink:href="#69v4svo1sl"/>
                <use fill="#000" filter="url(#l9nvoqdukm)" xlink:href="#69v4svo1sl"/>
            </g>
        </g>
    </g>
</svg>
