<svg xmlns="http://www.w3.org/2000/svg" xmlns:xlink="http://www.w3.org/1999/xlink" width="312" height="240" viewBox="0 0 312 240">
    <defs>
        <radialGradient id="prefix__a" cx="8.625%" cy="6.597%" r="131.691%" fx="8.625%" fy="6.597%" gradientTransform="scale(.76923 1) rotate(41.32 .1 .1)">
            <stop offset="0%" stop-color="#48453C"/>
            <stop offset="100%"/>
        </radialGradient>
        <radialGradient id="prefix__p" cx="55.777%" cy="78.897%" r="153.904%" fx="55.777%" fy="78.897%" gradientTransform="matrix(.40353 -.85928 .58756 .44337 -.13 .918)">
            <stop offset="0%" stop-color="#080603" stop-opacity="0"/>
            <stop offset="10.741%" stop-color="#D3995D"/>
            <stop offset="17.38%" stop-color="#B1895C" stop-opacity="0"/>
            <stop offset="28.494%" stop-color="#FFE5C7"/>
            <stop offset="40.204%" stop-color="#FFF"/>
            <stop offset="48.145%" stop-color="#F6D2A8"/>
            <stop offset="100%" stop-opacity="0"/>
        </radialGradient>
        <radialGradient id="prefix__q" cx="55.777%" cy="78.897%" r="155.147%" fx="55.777%" fy="78.897%" gradientTransform="matrix(.4003 -.85303 .56714 .45234 -.113 .908)">
            <stop offset="0%" stop-color="#080603" stop-opacity="0"/>
            <stop offset="10.741%" stop-color="#D3995D"/>
            <stop offset="17.38%" stop-color="#B1895C" stop-opacity="0"/>
            <stop offset="28.494%" stop-color="#FFE5C7"/>
            <stop offset="40.204%" stop-color="#FFF"/>
            <stop offset="48.145%" stop-color="#F6D2A8"/>
            <stop offset="100%" stop-opacity="0"/>
        </radialGradient>
        <radialGradient id="prefix__r" cx="55.777%" cy="78.897%" r="156.356%" fx="55.777%" fy="78.897%" gradientTransform="matrix(.3972 -.84643 .54725 .46156 -.096 .897)">
            <stop offset="0%" stop-color="#080603" stop-opacity="0"/>
            <stop offset="10.741%" stop-color="#D3995D"/>
            <stop offset="17.38%" stop-color="#B1895C" stop-opacity="0"/>
            <stop offset="28.494%" stop-color="#FFE5C7"/>
            <stop offset="40.204%" stop-color="#FFF"/>
            <stop offset="48.145%" stop-color="#F6D2A8"/>
            <stop offset="100%" stop-opacity="0"/>
        </radialGradient>
        <radialGradient id="prefix__s" cx="55.777%" cy="78.897%" r="157.62%" fx="55.777%" fy="78.897%" gradientTransform="matrix(.39401 -.83964 .52796 .47078 -.079 .886)">
            <stop offset="0%" stop-color="#080603" stop-opacity="0"/>
            <stop offset="10.741%" stop-color="#D3995D"/>
            <stop offset="17.38%" stop-color="#B1895C" stop-opacity="0"/>
            <stop offset="28.494%" stop-color="#FFE5C7"/>
            <stop offset="40.204%" stop-color="#FFF"/>
            <stop offset="48.145%" stop-color="#F6D2A8"/>
            <stop offset="100%" stop-opacity="0"/>
        </radialGradient>
        <radialGradient id="prefix__t" cx="55.777%" cy="78.897%" r="158.94%" fx="55.777%" fy="78.897%" gradientTransform="matrix(.39074 -.83267 .50926 .48 -.062 .875)">
            <stop offset="0%" stop-color="#080603" stop-opacity="0"/>
            <stop offset="10.741%" stop-color="#D3995D"/>
            <stop offset="17.38%" stop-color="#B1895C" stop-opacity="0"/>
            <stop offset="28.494%" stop-color="#FFE5C7"/>
            <stop offset="40.204%" stop-color="#FFF"/>
            <stop offset="48.145%" stop-color="#F6D2A8"/>
            <stop offset="100%" stop-opacity="0"/>
        </radialGradient>
        <radialGradient id="prefix__u" cx="55.777%" cy="78.897%" r="160.318%" fx="55.777%" fy="78.897%" gradientTransform="matrix(.38738 -.82551 .49112 .4892 -.046 .863)">
            <stop offset="0%" stop-color="#080603" stop-opacity="0"/>
            <stop offset="10.741%" stop-color="#D3995D"/>
            <stop offset="17.38%" stop-color="#B1895C" stop-opacity="0"/>
            <stop offset="28.494%" stop-color="#FFE5C7"/>
            <stop offset="40.204%" stop-color="#FFF"/>
            <stop offset="48.145%" stop-color="#F6D2A8"/>
            <stop offset="100%" stop-opacity="0"/>
        </radialGradient>
        <radialGradient id="prefix__v" cx="55.777%" cy="78.897%" r="161.758%" fx="55.777%" fy="78.897%" gradientTransform="matrix(.38393 -.81816 .47352 .49838 -.03 .852)">
            <stop offset="0%" stop-color="#080603" stop-opacity="0"/>
            <stop offset="10.741%" stop-color="#D3995D"/>
            <stop offset="17.38%" stop-color="#B1895C" stop-opacity="0"/>
            <stop offset="28.494%" stop-color="#FFE5C7"/>
            <stop offset="40.204%" stop-color="#FFF"/>
            <stop offset="48.145%" stop-color="#F6D2A8"/>
            <stop offset="100%" stop-opacity="0"/>
        </radialGradient>
        <radialGradient id="prefix__w" cx="55.777%" cy="78.897%" r="163.262%" fx="55.777%" fy="78.897%" gradientTransform="matrix(.3804 -.81063 .45645 .50755 -.015 .84)">
            <stop offset="0%" stop-color="#080603" stop-opacity="0"/>
            <stop offset="10.741%" stop-color="#D3995D"/>
            <stop offset="17.38%" stop-color="#B1895C" stop-opacity="0"/>
            <stop offset="28.494%" stop-color="#FFE5C7"/>
            <stop offset="40.204%" stop-color="#FFF"/>
            <stop offset="48.145%" stop-color="#F6D2A8"/>
            <stop offset="100%" stop-opacity="0"/>
        </radialGradient>
        <radialGradient id="prefix__x" cx="55.777%" cy="78.897%" r="164.831%" fx="55.777%" fy="78.897%" gradientTransform="matrix(.37677 -.8029 .43988 .51669 0 .83)">
            <stop offset="0%" stop-color="#080603" stop-opacity="0"/>
            <stop offset="10.741%" stop-color="#D3995D"/>
            <stop offset="17.38%" stop-color="#B1895C" stop-opacity="0"/>
            <stop offset="28.494%" stop-color="#FFE5C7"/>
            <stop offset="40.204%" stop-color="#FFF"/>
            <stop offset="48.145%" stop-color="#F6D2A8"/>
            <stop offset="100%" stop-opacity="0"/>
        </radialGradient>
        <radialGradient id="prefix__y" cx="55.777%" cy="78.897%" r="166.471%" fx="55.777%" fy="78.897%" gradientTransform="matrix(.37307 -.795 .42379 .52579 .015 .818)">
            <stop offset="0%" stop-color="#080603" stop-opacity="0"/>
            <stop offset="10.741%" stop-color="#D3995D"/>
            <stop offset="17.38%" stop-color="#B1895C" stop-opacity="0"/>
            <stop offset="28.494%" stop-color="#FFE5C7"/>
            <stop offset="40.204%" stop-color="#FFF"/>
            <stop offset="48.145%" stop-color="#F6D2A8"/>
            <stop offset="100%" stop-opacity="0"/>
        </radialGradient>
        <radialGradient id="prefix__z" cx="55.777%" cy="78.897%" r="168.182%" fx="55.777%" fy="78.897%" gradientTransform="matrix(.36927 -.78691 .40817 .53485 .03 .806)">
            <stop offset="0%" stop-color="#080603" stop-opacity="0"/>
            <stop offset="10.741%" stop-color="#D3995D"/>
            <stop offset="17.38%" stop-color="#B1895C" stop-opacity="0"/>
            <stop offset="28.494%" stop-color="#FFE5C7"/>
            <stop offset="40.204%" stop-color="#FFF"/>
            <stop offset="48.145%" stop-color="#F6D2A8"/>
            <stop offset="100%" stop-opacity="0"/>
        </radialGradient>
        <radialGradient id="prefix__A" cx="55.777%" cy="78.897%" r="169.969%" fx="55.777%" fy="78.897%" gradientTransform="matrix(.36539 -.77864 .393 .54387 .044 .794)">
            <stop offset="0%" stop-color="#080603" stop-opacity="0"/>
            <stop offset="10.741%" stop-color="#D3995D"/>
            <stop offset="17.38%" stop-color="#B1895C" stop-opacity="0"/>
            <stop offset="28.494%" stop-color="#FFE5C7"/>
            <stop offset="40.204%" stop-color="#FFF"/>
            <stop offset="48.145%" stop-color="#F6D2A8"/>
            <stop offset="100%" stop-opacity="0"/>
        </radialGradient>
        <radialGradient id="prefix__B" cx="55.777%" cy="78.897%" r="171.834%" fx="55.777%" fy="78.897%" gradientTransform="matrix(.36142 -.77019 .37828 .55284 .058 .782)">
            <stop offset="0%" stop-color="#080603" stop-opacity="0"/>
            <stop offset="10.741%" stop-color="#D3995D"/>
            <stop offset="17.38%" stop-color="#B1895C" stop-opacity="0"/>
            <stop offset="28.494%" stop-color="#FFE5C7"/>
            <stop offset="40.204%" stop-color="#FFF"/>
            <stop offset="48.145%" stop-color="#F6D2A8"/>
            <stop offset="100%" stop-opacity="0"/>
        </radialGradient>
        <radialGradient id="prefix__C" cx="55.777%" cy="78.897%" r="173.782%" fx="55.777%" fy="78.897%" gradientTransform="matrix(.35737 -.76156 .36399 .56175 .071 .77)">
            <stop offset="0%" stop-color="#080603" stop-opacity="0"/>
            <stop offset="10.741%" stop-color="#D3995D"/>
            <stop offset="17.38%" stop-color="#B1895C" stop-opacity="0"/>
            <stop offset="28.494%" stop-color="#FFE5C7"/>
            <stop offset="40.204%" stop-color="#FFF"/>
            <stop offset="48.145%" stop-color="#F6D2A8"/>
            <stop offset="100%" stop-opacity="0"/>
        </radialGradient>
        <radialGradient id="prefix__D" cx="55.777%" cy="78.897%" r="175.815%" fx="55.777%" fy="78.897%" gradientTransform="matrix(.35324 -.75275 .3501 .5706 .085 .759)">
            <stop offset="0%" stop-color="#080603" stop-opacity="0"/>
            <stop offset="10.741%" stop-color="#D3995D"/>
            <stop offset="17.38%" stop-color="#B1895C" stop-opacity="0"/>
            <stop offset="28.494%" stop-color="#FFE5C7"/>
            <stop offset="40.204%" stop-color="#FFF"/>
            <stop offset="48.145%" stop-color="#F6D2A8"/>
            <stop offset="100%" stop-opacity="0"/>
        </radialGradient>
        <radialGradient id="prefix__E" cx="55.777%" cy="78.897%" r="177.937%" fx="55.777%" fy="78.897%" gradientTransform="matrix(.34902 -.74377 .33662 .57938 .098 .747)">
            <stop offset="0%" stop-color="#080603" stop-opacity="0"/>
            <stop offset="10.741%" stop-color="#D3995D"/>
            <stop offset="17.38%" stop-color="#B1895C" stop-opacity="0"/>
            <stop offset="28.494%" stop-color="#FFE5C7"/>
            <stop offset="40.204%" stop-color="#FFF"/>
            <stop offset="48.145%" stop-color="#F6D2A8"/>
            <stop offset="100%" stop-opacity="0"/>
        </radialGradient>
        <radialGradient id="prefix__F" cx="55.777%" cy="78.897%" r="180.154%" fx="55.777%" fy="78.897%" gradientTransform="matrix(.34473 -.73462 .32353 .58809 .11 .735)">
            <stop offset="0%" stop-color="#080603" stop-opacity="0"/>
            <stop offset="10.741%" stop-color="#D3995D"/>
            <stop offset="17.38%" stop-color="#B1895C" stop-opacity="0"/>
            <stop offset="28.494%" stop-color="#FFE5C7"/>
            <stop offset="40.204%" stop-color="#FFF"/>
            <stop offset="48.145%" stop-color="#F6D2A8"/>
            <stop offset="100%" stop-opacity="0"/>
        </radialGradient>
        <radialGradient id="prefix__G" cx="55.777%" cy="78.897%" r="182.467%" fx="55.777%" fy="78.897%" gradientTransform="matrix(.34036 -.7253 .31082 .59671 .123 .723)">
            <stop offset="0%" stop-color="#080603" stop-opacity="0"/>
            <stop offset="10.741%" stop-color="#D3995D"/>
            <stop offset="17.38%" stop-color="#B1895C" stop-opacity="0"/>
            <stop offset="28.494%" stop-color="#FFE5C7"/>
            <stop offset="40.204%" stop-color="#FFF"/>
            <stop offset="48.145%" stop-color="#F6D2A8"/>
            <stop offset="100%" stop-opacity="0"/>
        </radialGradient>
        <radialGradient id="prefix__H" cx="55.777%" cy="78.897%" r="184.884%" fx="55.777%" fy="78.897%" gradientTransform="matrix(.33591 -.71583 .29847 .60525 .135 .71)">
            <stop offset="0%" stop-color="#080603" stop-opacity="0"/>
            <stop offset="10.741%" stop-color="#D3995D"/>
            <stop offset="17.38%" stop-color="#B1895C" stop-opacity="0"/>
            <stop offset="28.494%" stop-color="#FFE5C7"/>
            <stop offset="40.204%" stop-color="#FFF"/>
            <stop offset="48.145%" stop-color="#F6D2A8"/>
            <stop offset="100%" stop-opacity="0"/>
        </radialGradient>
        <radialGradient id="prefix__I" cx="55.777%" cy="78.897%" r="187.407%" fx="55.777%" fy="78.897%" gradientTransform="matrix(.33139 -.70619 .2865 .6137 .147 .699)">
            <stop offset="0%" stop-color="#080603" stop-opacity="0"/>
            <stop offset="10.741%" stop-color="#D3995D"/>
            <stop offset="17.38%" stop-color="#B1895C" stop-opacity="0"/>
            <stop offset="28.494%" stop-color="#FFE5C7"/>
            <stop offset="40.204%" stop-color="#FFF"/>
            <stop offset="48.145%" stop-color="#F6D2A8"/>
            <stop offset="100%" stop-opacity="0"/>
        </radialGradient>
        <radialGradient id="prefix__J" cx="55.777%" cy="78.897%" r="190.042%" fx="55.777%" fy="78.897%" gradientTransform="matrix(.3268 -.6964 .27487 .62204 .159 .687)">
            <stop offset="0%" stop-color="#080603" stop-opacity="0"/>
            <stop offset="10.741%" stop-color="#D3995D"/>
            <stop offset="17.38%" stop-color="#B1895C" stop-opacity="0"/>
            <stop offset="28.494%" stop-color="#FFE5C7"/>
            <stop offset="40.204%" stop-color="#FFF"/>
            <stop offset="48.145%" stop-color="#F6D2A8"/>
            <stop offset="100%" stop-opacity="0"/>
        </radialGradient>
        <radialGradient id="prefix__K" cx="55.777%" cy="78.897%" r="192.793%" fx="55.777%" fy="78.897%" gradientTransform="matrix(.32213 -.68646 .26358 .6303 .17 .675)">
            <stop offset="0%" stop-color="#080603" stop-opacity="0"/>
            <stop offset="10.741%" stop-color="#D3995D"/>
            <stop offset="17.38%" stop-color="#B1895C" stop-opacity="0"/>
            <stop offset="28.494%" stop-color="#FFE5C7"/>
            <stop offset="40.204%" stop-color="#FFF"/>
            <stop offset="48.145%" stop-color="#F6D2A8"/>
            <stop offset="100%" stop-opacity="0"/>
        </radialGradient>
        <radialGradient id="prefix__af" cx="60.345%" cy="81.914%" r="103.058%" fx="60.345%" fy="81.914%" gradientTransform="matrix(.6268 -.6072 .4152 .68869 -.115 .621)">
            <stop offset="0%" stop-color="#080603" stop-opacity="0"/>
            <stop offset="7.427%" stop-color="#D3995D"/>
            <stop offset="17.38%" stop-color="#B1895C" stop-opacity="0"/>
            <stop offset="28.494%" stop-color="#FFE5C7"/>
            <stop offset="40.204%" stop-color="#FFF"/>
            <stop offset="48.145%" stop-color="#F6D2A8"/>
            <stop offset="100%" stop-opacity="0"/>
        </radialGradient>
        <radialGradient id="prefix__ag" cx="60.345%" cy="81.914%" r="104.92%" fx="60.345%" fy="81.914%" gradientTransform="matrix(.61568 -.59643 .39654 .69573 -.093 .61)">
            <stop offset="0%" stop-color="#080603" stop-opacity="0"/>
            <stop offset="7.427%" stop-color="#D3995D"/>
            <stop offset="17.38%" stop-color="#B1895C" stop-opacity="0"/>
            <stop offset="28.494%" stop-color="#FFE5C7"/>
            <stop offset="40.204%" stop-color="#FFF"/>
            <stop offset="48.145%" stop-color="#F6D2A8"/>
            <stop offset="100%" stop-opacity="0"/>
        </radialGradient>
        <radialGradient id="prefix__ah" cx="60.345%" cy="81.914%" r="106.845%" fx="60.345%" fy="81.914%" gradientTransform="matrix(.60459 -.58568 .37866 .70255 -.072 .597)">
            <stop offset="0%" stop-color="#080603" stop-opacity="0"/>
            <stop offset="7.427%" stop-color="#D3995D"/>
            <stop offset="17.38%" stop-color="#B1895C" stop-opacity="0"/>
            <stop offset="28.494%" stop-color="#FFE5C7"/>
            <stop offset="40.204%" stop-color="#FFF"/>
            <stop offset="48.145%" stop-color="#F6D2A8"/>
            <stop offset="100%" stop-opacity="0"/>
        </radialGradient>
        <radialGradient id="prefix__ai" cx="60.345%" cy="81.914%" r="108.835%" fx="60.345%" fy="81.914%" gradientTransform="matrix(.59353 -.57497 .36154 .70917 -.05 .585)">
            <stop offset="0%" stop-color="#080603" stop-opacity="0"/>
            <stop offset="7.427%" stop-color="#D3995D"/>
            <stop offset="17.38%" stop-color="#B1895C" stop-opacity="0"/>
            <stop offset="28.494%" stop-color="#FFE5C7"/>
            <stop offset="40.204%" stop-color="#FFF"/>
            <stop offset="48.145%" stop-color="#F6D2A8"/>
            <stop offset="100%" stop-opacity="0"/>
        </radialGradient>
        <radialGradient id="prefix__aj" cx="60.345%" cy="81.914%" r="110.893%" fx="60.345%" fy="81.914%" gradientTransform="matrix(.58252 -.5643 .34513 .71558 -.03 .574)">
            <stop offset="0%" stop-color="#080603" stop-opacity="0"/>
            <stop offset="7.427%" stop-color="#D3995D"/>
            <stop offset="17.38%" stop-color="#B1895C" stop-opacity="0"/>
            <stop offset="28.494%" stop-color="#FFE5C7"/>
            <stop offset="40.204%" stop-color="#FFF"/>
            <stop offset="48.145%" stop-color="#F6D2A8"/>
            <stop offset="100%" stop-opacity="0"/>
        </radialGradient>
        <radialGradient id="prefix__ak" cx="60.345%" cy="81.914%" r="113.019%" fx="60.345%" fy="81.914%" gradientTransform="matrix(.57156 -.55369 .3294 .72178 -.011 .562)">
            <stop offset="0%" stop-color="#080603" stop-opacity="0"/>
            <stop offset="7.427%" stop-color="#D3995D"/>
            <stop offset="17.38%" stop-color="#B1895C" stop-opacity="0"/>
            <stop offset="28.494%" stop-color="#FFE5C7"/>
            <stop offset="40.204%" stop-color="#FFF"/>
            <stop offset="48.145%" stop-color="#F6D2A8"/>
            <stop offset="100%" stop-opacity="0"/>
        </radialGradient>
        <radialGradient id="prefix__al" cx="60.345%" cy="81.914%" r="115.217%" fx="60.345%" fy="81.914%" gradientTransform="matrix(.56066 -.54312 .31434 .72779 .008 .55)">
            <stop offset="0%" stop-color="#080603" stop-opacity="0"/>
            <stop offset="7.427%" stop-color="#D3995D"/>
            <stop offset="17.38%" stop-color="#B1895C" stop-opacity="0"/>
            <stop offset="28.494%" stop-color="#FFE5C7"/>
            <stop offset="40.204%" stop-color="#FFF"/>
            <stop offset="48.145%" stop-color="#F6D2A8"/>
            <stop offset="100%" stop-opacity="0"/>
        </radialGradient>
        <radialGradient id="prefix__am" cx="60.345%" cy="81.914%" r="117.489%" fx="60.345%" fy="81.914%" gradientTransform="matrix(.54982 -.53262 .29991 .7336 .026 .54)">
            <stop offset="0%" stop-color="#080603" stop-opacity="0"/>
            <stop offset="7.427%" stop-color="#D3995D"/>
            <stop offset="17.38%" stop-color="#B1895C" stop-opacity="0"/>
            <stop offset="28.494%" stop-color="#FFE5C7"/>
            <stop offset="40.204%" stop-color="#FFF"/>
            <stop offset="48.145%" stop-color="#F6D2A8"/>
            <stop offset="100%" stop-opacity="0"/>
        </radialGradient>
        <radialGradient id="prefix__an" cx="60.345%" cy="81.914%" r="119.837%" fx="60.345%" fy="81.914%" gradientTransform="matrix(.53904 -.52219 .28608 .73921 .044 .529)">
            <stop offset="0%" stop-color="#080603" stop-opacity="0"/>
            <stop offset="7.427%" stop-color="#D3995D"/>
            <stop offset="17.38%" stop-color="#B1895C" stop-opacity="0"/>
            <stop offset="28.494%" stop-color="#FFE5C7"/>
            <stop offset="40.204%" stop-color="#FFF"/>
            <stop offset="48.145%" stop-color="#F6D2A8"/>
            <stop offset="100%" stop-opacity="0"/>
        </radialGradient>
        <radialGradient id="prefix__ao" cx="60.345%" cy="81.914%" r="122.264%" fx="60.345%" fy="81.914%" gradientTransform="matrix(.52834 -.51182 .27284 .74464 .061 .518)">
            <stop offset="0%" stop-color="#080603" stop-opacity="0"/>
            <stop offset="7.427%" stop-color="#D3995D"/>
            <stop offset="17.38%" stop-color="#B1895C" stop-opacity="0"/>
            <stop offset="28.494%" stop-color="#FFE5C7"/>
            <stop offset="40.204%" stop-color="#FFF"/>
            <stop offset="48.145%" stop-color="#F6D2A8"/>
            <stop offset="100%" stop-opacity="0"/>
        </radialGradient>
        <radialGradient id="prefix__ap" cx="60.345%" cy="81.914%" r="124.772%" fx="60.345%" fy="81.914%" gradientTransform="matrix(.51772 -.50153 .26015 .74988 .078 .508)">
            <stop offset="0%" stop-color="#080603" stop-opacity="0"/>
            <stop offset="7.427%" stop-color="#D3995D"/>
            <stop offset="17.38%" stop-color="#B1895C" stop-opacity="0"/>
            <stop offset="28.494%" stop-color="#FFE5C7"/>
            <stop offset="40.204%" stop-color="#FFF"/>
            <stop offset="48.145%" stop-color="#F6D2A8"/>
            <stop offset="100%" stop-opacity="0"/>
        </radialGradient>
        <radialGradient id="prefix__aq" cx="60.345%" cy="81.914%" r="127.364%" fx="60.345%" fy="81.914%" gradientTransform="matrix(.50719 -.49132 .24799 .75494 .094 .497)">
            <stop offset="0%" stop-color="#080603" stop-opacity="0"/>
            <stop offset="7.427%" stop-color="#D3995D"/>
            <stop offset="17.38%" stop-color="#B1895C" stop-opacity="0"/>
            <stop offset="28.494%" stop-color="#FFE5C7"/>
            <stop offset="40.204%" stop-color="#FFF"/>
            <stop offset="48.145%" stop-color="#F6D2A8"/>
            <stop offset="100%" stop-opacity="0"/>
        </radialGradient>
        <radialGradient id="prefix__ar" cx="60.345%" cy="81.914%" r="130.044%" fx="60.345%" fy="81.914%" gradientTransform="matrix(.49673 -.4812 .23635 .75982 .11 .487)">
            <stop offset="0%" stop-color="#080603" stop-opacity="0"/>
            <stop offset="7.427%" stop-color="#D3995D"/>
            <stop offset="17.38%" stop-color="#B1895C" stop-opacity="0"/>
            <stop offset="28.494%" stop-color="#FFE5C7"/>
            <stop offset="40.204%" stop-color="#FFF"/>
            <stop offset="48.145%" stop-color="#F6D2A8"/>
            <stop offset="100%" stop-opacity="0"/>
        </radialGradient>
        <radialGradient id="prefix__as" cx="60.345%" cy="81.914%" r="132.815%" fx="60.345%" fy="81.914%" gradientTransform="matrix(.48637 -.47116 .2252 .76453 .125 .477)">
            <stop offset="0%" stop-color="#080603" stop-opacity="0"/>
            <stop offset="7.427%" stop-color="#D3995D"/>
            <stop offset="17.38%" stop-color="#B1895C" stop-opacity="0"/>
            <stop offset="28.494%" stop-color="#FFE5C7"/>
            <stop offset="40.204%" stop-color="#FFF"/>
            <stop offset="48.145%" stop-color="#F6D2A8"/>
            <stop offset="100%" stop-opacity="0"/>
        </radialGradient>
        <radialGradient id="prefix__at" cx="60.345%" cy="81.914%" r="135.679%" fx="60.345%" fy="81.914%" gradientTransform="matrix(.4761 -.46122 .21451 .76908 .14 .467)">
            <stop offset="0%" stop-color="#080603" stop-opacity="0"/>
            <stop offset="7.427%" stop-color="#D3995D"/>
            <stop offset="17.38%" stop-color="#B1895C" stop-opacity="0"/>
            <stop offset="28.494%" stop-color="#FFE5C7"/>
            <stop offset="40.204%" stop-color="#FFF"/>
            <stop offset="48.145%" stop-color="#F6D2A8"/>
            <stop offset="100%" stop-opacity="0"/>
        </radialGradient>
        <radialGradient id="prefix__au" cx="60.345%" cy="81.914%" r="138.64%" fx="60.345%" fy="81.914%" gradientTransform="matrix(.46594 -.45136 .20428 .77345 .155 .458)">
            <stop offset="0%" stop-color="#080603" stop-opacity="0"/>
            <stop offset="7.427%" stop-color="#D3995D"/>
            <stop offset="17.38%" stop-color="#B1895C" stop-opacity="0"/>
            <stop offset="28.494%" stop-color="#FFE5C7"/>
            <stop offset="40.204%" stop-color="#FFF"/>
            <stop offset="48.145%" stop-color="#F6D2A8"/>
            <stop offset="100%" stop-opacity="0"/>
        </radialGradient>
        <radialGradient id="prefix__av" cx="60.345%" cy="81.914%" r="141.703%" fx="60.345%" fy="81.914%" gradientTransform="matrix(.45586 -.4416 .19449 .77767 .17 .449)">
            <stop offset="0%" stop-color="#080603" stop-opacity="0"/>
            <stop offset="7.427%" stop-color="#D3995D"/>
            <stop offset="17.38%" stop-color="#B1895C" stop-opacity="0"/>
            <stop offset="28.494%" stop-color="#FFE5C7"/>
            <stop offset="40.204%" stop-color="#FFF"/>
            <stop offset="48.145%" stop-color="#F6D2A8"/>
            <stop offset="100%" stop-opacity="0"/>
        </radialGradient>
        <radialGradient id="prefix__aw" cx="60.345%" cy="81.914%" r="144.871%" fx="60.345%" fy="81.914%" gradientTransform="matrix(.4459 -.43195 .1851 .78174 .183 .44)">
            <stop offset="0%" stop-color="#080603" stop-opacity="0"/>
            <stop offset="7.427%" stop-color="#D3995D"/>
            <stop offset="17.38%" stop-color="#B1895C" stop-opacity="0"/>
            <stop offset="28.494%" stop-color="#FFE5C7"/>
            <stop offset="40.204%" stop-color="#FFF"/>
            <stop offset="48.145%" stop-color="#F6D2A8"/>
            <stop offset="100%" stop-opacity="0"/>
        </radialGradient>
        <radialGradient id="prefix__ax" cx="60.345%" cy="81.914%" r="148.148%" fx="60.345%" fy="81.914%" gradientTransform="matrix(.43603 -.4224 .17613 .78565 .196 .43)">
            <stop offset="0%" stop-color="#080603" stop-opacity="0"/>
            <stop offset="7.427%" stop-color="#D3995D"/>
            <stop offset="17.38%" stop-color="#B1895C" stop-opacity="0"/>
            <stop offset="28.494%" stop-color="#FFE5C7"/>
            <stop offset="40.204%" stop-color="#FFF"/>
            <stop offset="48.145%" stop-color="#F6D2A8"/>
            <stop offset="100%" stop-opacity="0"/>
        </radialGradient>
        <radialGradient id="prefix__ay" cx="60.345%" cy="81.914%" r="151.539%" fx="60.345%" fy="81.914%" gradientTransform="matrix(.42628 -.41295 .16753 .78942 .209 .422)">
            <stop offset="0%" stop-color="#080603" stop-opacity="0"/>
            <stop offset="7.427%" stop-color="#D3995D"/>
            <stop offset="17.38%" stop-color="#B1895C" stop-opacity="0"/>
            <stop offset="28.494%" stop-color="#FFE5C7"/>
            <stop offset="40.204%" stop-color="#FFF"/>
            <stop offset="48.145%" stop-color="#F6D2A8"/>
            <stop offset="100%" stop-opacity="0"/>
        </radialGradient>
        <radialGradient id="prefix__az" cx="60.345%" cy="81.914%" r="155.048%" fx="60.345%" fy="81.914%" gradientTransform="matrix(.41663 -.4036 .1593 .79304 .222 .413)">
            <stop offset="0%" stop-color="#080603" stop-opacity="0"/>
            <stop offset="7.427%" stop-color="#D3995D"/>
            <stop offset="17.38%" stop-color="#B1895C" stop-opacity="0"/>
            <stop offset="28.494%" stop-color="#FFE5C7"/>
            <stop offset="40.204%" stop-color="#FFF"/>
            <stop offset="48.145%" stop-color="#F6D2A8"/>
            <stop offset="100%" stop-opacity="0"/>
        </radialGradient>
        <radialGradient id="prefix__aA" cx="60.345%" cy="81.914%" r="158.681%" fx="60.345%" fy="81.914%" gradientTransform="matrix(.40709 -.39436 .15142 .79653 .234 .405)">
            <stop offset="0%" stop-color="#080603" stop-opacity="0"/>
            <stop offset="7.427%" stop-color="#D3995D"/>
            <stop offset="17.38%" stop-color="#B1895C" stop-opacity="0"/>
            <stop offset="28.494%" stop-color="#FFE5C7"/>
            <stop offset="40.204%" stop-color="#FFF"/>
            <stop offset="48.145%" stop-color="#F6D2A8"/>
            <stop offset="100%" stop-opacity="0"/>
        </radialGradient>
        <linearGradient id="prefix__b" x1="-142.898%" x2="140.008%" y1="-92.687%" y2="121.149%">
            <stop offset="0%" stop-color="#D1AC6A"/>
            <stop offset="10.741%" stop-color="#AB8347"/>
            <stop offset="22.436%" stop-color="#B1895C"/>
            <stop offset="44.654%" stop-color="#FFDEB7"/>
            <stop offset="81.151%" stop-color="#A2794B"/>
            <stop offset="100%" stop-color="#39260D"/>
        </linearGradient>
        <linearGradient id="prefix__c" x1="6.908%" x2="70.107%" y1="-159.112%" y2="154.271%">
            <stop offset="0%" stop-color="#D1AC6A"/>
            <stop offset="10.741%" stop-color="#AB8347"/>
            <stop offset="22.436%" stop-color="#B1895C"/>
            <stop offset="44.654%" stop-color="#FFDEB7"/>
            <stop offset="81.151%" stop-color="#A2794B"/>
            <stop offset="100%" stop-color="#39260D"/>
        </linearGradient>
        <linearGradient id="prefix__d" x1="-59.971%" x2="101.313%" y1="-159.112%" y2="154.271%">
            <stop offset="0%" stop-color="#D1AC6A"/>
            <stop offset="10.741%" stop-color="#AB8347"/>
            <stop offset="22.436%" stop-color="#B1895C"/>
            <stop offset="44.654%" stop-color="#FFDEB7"/>
            <stop offset="81.151%" stop-color="#A2794B"/>
            <stop offset="100%" stop-color="#39260D"/>
        </linearGradient>
        <linearGradient id="prefix__e" x1="-116.672%" x2="127.77%" y1="-159.112%" y2="154.271%">
            <stop offset="0%" stop-color="#D1AC6A"/>
            <stop offset="10.741%" stop-color="#AB8347"/>
            <stop offset="22.436%" stop-color="#B1895C"/>
            <stop offset="44.654%" stop-color="#FFDEB7"/>
            <stop offset="81.151%" stop-color="#A2794B"/>
            <stop offset="100%" stop-color="#39260D"/>
        </linearGradient>
        <linearGradient id="prefix__f" x1="27.935%" x2="84.003%" y1="49.608%" y2="50.329%">
            <stop offset="0%" stop-color="#644930"/>
            <stop offset="100%"/>
        </linearGradient>
        <linearGradient id="prefix__n" x1="-1.01%" x2="102.56%" y1="27.216%" y2="62.257%">
            <stop offset="0%"/>
            <stop offset="20.1%" stop-color="#0B0B0B"/>
            <stop offset="66.722%" stop-color="#444"/>
            <stop offset="100%"/>
        </linearGradient>
        <linearGradient id="prefix__m" x1="2.242%" x2="105.486%" y1="31.515%" y2="74.466%">
            <stop offset="0%" stop-color="#434343"/>
            <stop offset="69.186%" stop-color="#FFF"/>
            <stop offset="100%"/>
        </linearGradient>
        <linearGradient id="prefix__L" x1="-3.847%" x2="110.149%" y1="70.851%" y2="70.851%">
            <stop offset="0%" stop-color="#ADADAD"/>
            <stop offset="40.888%" stop-color="#A3A3A3"/>
            <stop offset="48.495%" stop-color="#C4C4C4"/>
            <stop offset="52.433%" stop-color="#999"/>
            <stop offset="100%" stop-color="gray"/>
        </linearGradient>
        <linearGradient id="prefix__P" x1="-30.809%" x2="109.173%" y1="-18.965%" y2="107.792%">
            <stop offset="0%" stop-color="#D1AC6A"/>
            <stop offset="10.741%" stop-color="#AB8347"/>
            <stop offset="22.436%" stop-color="#B1895C"/>
            <stop offset="53.569%" stop-color="#FFDEB7"/>
            <stop offset="73.245%" stop-color="#A2794B"/>
            <stop offset="100%" stop-color="#39260D"/>
        </linearGradient>
        <linearGradient id="prefix__R" x1="50.425%" x2="49.652%" y1="-13.886%" y2="100%">
            <stop offset="0%" stop-color="#58340A"/>
            <stop offset="100%" stop-color="#B4824B"/>
        </linearGradient>
        <linearGradient id="prefix__S" x1="57.603%" x2="43.769%" y1="-13.886%" y2="100%">
            <stop offset="0%" stop-color="#58340A"/>
            <stop offset="100%" stop-color="#B4824B"/>
        </linearGradient>
        <linearGradient id="prefix__T" x1="76.497%" x2="28.282%" y1="-13.886%" y2="100%">
            <stop offset="0%" stop-color="#58340A"/>
            <stop offset="100%" stop-color="#B4824B"/>
        </linearGradient>
        <linearGradient id="prefix__U" x1="108.654%" x2="1.925%" y1="49.211%" y2="50.617%">
            <stop offset="0%" stop-color="#58340A"/>
            <stop offset="100%" stop-color="#B4824B"/>
        </linearGradient>
        <linearGradient id="prefix__V" x1="138.354%" x2="-33.902%" y1="94.581%" y2="18.728%">
            <stop offset="0%" stop-color="#B59C72"/>
            <stop offset="46.953%" stop-color="#FFE8C8"/>
            <stop offset="100%" stop-color="#AA7434"/>
        </linearGradient>
        <linearGradient id="prefix__ad" x1="-2.148%" x2="103.295%" y1="26.831%" y2="62.505%">
            <stop offset="0%" stop-color="#FAD6A2"/>
            <stop offset="20.1%" stop-color="#FFDDAC"/>
            <stop offset="66.722%" stop-color="#FFE3BA"/>
            <stop offset="100%" stop-color="#B98F5D"/>
        </linearGradient>
        <linearGradient id="prefix__ac" x1="2.242%" x2="105.486%" y1="31.515%" y2="74.466%">
            <stop offset="0%" stop-color="#B58B43"/>
            <stop offset="69.186%" stop-color="#FFFCF9"/>
            <stop offset="100%" stop-color="#AA7434"/>
        </linearGradient>
        <linearGradient id="prefix__aB" x1="-142.898%" x2="140.008%" y1="-25.28%" y2="87.538%">
            <stop offset="0%" stop-color="#D1AC6A"/>
            <stop offset="10.741%" stop-color="#AB8347"/>
            <stop offset="22.436%" stop-color="#B1895C"/>
            <stop offset="44.654%" stop-color="#FFDEB7"/>
            <stop offset="81.151%" stop-color="#A2794B"/>
            <stop offset="100%" stop-color="#39260D"/>
        </linearGradient>
        <linearGradient id="prefix__aE" x1="0%" x2="119.769%" y1="32%" y2="73.632%">
            <stop offset="0%" stop-color="#CFBB99"/>
            <stop offset="50.377%" stop-color="#FFE8C8"/>
            <stop offset="100%" stop-color="#AA7434"/>
        </linearGradient>
        <linearGradient id="prefix__aH" x1="27.935%" x2="84.003%" y1="49.825%" y2="50.147%">
            <stop offset="0%" stop-color="#644930"/>
            <stop offset="100%"/>
        </linearGradient>
        <linearGradient id="prefix__aI" x1="0%" x2="100%" y1="50.061%" y2="50.061%">
            <stop offset="0%" stop-color="#8C7865"/>
            <stop offset="48.714%" stop-color="#A28B76"/>
            <stop offset="52.381%" stop-color="#CDC0B3"/>
            <stop offset="58.1%" stop-color="#A18B77"/>
            <stop offset="100%" stop-color="#867668"/>
        </linearGradient>
        <linearGradient id="prefix__aN" x1="138.354%" x2="-14.918%" y1="94.581%" y2="-.817%">
            <stop offset="0%" stop-color="#6D562F"/>
            <stop offset="46.953%" stop-color="#A17B48"/>
            <stop offset="100%" stop-color="#885921"/>
        </linearGradient>
        <linearGradient id="prefix__aQ" x1="0%" x2="119.769%" y1="15.992%" y2="94.648%">
            <stop offset="0%" stop-color="#CFBB99"/>
            <stop offset="50.377%" stop-color="#FFE8C8"/>
            <stop offset="100%" stop-color="#AA7434"/>
        </linearGradient>
        <linearGradient id="prefix__aT" x1="36.963%" x2="68.192%" y1="0%" y2="115.643%">
            <stop offset="0%" stop-color="#CFBB99"/>
            <stop offset="50.377%" stop-color="#FFE8C8"/>
            <stop offset="100%" stop-color="#AA7434"/>
        </linearGradient>
        <linearGradient id="prefix__aW" x1="19.95%" x2="91.931%" y1="0%" y2="115.643%">
            <stop offset="0%" stop-color="#CFBB99"/>
            <stop offset="50.377%" stop-color="#FFE8C8"/>
            <stop offset="100%" stop-color="#AA7434"/>
        </linearGradient>
        <linearGradient id="prefix__aZ" x1="4.752%" x2="113.139%" y1="0%" y2="115.643%">
            <stop offset="0%" stop-color="#CFBB99"/>
            <stop offset="50.377%" stop-color="#FFE8C8"/>
            <stop offset="100%" stop-color="#AA7434"/>
        </linearGradient>
        <filter id="prefix__h" width="100.2%" height="102.2%" x="-.1%" y="-1.1%" filterUnits="objectBoundingBox">
            <feOffset dy=".2" in="SourceAlpha" result="shadowOffsetInner1"/>
            <feComposite in="shadowOffsetInner1" in2="SourceAlpha" k2="-1" k3="1" operator="arithmetic" result="shadowInnerInner1"/>
            <feColorMatrix in="shadowInnerInner1" values="0 0 0 0 1 0 0 0 0 1 0 0 0 0 1 0 0 0 1 0"/>
        </filter>
        <filter id="prefix__i" width="100.2%" height="102.2%" x="-.1%" y="-1.1%" filterUnits="objectBoundingBox">
            <feOffset dy=".2" in="SourceAlpha" result="shadowOffsetInner1"/>
            <feComposite in="shadowOffsetInner1" in2="SourceAlpha" k2="-1" k3="1" operator="arithmetic" result="shadowInnerInner1"/>
            <feColorMatrix in="shadowInnerInner1" values="0 0 0 0 1 0 0 0 0 1 0 0 0 0 1 0 0 0 1 0"/>
        </filter>
        <filter id="prefix__j" width="133.3%" height="152.3%" x="-17%" y="-24.4%" filterUnits="objectBoundingBox">
            <feOffset dy="2" in="SourceAlpha" result="shadowOffsetOuter1"/>
            <feGaussianBlur in="shadowOffsetOuter1" result="shadowBlurOuter1" stdDeviation="2"/>
            <feColorMatrix in="shadowBlurOuter1" result="shadowMatrixOuter1" values="0 0 0 0 0 0 0 0 0 0 0 0 0 0 0 0 0 0 0.5 0"/>
            <feMerge>
                <feMergeNode in="shadowMatrixOuter1"/>
                <feMergeNode in="SourceGraphic"/>
            </feMerge>
        </filter>
        <filter id="prefix__l" width="124.4%" height="138.4%" x="-12.2%" y="-16.9%" filterUnits="objectBoundingBox">
            <feMorphology in="SourceAlpha" operator="dilate" radius=".385" result="shadowSpreadOuter1"/>
            <feOffset dy="2" in="shadowSpreadOuter1" result="shadowOffsetOuter1"/>
            <feGaussianBlur in="shadowOffsetOuter1" result="shadowBlurOuter1" stdDeviation="5"/>
            <feComposite in="shadowBlurOuter1" in2="SourceAlpha" operator="out" result="shadowBlurOuter1"/>
            <feColorMatrix in="shadowBlurOuter1" values="0 0 0 0 0 0 0 0 0 0 0 0 0 0 0 0 0 0 1 0"/>
        </filter>
        <filter id="prefix__N" width="100.3%" height="106.3%" x="-.2%" y="-3.1%" filterUnits="objectBoundingBox">
            <feOffset dx=".1" dy=".35" in="SourceAlpha" result="shadowOffsetInner1"/>
            <feComposite in="shadowOffsetInner1" in2="SourceAlpha" k2="-1" k3="1" operator="arithmetic" result="shadowInnerInner1"/>
            <feColorMatrix in="shadowInnerInner1" values="0 0 0 0 1 0 0 0 0 1 0 0 0 0 1 0 0 0 1 0"/>
        </filter>
        <filter id="prefix__Q" width="103.1%" height="103.6%" x="-1.5%" y="-1.8%" filterUnits="objectBoundingBox">
            <feMorphology in="SourceAlpha" radius=".1" result="shadowSpreadInner1"/>
            <feGaussianBlur in="shadowSpreadInner1" result="shadowBlurInner1" stdDeviation=".25"/>
            <feOffset in="shadowBlurInner1" result="shadowOffsetInner1"/>
            <feComposite in="shadowOffsetInner1" in2="SourceAlpha" k2="-1" k3="1" operator="arithmetic" result="shadowInnerInner1"/>
            <feColorMatrix in="shadowInnerInner1" values="0 0 0 0 0 0 0 0 0 0 0 0 0 0 0 0 0 0 0.566679414 0"/>
        </filter>
        <filter id="prefix__X" width="100.2%" height="102.2%" x="-.1%" y="-1.1%" filterUnits="objectBoundingBox">
            <feOffset dy=".2" in="SourceAlpha" result="shadowOffsetInner1"/>
            <feComposite in="shadowOffsetInner1" in2="SourceAlpha" k2="-1" k3="1" operator="arithmetic" result="shadowInnerInner1"/>
            <feColorMatrix in="shadowInnerInner1" values="0 0 0 0 1 0 0 0 0 1 0 0 0 0 1 0 0 0 1 0"/>
        </filter>
        <filter id="prefix__Y" width="100.2%" height="102.2%" x="-.1%" y="-1.1%" filterUnits="objectBoundingBox">
            <feOffset dy=".2" in="SourceAlpha" result="shadowOffsetInner1"/>
            <feComposite in="shadowOffsetInner1" in2="SourceAlpha" k2="-1" k3="1" operator="arithmetic" result="shadowInnerInner1"/>
            <feColorMatrix in="shadowInnerInner1" values="0 0 0 0 1 0 0 0 0 1 0 0 0 0 1 0 0 0 1 0"/>
        </filter>
        <filter id="prefix__Z" width="133.3%" height="152.3%" x="-17%" y="-24.4%" filterUnits="objectBoundingBox">
            <feOffset dy="2" in="SourceAlpha" result="shadowOffsetOuter1"/>
            <feGaussianBlur in="shadowOffsetOuter1" result="shadowBlurOuter1" stdDeviation="2"/>
            <feColorMatrix in="shadowBlurOuter1" result="shadowMatrixOuter1" values="0 0 0 0 0 0 0 0 0 0 0 0 0 0 0 0 0 0 0.5 0"/>
            <feMerge>
                <feMergeNode in="shadowMatrixOuter1"/>
                <feMergeNode in="SourceGraphic"/>
            </feMerge>
        </filter>
        <filter id="prefix__ab" width="124.4%" height="138.4%" x="-12.2%" y="-16.9%" filterUnits="objectBoundingBox">
            <feMorphology in="SourceAlpha" operator="dilate" radius=".385" result="shadowSpreadOuter1"/>
            <feOffset dy="2" in="shadowSpreadOuter1" result="shadowOffsetOuter1"/>
            <feGaussianBlur in="shadowOffsetOuter1" result="shadowBlurOuter1" stdDeviation="5"/>
            <feComposite in="shadowBlurOuter1" in2="SourceAlpha" operator="out" result="shadowBlurOuter1"/>
            <feColorMatrix in="shadowBlurOuter1" values="0 0 0 0 0 0 0 0 0 0 0 0 0 0 0 0 0 0 1 0"/>
        </filter>
        <filter id="prefix__aC" width="102.4%" height="105.3%" x="-.8%" y="-1.3%" filterUnits="objectBoundingBox">
            <feMorphology in="SourceAlpha" operator="dilate" radius=".05" result="shadowSpreadOuter1"/>
            <feOffset dx=".1" dy=".3" in="shadowSpreadOuter1" result="shadowOffsetOuter1"/>
            <feColorMatrix in="shadowOffsetOuter1" values="0 0 0 0 0 0 0 0 0 0 0 0 0 0 0 0 0 0 0.42616368 0"/>
        </filter>
        <filter id="prefix__aF" width="100.4%" height="107.2%" x="-.3%" y="-1.8%" filterUnits="objectBoundingBox">
            <feOffset dx="-.2" dy=".2" in="SourceAlpha" result="shadowOffsetOuter1"/>
            <feColorMatrix in="shadowOffsetOuter1" values="0 0 0 0 0 0 0 0 0 0 0 0 0 0 0 0 0 0 0.5 0"/>
        </filter>
        <filter id="prefix__aK" width="100.3%" height="106.3%" x="-.2%" y="-3.1%" filterUnits="objectBoundingBox">
            <feOffset dx=".1" dy=".35" in="SourceAlpha" result="shadowOffsetInner1"/>
            <feComposite in="shadowOffsetInner1" in2="SourceAlpha" k2="-1" k3="1" operator="arithmetic" result="shadowInnerInner1"/>
            <feColorMatrix in="shadowInnerInner1" values="0 0 0 0 1 0 0 0 0 1 0 0 0 0 1 0 0 0 1 0"/>
        </filter>
        <filter id="prefix__aM" width="103.1%" height="103.6%" x="-1.5%" y="-1.8%" filterUnits="objectBoundingBox">
            <feMorphology in="SourceAlpha" radius=".1" result="shadowSpreadInner1"/>
            <feGaussianBlur in="shadowSpreadInner1" result="shadowBlurInner1" stdDeviation=".25"/>
            <feOffset in="shadowBlurInner1" result="shadowOffsetInner1"/>
            <feComposite in="shadowOffsetInner1" in2="SourceAlpha" k2="-1" k3="1" operator="arithmetic" result="shadowInnerInner1"/>
            <feColorMatrix in="shadowInnerInner1" values="0 0 0 0 0 0 0 0 0 0 0 0 0 0 0 0 0 0 0.566679414 0"/>
        </filter>
        <filter id="prefix__aO" width="105.6%" height="108%" x="-1.9%" y="-2%" filterUnits="objectBoundingBox">
            <feMorphology in="SourceAlpha" operator="dilate" radius=".05" result="shadowSpreadOuter1"/>
            <feOffset dx=".1" dy=".3" in="shadowSpreadOuter1" result="shadowOffsetOuter1"/>
            <feColorMatrix in="shadowOffsetOuter1" values="0 0 0 0 0 0 0 0 0 0 0 0 0 0 0 0 0 0 0.42616368 0"/>
        </filter>
        <filter id="prefix__aR" width="112.6%" height="108%" x="-4.4%" y="-2%" filterUnits="objectBoundingBox">
            <feMorphology in="SourceAlpha" operator="dilate" radius=".05" result="shadowSpreadOuter1"/>
            <feOffset dx=".1" dy=".3" in="shadowSpreadOuter1" result="shadowOffsetOuter1"/>
            <feColorMatrix in="shadowOffsetOuter1" values="0 0 0 0 0 0 0 0 0 0 0 0 0 0 0 0 0 0 0.42616368 0"/>
        </filter>
        <filter id="prefix__aU" width="104.9%" height="107.7%" x="-2.5%" y="-1.9%" filterUnits="objectBoundingBox">
            <feMorphology in="SourceAlpha" operator="dilate" radius=".05" result="shadowSpreadOuter1"/>
            <feOffset dx=".1" dy=".3" in="shadowSpreadOuter1" result="shadowOffsetOuter1"/>
            <feColorMatrix in="shadowOffsetOuter1" values="0 0 0 0 0 0 0 0 0 0 0 0 0 0 0 0 0 0 0.42616368 0"/>
        </filter>
        <filter id="prefix__aX" width="107%" height="108%" x="-2.6%" y="-2%" filterUnits="objectBoundingBox">
            <feMorphology in="SourceAlpha" operator="dilate" radius=".05" result="shadowSpreadOuter1"/>
            <feOffset dx=".1" dy=".3" in="shadowSpreadOuter1" result="shadowOffsetOuter1"/>
            <feColorMatrix in="shadowOffsetOuter1" values="0 0 0 0 0 0 0 0 0 0 0 0 0 0 0 0 0 0 0.42616368 0"/>
        </filter>
        <path id="prefix__M" d="M2.19 6.105c.533 0 .99-.158 1.38-.473.42-.352.63-.802.63-1.357 0-.578-.165-1.035-.48-1.365-.315-.33-.728-.495-1.23-.495-.24 0-.458.038-.653.112-.217.075-.404.196-.57.36h-.022l.15-1.47h2.558V.645H.69L.398 3.66h.817c.105-.188.247-.323.435-.413.165-.082.368-.12.6-.12.345 0 .615.098.795.308.18.203.277.487.277.847 0 .33-.112.593-.322.788-.217.195-.487.292-.803.292-.292 0-.524-.067-.69-.187-.194-.143-.307-.36-.344-.652H.3c.038.495.247.892.637 1.184.345.263.765.398 1.253.398zm6 0c.533 0 .99-.158 1.38-.473.42-.352.63-.802.63-1.357 0-.578-.165-1.035-.48-1.365-.315-.33-.728-.495-1.23-.495-.24 0-.457.038-.652.112-.218.075-.405.196-.57.36h-.023l.15-1.47h2.558V.645H6.69L6.397 3.66h.818c.105-.188.248-.323.435-.413.165-.082.367-.12.6-.12.345 0 .615.098.795.308.18.203.277.487.277.847 0 .33-.112.593-.322.788-.217.195-.488.292-.803.292-.292 0-.524-.067-.69-.187-.194-.143-.307-.36-.345-.652H6.3c.038.495.248.892.638 1.184.345.263.764.398 1.252.398zM16.118 6v-.772h-2.64c.12-.27.45-.585.997-.946.525-.352.9-.637 1.11-.862.345-.382.525-.802.525-1.268 0-.48-.165-.862-.495-1.162-.338-.3-.765-.45-1.283-.45-.577 0-1.042.195-1.395.585-.345.367-.517.847-.524 1.447h.877c.015-.42.105-.742.27-.952.165-.225.412-.338.742-.338.308 0 .54.068.698.21.15.143.232.36.232.653 0 .3-.12.585-.352.848-.15.157-.39.36-.735.6-.622.427-1.035.757-1.23.982-.36.405-.532.877-.532 1.425h3.735zm4.155.105c.585 0 1.057-.165 1.417-.488.345-.314.517-.72.517-1.215 0-.314-.09-.577-.27-.78-.165-.194-.412-.337-.727-.434.592-.196.892-.586.892-1.17 0-.465-.165-.825-.487-1.088-.33-.263-.772-.39-1.313-.39-.524 0-.96.142-1.297.443-.36.3-.555.72-.6 1.26h.862c.03-.323.136-.563.316-.72.172-.158.412-.233.727-.233.308 0 .54.067.698.202.142.135.217.33.217.593 0 .263-.083.465-.24.6-.165.135-.405.203-.72.203h-.375v.66h.375c.345 0 .607.067.787.217.18.143.278.368.278.675 0 .255-.09.465-.262.637-.196.188-.466.285-.803.285-.308 0-.555-.09-.742-.262-.21-.188-.316-.457-.33-.802H18.3c.045.6.255 1.064.63 1.38.337.285.788.427 1.343.427zM30.398 6V.645h-.66c-.18.188-.405.36-.675.525-.27.15-.525.255-.765.315v.87c.495-.143.9-.36 1.222-.653V6h.878zm6.292 0v-.772h-2.64c.12-.27.45-.585.998-.946.524-.352.9-.637 1.11-.862.344-.382.524-.802.524-1.268 0-.48-.165-.862-.495-1.162-.337-.3-.764-.45-1.282-.45-.578 0-1.043.195-1.395.585-.345.367-.517.847-.525 1.447h.877c.015-.42.105-.742.27-.952.166-.225.413-.338.743-.338.307 0 .54.068.697.21.15.143.233.36.233.653 0 .3-.12.585-.352.848-.15.157-.39.36-.736.6-.622.427-1.035.757-1.23.982-.36.405-.532.877-.532 1.425h3.735zm4.155.105c.585 0 1.058-.165 1.418-.488.345-.314.517-.72.517-1.215 0-.314-.09-.577-.27-.78-.165-.194-.413-.337-.727-.434.592-.196.892-.586.892-1.17 0-.465-.165-.825-.487-1.088-.33-.263-.773-.39-1.313-.39-.525 0-.96.142-1.297.443-.36.3-.556.72-.6 1.26h.862c.03-.323.135-.563.315-.72.172-.158.413-.233.727-.233.308 0 .54.067.698.202.142.135.218.33.218.593 0 .263-.083.465-.24.6-.166.135-.405.203-.72.203h-.376v.66h.375c.345 0 .608.067.788.217.18.143.278.368.278.675 0 .255-.09.465-.263.637-.195.188-.465.285-.803.285-.307 0-.555-.09-.742-.262-.21-.188-.315-.457-.33-.802h-.892c.044.6.255 1.064.63 1.38.337.285.787.427 1.342.427zM48.135 6V4.853h.795v-.698h-.795V.645h-.802L44.715 4.02v.833h2.587V6h.833zm-.832-1.845h-1.875l1.852-2.4h.023v2.4zm9.457 1.95c.532 0 .99-.158 1.38-.473.42-.352.63-.802.63-1.357 0-.578-.165-1.035-.48-1.365-.315-.33-.727-.495-1.23-.495-.24 0-.458.038-.653.112-.217.075-.404.196-.57.36h-.022l.15-1.47h2.557V.645H55.26l-.292 3.015h.817c.105-.188.248-.323.435-.413.165-.082.367-.12.6-.12.345 0 .615.098.795.308.18.203.277.487.277.847 0 .33-.112.593-.322.788-.218.195-.487.292-.803.292-.292 0-.525-.067-.69-.187-.194-.143-.307-.36-.344-.652h-.863c.038.495.248.892.638 1.184.344.263.764.398 1.252.398zm6.128 0c.532 0 .982-.18 1.342-.525.36-.345.547-.787.547-1.327 0-.526-.157-.96-.472-1.298-.315-.337-.735-.502-1.26-.502-.27 0-.51.045-.72.15-.225.104-.413.262-.563.487h-.037v-.067c0-.496.097-.908.307-1.238.21-.352.496-.525.856-.525.51 0 .825.248.93.742h.855C64.537 1.028 63.944.54 62.895.54c-.623 0-1.117.27-1.478.81-.367.54-.547 1.245-.547 2.123 0 .817.165 1.455.51 1.92.345.472.847.712 1.508.712zm-.03-.728c-.308 0-.555-.097-.75-.292-.195-.195-.293-.465-.293-.803 0-.345.09-.622.278-.817.18-.202.434-.3.764-.3.323 0 .578.098.773.3.18.195.277.458.277.788s-.097.6-.292.81c-.195.21-.443.315-.758.315zM68.543 6l1.874-4.65V.645h-3.622v.795h2.737L67.612 6h.93zm5.924.105c.638 0 1.133-.15 1.486-.443.344-.3.525-.682.525-1.162 0-.33-.105-.623-.308-.877-.18-.233-.398-.383-.645-.45v-.015c.262-.105.457-.263.593-.458.12-.188.18-.42.18-.69 0-.405-.158-.742-.458-1.012C75.495.69 75.037.54 74.467.54c-.577 0-1.034.15-1.372.458-.308.27-.457.607-.457 1.012 0 .27.06.503.18.69.127.195.322.353.592.458v.014c-.255.068-.465.218-.645.45-.21.256-.308.548-.308.878 0 .48.173.862.526 1.162.344.293.84.443 1.484.443zm0-3.218c-.374 0-.637-.09-.802-.262-.135-.143-.203-.337-.203-.585 0-.218.083-.397.248-.548.188-.172.443-.254.758-.254.314 0 .562.082.757.254.165.15.248.33.248.548 0 .248-.068.442-.203.585-.165.172-.435.263-.802.263zm0 2.513c-.367 0-.644-.083-.84-.248-.202-.165-.3-.382-.3-.652 0-.285.09-.518.285-.69.196-.18.48-.27.856-.27.374 0 .66.09.862.277.18.165.278.398.278.683 0 .27-.098.48-.285.645-.21.165-.495.255-.855.255zm9.93.705c.615 0 1.11-.27 1.478-.81.36-.54.547-1.252.547-2.123 0-.825-.172-1.462-.517-1.927-.345-.473-.847-.705-1.5-.705-.54 0-.99.172-1.35.525-.36.345-.54.788-.54 1.328 0 .525.15.952.465 1.282.315.345.742.518 1.267.518.27 0 .51-.053.72-.15.218-.106.406-.27.563-.488h.037v.067c0 .495-.104.908-.307 1.238-.218.345-.503.525-.855.525-.517 0-.825-.247-.93-.742h-.855c.127.974.72 1.462 1.777 1.462zm.038-2.625c-.33 0-.585-.105-.765-.3-.195-.195-.285-.458-.285-.788s.09-.6.285-.81c.195-.21.45-.315.765-.315.3 0 .555.098.75.293.195.195.293.458.293.802 0 .345-.098.615-.278.818-.188.195-.443.3-.765.3zm6.03 2.625c.623 0 1.11-.263 1.462-.78.33-.495.495-1.163.495-2.003 0-.84-.165-1.507-.495-2.002-.352-.525-.84-.78-1.462-.78-.63 0-1.118.255-1.463.78-.33.495-.495 1.162-.495 2.002 0 .84.165 1.508.495 2.003.346.518.833.78 1.463.78zm0-.743c-.428 0-.728-.24-.9-.712-.12-.33-.18-.773-.18-1.328 0-.562.06-1.005.18-1.327.172-.48.472-.713.9-.713.42 0 .72.233.9.713.12.322.18.765.18 1.327 0 .555-.06.998-.18 1.328-.18.472-.48.712-.9.712zm6.15.638V.645h-.66c-.18.188-.405.36-.675.525-.27.15-.525.255-.765.315v.87c.495-.143.9-.36 1.222-.653V6h.878zm4.425.105c.622 0 1.11-.263 1.462-.78.33-.495.496-1.163.496-2.003 0-.84-.166-1.507-.496-2.002-.352-.525-.84-.78-1.462-.78-.63 0-1.118.255-1.463.78-.33.495-.495 1.162-.495 2.002 0 .84.166 1.508.496 2.003.344.518.832.78 1.462.78zm0-.743c-.428 0-.728-.24-.9-.712-.12-.33-.18-.773-.18-1.328 0-.562.06-1.005.18-1.327.172-.48.472-.713.9-.713.42 0 .72.233.9.713.12.322.18.765.18 1.327 0 .555-.06.998-.18 1.328-.18.472-.48.712-.9.712z"/>
        <path id="prefix__aD" d="M118.5 64c4.142 0 7.5 3.358 7.5 7.5 0 4.142-3.358 7.5-7.5 7.5-1.921 0-3.674-.722-5.001-1.91-1.326 1.188-3.078 1.91-4.999 1.91-4.142 0-7.5-3.358-7.5-7.5 0-4.142 3.358-7.5 7.5-7.5 1.921 0 3.674.722 5.001 1.91 1.326-1.188 3.078-1.91 4.999-1.91zm-10 .5c-3.866 0-7 3.134-7 7s3.134 7 7 7c1.78 0 3.403-.664 4.638-1.757C111.815 75.392 111 73.54 111 71.5c0-2.041.815-3.892 2.138-5.244-1.235-1.092-2.859-1.756-4.638-1.756zm10 0c-1.78 0-3.403.664-4.638 1.757C115.185 67.608 116 69.46 116 71.5c0 2.041-.815 3.892-2.138 5.244 1.235 1.092 2.859 1.756 4.638 1.756 3.866 0 7-3.134 7-7s-3.134-7-7-7zm-5 2.102l-.106.11c-1.174 1.251-1.894 2.936-1.894 4.788 0 1.907.763 3.636 2 4.898 1.237-1.262 2-2.991 2-4.898 0-1.907-.763-3.636-2-4.898z"/>
        <path id="prefix__aG" d="M2.19 6.105c.533 0 .99-.158 1.38-.473.42-.352.63-.802.63-1.357 0-.578-.165-1.035-.48-1.365-.315-.33-.728-.495-1.23-.495-.24 0-.458.038-.653.112-.217.075-.404.196-.57.36h-.022l.15-1.47h2.558V.645H.69L.398 3.66h.817c.105-.188.247-.323.435-.413.165-.082.368-.12.6-.12.345 0 .615.098.795.308.18.203.277.487.277.847 0 .33-.112.593-.322.788-.217.195-.487.292-.803.292-.292 0-.524-.067-.69-.187-.194-.143-.307-.36-.344-.652H.3c.038.495.247.892.637 1.184.345.263.765.398 1.253.398zm6 0c.533 0 .99-.158 1.38-.473.42-.352.63-.802.63-1.357 0-.578-.165-1.035-.48-1.365-.315-.33-.728-.495-1.23-.495-.24 0-.457.038-.652.112-.218.075-.405.196-.57.36h-.023l.15-1.47h2.558V.645H6.69L6.397 3.66h.818c.105-.188.248-.323.435-.413.165-.082.367-.12.6-.12.345 0 .615.098.795.308.18.203.277.487.277.847 0 .33-.112.593-.322.788-.217.195-.488.292-.803.292-.292 0-.524-.067-.69-.187-.194-.143-.307-.36-.345-.652H6.3c.038.495.248.892.638 1.184.345.263.764.398 1.252.398zM16.118 6v-.772h-2.64c.12-.27.45-.585.997-.946.525-.352.9-.637 1.11-.862.345-.382.525-.802.525-1.268 0-.48-.165-.862-.495-1.162-.338-.3-.765-.45-1.283-.45-.577 0-1.042.195-1.395.585-.345.367-.517.847-.524 1.447h.877c.015-.42.105-.742.27-.952.165-.225.412-.338.742-.338.308 0 .54.068.698.21.15.143.232.36.232.653 0 .3-.12.585-.352.848-.15.157-.39.36-.735.6-.622.427-1.035.757-1.23.982-.36.405-.532.877-.532 1.425h3.735zm4.155.105c.585 0 1.057-.165 1.417-.488.345-.314.517-.72.517-1.215 0-.314-.09-.577-.27-.78-.165-.194-.412-.337-.727-.434.592-.196.892-.586.892-1.17 0-.465-.165-.825-.487-1.088-.33-.263-.772-.39-1.313-.39-.524 0-.96.142-1.297.443-.36.3-.555.72-.6 1.26h.862c.03-.323.136-.563.316-.72.172-.158.412-.233.727-.233.308 0 .54.067.698.202.142.135.217.33.217.593 0 .263-.083.465-.24.6-.165.135-.405.203-.72.203h-.375v.66h.375c.345 0 .607.067.787.217.18.143.278.368.278.675 0 .255-.09.465-.262.637-.196.188-.466.285-.803.285-.308 0-.555-.09-.742-.262-.21-.188-.316-.457-.33-.802H18.3c.045.6.255 1.064.63 1.38.337.285.788.427 1.343.427zM30.398 6V.645h-.66c-.18.188-.405.36-.675.525-.27.15-.525.255-.765.315v.87c.495-.143.9-.36 1.222-.653V6h.878zm6.292 0v-.772h-2.64c.12-.27.45-.585.998-.946.524-.352.9-.637 1.11-.862.344-.382.524-.802.524-1.268 0-.48-.165-.862-.495-1.162-.337-.3-.764-.45-1.282-.45-.578 0-1.043.195-1.395.585-.345.367-.517.847-.525 1.447h.877c.015-.42.105-.742.27-.952.166-.225.413-.338.743-.338.307 0 .54.068.697.21.15.143.233.36.233.653 0 .3-.12.585-.352.848-.15.157-.39.36-.736.6-.622.427-1.035.757-1.23.982-.36.405-.532.877-.532 1.425h3.735zm4.155.105c.585 0 1.058-.165 1.418-.488.345-.314.517-.72.517-1.215 0-.314-.09-.577-.27-.78-.165-.194-.413-.337-.727-.434.592-.196.892-.586.892-1.17 0-.465-.165-.825-.487-1.088-.33-.263-.773-.39-1.313-.39-.525 0-.96.142-1.297.443-.36.3-.556.72-.6 1.26h.862c.03-.323.135-.563.315-.72.172-.158.413-.233.727-.233.308 0 .54.067.698.202.142.135.218.33.218.593 0 .263-.083.465-.24.6-.166.135-.405.203-.72.203h-.376v.66h.375c.345 0 .608.067.788.217.18.143.278.368.278.675 0 .255-.09.465-.263.637-.195.188-.465.285-.803.285-.307 0-.555-.09-.742-.262-.21-.188-.315-.457-.33-.802h-.892c.044.6.255 1.064.63 1.38.337.285.787.427 1.342.427zM48.135 6V4.853h.795v-.698h-.795V.645h-.802L44.715 4.02v.833h2.587V6h.833zm-.832-1.845h-1.875l1.852-2.4h.023v2.4zm9.457 1.95c.532 0 .99-.158 1.38-.473.42-.352.63-.802.63-1.357 0-.578-.165-1.035-.48-1.365-.315-.33-.727-.495-1.23-.495-.24 0-.458.038-.653.112-.217.075-.404.196-.57.36h-.022l.15-1.47h2.557V.645H55.26l-.292 3.015h.817c.105-.188.248-.323.435-.413.165-.082.367-.12.6-.12.345 0 .615.098.795.308.18.203.277.487.277.847 0 .33-.112.593-.322.788-.218.195-.487.292-.803.292-.292 0-.525-.067-.69-.187-.194-.143-.307-.36-.344-.652h-.863c.038.495.248.892.638 1.184.344.263.764.398 1.252.398zm6.128 0c.532 0 .982-.18 1.342-.525.36-.345.547-.787.547-1.327 0-.526-.157-.96-.472-1.298-.315-.337-.735-.502-1.26-.502-.27 0-.51.045-.72.15-.225.104-.413.262-.563.487h-.037v-.067c0-.496.097-.908.307-1.238.21-.352.496-.525.856-.525.51 0 .825.248.93.742h.855C64.537 1.028 63.944.54 62.895.54c-.623 0-1.117.27-1.478.81-.367.54-.547 1.245-.547 2.123 0 .817.165 1.455.51 1.92.345.472.847.712 1.508.712zm-.03-.728c-.308 0-.555-.097-.75-.292-.195-.195-.293-.465-.293-.803 0-.345.09-.622.278-.817.18-.202.434-.3.764-.3.323 0 .578.098.773.3.18.195.277.458.277.788s-.097.6-.292.81c-.195.21-.443.315-.758.315zM68.543 6l1.874-4.65V.645h-3.622v.795h2.737L67.612 6h.93zm5.924.105c.638 0 1.133-.15 1.486-.443.344-.3.525-.682.525-1.162 0-.33-.105-.623-.308-.877-.18-.233-.398-.383-.645-.45v-.015c.262-.105.457-.263.593-.458.12-.188.18-.42.18-.69 0-.405-.158-.742-.458-1.012C75.495.69 75.037.54 74.467.54c-.577 0-1.034.15-1.372.458-.308.27-.457.607-.457 1.012 0 .27.06.503.18.69.127.195.322.353.592.458v.014c-.255.068-.465.218-.645.45-.21.256-.308.548-.308.878 0 .48.173.862.526 1.162.344.293.84.443 1.484.443zm0-3.218c-.374 0-.637-.09-.802-.262-.135-.143-.203-.337-.203-.585 0-.218.083-.397.248-.548.188-.172.443-.254.758-.254.314 0 .562.082.757.254.165.15.248.33.248.548 0 .248-.068.442-.203.585-.165.172-.435.263-.802.263zm0 2.513c-.367 0-.644-.083-.84-.248-.202-.165-.3-.382-.3-.652 0-.285.09-.518.285-.69.196-.18.48-.27.856-.27.374 0 .66.09.862.277.18.165.278.398.278.683 0 .27-.098.48-.285.645-.21.165-.495.255-.855.255zm9.93.705c.615 0 1.11-.27 1.478-.81.36-.54.547-1.252.547-2.123 0-.825-.172-1.462-.517-1.927-.345-.473-.847-.705-1.5-.705-.54 0-.99.172-1.35.525-.36.345-.54.788-.54 1.328 0 .525.15.952.465 1.282.315.345.742.518 1.267.518.27 0 .51-.053.72-.15.218-.106.406-.27.563-.488h.037v.067c0 .495-.104.908-.307 1.238-.218.345-.503.525-.855.525-.517 0-.825-.247-.93-.742h-.855c.127.974.72 1.462 1.777 1.462zm.038-2.625c-.33 0-.585-.105-.765-.3-.195-.195-.285-.458-.285-.788s.09-.6.285-.81c.195-.21.45-.315.765-.315.3 0 .555.098.75.293.195.195.293.458.293.802 0 .345-.098.615-.278.818-.188.195-.443.3-.765.3zm6.03 2.625c.623 0 1.11-.263 1.462-.78.33-.495.495-1.163.495-2.003 0-.84-.165-1.507-.495-2.002-.352-.525-.84-.78-1.462-.78-.63 0-1.118.255-1.463.78-.33.495-.495 1.162-.495 2.002 0 .84.165 1.508.495 2.003.346.518.833.78 1.463.78zm0-.743c-.428 0-.728-.24-.9-.712-.12-.33-.18-.773-.18-1.328 0-.562.06-1.005.18-1.327.172-.48.472-.713.9-.713.42 0 .72.233.9.713.12.322.18.765.18 1.327 0 .555-.06.998-.18 1.328-.18.472-.48.712-.9.712zm6.15.638V.645h-.66c-.18.188-.405.36-.675.525-.27.15-.525.255-.765.315v.87c.495-.143.9-.36 1.222-.653V6h.878zm4.425.105c.622 0 1.11-.263 1.462-.78.33-.495.496-1.163.496-2.003 0-.84-.166-1.507-.496-2.002-.352-.525-.84-.78-1.462-.78-.63 0-1.118.255-1.463.78-.33.495-.495 1.162-.495 2.002 0 .84.166 1.508.496 2.003.344.518.832.78 1.462.78zm0-.743c-.428 0-.728-.24-.9-.712-.12-.33-.18-.773-.18-1.328 0-.562.06-1.005.18-1.327.172-.48.472-.713.9-.713.42 0 .72.233.9.713.12.322.18.765.18 1.327 0 .555-.06.998-.18 1.328-.18.472-.48.712-.9.712z"/>
        <path id="prefix__aJ" d="M2.19 6.105c.533 0 .99-.158 1.38-.473.42-.352.63-.802.63-1.357 0-.578-.165-1.035-.48-1.365-.315-.33-.728-.495-1.23-.495-.24 0-.458.038-.653.112-.217.075-.404.196-.57.36h-.022l.15-1.47h2.558V.645H.69L.398 3.66h.817c.105-.188.247-.323.435-.413.165-.082.368-.12.6-.12.345 0 .615.098.795.308.18.203.277.487.277.847 0 .33-.112.593-.322.788-.217.195-.487.292-.803.292-.292 0-.524-.067-.69-.187-.194-.143-.307-.36-.344-.652H.3c.038.495.247.892.637 1.184.345.263.765.398 1.253.398zm6 0c.533 0 .99-.158 1.38-.473.42-.352.63-.802.63-1.357 0-.578-.165-1.035-.48-1.365-.315-.33-.728-.495-1.23-.495-.24 0-.457.038-.652.112-.218.075-.405.196-.57.36h-.023l.15-1.47h2.558V.645H6.69L6.397 3.66h.818c.105-.188.248-.323.435-.413.165-.082.367-.12.6-.12.345 0 .615.098.795.308.18.203.277.487.277.847 0 .33-.112.593-.322.788-.217.195-.488.292-.803.292-.292 0-.524-.067-.69-.187-.194-.143-.307-.36-.345-.652H6.3c.038.495.248.892.638 1.184.345.263.764.398 1.252.398zM16.118 6v-.772h-2.64c.12-.27.45-.585.997-.946.525-.352.9-.637 1.11-.862.345-.382.525-.802.525-1.268 0-.48-.165-.862-.495-1.162-.338-.3-.765-.45-1.283-.45-.577 0-1.042.195-1.395.585-.345.367-.517.847-.524 1.447h.877c.015-.42.105-.742.27-.952.165-.225.412-.338.742-.338.308 0 .54.068.698.21.15.143.232.36.232.653 0 .3-.12.585-.352.848-.15.157-.39.36-.735.6-.622.427-1.035.757-1.23.982-.36.405-.532.877-.532 1.425h3.735zm4.155.105c.585 0 1.057-.165 1.417-.488.345-.314.517-.72.517-1.215 0-.314-.09-.577-.27-.78-.165-.194-.412-.337-.727-.434.592-.196.892-.586.892-1.17 0-.465-.165-.825-.487-1.088-.33-.263-.772-.39-1.313-.39-.524 0-.96.142-1.297.443-.36.3-.555.72-.6 1.26h.862c.03-.323.136-.563.316-.72.172-.158.412-.233.727-.233.308 0 .54.067.698.202.142.135.217.33.217.593 0 .263-.083.465-.24.6-.165.135-.405.203-.72.203h-.375v.66h.375c.345 0 .607.067.787.217.18.143.278.368.278.675 0 .255-.09.465-.262.637-.196.188-.466.285-.803.285-.308 0-.555-.09-.742-.262-.21-.188-.316-.457-.33-.802H18.3c.045.6.255 1.064.63 1.38.337.285.788.427 1.343.427zM30.398 6V.645h-.66c-.18.188-.405.36-.675.525-.27.15-.525.255-.765.315v.87c.495-.143.9-.36 1.222-.653V6h.878zm6.292 0v-.772h-2.64c.12-.27.45-.585.998-.946.524-.352.9-.637 1.11-.862.344-.382.524-.802.524-1.268 0-.48-.165-.862-.495-1.162-.337-.3-.764-.45-1.282-.45-.578 0-1.043.195-1.395.585-.345.367-.517.847-.525 1.447h.877c.015-.42.105-.742.27-.952.166-.225.413-.338.743-.338.307 0 .54.068.697.21.15.143.233.36.233.653 0 .3-.12.585-.352.848-.15.157-.39.36-.736.6-.622.427-1.035.757-1.23.982-.36.405-.532.877-.532 1.425h3.735zm4.155.105c.585 0 1.058-.165 1.418-.488.345-.314.517-.72.517-1.215 0-.314-.09-.577-.27-.78-.165-.194-.413-.337-.727-.434.592-.196.892-.586.892-1.17 0-.465-.165-.825-.487-1.088-.33-.263-.773-.39-1.313-.39-.525 0-.96.142-1.297.443-.36.3-.556.72-.6 1.26h.862c.03-.323.135-.563.315-.72.172-.158.413-.233.727-.233.308 0 .54.067.698.202.142.135.218.33.218.593 0 .263-.083.465-.24.6-.166.135-.405.203-.72.203h-.376v.66h.375c.345 0 .608.067.788.217.18.143.278.368.278.675 0 .255-.09.465-.263.637-.195.188-.465.285-.803.285-.307 0-.555-.09-.742-.262-.21-.188-.315-.457-.33-.802h-.892c.044.6.255 1.064.63 1.38.337.285.787.427 1.342.427zM48.135 6V4.853h.795v-.698h-.795V.645h-.802L44.715 4.02v.833h2.587V6h.833zm-.832-1.845h-1.875l1.852-2.4h.023v2.4zm9.457 1.95c.532 0 .99-.158 1.38-.473.42-.352.63-.802.63-1.357 0-.578-.165-1.035-.48-1.365-.315-.33-.727-.495-1.23-.495-.24 0-.458.038-.653.112-.217.075-.404.196-.57.36h-.022l.15-1.47h2.557V.645H55.26l-.292 3.015h.817c.105-.188.248-.323.435-.413.165-.082.367-.12.6-.12.345 0 .615.098.795.308.18.203.277.487.277.847 0 .33-.112.593-.322.788-.218.195-.487.292-.803.292-.292 0-.525-.067-.69-.187-.194-.143-.307-.36-.344-.652h-.863c.038.495.248.892.638 1.184.344.263.764.398 1.252.398zm6.128 0c.532 0 .982-.18 1.342-.525.36-.345.547-.787.547-1.327 0-.526-.157-.96-.472-1.298-.315-.337-.735-.502-1.26-.502-.27 0-.51.045-.72.15-.225.104-.413.262-.563.487h-.037v-.067c0-.496.097-.908.307-1.238.21-.352.496-.525.856-.525.51 0 .825.248.93.742h.855C64.537 1.028 63.944.54 62.895.54c-.623 0-1.117.27-1.478.81-.367.54-.547 1.245-.547 2.123 0 .817.165 1.455.51 1.92.345.472.847.712 1.508.712zm-.03-.728c-.308 0-.555-.097-.75-.292-.195-.195-.293-.465-.293-.803 0-.345.09-.622.278-.817.18-.202.434-.3.764-.3.323 0 .578.098.773.3.18.195.277.458.277.788s-.097.6-.292.81c-.195.21-.443.315-.758.315zM68.543 6l1.874-4.65V.645h-3.622v.795h2.737L67.612 6h.93zm5.924.105c.638 0 1.133-.15 1.486-.443.344-.3.525-.682.525-1.162 0-.33-.105-.623-.308-.877-.18-.233-.398-.383-.645-.45v-.015c.262-.105.457-.263.593-.458.12-.188.18-.42.18-.69 0-.405-.158-.742-.458-1.012C75.495.69 75.037.54 74.467.54c-.577 0-1.034.15-1.372.458-.308.27-.457.607-.457 1.012 0 .27.06.503.18.69.127.195.322.353.592.458v.014c-.255.068-.465.218-.645.45-.21.256-.308.548-.308.878 0 .48.173.862.526 1.162.344.293.84.443 1.484.443zm0-3.218c-.374 0-.637-.09-.802-.262-.135-.143-.203-.337-.203-.585 0-.218.083-.397.248-.548.188-.172.443-.254.758-.254.314 0 .562.082.757.254.165.15.248.33.248.548 0 .248-.068.442-.203.585-.165.172-.435.263-.802.263zm0 2.513c-.367 0-.644-.083-.84-.248-.202-.165-.3-.382-.3-.652 0-.285.09-.518.285-.69.196-.18.48-.27.856-.27.374 0 .66.09.862.277.18.165.278.398.278.683 0 .27-.098.48-.285.645-.21.165-.495.255-.855.255zm9.93.705c.615 0 1.11-.27 1.478-.81.36-.54.547-1.252.547-2.123 0-.825-.172-1.462-.517-1.927-.345-.473-.847-.705-1.5-.705-.54 0-.99.172-1.35.525-.36.345-.54.788-.54 1.328 0 .525.15.952.465 1.282.315.345.742.518 1.267.518.27 0 .51-.053.72-.15.218-.106.406-.27.563-.488h.037v.067c0 .495-.104.908-.307 1.238-.218.345-.503.525-.855.525-.517 0-.825-.247-.93-.742h-.855c.127.974.72 1.462 1.777 1.462zm.038-2.625c-.33 0-.585-.105-.765-.3-.195-.195-.285-.458-.285-.788s.09-.6.285-.81c.195-.21.45-.315.765-.315.3 0 .555.098.75.293.195.195.293.458.293.802 0 .345-.098.615-.278.818-.188.195-.443.3-.765.3zm6.03 2.625c.623 0 1.11-.263 1.462-.78.33-.495.495-1.163.495-2.003 0-.84-.165-1.507-.495-2.002-.352-.525-.84-.78-1.462-.78-.63 0-1.118.255-1.463.78-.33.495-.495 1.162-.495 2.002 0 .84.165 1.508.495 2.003.346.518.833.78 1.463.78zm0-.743c-.428 0-.728-.24-.9-.712-.12-.33-.18-.773-.18-1.328 0-.562.06-1.005.18-1.327.172-.48.472-.713.9-.713.42 0 .72.233.9.713.12.322.18.765.18 1.327 0 .555-.06.998-.18 1.328-.18.472-.48.712-.9.712zm6.15.638V.645h-.66c-.18.188-.405.36-.675.525-.27.15-.525.255-.765.315v.87c.495-.143.9-.36 1.222-.653V6h.878zm4.425.105c.622 0 1.11-.263 1.462-.78.33-.495.496-1.163.496-2.003 0-.84-.166-1.507-.496-2.002-.352-.525-.84-.78-1.462-.78-.63 0-1.118.255-1.463.78-.33.495-.495 1.162-.495 2.002 0 .84.166 1.508.496 2.003.344.518.832.78 1.462.78zm0-.743c-.428 0-.728-.24-.9-.712-.12-.33-.18-.773-.18-1.328 0-.562.06-1.005.18-1.327.172-.48.472-.713.9-.713.42 0 .72.233.9.713.12.322.18.765.18 1.327 0 .555-.06.998-.18 1.328-.18.472-.48.712-.9.712z"/>
        <path id="prefix__aP" d="M5.341.966H.75v.717l.197.042c.12.026.467.117 1.033.271.667.181 1.475.61 1.605.764.037.045.112.267.194.622l1.99 7.635h2.986L12.938.967h-3.12L7.493 6.77l-.877-4.551c-.159-.8-.594-1.243-1.275-1.253zm-3.23.547l-.173-.047h3.396c.422.006.675.264.792.85L7.323 8.54l2.833-7.074h2.031l-3.766 9.051H6.156L4.264 3.264l-.072-.293c-.072-.263-.143-.436-.225-.533-.206-.244-1.1-.719-1.856-.925z"/>
        <path id="prefix__aS" d="M16.413.966h-2.966L11.28 11.017h3.005L16.413.967zm-.618.5l-1.916 9.051h-1.98l1.951-9.051h1.945z"/>
        <path id="prefix__aV" d="M19.72.87c-1.94.519-3.276 1.65-3.175 3.464.052.94.598 1.634 1.56 2.255l.198.123c-.103-.062 1.447.778 1.521.898.342.553.153.95-.798 1.036-.819.074-1.7-.114-2.648-.57l-.28-.135-.618 2.623.21.076c1.382.497 2.617.663 3.703.49 1.946-.308 3.26-1.125 3.558-2.553.3-1.428.046-2.304-.745-2.91-.185-.142-.437-.308-.75-.5l-.27-.163c-.309-.182-1.203-.688-1.265-.728-.268-.173-.385-.446-.21-.633.29-.307 1.23-.483 1.824-.341.415.099.816.232 1.206.4l.277.119.56-2.547-.222-.066c-1.434-.429-2.583-.559-3.453-.38L19.72.87zm3.27.752l-.331 1.507.279.113c-.415-.178-.844-.32-1.287-.426-.753-.18-1.876.03-2.304.484-.448.477-.19 1.078.302 1.396l1.282.739.264.159c.3.183.538.34.707.47.626.479.822 1.159.56 2.41-.246 1.176-1.383 1.883-3.147 2.163l-.252.033c-.852.088-1.812-.041-2.88-.39l-.114-.039.374-1.585.272.111c.822.318 1.608.444 2.357.377 1.325-.12 1.713-.932 1.178-1.797-.094-.151-.255-.274-.553-.443l-.894-.48c-.085-.048-.164-.094-.242-.14-.957-.576-1.473-1.179-1.517-1.977-.084-1.515 1.067-2.49 2.806-2.954.672-.18 1.593-.126 2.76.167l.38.102z"/>
        <path id="prefix__aY" d="M27.472.966h2.305l2.12 10.051h-2.784l-.303-1.424h-2.805l-.538 1.424h-3.131l2.926-6.978c.642-1.517 1.002-2.344 1.083-2.495.163-.298.44-.481.821-.55l.148-.02.158-.008zm.014.5l-.134.007c-.291.028-.47.131-.567.31l-.153.33c-.225.507-.675 1.56-1.345 3.152l-2.201 5.252h2.035l.54-1.424h3.555l.301 1.424h1.763l-1.909-9.051h-1.885zm-1.32 6.156l1.76-4.734.965 4.734h-2.725zm1.619-2.921l-.9 2.421h1.393l-.493-2.421z"/>
        <rect id="prefix__k" width="134.161" height="85.233" x="0" y="0" rx="2"/>
        <rect id="prefix__O" width="19.665" height="16.825" x="0" y="0" rx="2"/>
        <rect id="prefix__aa" width="134.161" height="85.233" x="0" y="0" rx="2"/>
        <rect id="prefix__aL" width="19.665" height="16.825" x="0" y="0" rx="2"/>
        <text id="prefix__g" font-family="PingFangTC-Semibold, PingFang TC" font-size="7" font-weight="500" letter-spacing="2">
            <tspan x="11" y="58">5523 1234 5678 9010</tspan>
        </text>
        <text id="prefix__W" font-family="PingFangTC-Semibold, PingFang TC" font-size="7" font-weight="500" letter-spacing="2">
            <tspan x="11" y="58">5523 1234 5678 9010</tspan>
        </text>
    </defs>
    <g fill="none" fill-rule="evenodd">
        <path fill="url(#prefix__a)" d="M0 0H312V240H0z"/>
        <g>
            <path fill="url(#prefix__b)" d="M0 .216h4.337c.552.008.896.359 1.034 1.052.138.692.484 2.488 1.038 5.387L8.987.216h2.576L7.588 9.767H4.963l-1.94-7.44c-.091-.398-.174-.64-.247-.728-.111-.13-.874-.611-1.73-.844C.474.6.125.508 0 .48V.216z" transform="translate(191 167)"/>
            <path fill="url(#prefix__c)" d="M12.649 0.216L15.104 0.216 13.082 9.767 10.59 9.767z" transform="translate(191 167)"/>
            <path fill="url(#prefix__d)" d="M22.284.447C20.788 0 19.622-.112 18.785.112c-1.256.335-3.1 1.221-2.99 3.209.11 1.987 2.892 2.59 3.242 3.157.35.567.312 1.299-.988 1.417-.867.078-1.793-.12-2.78-.593l-.495 2.102c1.346.485 2.539.645 3.58.48 1.562-.248 3.047-.9 3.353-2.358.305-1.457-.02-2.176-.653-2.66-.633-.485-2.013-1.215-2.269-1.38-.256-.165-.63-.617-.256-1.014.374-.398 1.422-.567 2.064-.413.429.102.844.24 1.246.413l.445-2.025z" transform="translate(191 167)"/>
            <path fill="url(#prefix__e)" d="M28.574.216l2.015 9.551h-2.274l-.302-1.424h-3.18l-.539 1.424h-2.583c2.412-5.78 3.697-8.815 3.854-9.104.157-.289.46-.438.907-.447h2.102zm-1.719 2.58l-1.329 3.576h2.059l-.73-3.577z" transform="translate(191 167)"/>
        </g>
        <g transform="translate(125 101)">
            <use fill="url(#prefix__f)" xlink:href="#prefix__g"/>
            <use fill="#D8D8D8" filter="url(#prefix__h)" xlink:href="#prefix__g"/>
            <use fill="#D8D8D8" filter="url(#prefix__i)" xlink:href="#prefix__g"/>
            <g filter="url(#prefix__j)">
                <g>
                    <mask id="prefix__o" fill="#fff">
                        <use xlink:href="#prefix__k"/>
                    </mask>
                    <use fill="#000" filter="url(#prefix__l)" xlink:href="#prefix__k"/>
                    <use fill="url(#prefix__n)" stroke="url(#prefix__m)" stroke-width=".769" xlink:href="#prefix__k"/>
                    <g stroke-width=".5" mask="url(#prefix__o)" opacity=".3">
                        <g opacity=".7">
                            <path stroke="url(#prefix__p)" d="M23.061 175.557s53.65-4.405 80.863-34.858c27.214-30.454 25.27 41.078 38.488 29.415C155.63 158.452 235.995 86.342 245.588.01" transform="translate(-119 -75)"/>
                            <path stroke="url(#prefix__q)" d="M21.964 177.91s55.845-5.406 83.712-36.937c27.866-31.531 23.914 41.22 37.081 30.008 13.167-11.213 95.279-81.777 105.42-166.587" transform="translate(-119 -75)"/>
                            <path stroke="url(#prefix__r)" d="M20.867 180.262s58.04-6.407 86.56-39.015c28.52-32.609 22.559 41.361 35.675 30.6 13.117-10.762 96.974-79.78 107.663-163.068" transform="translate(-119 -75)"/>
                            <path stroke="url(#prefix__s)" d="M19.77 182.615s60.237-7.408 89.41-41.094c29.172-33.686 21.202 41.503 34.268 31.192 13.065-10.311 98.668-77.784 109.905-159.549" transform="translate(-119 -75)"/>
                            <path stroke="url(#prefix__t)" d="M18.672 184.968s62.433-8.41 92.259-43.173c29.826-34.763 19.847 41.644 32.862 31.784s100.364-75.787 112.149-156.03" transform="translate(-119 -75)"/>
                            <path stroke="url(#prefix__u)" d="M17.575 187.32s64.629-9.41 95.108-45.25c30.478-35.842 18.491 41.785 31.455 32.375 12.964-9.41 102.059-73.79 114.392-152.51" transform="translate(-119 -75)"/>
                            <path stroke="url(#prefix__v)" d="M16.478 189.673s66.824-10.412 97.956-47.33c31.132-36.918 17.137 41.927 30.05 32.968 12.912-8.959 103.753-71.794 116.635-148.991" transform="translate(-119 -75)"/>
                            <path stroke="url(#prefix__w)" d="M15.38 192.025s69.02-11.412 100.806-49.408c31.785-37.995 15.78 42.068 28.643 33.56 12.862-8.508 105.449-69.798 118.878-145.472" transform="translate(-119 -75)"/>
                            <path stroke="url(#prefix__x)" d="M14.283 194.378S85.5 181.964 117.938 142.89c32.438-39.072 14.425 42.21 27.236 34.152 12.811-8.057 107.144-67.801 121.122-141.953" transform="translate(-119 -75)"/>
                            <path stroke="url(#prefix__y)" d="M13.186 196.73s73.412-13.414 106.503-53.564c33.092-40.15 13.07 42.35 25.83 34.743 12.76-7.607 108.84-65.805 123.365-138.434" transform="translate(-119 -75)"/>
                            <path stroke="url(#prefix__z)" d="M12.089 199.083s75.608-14.416 109.352-55.643c33.744-41.228 11.714 42.492 24.424 35.336 12.71-7.157 110.534-63.81 125.608-134.916" transform="translate(-119 -75)"/>
                            <path stroke="url(#prefix__A)" d="M10.992 201.436s77.803-15.417 112.2-57.722c34.398-42.305 10.359 42.633 23.018 35.928 12.659-6.706 112.229-61.813 127.851-131.397" transform="translate(-119 -75)"/>
                            <path stroke="url(#prefix__B)" d="M9.894 203.788s80-16.418 115.05-59.8 9.003 42.775 21.611 36.52c12.608-6.255 113.924-59.816 130.095-127.877" transform="translate(-119 -75)"/>
                            <path stroke="url(#prefix__C)" d="M8.797 206.14s82.196-17.418 117.9-61.878c35.703-44.46 7.646 42.916 20.203 37.112 12.558-5.804 115.62-57.82 132.338-124.358" transform="translate(-119 -75)"/>
                            <path stroke="url(#prefix__D)" d="M7.7 208.493s84.391-18.42 120.748-63.957c36.356-45.537 6.291 43.058 18.798 37.704 12.506-5.354 117.314-55.823 134.58-120.839" transform="translate(-119 -75)"/>
                            <path stroke="url(#prefix__E)" d="M6.603 210.846S93.19 191.424 130.2 144.81c37.01-46.614 4.935 43.2 17.391 38.296 12.456-4.903 119.01-53.826 136.824-117.32" transform="translate(-119 -75)"/>
                            <path stroke="url(#prefix__F)" d="M5.505 213.198s88.783-20.422 126.446-68.114c37.663-47.692 3.58 43.34 15.985 38.888 12.405-4.452 120.705-51.83 139.067-113.8" transform="translate(-119 -75)"/>
                            <path stroke="url(#prefix__G)" d="M4.408 215.551s90.98-21.424 129.295-70.193c38.316-48.769 2.225 43.482 14.579 39.48 12.353-4.001 122.399-49.833 141.31-110.282" transform="translate(-119 -75)"/>
                            <path stroke="url(#prefix__H)" d="M3.31 217.904s93.176-22.425 132.145-72.272c38.968-49.846.869 43.623 13.172 40.072 12.303-3.55 124.094-47.837 143.553-106.762" transform="translate(-119 -75)"/>
                            <path stroke="url(#prefix__I)" d="M2.214 220.256s95.37-23.426 134.992-74.35c39.622-50.923-.486 43.765 11.766 40.665 12.252-3.1 125.79-45.841 145.797-103.244" transform="translate(-119 -75)"/>
                            <path stroke="url(#prefix__J)" d="M1.116 222.609s97.567-24.427 137.842-76.428c40.275-52.002-1.842 43.905 10.36 41.256 12.2-2.65 127.484-43.845 148.04-99.725" transform="translate(-119 -75)"/>
                            <path stroke="url(#prefix__K)" d="M.02 224.962s99.761-25.429 140.69-78.507c40.928-53.079-3.198 44.047 8.953 41.848 12.15-2.2 129.18-41.848 150.283-96.206" transform="translate(-119 -75)"/>
                        </g>
                    </g>
                </g>
            </g>
            <g fill-rule="nonzero" transform="translate(11 52)">
                <use fill="url(#prefix__L)" xlink:href="#prefix__M"/>
                <use fill="#000" filter="url(#prefix__N)" xlink:href="#prefix__M"/>
            </g>
            <g transform="translate(11 28)">
                <use fill="url(#prefix__P)" xlink:href="#prefix__O"/>
                <use fill="#000" filter="url(#prefix__Q)" xlink:href="#prefix__O"/>
                <path stroke="url(#prefix__R)" stroke-width=".5" d="M6.76.167c.378.247.567.567.567.96 0 .59-1.233 2.817-1.233 4.432 0 1.615-.212 3.484 0 5.47.212 1.984.933 3.582 1.233 4.168.2.39.01.88-.566 1.47"/>
                <path stroke="url(#prefix__S)" stroke-width=".5" d="M12.05.167c.378.25.566.573.566.97 0 .588-.094.881-.283.881" transform="matrix(-1 0 0 1 24.667 0)"/>
                <path stroke="url(#prefix__T)" stroke-width=".5" d="M12 5.756h6.024v5.215c.177 2.413 1.032 3.817 1.232 4.211.2.395.011.89-.566 1.485" transform="matrix(-1 0 0 1 31.333 0)"/>
                <path stroke="url(#prefix__U)" stroke-width=".5" d="M0 5.732L6 5.732M0 10.667L6 10.667M13.333 10.667L19.333 10.667"/>
            </g>
            <rect width="19.165" height="16.325" x="11.25" y="28.25" stroke="url(#prefix__V)" stroke-width=".5" rx="2"/>
        </g>
        <g transform="translate(54 46)">
            <use fill="url(#prefix__f)" xlink:href="#prefix__W"/>
            <use fill="#D8D8D8" filter="url(#prefix__X)" xlink:href="#prefix__W"/>
            <use fill="#D8D8D8" filter="url(#prefix__Y)" xlink:href="#prefix__W"/>
            <g filter="url(#prefix__Z)">
                <g>
                    <mask id="prefix__ae" fill="#fff">
                        <use xlink:href="#prefix__aa"/>
                    </mask>
                    <use fill="#000" filter="url(#prefix__ab)" xlink:href="#prefix__aa"/>
                    <use fill="url(#prefix__ad)" stroke="url(#prefix__ac)" stroke-width=".769" xlink:href="#prefix__aa"/>
                    <g stroke-width=".5" mask="url(#prefix__ae)" opacity=".743">
                        <g opacity=".7">
                            <path stroke="url(#prefix__af)" d="M23.061 175.557s53.65-4.405 80.863-34.858c27.214-30.454 25.27 41.078 38.488 29.415C155.63 158.452 235.995 86.342 245.588.01" transform="translate(-121 -73)"/>
                            <path stroke="url(#prefix__ag)" d="M21.964 177.91s55.845-5.406 83.712-36.937c27.866-31.531 23.914 41.22 37.081 30.008 13.167-11.213 95.279-81.777 105.42-166.587" transform="translate(-121 -73)"/>
                            <path stroke="url(#prefix__ah)" d="M20.867 180.262s58.04-6.407 86.56-39.015c28.52-32.609 22.559 41.361 35.675 30.6 13.117-10.762 96.974-79.78 107.663-163.068" transform="translate(-121 -73)"/>
                            <path stroke="url(#prefix__ai)" d="M19.77 182.615s60.237-7.408 89.41-41.094c29.172-33.686 21.202 41.503 34.268 31.192 13.065-10.311 98.668-77.784 109.905-159.549" transform="translate(-121 -73)"/>
                            <path stroke="url(#prefix__aj)" d="M18.672 184.968s62.433-8.41 92.259-43.173c29.826-34.763 19.847 41.644 32.862 31.784s100.364-75.787 112.149-156.03" transform="translate(-121 -73)"/>
                            <path stroke="url(#prefix__ak)" d="M17.575 187.32s64.629-9.41 95.108-45.25c30.478-35.842 18.491 41.785 31.455 32.375 12.964-9.41 102.059-73.79 114.392-152.51" transform="translate(-121 -73)"/>
                            <path stroke="url(#prefix__al)" d="M16.478 189.673s66.824-10.412 97.956-47.33c31.132-36.918 17.137 41.927 30.05 32.968 12.912-8.959 103.753-71.794 116.635-148.991" transform="translate(-121 -73)"/>
                            <path stroke="url(#prefix__am)" d="M15.38 192.025s69.02-11.412 100.806-49.408c31.785-37.995 15.78 42.068 28.643 33.56 12.862-8.508 105.449-69.798 118.878-145.472" transform="translate(-121 -73)"/>
                            <path stroke="url(#prefix__an)" d="M14.283 194.378S85.5 181.964 117.938 142.89c32.438-39.072 14.425 42.21 27.236 34.152 12.811-8.057 107.144-67.801 121.122-141.953" transform="translate(-121 -73)"/>
                            <path stroke="url(#prefix__ao)" d="M13.186 196.73s73.412-13.414 106.503-53.564c33.092-40.15 13.07 42.35 25.83 34.743 12.76-7.607 108.84-65.805 123.365-138.434" transform="translate(-121 -73)"/>
                            <path stroke="url(#prefix__ap)" d="M12.089 199.083s75.608-14.416 109.352-55.643c33.744-41.228 11.714 42.492 24.424 35.336 12.71-7.157 110.534-63.81 125.608-134.916" transform="translate(-121 -73)"/>
                            <path stroke="url(#prefix__aq)" d="M10.992 201.436s77.803-15.417 112.2-57.722c34.398-42.305 10.359 42.633 23.018 35.928 12.659-6.706 112.229-61.813 127.851-131.397" transform="translate(-121 -73)"/>
                            <path stroke="url(#prefix__ar)" d="M9.894 203.788s80-16.418 115.05-59.8 9.003 42.775 21.611 36.52c12.608-6.255 113.924-59.816 130.095-127.877" transform="translate(-121 -73)"/>
                            <path stroke="url(#prefix__as)" d="M8.797 206.14s82.196-17.418 117.9-61.878c35.703-44.46 7.646 42.916 20.203 37.112 12.558-5.804 115.62-57.82 132.338-124.358" transform="translate(-121 -73)"/>
                            <path stroke="url(#prefix__at)" d="M7.7 208.493s84.391-18.42 120.748-63.957c36.356-45.537 6.291 43.058 18.798 37.704 12.506-5.354 117.314-55.823 134.58-120.839" transform="translate(-121 -73)"/>
                            <path stroke="url(#prefix__au)" d="M6.603 210.846S93.19 191.424 130.2 144.81c37.01-46.614 4.935 43.2 17.391 38.296 12.456-4.903 119.01-53.826 136.824-117.32" transform="translate(-121 -73)"/>
                            <path stroke="url(#prefix__av)" d="M5.505 213.198s88.783-20.422 126.446-68.114c37.663-47.692 3.58 43.34 15.985 38.888 12.405-4.452 120.705-51.83 139.067-113.8" transform="translate(-121 -73)"/>
                            <path stroke="url(#prefix__aw)" d="M4.408 215.551s90.98-21.424 129.295-70.193c38.316-48.769 2.225 43.482 14.579 39.48 12.353-4.001 122.399-49.833 141.31-110.282" transform="translate(-121 -73)"/>
                            <path stroke="url(#prefix__ax)" d="M3.31 217.904s93.176-22.425 132.145-72.272c38.968-49.846.869 43.623 13.172 40.072 12.303-3.55 124.094-47.837 143.553-106.762" transform="translate(-121 -73)"/>
                            <path stroke="url(#prefix__ay)" d="M2.214 220.256s95.37-23.426 134.992-74.35c39.622-50.923-.486 43.765 11.766 40.665 12.252-3.1 125.79-45.841 145.797-103.244" transform="translate(-121 -73)"/>
                            <path stroke="url(#prefix__az)" d="M1.116 222.609s97.567-24.427 137.842-76.428c40.275-52.002-1.842 43.905 10.36 41.256 12.2-2.65 127.484-43.845 148.04-99.725" transform="translate(-121 -73)"/>
                            <path stroke="url(#prefix__aA)" d="M.02 224.962s99.761-25.429 140.69-78.507c40.928-53.079-3.198 44.047 8.953 41.848 12.15-2.2 129.18-41.848 150.283-96.206" transform="translate(-121 -73)"/>
                        </g>
                    </g>
                </g>
            </g>
            <path fill="url(#prefix__aB)" d="M118.5 64c4.142 0 7.5 3.358 7.5 7.5 0 4.142-3.358 7.5-7.5 7.5-1.921 0-3.674-.722-5.001-1.91-1.326 1.188-3.078 1.91-4.999 1.91-4.142 0-7.5-3.358-7.5-7.5 0-4.142 3.358-7.5 7.5-7.5 1.921 0 3.674.722 5.001 1.91 1.326-1.188 3.078-1.91 4.999-1.91z"/>
            <g fill-rule="nonzero">
                <use fill="#000" filter="url(#prefix__aC)" xlink:href="#prefix__aD"/>
                <use fill="url(#prefix__aE)" xlink:href="#prefix__aD"/>
            </g>
            <g fill-rule="nonzero" transform="translate(11 52)">
                <use fill="#000" filter="url(#prefix__aF)" xlink:href="#prefix__aG"/>
                <use fill="#111" xlink:href="#prefix__aG"/>
                <use fill="url(#prefix__aH)" xlink:href="#prefix__aG"/>
                <g>
                    <use fill="url(#prefix__aI)" xlink:href="#prefix__aJ"/>
                    <use fill="#000" filter="url(#prefix__aK)" xlink:href="#prefix__aJ"/>
                </g>
            </g>
            <g transform="translate(11 28)">
                <use fill="url(#prefix__P)" xlink:href="#prefix__aL"/>
                <use fill="#000" filter="url(#prefix__aM)" xlink:href="#prefix__aL"/>
                <path stroke="url(#prefix__R)" stroke-width=".5" d="M6.76.167c.378.247.567.567.567.96 0 .59-1.233 2.817-1.233 4.432 0 1.615-.212 3.484 0 5.47.212 1.984.933 3.582 1.233 4.168.2.39.01.88-.566 1.47"/>
                <path stroke="url(#prefix__S)" stroke-width=".5" d="M12.05.167c.378.25.566.573.566.97 0 .588-.094.881-.283.881" transform="matrix(-1 0 0 1 24.667 0)"/>
                <path stroke="url(#prefix__T)" stroke-width=".5" d="M12 5.756h6.024v5.215c.177 2.413 1.032 3.817 1.232 4.211.2.395.011.89-.566 1.485" transform="matrix(-1 0 0 1 31.333 0)"/>
                <path stroke="url(#prefix__U)" stroke-width=".5" d="M0 5.732L6 5.732M0 10.667L6 10.667M13.333 10.667L19.333 10.667"/>
            </g>
            <rect width="19.165" height="16.325" x="11.25" y="28.25" stroke="url(#prefix__aN)" stroke-width=".5" rx="2"/>
        </g>
        <g>
            <g>
                <path fill="url(#prefix__b)" d="M0 .216h4.337c.552.008.896.359 1.034 1.052.138.692.484 2.488 1.038 5.387L8.987.216h2.576L7.588 9.767H4.963l-1.94-7.44c-.091-.398-.174-.64-.247-.728-.111-.13-.874-.611-1.73-.844C.474.6.125.508 0 .48V.216z" transform="translate(220 169) translate(1 1)"/>
                <path fill="url(#prefix__c)" d="M12.649 0.216L15.104 0.216 13.082 9.767 10.59 9.767z" transform="translate(220 169) translate(1 1)"/>
                <path fill="url(#prefix__d)" d="M22.284.447C20.788 0 19.622-.112 18.785.112c-1.256.335-3.1 1.221-2.99 3.209.11 1.987 2.892 2.59 3.242 3.157.35.567.312 1.299-.988 1.417-.867.078-1.793-.12-2.78-.593l-.495 2.102c1.346.485 2.539.645 3.58.48 1.562-.248 3.047-.9 3.353-2.358.305-1.457-.02-2.176-.653-2.66-.633-.485-2.013-1.215-2.269-1.38-.256-.165-.63-.617-.256-1.014.374-.398 1.422-.567 2.064-.413.429.102.844.24 1.246.413l.445-2.025z" transform="translate(220 169) translate(1 1)"/>
                <path fill="url(#prefix__e)" d="M28.574.216l2.015 9.551h-2.274l-.302-1.424h-3.18l-.539 1.424h-2.583c2.412-5.78 3.697-8.815 3.854-9.104.157-.289.46-.438.907-.447h2.102zm-1.719 2.58l-1.329 3.576h2.059l-.73-3.577z" transform="translate(220 169) translate(1 1)"/>
            </g>
            <g fill-rule="nonzero" transform="translate(220 169)">
                <use fill="#000" filter="url(#prefix__aO)" xlink:href="#prefix__aP"/>
                <use fill="url(#prefix__aQ)" xlink:href="#prefix__aP"/>
                <use fill="#000" filter="url(#prefix__aR)" xlink:href="#prefix__aS"/>
                <use fill="url(#prefix__aT)" xlink:href="#prefix__aS"/>
                <g>
                    <use fill="#000" filter="url(#prefix__aU)" xlink:href="#prefix__aV"/>
                    <use fill="url(#prefix__aW)" xlink:href="#prefix__aV"/>
                </g>
                <g>
                    <use fill="#000" filter="url(#prefix__aX)" xlink:href="#prefix__aY"/>
                    <use fill="url(#prefix__aZ)" xlink:href="#prefix__aY"/>
                </g>
            </g>
        </g>
    </g>
</svg>
