<svg xmlns="http://www.w3.org/2000/svg" width="93" height="24" viewBox="0 0 93 24">
    <path fill="#D4B572" fill-rule="evenodd" d="M2.389 19.357c.058.025.1.09.155.12-.056-.03-.097-.095-.155-.12zm32.987-5.851l.22-.343.378.104.229-.183h.088l.056-.046-.256-.348h-.229l-.22-.608c-.13-.069-.253-.15-.369-.24l-.137-.118-.03-.135-.446-.152-.165-.334-.86-.52c-.266 0-.507-.092-.718-.272l-.023-.023h-.185l-.12-.107c-.176.02-.388-.027-.526-.134l-.08.104c.035.134.048.223.048.307v.22l.226.852-.227.099v.318c0 .032 0 .061-.02.19l.145.144-.221.695.135.485-.144.201.044.077-.032.355.005.01.055-.008c.248-.097.654-.104.952-.016.102-.018.229-.072.368-.162l.05-.025.118-.039c.19-.016.328-.028.427-.035v-.033l.233.006.185-.054.182.01.13-.036c.198-.136.438-.263.734-.207zm2.965-1.086c.143.214.213.415.213.614l-.038.256-.07.214-.069.32-.324.498-.151.379-.375.185-.128.185-.553.18-.304.194-.098.166h-.465c-.204.172-.46.26-.766.26h-.05l-.101.071-.304-.038-.102.047-.152-.016-.017.004c-.327.095-.553.139-.731.12-.347.113-.63.16-.852.13l-.304.092-.085-.037-.224.254-.401-.1-.153.39-.794 1.05-.441-.429h-.678l.076-.761h-.35l-.55-.425-.273-.89.444-.46c.145-.15.32-.276.524-.376.01-.059.022-.118.042-.175l-.042-.746.054-.25-.005-.461.021-.03-.17-.275.277-.63-.065-.892.03-.483-.001-.118-.138-.478v-.118l-.557.05h-.002c-.336 0-.748-.177-.918-1.008l-.17-.85.219-.208c.334-.318.667-.483.992-.495.278-.087.567-.134.858-.139.095 0 .194.024.305.075.078-.02.17-.04.28-.064l.38-.085.094.215.295.005.835.246.566-.088.33.45.135.097.118.022.143.059c.22.01.422.076.602.202.29.101.535.253.732.456.063.025.12.05.173.08.155.122.197.124.218.126l.144.014.54.429.356.337h.226l.442.349.05.288c.246.243.496.54.742.88l.045.09.333.21v.526l.137.156v.154zm7.602-.775l-.115-1.174-.213-.455h-.246l-.02-.315-.048.069-.259.294-.108.617-.488.268c-.066.242-.169.473-.304.684.105.015.212.05.32.1.09-.008.193-.013.317-.013.223 0 .398.01.522.026l.642-.1zm4.226 4.527l.52.35-.01.313c-.01.3-.134.843-.843 1.094l-.193.07-.658-.353h-.226l-.197-.172h-.356l-.254-.48-.158-.09-.253-.509-.35-.41v-.11l-.095-.097-.033-.293-.182-.24-.294-.748-.18-.248-.056-.451-.481.31-.064-.072-.393.277-.174-.436c-.05-.001-.101-.005-.151-.01l-.346.204-.39-.058-.316.201-.34-.148c-.112-.002-.223-.017-.332-.042l-.583.305-.199-.223c-.113.166-.203.293-.268.381l-.101.14-.222.064c-.472.764-.653.942-.796 1.021l-.572.76-.225.396-.832.49c-.114.028-.23.043-.347.046-.314 0-.607-.125-.872-.374l-.283-.262.294-.694v-.324l.076-.108.054-.617.776-.13.038-.33.309-.1h.003l.044-.19.19-.113c.15-.087.242-.222.289-.42l.063-.274.349-.138.134-.227c-.038-.104-.069-.217-.094-.337l-.065-.317.372-.343v-.664l.894.079c.05-.09.11-.17.18-.24l.035-.367.48-.287c.02-.103.052-.2.098-.291l.105-.14c.126-.11.166-.197.17-.33l.014-.402.374-.124.074-.154.101-.017.318-.669v-.502h.374c.07-.093.105-.15.122-.179l.004-.09-.07-.236.165-.223c.268-.37.506-.586.745-.676l.556-.532.613.697.585.354.058.585c.027.046.05.091.072.136.169.237.278.522.307.816l.061.279.248.464.153.753.398.552-.035.067.012.66.458.004.062.013c.288-.175.603-.25 1.143.038l.72.054.084.388c.03.131.045.238.045.33 0 .37-.171.678-.483.867l-.196.117-.19-.071-.376.307-.407-.06-.182.067-.17.017.092.189.025.26.393.62-.023.145.009.01.368.642.263.333.313.179.113.298h.001zm16.63-8.383l-.038.627c.016.074.025.155.025.247 0 .214-.06.428-.178.641-.019.074-.02.137-.02.137 0 .131 0 .131-.365.999l-.258.65v.073l-.714.998-.185.45-.268.333-.284.71-.263.1-.055.102-.08.044-.218.515-.138.125-.053.117-.35.502-.153.397-.084.108-.025.242-.084.16.094.522-.036.128c-.108.389-.394.67-.83.816-.113.066-.282.101-.47.101l-.157-.03-.638-.298-.29-.894-.402-.742-.01-.267-.202-.218-.203-.522c-.07-.192-.16-.4-.272-.635l-.047-.168c-.007-.052-.01-.087-.055-.142l-.28-.54-.012-.08-.148-.119-.145-.859-.107-.233c-.05.173-.137.372-.367.497l-.19.247-.059.02-.09.104c.023-.007.003.023-.013.064-.054.152-.136.386-.302.53l-.866 1.127v-.002c.002 0-.014.03-.034.067.016-.036.01.05.01.1 0 .13-.002.272-.056.392v.44l-.338.019-.071.162-.095.106-.189.416.203.385-.487.057c-.098.495-.457.793-.972.793-.267 0-.522-.117-.757-.344l-.063-.076-.456-.711-.136-.31-.446-.842-.18-.692-.31-.706-.034-.276-.153-.345-.191-.799-.005-.153-.434-1.44.018-.07-.148-.565v-.33l-.042-.388-.254-.343.318-.943c.189-.813.725-.903.946-.903.096 0 .236.016.554.13l.142.087c.366.36.549.77.574 1.242l.12.174-.163.532v.103l.167 1.294.145.34.177 1.071.069.175.073.315.213.096-.012.581.142.344.017.145.055-.113.094-.121c.034-.05.08-.092.133-.12l.017-.011.097-.23.155-.112.036-.206.4-.416.161-.463.231-.095c.009-.042.014-.086.018-.13.016-.14.04-.344.225-.44l.127-.11.083-.313.248-.09c.037-.014.085-.03.12-.171l.072-.275.185-.145.153-.564h.225l.113-.252.096-.007.168-.237.089-.565.161-.127c.07-.057.173-.141.308-.247l.147-.139.116-.187h.851l.353.404.412.203.078.733.026.793.387 1.093-.026.176.058.128.04.168c.078.148.191.43.334 1.14l.22.531.142.196.079.207.074-.243.198-.252v-.086l.138-.155c.064-.072.141-.13.256-.185l.232-.395.4-.458.291-.549.256-.388.218-.478.224-.266.175-.403-.112-.165.316-.69c0-.005.011-.032.027-.071-.05-.174-.077-.354-.08-.535v-.26l.253-.407.091-.29c.287-.465.659-.534.853-.534.28 0 .545.137.77.39l.455.52zm14.345 2.184l-.83.786.21.297-1.147.823h-.211l-.063-.003-.157.15-.259-.034-.383.362-.38-.255-.04.013-.306.208-.049.229.005.121c0 .102-.006.209-.018.323l.014.07c.004.223-.018.409-.062.574.028.106.046.196.059.268l.051.312-.161.145.027.381-.148 1.062c.014.11.023.194.025.25l.077.177-.006.498c-.017.106-.043.209-.078.31-.033.32-.22.995-1.225 1.044l-.475.019-.063-.773-.095-.187-.131-.515v-.533l-.167-.66.079-.059-.005-.439.048-.716-.001-.564.05-.42-.004-.323c.003-.157.023-.313.06-.465-.21.035-.41.039-.55.028l-.652.225-.807-.102c-.107-.015-.215-.025-.323-.03-.037 0-.15.009-.395.096l-.085.015-.533.265-.3-.234-.293.067-.068.303-.656-.294v.21l-.042.39.055.397-.068.193.068.178-.091.735.094.23-.062.419.176.441-.1.203.017.083v.028c-.025.582-.377.942-.88.942-.396 0-1.064-.214-1.116-1.632l-.185-.294-.107-.393c0-.198.036-.382.105-.544l.01-.09-.033-.142-.077-1.499-.323-.203-.08-1.464.5-.322c.013-.1.02-.22.02-.35 0-.208-.02-.388-.056-.521l-.336-1.225.435.248-.037-.248-.007-.483.158-.95 1.081-.663.486.405.533.202.07.583.209.342-.08.25c-.035.116-.069.23-.099.353.023.177.035.363.035.557 0 .299-.028.596-.082.888l.145.345h.079l.474-.061.151.06.72-.012c.117-.006.233-.013.35-.015l.378-.224.374.233.226.027.195-.008 1.344-.177.063-.15-.109-.722.081-.174-.242-.713-.157-.234.127-.29c.012-.026.027-.065.049-.125-.005-.12.053-.357.311-.56l.23-.766 1.024.277.807-.201v.256l.228-.053-.025 1.673.071.286v.146l.105.381-.13.35.031.146-.031.323.331-.094.307.037.113-.021.312-.008c.221-.095.47-.095.692-.001h1.606zm8.908 2.293l-.01-.055.126-.266-.079-.507.044-.08-.05-.14-.206-.155-.075-.218-.158-.072-.068-.352-.221-.228-.09.055-.26-.249c-.092-.087-.35-.26-1.044-.424-.034 0-.114-.003-.192-.027l-.16-.041-.175.108-.211-.081-.086-.033c-.074.028-.14.046-.203.054-.14.132-.324.243-.56.338l-.123.05-.165-.028-.201.113-.222-.027c-.125.102-.26.206-.407.314l-.097.504-.447.222c-.042.083-.09.163-.143.239v.443l-.338.165-.132.497-.16.104c-.05.543-.155.938-.322 1.207-.018.028-.046.094-.053.246l-.032.147.03.15.188.234.03.21c.155.096.289.153.401.173l.837-.249.17.191.47-.107.377.071c.076-.042.158-.071.242-.09.217-.136.415-.217.601-.245l.378-.215.15-.01.204-.178.534-.02c.068-.072.144-.132.228-.18l.328-.873.327.231.233-.246.12.043.049-.038.623-.675zm1.823-2.029c.414 1.095.448 1.343.448 1.501l-.044.413-.12.287-.073.68-.164.168c-.107.545-.351.913-.723 1.1l-.086.041-.847.683-.246.157-.572.718-.346-.066-.067.05-.353.144-.887.533-.21-.08-.035-.013c-.074.039-.152.07-.233.091l-.445.408-.241-.14-.139.122-.732-.022-.826.168-.3.004-.665-.102-.081-.089-.584-.123-.155-.083h-.746v-.52l-.092-.111-.484-.244-.25-.846-.017-.272-.096-.129-.02-1.05.2-.698.044-.951.214-.29.022-.098.07-.149.007-.143-.14-.352.458-.362.235-.56.731-1.21.148-.083.081-.127.06-.065v-.474l.51-.117c.13-.104.267-.19.41-.257l.114-.113.06-.03c.108-.055.294-.12.929-.22l.475-.078.557.078.94-.004.366.01.24-.513.523.673.21.003.126.162.427.043 1.211.593.175.508.258.115.496.917.274.414zm-70.78 4.686c.15-.406.147-.966-1.643-2.942-.578-.637-1.81-1.908-2.324-2.148-.303-.142-.643-.092-1.01.148-.9.588-2.726 2.985-3.386 4.578-.96-.137-1.752-.521-2.347-1.17C9.16 12.055 8.97 9.963 8.95 9.01c.009-.177.012-.345.01-.505h2.197c.375-.001.679-.31.679-.69 0-.383-.304-.692-.68-.692H8.96V4.654c0-.382-.304-.69-.68-.69-.375 0-.68.308-.68.69v2.468H5.423c-.375 0-.68.309-.68.691 0 .382.305.69.68.69h2.175c-.004.083-.008.212-.007.382-.03.544-.122 1.42-.411 2.33-.593 1.855-1.707 2.973-3.313 3.325-.337.077-.563.398-.527.747.036.348.324.614.67.62.047 0 .094-.006.143-.016 2.116-.463 3.357-1.931 4.049-3.544.266.696.643 1.386 1.185 1.98.806.88 1.848 1.412 3.099 1.599-.002 1.72-.017 2.026-.036 2.406-.01.177-.02.371-.029.713-.011.41-.31.642-.44.723-.284.178-.625.211-.89.086-.163-.078-.35-.086-.52-.024-.169.063-.307.192-.383.357-.158.346-.012.756.328.919.29.137.606.208.926.207.429 0 .863-.124 1.254-.369.657-.413 1.063-1.108 1.084-1.86.009-.327.019-.512.026-.682.02-.395.036-.714.038-2.43h2.88c2.82 0 3.986 0 4.373-1.049zM4.912 21.227c.05.102.136.186.206.277-.07-.091-.156-.175-.206-.277zm-2.271-.562v-.001c.056.024.097.09.153.119-.056-.03-.097-.095-.153-.118zM9.59 1.234l.206-.018-.206.018zm7.1 5.442c-.26 0-.508.105-.69.291-.184.186-.287.439-.286.702 0 .262.102.515.285.7.183.187.432.292.69.292.26 0 .508-.105.691-.291.183-.186.286-.439.286-.701 0-.263-.103-.516-.286-.702-.183-.186-.431-.29-.69-.29zM.596 12.928v-.001c-.056.06-.082.095-.085.127.002-.032.03-.066.085-.126zm23.411-2.702c.017.02.035.038.053.056-.013.177-.06.361-.03.53.05.267-.026.495-.13.725.008.307-.003.613-.067.915l-.042.013c-.013.1-.024.198-.04.296-.027.17-.056.338-.085.507l-.057.162-.16.546-.043.012-.018.42-.386 1.033-.053.11-.053.11-.06.16-.158.224-.277.541c-.014.002-.027.005-.04.01l-.125.319-.432.55-.061.103c-.02.037-.036.073-.054.109l-.046.01-.012.098-.045.008-.005.105c-.015.003-.03.007-.044.012l-.122.15c-.019.036-.04.072-.06.107l-.047.06-.05.006c-.322.439-.696.835-1.055 1.243l-.278.432-.156.12-.004.049c.04.213.04.213.22.217-.018.1-.055.184-.162.22l-.058.051-.057.053-.054.056-.17.214c-.196.165-.43.267-.655.387-.044.027-.087.078-.132.08-.144.006-.233.085-.31.19-.035.02-.071.037-.107.056h-.002l-.058.053.003-.005-.168.057h.002l-.058.057.003-.004-.113.057.003-.002-.107.06-.003.001-.058-.006c-.012.005-.025.008-.038.01-.004.015-.01.03-.014.047l-.055-.005-.053.06-.111.055-.061.046-.055.005-.012.054c-.013 0-.026 0-.038.005l-.112.05h.001c-.052.001-.103.005-.155.007l-.006-.002c-.198-.077-.353-.006-.495.108.142-.114.298-.184.495-.108l-.059.05-.01.049-.054.05-.05.007-.001.058-.051.003-.056.052h.001l-.1.007-.006-.004c-.002.016-.006.031-.01.047-.017.094.041.114.117.115l.11-.057.165-.053.055-.054.056-.055.054-.054.001-.001.055-.054v.001h.22v.108l-.11.109-.055.055-.167.053-.054.052c-.074-.07-.147-.077-.22.003h-.056l-.004.049-.216.059-.056.054-.494.164-.052.057c-.182.063-.349.173-.552.162l-.067.046-.11.277.022.002-.07.059-.11.05-.053.001-.054-.004c.002-.016.002-.033.002-.05l.056-.162-.056.008-.11.046c0 .018-.002.034-.003.052l-.11.055c-.037.017-.073.037-.11.055l-.055.054v-.001l-.11.055-.057.054H14.37c-.028-.076-.09-.104-.167-.107H14.2v-.055l.006-.051c.013-.035.045-.089.033-.101-.067-.069-.107-.004-.15.041l-.053.002-.112.053h-.053c-.02-.05-.041-.098-.063-.147l.235-.122-.067-.063-.225.053c-.097.129-.186.269-.375.279.024-.045.038-.098.072-.136.05-.057.009-.094-.016-.137l-.115-.003-.158.115-.06.107-.166.108-.542.013.064.265-.126.055c-.055-.002-.109-.003-.162-.006h-.058l-.058.007-.107-.004-.001-.002c.007-.1.054-.163.166-.152.094.01.15-.028.166-.121l-.11-.054c-.182-.045-.342-.02-.471.153.12.023.188.067.085.175l-.22.001-.165-.003h-.109c-.04-.065-.096-.082-.167-.054l-.055-.053-.001-.108-.11-.166-.054.274-.327-.004-.168.002-.057-.053-.047-.045-.007.045h-.11l-.053-.002-.01-.048-.049-.007-.026.002-.027-.002c-.017.002-.034.005-.053.006-.018-.003-.036-.005-.054-.005h-.224c-.173-.15-.397-.154-.604-.212l-.058-.003-.27-.05-.114.05-.002-.001c-.003-.077-.028-.138-.109-.163l-.218-.053-.054-.003-.113-.056v.001l-.163-.054c.033-.027.064-.055.097-.08.04-.03.082-.056.123-.083l-.059-.05-.111-.006-.165.164-.106.001-.222-.053c-.036-.02-.073-.037-.108-.056l-.001-.054-.004.002-.052-.001v-.164l-.22.11-.166-.055v-.163l-.054-.057-.003-.051-.163.162-.165-.109.052-.049-.163-.114-.055-.054-.162-.06-.17-.101c-.088.011-.174-.033-.219-.11-.155-.104-.31-.206-.463-.312-.018-.012-.021-.047-.03-.07-.469-.314-.947-.613-1.365-.992l-.06-.051-.34-.263-.213-.061-.06-.16-.115-.215h-.052l-.108-.055-.112-.054h-.055l-.057-.271v-.055l.004-.06-.178-.203-.046-.008.007-.059v-.002l-.059-.002-.05-.048c-.004-.018-.006-.036-.007-.053l-.094-.071c-.005-.014-.012-.027-.022-.037l-.046.005-.065-.064-.048-.05-.001-.001-.054-.053-.001-.002-.054-.054-.055-.053c-.055-.056-.11-.11-.166-.164l-.054-.056c-.02-.072-.036-.143-.055-.215.034.015.069.026.101.042.066.035.101.007.123-.055l-.07-.202-.155-.003-.055.108-.055-.109h.108l-.054-.108-.048-.001L1.7 17.9l.002-.053.06-.168c.008-.13-.047-.221-.17-.27l-.17-.267-.052-.001-.054.106-.053-.003.05-.215h.001l-.053-.056c-.002-.017-.003-.035-.001-.053l-.054-.056-.165-.379-.002-.273-.052-.055-.009-.107-.157-.003-.053-.055.054-.216-.052-.063-.01-.048-.05-.108.002.002c-.02-.055-.037-.111-.055-.167l.004.004c.037.01.094.007.109.03.048.073.08.156.118.235l.088.003.004-.05-.046-.06v-.1l-.006-.056-.05-.058-.005-.104-.053-.059H.767c-.02-.053-.039-.107-.057-.162H.709l-.11-.11-.002-.055.057-.162.053-.053.002-.055c.017 0 .035 0 .052-.002l.003-.053H.71l-.058-.11v-.049l.005-.06H.63l-.027-.001v-.11l-.056-.004c0-.016-.003-.032-.007-.047l.004-.271c-.057-.089-.124-.167-.036-.283.037-.048.023-.134.032-.202l-.074-.25-.082-.304-.058-.003.001-.096.054-.277c.086-.112.022-.194-.058-.272l.003-.051c.058-.124.123-.248.056-.39l-.005-.05.057-.268-.002-.003.058.16.102.052.05-.06c-.012-.087-.022-.175-.04-.26-.011-.058-.032-.114-.05-.17l.001-.204-.008-.062.055-.055.05-.106.006-.164.047-.008-.047-.106c0-.017 0-.035-.002-.051l.002-.16c.08.063.108.03.106-.058l.004-.053c.044-.056.045-.112 0-.168V9.63H.765l.053-.053.003-.216.048-.008.003-.211c.003-.017.005-.034.005-.05l.049-.113c.004-.017.006-.034.006-.051.064-.11.055-.222 0-.333.019-.055.024-.149.057-.16.175-.054.166-.187.166-.322l-.001-.003.106-.004c-.003.015-.004.03-.004.046-.068.234-.182.459-.159.713.087.061.123.201.27.165.008-.013.012-.028.01-.043l-.016-.051c-.047-.17-.142-.335-.01-.514.02-.027-.022-.099-.033-.15l-.002-.001.049-.053.006-.055.054-.057.001-.053.053-.163.004-.053.055-.166.049-.106.059-.08c.005.011.008.023.009.035.053-.101.104-.203.164-.301.044-.074.1-.142.153-.211l.016-.199.056-.05.105-.335.262-.343c.026-.064.05-.128.077-.192l.042-.066.067-.1.109-.164c.094-.06.155-.162.161-.275.018-.037.037-.073.056-.108l.06-.105.141-.074.065-.1.066-.1.054-.054.056-.053.053-.057.055-.054.046-.064c.017-.004.033-.008.05-.01l.016-.09.048-.06.168-.213.052-.06.053-.056.055-.054c.017-.02.035-.037.054-.056l.07-.094.108-.111.053-.056.051-.058.06-.049.057-.054.05-.058.106-.112c.016 0 .032-.003.047-.008l.017-.096c.016-.02.032-.04.046-.06.017-.002.035-.003.052-.003h.002l.053-.048.157-.163.064-.007.058-.051.16-.17.067-.04.106-.057.102-.067.067-.039.1-.066.063-.046.09-.02c.002-.016.005-.032.01-.047l.062-.044.102-.064.067-.043c.118-.07.21-.19.368-.181.002-.015.005-.03.01-.045l.1-.017.117-.095.16-.015.07-.083.103-.062.066-.041.164-.055.108-.058.158-.062.062-.048.107-.056.162-.06.168-.051.272-.06.02-.048c.013.004.025 0 .033-.01.183-.044.368-.084.399-.315L9.034.71l-.009.004.231-.056-.008.006.105-.02.005-.047.114.007h.002c.025-.072-.008-.124-.06-.171.02-.036.04-.071.058-.107l-.013-.11.009-.009.052-.046H9.689l-.002.002.067.01.063-.061C9.83.113 9.843.11 9.854.1l.109.01.098-.015c.003-.015.007-.029.013-.042.11-.02.22-.037.33-.054l.711.002.495.051.24.009c.01.005.022.006.034.005 0-.01.003-.02.006-.029l.218.014.118.057.16.047.284.054c.012-.004.026-.004.038 0 .26-.097.52-.075.778.005l.105.006.014.043c.248.06.5.109.727.236.17.095.36.044.539.064.142.016.289-.013.433-.022l.208.067c.136.14.325.16.497.216.042.057.073.13.128.167.096.066.207.11.31.164.013.012.022.033.038.038.305.096.58.26.874.384.04.017.088.029.131.028.137-.006.246.055.35.13l.264.067.063.044-.001.057.063.045c.022.015.053.023.066.044.087.135.224.19.37.234l.377.01.057.051.107.058.055.053.059.052.06.05c.002.017.002.035 0 .052l.064.05.37.121c.002.017.002.034 0 .051l.106.117c.163.177.327.355.494.53.024.026.057.062.086.062.17-.003.241.143.357.22 0 .018.003.036.006.054.017 0 .034.001.05.003l.239.364.586.505c.203.247.337.54.556.777.075.084.116.2.172.3.106.07.182.16.246.275.124.225.27.438.409.656l.048.115.057.107.074.15.044.008c.001.018.005.036.01.053l-.009.054.047.06.28.596.055.218.006.106.05.062c-.001.016 0 .032.003.046.023.185.047.368.072.552.012.087.028.174.042.26l.05.01.008.163.004.149c.014.005.028.009.043.012l.002.161.053.438-.053.215v.053zm-7.27.991c.694.56 2.476 2.443 2.953 3.245-.48.128-1.741.128-2.967.128H14.21c.627-1.157 1.897-2.897 2.527-3.373z"/>
</svg>
