<svg xmlns="http://www.w3.org/2000/svg" width="22" height="22" viewBox="0 0 22 22">
    <g fill="none">
        <path fill="#E72410" d="M21.953 10.976c0 4.44-2.675 8.443-6.777 10.141-4.102 1.7-8.823.76-11.962-2.38C.075 15.597-.863 10.875.837 6.774 2.537 2.672 6.54-.001 10.98 0c2.91 0 5.702 1.157 7.76 3.215 2.058 2.059 3.214 4.85 3.213 7.761z"/>
        <path fill="#FFF" d="M12.198 3.963H14.943000000000001V6.708H12.198zM2.444 11.586L2.444 14.022 4.881 14.022 4.881 16.463 7.321 16.463 7.321 11.586z"/>
        <path fill="#FFF" d="M3.053 6.708L3.053 9.145 9.758 9.145 9.758 16.463 12.198 16.463 12.198 6.708zM14.635 9.145L14.635 16.463 17.076 16.463 17.076 11.586 20.125 11.586 20.125 9.145z"/>
    </g>
</svg>
