<svg xmlns="http://www.w3.org/2000/svg" xmlns:xlink="http://www.w3.org/1999/xlink" width="192" height="192" viewBox="0 0 192 192">
    <defs>
        <linearGradient id="prefix__a" x1="50%" x2="52.638%" y1="8.954%" y2="109.442%">
            <stop offset="0%" stop-color="#CDB296"/>
            <stop offset="100%" stop-color="#FFF" stop-opacity="0"/>
        </linearGradient>
        <linearGradient id="prefix__b" x1="127.971%" x2="8.457%" y1="-22.85%" y2="100%">
            <stop offset="0%" stop-color="#FFF"/>
            <stop offset="100%" stop-color="#CDAD6C"/>
        </linearGradient>
        <linearGradient id="prefix__c" x1="241.656%" x2="22.278%" y1="-154.133%" y2="85.19%">
            <stop offset="0%" stop-color="#9F6019"/>
            <stop offset="41.672%" stop-color="#DDBB96"/>
            <stop offset="100%" stop-color="#9B662E"/>
        </linearGradient>
        <linearGradient id="prefix__d" x1="106.547%" x2="4.393%" y1="49.082%" y2="51.387%">
            <stop offset="0%" stop-color="#FFF"/>
            <stop offset="100%" stop-color="#FFF" stop-opacity=".272"/>
        </linearGradient>
        <linearGradient id="prefix__e" x1="-62.914%" x2="84.266%" y1="-82.638%" y2="103.126%">
            <stop offset="0%" stop-color="#DDBB96"/>
            <stop offset="100%" stop-color="#6F4418"/>
        </linearGradient>
        <linearGradient id="prefix__g" x1="106.547%" x2="4.393%" y1="-123.547%" y2="312.267%">
            <stop offset="0%" stop-color="#FFF"/>
            <stop offset="100%" stop-color="#FFF" stop-opacity=".272"/>
        </linearGradient>
        <linearGradient id="prefix__h" x1="106.547%" x2="4.393%" y1="-82.709%" y2="250.552%">
            <stop offset="0%" stop-color="#FFF"/>
            <stop offset="100%" stop-color="#FFF" stop-opacity=".272"/>
        </linearGradient>
        <linearGradient id="prefix__j" x1="12.018%" x2="84.266%" y1="-33.347%" y2="105.09%">
            <stop offset="0%" stop-color="#DDBB96"/>
            <stop offset="100%" stop-color="#6F4418"/>
        </linearGradient>
        <path id="prefix__f" d="M17.064 0c9.426 0 17.065 7.64 17.065 17.065S26.49 34.13 17.064 34.13C7.64 34.13 0 26.49 0 17.065 0 7.64 7.64 0 17.064 0z"/>
    </defs>
    <g fill="none" fill-rule="evenodd" transform="translate(22 37)">
        <path fill="url(#prefix__a)" d="M34 23h71c.552 0 1 .448 1 1v92c0 .552-.448 1-1 1H34c-.552 0-1-.448-1-1V24c0-.552.448-1 1-1z" opacity=".9"/>
        <circle cx="5.5" cy="70.5" r="5.5" fill="url(#prefix__b)" opacity=".9"/>
        <circle cx="142" cy="96" r="6" fill="url(#prefix__b)" opacity=".618"/>
        <circle cx="101.5" cy="4.5" r="4.5" fill="url(#prefix__c)" opacity=".7"/>
        <rect width="55" height="4" x="42" y="36" fill="url(#prefix__d)" rx="1"/>
        <rect width="55" height="4" x="42" y="46" fill="url(#prefix__d)" rx="1"/>
        <rect width="55" height="4" x="42" y="56" fill="url(#prefix__d)" rx="1"/>
        <rect width="55" height="4" x="42" y="67" fill="url(#prefix__d)" rx="1"/>
        <g>
            <path fill="url(#prefix__e)" d="M35.182 33.697c.922-.945 2.41-1.003 3.403-.162l.132.12 18.256 17.838c.987.965 1.006 2.548.04 3.536-.922.944-2.41 1.002-3.402.161l-.133-.12-18.256-17.838c-.987-.965-1.005-2.548-.04-3.535z" transform="translate(72 59)"/>
            <g transform="translate(72 59) translate(5 5)">
                <mask id="prefix__i" fill="#fff">
                    <use xlink:href="#prefix__f"/>
                </mask>
                <use fill="url(#prefix__g)" opacity=".7" xlink:href="#prefix__f"/>
                <path fill="url(#prefix__h)" d="M37.757 -10L52.757 -10 -2 51 -17 51z" mask="url(#prefix__i)" opacity=".7"/>
            </g>
            <path fill="url(#prefix__j)" d="M22.064 0C9.878 0 0 9.878 0 22.065 0 34.251 9.878 44.13 22.064 44.13c12.187 0 22.065-9.877 22.065-22.064S34.251 0 22.064 0zm0 5c9.426 0 17.065 7.64 17.065 17.065S31.49 39.13 22.064 39.13C12.64 39.13 5 31.49 5 22.065 5 12.64 12.64 5 22.064 5z" transform="translate(72 59)"/>
            <path fill="url(#prefix__g)" d="M22.064 5c9.426 0 17.065 7.64 17.065 17.065S31.49 39.13 22.064 39.13C12.64 39.13 5 31.49 5 22.065 5 12.64 12.64 5 22.064 5z" opacity=".7" transform="translate(72 59)"/>
        </g>
    </g>
</svg>
