<svg xmlns="http://www.w3.org/2000/svg" xmlns:xlink="http://www.w3.org/1999/xlink" width="375" height="270" viewBox="0 0 375 270">
    <defs>
        <linearGradient id="prefix__e" x1="88.696%" x2="21.149%" y1="0%" y2="94.564%">
            <stop offset="0%" stop-color="#FFF"/>
            <stop offset="100%" stop-color="#B58C32" stop-opacity="0"/>
        </linearGradient>
        <linearGradient id="prefix__g" x1="88.696%" x2="21.149%" y1="0%" y2="94.564%">
            <stop offset="0%" stop-color="#FFF"/>
            <stop offset="100%" stop-color="#FFF" stop-opacity="0"/>
        </linearGradient>
        <linearGradient id="prefix__k" x1="-2.148%" x2="103.295%" y1="-7.406%" y2="80.984%">
            <stop offset="0%" stop-color="#FAD6A2"/>
            <stop offset="20.1%" stop-color="#FFDDAC"/>
            <stop offset="66.722%" stop-color="#FFE3BA"/>
            <stop offset="100%" stop-color="#B98F5D"/>
        </linearGradient>
        <linearGradient id="prefix__j" x1="2.242%" x2="105.486%" y1="4.2%" y2="110.619%">
            <stop offset="0%" stop-color="#B58B43"/>
            <stop offset="69.186%" stop-color="#FFFCF9"/>
            <stop offset="100%" stop-color="#AA7434"/>
        </linearGradient>
        <linearGradient id="prefix__l" x1="50%" x2="50%" y1="0%" y2="100%">
            <stop offset="0%" stop-color="#FFF8EA" stop-opacity=".383"/>
            <stop offset="52.463%" stop-color="#FFF5EB" stop-opacity=".096"/>
            <stop offset="100%" stop-color="#FFF" stop-opacity="0"/>
        </linearGradient>
        <linearGradient id="prefix__m" x1="8.532%" x2="82.606%" y1="245.559%" y2="-143.153%">
            <stop offset="0%" stop-color="#D1AC6A"/>
            <stop offset="10.741%" stop-color="#AB8347"/>
            <stop offset="44.623%" stop-color="#B1895C"/>
            <stop offset="53.569%" stop-color="#FFDEB7"/>
            <stop offset="73.245%" stop-color="#A2794B"/>
            <stop offset="100%" stop-color="#39260D"/>
        </linearGradient>
        <linearGradient id="prefix__r" x1="164.676%" x2="-21.121%" y1="77.176%" y2="77.176%">
            <stop offset="0%" stop-color="#D1AC6A"/>
            <stop offset="10.741%" stop-color="#AB8347"/>
            <stop offset="22.436%" stop-color="#B1895C"/>
            <stop offset="53.569%" stop-color="#FFDEB7"/>
            <stop offset="100%" stop-color="#442700"/>
        </linearGradient>
        <linearGradient id="prefix__s" x1="14.408%" x2="108.219%" y1="50%" y2="49.837%">
            <stop offset="0%" stop-color="#080603" stop-opacity="0"/>
            <stop offset="10.741%" stop-color="#D3995D"/>
            <stop offset="17.932%" stop-color="#B1895C"/>
            <stop offset="28.494%" stop-color="#FFE5C7"/>
            <stop offset="40.204%" stop-color="#FFF"/>
            <stop offset="73.218%" stop-color="#F6D2A8"/>
            <stop offset="100%" stop-opacity="0"/>
        </linearGradient>
        <linearGradient id="prefix__u" x1="22.414%" x2="108.219%" y1="50%" y2="49.837%">
            <stop offset="0%" stop-color="#080603" stop-opacity="0"/>
            <stop offset="10.741%" stop-color="#D3995D"/>
            <stop offset="17.932%" stop-color="#B1895C"/>
            <stop offset="28.494%" stop-color="#FFE5C7"/>
            <stop offset="40.204%" stop-color="#FFF"/>
            <stop offset="73.218%" stop-color="#F6D2A8"/>
            <stop offset="100%" stop-opacity="0"/>
        </linearGradient>
        <linearGradient id="prefix__x" x1="-16.877%" x2="122.199%" y1="-34.228%" y2="163.274%">
            <stop offset="0%" stop-color="#D1AC6A"/>
            <stop offset="10.741%" stop-color="#AB8347"/>
            <stop offset="22.436%" stop-color="#B1895C"/>
            <stop offset="53.569%" stop-color="#FFDEB7"/>
            <stop offset="73.245%" stop-color="#A2794B"/>
            <stop offset="100%" stop-color="#39260D"/>
        </linearGradient>
        <path id="prefix__a" d="M0 0H375V270H0z"/>
        <path id="prefix__f" d="M40.617 0c22.436 0 40.62 18.184 40.62 40.62 0 22.433-18.184 40.617-40.62 40.617C18.184 81.237 0 63.053 0 40.62 0 18.185 18.184 0 40.617 0z"/>
        <path id="prefix__i" d="M45.192 18.614V40.02H66.6v4.616l-21.409-.001.001 21.408h-4.615V44.636H19.168v-4.615h21.407V18.614h4.616z"/>
        <path id="prefix__n" d="M3.692 0L9.231 0 10.154 12 2.769 12z"/>
        <path id="prefix__p" d="M3.615 0h5.306c1.09 0 1.979.873 2 1.962l.847 44.923c.02 1.105-.858 2.017-1.962 2.038H2.768c-1.105 0-2-.895-2-2v-.038l.847-44.923C1.636.872 2.525 0 3.615 0z"/>
        <path id="prefix__w" d="M44.81 1.846C20.062 1.846 0 21.91 0 46.66c0 24.748 20.062 44.81 44.81 44.81 24.752 0 44.814-20.061 44.814-44.81 0-24.752-20.062-44.814-44.813-44.814zm0 2.35c23.454 0 42.464 19.01 42.464 42.464 0 23.45-19.01 42.46-42.464 42.46-23.45 0-42.46-19.01-42.46-42.46 0-23.453 19.01-42.463 42.46-42.463z"/>
        <filter id="prefix__h" width="162.8%" height="162.8%" x="-31.4%" y="-27.2%" filterUnits="objectBoundingBox">
            <feMorphology in="SourceAlpha" operator="dilate" radius=".385" result="shadowSpreadOuter1"/>
            <feOffset dy="2" in="shadowSpreadOuter1" result="shadowOffsetOuter1"/>
            <feGaussianBlur in="shadowOffsetOuter1" result="shadowBlurOuter1" stdDeviation="4.5"/>
            <feComposite in="shadowBlurOuter1" in2="SourceAlpha" operator="out" result="shadowBlurOuter1"/>
            <feColorMatrix in="shadowBlurOuter1" values="0 0 0 0 0 0 0 0 0 0 0 0 0 0 0 0 0 0 1 0"/>
        </filter>
        <filter id="prefix__o" width="112.2%" height="107.5%" x="-6.1%" y="-3.8%" filterUnits="objectBoundingBox">
            <feMorphology in="SourceAlpha" radius=".1" result="shadowSpreadInner1"/>
            <feGaussianBlur in="shadowSpreadInner1" result="shadowBlurInner1" stdDeviation=".15"/>
            <feOffset dy="-.5" in="shadowBlurInner1" result="shadowOffsetInner1"/>
            <feComposite in="shadowOffsetInner1" in2="SourceAlpha" k2="-1" k3="1" operator="arithmetic" result="shadowInnerInner1"/>
            <feColorMatrix in="shadowInnerInner1" values="0 0 0 0 0.2362149 0 0 0 0 0.141786934 0 0 0 0 0.0130215264 0 0 0 1 0"/>
        </filter>
        <filter id="prefix__q" width="149%" height="111.2%" x="-15.5%" y="-4.6%" filterUnits="objectBoundingBox">
            <feMorphology in="SourceAlpha" operator="dilate" radius=".5" result="shadowSpreadOuter1"/>
            <feOffset dx="1" dy=".5" in="shadowSpreadOuter1" result="shadowOffsetOuter1"/>
            <feGaussianBlur in="shadowOffsetOuter1" result="shadowBlurOuter1" stdDeviation=".25"/>
            <feColorMatrix in="shadowBlurOuter1" values="0 0 0 0 0 0 0 0 0 0 0 0 0 0 0 0 0 0 0.111095935 0"/>
        </filter>
        <filter id="prefix__v" width="106.1%" height="106.1%" x="-2%" y="-2.5%" filterUnits="objectBoundingBox">
            <feMorphology in="SourceAlpha" operator="dilate" radius=".5" result="shadowSpreadOuter1"/>
            <feOffset dx="1" dy=".5" in="shadowSpreadOuter1" result="shadowOffsetOuter1"/>
            <feGaussianBlur in="shadowOffsetOuter1" result="shadowBlurOuter1" stdDeviation=".25"/>
            <feColorMatrix in="shadowBlurOuter1" values="0 0 0 0 0 0 0 0 0 0 0 0 0 0 0 0 0 0 0.111095935 0"/>
        </filter>
        <filter id="prefix__y" width="104.4%" height="104.4%" x="-1.1%" y="-1.6%" filterUnits="objectBoundingBox">
            <feMorphology in="SourceAlpha" radius=".1" result="shadowSpreadInner1"/>
            <feGaussianBlur in="shadowSpreadInner1" result="shadowBlurInner1" stdDeviation=".15"/>
            <feOffset dy="-.5" in="shadowBlurInner1" result="shadowOffsetInner1"/>
            <feComposite in="shadowOffsetInner1" in2="SourceAlpha" k2="-1" k3="1" operator="arithmetic" result="shadowInnerInner1"/>
            <feColorMatrix in="shadowInnerInner1" values="0 0 0 0 0.2362149 0 0 0 0 0.141786934 0 0 0 0 0.0130215264 0 0 0 1 0"/>
        </filter>
        <radialGradient id="prefix__c" cx="59.305%" cy="59.994%" r="80.122%" fx="59.305%" fy="59.994%" gradientTransform="matrix(-.90042 .43503 -.37707 -.78046 1.353 .81)">
            <stop offset="0%" stop-color="#080603" stop-opacity="0"/>
            <stop offset="10.741%" stop-color="#D3995D"/>
            <stop offset="17.932%" stop-color="#B1895C"/>
            <stop offset="28.494%" stop-color="#FFE5C7"/>
            <stop offset="40.204%" stop-color="#FFF"/>
            <stop offset="48.145%" stop-color="#F6D2A8"/>
            <stop offset="100%" stop-opacity="0"/>
        </radialGradient>
        <radialGradient id="prefix__d" cx="54.571%" cy="57.754%" r="83.738%" fx="54.571%" fy="57.754%" gradientTransform="rotate(164.967 .54 .541) scale(1 .87441)">
            <stop offset="0%" stop-color="#080603" stop-opacity="0"/>
            <stop offset="10.741%" stop-color="#D3995D"/>
            <stop offset="46.54%" stop-color="#9F8465"/>
            <stop offset="100%" stop-opacity="0"/>
        </radialGradient>
    </defs>
    <g fill="none" fill-rule="evenodd">
        <mask id="prefix__b" fill="#fff">
            <use xlink:href="#prefix__a"/>
        </mask>
        <g mask="url(#prefix__b)">
            <g transform="translate(54 4)">
                <circle cx="124.128" cy="124.128" r="52.5" stroke="url(#prefix__c)" stroke-width=".5" opacity=".8" transform="rotate(-180 124.128 124.128)"/>
                <circle cx="124.439" cy="124.439" r="60.538" stroke="url(#prefix__c)" stroke-width=".5" opacity=".7" transform="rotate(-180 124.44 124.44)"/>
                <circle cx="124.439" cy="124.439" r="68.386" stroke="url(#prefix__c)" stroke-width=".5" opacity=".5" transform="rotate(-180 124.44 124.44)"/>
                <circle cx="124.439" cy="124.439" r="77.354" stroke="url(#prefix__c)" stroke-width=".5" opacity=".3" transform="rotate(-180 124.44 124.44)"/>
                <circle cx="125" cy="125" r="88.004" stroke="url(#prefix__d)" stroke-width=".5" opacity=".55" transform="rotate(-180 125 125)"/>
                <circle cx="125" cy="123.879" r="99.215" stroke="url(#prefix__d)" stroke-width=".5" opacity=".5" transform="rotate(-180 125 123.879)"/>
                <circle cx="125" cy="125" r="111.547" stroke="url(#prefix__d)" stroke-width=".5" opacity=".4" transform="rotate(-180 125 125)"/>
                <circle cx="125" cy="125" r="125" stroke="url(#prefix__d)" stroke-width=".5" opacity=".1" transform="rotate(-180 125 125)"/>
                <g transform="translate(79 77)">
                    <g>
                        <path fill="url(#prefix__e)" d="M42.964.316c23.558 0 42.652 19.094 42.652 42.652 0 23.554-19.095 42.648-42.652 42.648C19.41 85.616.316 66.522.316 42.968.316 19.41 19.41.316 42.964.316z" opacity=".7" transform="translate(1.846 3.692)"/>
                        <g transform="translate(1.846 3.692) translate(2.216 2.216)">
                            <use fill="url(#prefix__g)" opacity=".7" xlink:href="#prefix__f"/>
                        </g>
                        <g transform="translate(1.846 3.692) rotate(-45 42.884 42.329)">
                            <use fill="#000" filter="url(#prefix__h)" xlink:href="#prefix__i"/>
                            <use fill="url(#prefix__k)" stroke="url(#prefix__j)" stroke-width=".769" xlink:href="#prefix__i"/>
                        </g>
                    </g>
                    <path fill="url(#prefix__l)" d="M54.428 29.1c10.605 0 19.202-5.842 19.202-11.734 0-5.891-8.05-10.42-18.656-10.42-10.604 0-19.747 4.529-19.747 10.42 0 5.892 8.597 11.734 19.201 11.734z" transform="rotate(21 54.428 18.023)"/>
                    <g transform="rotate(-45 135.085 -43.585)">
                        <use fill="url(#prefix__m)" xlink:href="#prefix__n"/>
                        <use fill="#000" filter="url(#prefix__o)" xlink:href="#prefix__n"/>
                        <g transform="translate(.194 7.385)">
                            <mask id="prefix__t" fill="#fff">
                                <use xlink:href="#prefix__p"/>
                            </mask>
                            <use fill="#000" filter="url(#prefix__q)" xlink:href="#prefix__p"/>
                            <use fill="url(#prefix__r)" xlink:href="#prefix__p"/>
                            <path stroke="url(#prefix__s)" stroke-width=".5" d="M-1.237 1.967L14.931 1.967" mask="url(#prefix__t)" opacity=".8"/>
                            <path stroke="url(#prefix__u)" stroke-width=".5" d="M-2.769 3.499L13.399 3.499" mask="url(#prefix__t)" opacity=".8"/>
                        </g>
                    </g>
                    <use fill="#000" filter="url(#prefix__v)" xlink:href="#prefix__w"/>
                    <use fill="url(#prefix__x)" xlink:href="#prefix__w"/>
                    <use fill="#000" filter="url(#prefix__y)" xlink:href="#prefix__w"/>
                </g>
            </g>
        </g>
    </g>
</svg>
