<svg xmlns="http://www.w3.org/2000/svg" xmlns:xlink="http://www.w3.org/1999/xlink" width="312" height="444" viewBox="0 0 312 444">
    <defs>
        <linearGradient id="prefix__d" x1="103.029%" x2="3.483%" y1="45.15%" y2="62.61%">
            <stop offset="0%" stop-color="#F5F5F5"/>
            <stop offset="100%" stop-color="#ECECEC"/>
        </linearGradient>
        <linearGradient id="prefix__f" x1="130.479%" x2="-3.906%" y1="53.79%" y2="49.174%">
            <stop offset="0%" stop-color="#E5E5E5"/>
            <stop offset="100%" stop-color="#F6F6F6"/>
        </linearGradient>
        <path id="prefix__a" d="M0 0H312V444H0z"/>
        <path id="prefix__c" d="M0 0H426V622.528H0z"/>
    </defs>
    <g fill="none" fill-rule="evenodd">
        <mask id="prefix__b" fill="#fff">
            <use xlink:href="#prefix__a"/>
        </mask>
        <g mask="url(#prefix__b)">
            <g transform="translate(-29 -113)">
                <mask id="prefix__e" fill="#fff">
                    <use xlink:href="#prefix__c"/>
                </mask>
                <path fill="url(#prefix__d)" d="M131.808 354.432c68.996 0 124.928 55.946 124.928 124.96s-55.932 124.96-124.928 124.96H-95.456c-68.996 0-124.928-55.946-124.928-124.96s55.932-124.96 124.928-124.96zm0 2.659H-95.456c-67.528 0-122.27 54.756-122.27 122.301s54.742 122.301 122.27 122.301h227.264c67.528 0 122.27-54.756 122.27-122.301s-54.742-122.301-122.27-122.301zm-1.36 8.701c63.473 0 114.928 51.37 114.928 114.736 0 63.367-51.455 114.736-114.929 114.736H-94.095c-63.474 0-114.929-51.37-114.929-114.736 0-63.367 51.455-114.736 114.929-114.736zm0 2.653H-94.096c-62.006 0-112.272 50.181-112.272 112.083S-156.1 592.611-94.095 592.611h224.542c62.006 0 112.272-50.181 112.272-112.083s-50.266-112.083-112.272-112.083zm-1.264 7.571c57.27 0 103.696 46.537 103.696 103.944 0 57.407-46.426 103.944-103.696 103.944H-92.832c-57.27 0-103.696-46.537-103.696-103.944 0-57.407 46.426-103.944 103.696-103.944zm0 2.665H-92.832c-55.801 0-101.037 45.344-101.037 101.279 0 55.935 45.236 101.279 101.037 101.279h222.016c55.801 0 101.037-45.344 101.037-101.279 0-55.935-45.236-101.279-101.037-101.279zm-2.026 6.423c52.115 0 94.362 42.214 94.362 94.288s-42.247 94.288-94.362 94.288H-90.806c-52.115 0-94.362-42.214-94.362-94.288s42.247-94.288 94.362-94.288zm0 2.656H-90.806c-50.647 0-91.704 41.025-91.704 91.632 0 50.607 41.057 91.632 91.704 91.632h217.964c50.647 0 91.704-41.025 91.704-91.632 0-50.607-41.057-91.632-91.704-91.632zm-3.765 8.136c46.665 0 84.495 37.637 84.495 84.064 0 46.427-37.83 84.064-84.495 84.064h-211.57c-46.665 0-84.495-37.637-84.495-84.064 0-46.427 37.83-84.064 84.495-84.064zm0 2.648h-211.57c-45.196 0-81.834 36.451-81.834 81.416 0 44.965 36.638 81.416 81.834 81.416h211.57c45.196 0 81.834-36.451 81.834-81.416 0-44.965-36.638-81.416-81.834-81.416zm-1.011 8.144c40.322 0 73.01 32.805 73.01 73.272 0 40.467-32.688 73.272-73.01 73.272H-86.03c-40.322 0-73.01-32.805-73.01-73.272 0-40.467 32.688-73.272 73.01-73.272zm0 2.664H-86.03c-38.856 0-70.355 31.613-70.355 70.608 0 38.995 31.5 70.608 70.355 70.608h208.412c38.856 0 70.355-31.613 70.355-70.608 0-38.995-31.5-70.608-70.355-70.608zm-2.039 6.992c35.175 0 63.689 28.482 63.689 63.616s-28.514 63.616-63.689 63.616H-83.99c-35.175 0-63.689-28.482-63.689-63.616s28.514-63.616 63.689-63.616zm0 2.65H-83.99c-33.709 0-61.035 27.296-61.035 60.966s27.326 60.965 61.035 60.965h204.334c33.709 0 61.035-27.295 61.035-60.965s-27.326-60.965-61.035-60.965zM116.591 426c29.718 0 53.809 24.159 53.809 53.96 0 29.801-24.091 53.96-53.81 53.96H-81.374c-29.718 0-53.809-24.159-53.809-53.96 0-29.801 24.091-53.96 53.81-53.96zm0 2.665H-81.375c-28.25 0-51.152 22.965-51.152 51.295 0 28.33 22.902 51.295 51.152 51.295h197.966c28.25 0 51.152-22.965 51.152-51.295 0-28.33-22.902-51.295-51.152-51.295z" mask="url(#prefix__e)" opacity=".703"/>
                <path fill="url(#prefix__f)" d="M538.464 65.888c58.975 0 106.784 47.809 106.784 106.784 0 58.975-47.809 106.784-106.784 106.784H344.208c-58.975 0-106.784-47.809-106.784-106.784 0-58.975 47.809-106.784 106.784-106.784zm0 2.272H344.208c-57.72 0-104.512 46.792-104.512 104.512s46.792 104.512 104.512 104.512h194.256c57.72 0 104.512-46.792 104.512-104.512S596.184 68.16 538.464 68.16zm-1.163 7.436c54.255 0 98.237 43.897 98.237 98.047S591.556 271.69 537.3 271.69h-191.93c-54.255 0-98.237-43.897-98.237-98.047s43.982-98.047 98.237-98.047zm0 2.267h-191.93c-53 0-95.966 42.882-95.966 95.78s42.966 95.78 95.966 95.78H537.3c53 0 95.966-42.882 95.966-95.78S590.3 77.863 537.3 77.863zm-1.08 6.47c48.952 0 88.636 39.768 88.636 88.824 0 49.057-39.684 88.825-88.636 88.825h-189.77c-48.952 0-88.636-39.768-88.636-88.825 0-49.056 39.684-88.824 88.636-88.824zm0 2.277h-189.77c-47.697 0-86.363 38.749-86.363 86.547 0 47.8 38.666 86.548 86.363 86.548h189.77c47.697 0 86.363-38.749 86.363-86.548 0-47.798-38.666-86.547-86.363-86.547zM534.49 92.1c44.546 0 80.658 36.074 80.658 80.573 0 44.5-36.112 80.573-80.658 80.573H348.183c-44.546 0-80.658-36.074-80.658-80.573 0-44.5 36.112-80.573 80.658-80.573zm0 2.27H348.183c-43.291 0-78.386 35.057-78.386 78.303 0 43.246 35.095 78.304 78.386 78.304h186.306c43.291 0 78.386-35.058 78.386-78.304s-35.095-78.304-78.386-78.304zm-3.217 6.952c39.887 0 72.223 32.162 72.223 71.836 0 39.675-32.336 71.837-72.223 71.837H350.429c-39.887 0-72.223-32.162-72.223-71.837 0-39.674 32.336-71.836 72.223-71.836zm0 2.262H350.429c-38.63 0-69.948 31.15-69.948 69.574 0 38.425 31.317 69.574 69.948 69.574h180.843c38.63 0 69.948-31.149 69.948-69.574 0-38.424-31.317-69.574-69.948-69.574zm-.865 6.96c34.466 0 62.406 28.033 62.406 62.614 0 34.581-27.94 62.615-62.406 62.615H352.265c-34.466 0-62.406-28.034-62.406-62.615 0-34.58 27.94-62.614 62.406-62.614zm0 2.277H352.265c-33.213 0-60.137 27.014-60.137 60.337 0 33.324 26.924 60.338 60.137 60.338h178.142c33.213 0 60.137-27.014 60.137-60.338 0-33.323-26.924-60.337-60.137-60.337zm-1.742 5.975c30.065 0 54.438 24.339 54.438 54.362 0 30.024-24.373 54.363-54.438 54.363H354.007c-30.065 0-54.438-24.339-54.438-54.363 0-30.023 24.373-54.362 54.438-54.362zm0 2.265H354.007c-28.813 0-52.17 23.325-52.17 52.097 0 28.773 23.357 52.098 52.17 52.098h174.658c28.813 0 52.17-23.325 52.17-52.098 0-28.772-23.357-52.097-52.17-52.097zm-3.208 5.986c25.402 0 45.994 20.645 45.994 46.111 0 25.467-20.592 46.112-45.994 46.112H356.244c-25.402 0-45.994-20.645-45.994-46.112 0-25.466 20.592-46.11 45.994-46.11zm0 2.277H356.244c-24.148 0-43.723 19.625-43.723 43.834 0 24.21 19.575 43.835 43.723 43.835h169.213c24.148 0 43.723-19.626 43.723-43.835s-19.575-43.834-43.723-43.834z" mask="url(#prefix__e)" opacity=".7"/>
            </g>
        </g>
    </g>
</svg>
