<svg xmlns="http://www.w3.org/2000/svg" xmlns:xlink="http://www.w3.org/1999/xlink" width="426" height="623" viewBox="0 0 426 623">
    <defs>
        <linearGradient id="prefix__b" x1="103.029%" x2="3.483%" y1="45.15%" y2="62.61%">
            <stop offset="0%" stop-color="#F5F5F5"/>
            <stop offset="100%" stop-color="#ECECEC"/>
        </linearGradient>
        <linearGradient id="prefix__d" x1="100%" x2="37.483%" y1="48.659%" y2="50%">
            <stop offset="0%" stop-color="#ECECEC"/>
            <stop offset="100%" stop-color="#F5F5F5" stop-opacity=".429"/>
        </linearGradient>
        <path id="prefix__a" d="M0 0H426V622.528H0z"/>
    </defs>
    <g fill="none" fill-rule="evenodd" transform="matrix(-1 0 0 1 426 0)">
        <mask id="prefix__c" fill="#fff">
            <use xlink:href="#prefix__a"/>
        </mask>
        <path fill="url(#prefix__b)" d="M131.808 354.432c68.996 0 124.928 55.946 124.928 124.96s-55.932 124.96-124.928 124.96H-95.456c-68.996 0-124.928-55.946-124.928-124.96s55.932-124.96 124.928-124.96zm0 2.659H-95.456c-67.528 0-122.27 54.756-122.27 122.301s54.742 122.301 122.27 122.301h227.264c67.528 0 122.27-54.756 122.27-122.301s-54.742-122.301-122.27-122.301zm-1.36 8.701c63.473 0 114.928 51.37 114.928 114.736 0 63.367-51.455 114.736-114.929 114.736H-94.095c-63.474 0-114.929-51.37-114.929-114.736 0-63.367 51.455-114.736 114.929-114.736zm0 2.653H-94.096c-62.006 0-112.272 50.181-112.272 112.083S-156.1 592.611-94.095 592.611h224.542c62.006 0 112.272-50.181 112.272-112.083s-50.266-112.083-112.272-112.083zm-1.264 7.571c57.27 0 103.696 46.537 103.696 103.944 0 57.407-46.426 103.944-103.696 103.944H-92.832c-57.27 0-103.696-46.537-103.696-103.944 0-57.407 46.426-103.944 103.696-103.944zm0 2.665H-92.832c-55.801 0-101.037 45.344-101.037 101.279 0 55.935 45.236 101.279 101.037 101.279h222.016c55.801 0 101.037-45.344 101.037-101.279 0-55.935-45.236-101.279-101.037-101.279zm-2.026 6.423c52.115 0 94.362 42.214 94.362 94.288s-42.247 94.288-94.362 94.288H-90.806c-52.115 0-94.362-42.214-94.362-94.288s42.247-94.288 94.362-94.288zm0 2.656H-90.806c-50.647 0-91.704 41.025-91.704 91.632 0 50.607 41.057 91.632 91.704 91.632h217.964c50.647 0 91.704-41.025 91.704-91.632 0-50.607-41.057-91.632-91.704-91.632zm-3.765 7.568c46.665 0 84.495 37.891 84.495 84.632 0 46.741-37.83 84.632-84.495 84.632h-211.57c-46.665 0-84.495-37.891-84.495-84.632 0-46.741 37.83-84.632 84.495-84.632zm0 2.666h-211.57c-45.196 0-81.834 36.697-81.834 81.966 0 45.269 36.638 81.966 81.834 81.966h211.57c45.196 0 81.834-36.697 81.834-81.966 0-45.269-36.638-81.966-81.834-81.966zm-1.011 8.694c40.322 0 73.01 32.805 73.01 73.272 0 40.467-32.688 73.272-73.01 73.272H-86.03c-40.322 0-73.01-32.805-73.01-73.272 0-40.467 32.688-73.272 73.01-73.272zm0 2.664H-86.03c-38.856 0-70.355 31.613-70.355 70.608 0 38.995 31.5 70.608 70.355 70.608h208.412c38.856 0 70.355-31.613 70.355-70.608 0-38.995-31.5-70.608-70.355-70.608zm-2.039 6.424c35.175 0 63.689 28.482 63.689 63.616s-28.514 63.616-63.689 63.616H-83.99c-35.175 0-63.689-28.482-63.689-63.616s28.514-63.616 63.689-63.616zm0 2.65H-83.99c-33.709 0-61.035 27.296-61.035 60.966s27.326 60.965 61.035 60.965h204.334c33.709 0 61.035-27.295 61.035-60.965s-27.326-60.965-61.035-60.965zM116.591 426c29.718 0 53.809 24.159 53.809 53.96 0 29.801-24.091 53.96-53.81 53.96H-81.374c-29.718 0-53.809-24.159-53.809-53.96 0-29.801 24.091-53.96 53.81-53.96zm0 2.665H-81.375c-28.25 0-51.152 22.965-51.152 51.295 0 28.33 22.902 51.295 51.152 51.295h197.966c28.25 0 51.152-22.965 51.152-51.295 0-28.33-22.902-51.295-51.152-51.295z" mask="url(#prefix__c)" opacity=".703"/>
        <path stroke="url(#prefix__d)" d="M538.464 67.524c29.35 0 55.92 11.896 75.154 31.13 19.234 19.233 31.13 45.804 31.13 75.154 0 29.031-11.64 55.344-30.507 74.526-18.9 19.215-45.05 31.274-74.015 31.744h0l-1.762.014H344.208c-29.35 0-55.92-11.896-75.154-31.13-19.234-19.233-31.13-45.804-31.13-75.154 0-29.031 11.64-55.344 30.507-74.526 18.9-19.215 45.05-31.274 74.015-31.744h0l1.762-.014zm0 1.272H344.208c-28.998 0-55.251 11.754-74.255 30.757-19.003 19.004-30.757 45.257-30.757 74.255 0 28.684 11.5 54.682 30.142 73.634 18.673 18.985 44.512 30.9 73.134 31.364l1.732.014h194.26c28.998 0 55.251-11.754 74.255-30.757 19.003-19.004 30.757-45.257 30.757-74.255 0-28.998-11.754-55.251-30.757-74.255-19.004-19.003-45.257-30.757-74.255-30.757zm-1.704 7.816c26.997 0 51.438 10.943 69.13 28.634 17.691 17.692 28.634 42.133 28.634 69.13 0 26.704-10.707 50.908-28.061 68.552-17.385 17.674-41.44 28.767-68.082 29.199h0l-1.621.013H344.776c-26.997 0-51.438-10.943-69.13-28.634-17.691-17.692-28.634-42.133-28.634-69.13 0-26.704 10.707-50.908 28.061-68.552 17.385-17.674 41.44-28.767 68.082-29.199h0l1.621-.013zm0 1.272H344.776c-26.646 0-50.769 10.8-68.23 28.262-17.462 17.461-28.262 41.584-28.262 68.23 0 26.357 10.567 50.245 27.696 67.66 17.159 17.444 40.9 28.393 67.2 28.82l1.592.012H536.76c26.646 0 50.769-10.8 68.23-28.262 17.462-17.461 28.262-41.584 28.262-68.23s-10.8-50.769-28.262-68.23c-17.461-17.462-41.584-28.262-68.23-28.262zm-.568 7.816c24.33 0 46.357 9.862 62.302 25.806 15.944 15.945 25.806 37.972 25.806 62.302 0 24.067-9.65 45.88-25.29 61.781-15.667 15.929-37.346 25.926-61.357 26.315h0l-1.461.012H346.48c-24.33 0-46.357-9.862-62.302-25.806-15.944-15.945-25.806-37.972-25.806-62.302 0-24.067 9.65-45.88 25.29-61.781 15.667-15.929 37.346-25.926 61.357-26.315h0l1.461-.012zm0 1.272H346.48c-23.98 0-45.688 9.72-61.402 25.434-15.715 15.714-25.434 37.423-25.434 61.402 0 23.72 9.51 45.217 24.925 60.89 15.44 15.698 36.807 25.55 60.475 25.934l1.432.012h189.716c23.98 0 45.688-9.72 61.402-25.434 15.715-15.714 25.434-37.423 25.434-61.402 0-23.98-9.72-45.688-25.434-61.402-15.714-15.715-37.423-25.434-61.402-25.434zm-2.272 6.68c22.134 0 42.173 8.972 56.679 23.477 14.505 14.506 23.477 34.545 23.477 56.679 0 21.895-8.778 41.739-23.007 56.205-14.254 14.491-33.976 23.586-55.82 23.94h0l-1.329.011H347.616c-22.134 0-42.173-8.972-56.679-23.477-14.505-14.506-23.477-34.545-23.477-56.679 0-21.895 8.778-41.739 23.007-56.205 14.254-14.491 33.976-23.586 55.82-23.94h0l1.329-.011zm0 1.272H347.616c-21.783 0-41.504 8.83-55.78 23.105-14.275 14.275-23.104 33.996-23.104 55.779 0 21.547 8.639 41.076 22.642 55.313 14.027 14.261 33.437 23.212 54.938 23.56l1.3.011H533.92c21.783 0 41.504-8.83 55.78-23.105 14.275-14.275 23.104-33.996 23.104-55.779s-8.83-41.504-23.105-55.78c-14.275-14.275-33.996-23.104-55.779-23.104zm-2.84 7.816c19.782 0 37.69 8.018 50.654 20.982 12.964 12.963 20.982 30.872 20.982 50.654 0 19.567-7.845 37.302-20.562 50.231-12.738 12.95-30.364 21.079-49.885 21.395h0l-1.189.01H350.456c-19.782 0-37.69-8.018-50.654-20.982-12.964-12.963-20.982-30.872-20.982-50.654 0-19.567 7.845-37.302 20.562-50.231 12.738-12.95 30.364-21.079 49.885-21.395h0l1.189-.01zm0 1.272H350.456c-19.43 0-37.021 7.876-49.755 20.61-12.733 12.733-20.609 30.324-20.609 49.754 0 19.22 7.706 36.64 20.197 49.34 12.512 12.72 29.825 20.704 49.004 21.015l1.159.009H531.08c19.43 0 37.021-7.876 49.755-20.61 12.733-12.733 20.609-30.324 20.609-49.754 0-19.43-7.876-37.021-20.61-49.755-12.733-12.733-30.324-20.609-49.754-20.609zm-.568 7.816c17.115 0 32.61 6.937 43.826 18.154 11.217 11.216 18.154 26.71 18.154 43.826 0 16.93-6.788 32.274-17.79 43.46-11.021 11.205-26.272 18.238-43.16 18.512h0l-1.03.008H352.16c-17.115 0-32.61-6.937-43.826-18.154-11.217-11.216-18.154-26.71-18.154-43.826 0-16.93 6.788-32.274 17.79-43.46 11.021-11.205 26.272-18.238 43.16-18.512h0l1.03-.008zm0 1.272H352.16c-16.764 0-31.941 6.795-42.927 17.781-10.986 10.986-17.781 26.163-17.781 42.927 0 16.582 6.648 31.612 17.425 42.568 10.795 10.975 25.733 17.864 42.28 18.132l.999.008h178.356c16.764 0 31.941-6.795 42.927-17.781 10.986-10.986 17.781-26.163 17.781-42.927s-6.795-31.941-17.781-42.927c-10.986-10.986-26.163-17.781-42.927-17.781zm-2.272 6.68c14.92 0 28.426 6.047 38.204 15.824 9.777 9.778 15.824 23.285 15.824 38.204 0 14.758-5.917 28.133-15.508 37.884-9.607 9.768-22.9 15.898-37.622 16.137h0l-.898.007H353.296c-14.92 0-28.426-6.047-38.204-15.824-9.777-9.778-15.824-23.285-15.824-38.204 0-14.758 5.917-28.133 15.508-37.884 9.607-9.768 22.9-15.898 37.622-16.137h0l.898-.007zm0 1.272h0-174.944c-14.568 0-27.757 5.905-37.304 15.452s-15.452 22.736-15.452 37.304c0 14.41 5.778 27.471 15.143 36.992 9.38 9.538 22.362 15.524 36.74 15.757l.869.007H528.24c14.568 0 27.757-5.905 37.304-15.452s15.452-22.736 15.452-37.304c0-14.568-5.905-27.757-15.452-37.304s-22.736-15.452-37.304-15.452zm-2.84 7.816c12.567 0 23.944 5.094 32.179 13.329 8.235 8.235 13.329 19.612 13.329 32.179 0 12.43-4.984 23.697-13.062 31.91-8.092 8.227-19.29 13.39-31.69 13.592h0l-.756.006H356.136c-12.567 0-23.944-5.094-32.179-13.329-8.235-8.235-13.329-19.612-13.329-32.179 0-12.43 4.984-23.697 13.062-31.91 8.092-8.227 19.29-13.39 31.69-13.592h0l.756-.006zm0 1.272H356.136c-12.215 0-23.274 4.951-31.28 12.956-8.005 8.006-12.956 19.065-12.956 31.28 0 12.083 4.845 23.035 12.697 31.018 7.866 7.997 18.75 13.017 30.808 13.212l.727.006H525.4c12.215 0 23.274-4.951 31.28-12.956 8.005-8.006 12.956-19.065 12.956-31.28s-4.951-23.274-12.956-31.28c-8.006-8.005-19.065-12.956-31.28-12.956z" mask="url(#prefix__c)" opacity=".703" transform="matrix(-1 0 0 1 882.672 0)"/>
    </g>
</svg>
