<svg xmlns="http://www.w3.org/2000/svg" xmlns:xlink="http://www.w3.org/1999/xlink" width="100" height="100" viewBox="0 0 100 100">
    <defs>
        <linearGradient id="ldsvcurwbd" x1="7.986%" x2="92.014%" y1="0%" y2="66.963%">
            <stop offset="0%" stop-color="#FAD6A2"/>
            <stop offset="31.81%" stop-color="#FAD5A1"/>
            <stop offset="51.386%" stop-color="#FFDDAC"/>
            <stop offset="66.722%" stop-color="#ECC893"/>
            <stop offset="100%" stop-color="#B68C5A"/>
        </linearGradient>
        <linearGradient id="xg5f5neydc" x1="7.986%" x2="71.866%" y1="0%" y2="100%">
            <stop offset="0%" stop-color="#F2C67A"/>
            <stop offset="50.377%" stop-color="#FFE3BC"/>
            <stop offset="100%" stop-color="#E9A85B"/>
        </linearGradient>
        <linearGradient id="ucao39o64g" x1="0%" x2="76.022%" y1="1.123%" y2="98.877%">
            <stop offset="0%" stop-color="#F2C67A"/>
            <stop offset="50.377%" stop-color="#FFE3BC"/>
            <stop offset="100%" stop-color="#E9A85B"/>
        </linearGradient>
        <linearGradient id="f5dorhik7j" x1="0%" x2="76.022%" y1="1.123%" y2="98.877%">
            <stop offset="0%" stop-color="#F2C67A"/>
            <stop offset="50.377%" stop-color="#FFE3BC"/>
            <stop offset="100%" stop-color="#E9A85B"/>
        </linearGradient>
        <linearGradient id="2fgl3zyeam" x1="0%" x2="76.022%" y1="0%" y2="100%">
            <stop offset="0%" stop-color="#F2C67A"/>
            <stop offset="50.377%" stop-color="#FFE3BC"/>
            <stop offset="100%" stop-color="#E9A85B"/>
        </linearGradient>
        <filter id="3f61ga78ra" width="137.8%" height="134.6%" x="-18.9%" y="-14%" filterUnits="objectBoundingBox">
            <feMorphology in="SourceAlpha" operator="dilate" radius=".385" result="shadowSpreadOuter1"/>
            <feOffset dy="2" in="shadowSpreadOuter1" result="shadowOffsetOuter1"/>
            <feGaussianBlur in="shadowOffsetOuter1" result="shadowBlurOuter1" stdDeviation="3"/>
            <feComposite in="shadowBlurOuter1" in2="SourceAlpha" operator="out" result="shadowBlurOuter1"/>
            <feColorMatrix in="shadowBlurOuter1" values="0 0 0 0 0 0 0 0 0 0 0 0 0 0 0 0 0 0 0.845962631 0"/>
        </filter>
        <filter id="oyd8q1ixae" width="200%" height="201.1%" x="-50%" y="-36.1%" filterUnits="objectBoundingBox">
            <feOffset dy="2" in="SourceAlpha" result="shadowOffsetOuter1"/>
            <feGaussianBlur in="shadowOffsetOuter1" result="shadowBlurOuter1" stdDeviation="2"/>
            <feColorMatrix in="shadowBlurOuter1" values="0 0 0 0 0 0 0 0 0 0 0 0 0 0 0 0 0 0 0.784364073 0"/>
        </filter>
        <filter id="15fvrqo0dh" width="240%" height="241.6%" x="-70%" y="-50.6%" filterUnits="objectBoundingBox">
            <feOffset dy="2" in="SourceAlpha" result="shadowOffsetOuter1"/>
            <feGaussianBlur in="shadowOffsetOuter1" result="shadowBlurOuter1" stdDeviation="2"/>
            <feColorMatrix in="shadowBlurOuter1" values="0 0 0 0 0 0 0 0 0 0 0 0 0 0 0 0 0 0 0.784364073 0"/>
        </filter>
        <filter id="5huqlrscsk" width="346.2%" height="346.2%" x="-123.1%" y="-89.7%" filterUnits="objectBoundingBox">
            <feMorphology in="SourceAlpha" operator="dilate" radius=".385" result="shadowSpreadOuter1"/>
            <feOffset dy="2" in="shadowSpreadOuter1" result="shadowOffsetOuter1"/>
            <feMorphology in="SourceAlpha" radius="1" result="shadowInner"/>
            <feOffset dy="2" in="shadowInner" result="shadowInner"/>
            <feComposite in="shadowOffsetOuter1" in2="shadowInner" operator="out" result="shadowOffsetOuter1"/>
            <feGaussianBlur in="shadowOffsetOuter1" result="shadowBlurOuter1" stdDeviation="2"/>
            <feColorMatrix in="shadowBlurOuter1" values="0 0 0 0 0 0 0 0 0 0 0 0 0 0 0 0 0 0 0.752431163 0"/>
        </filter>
        <path id="vqyestqmnb" d="M0 0H55V60H0z"/>
        <path id="5f5kobwdef" d="M7 9.643c.297 0 .538.232.538.519v3.161c0 .287-.24.519-.538.519-.297 0-.538-.232-.538-.519v-3.161c0-.287.24-.519.538-.519zm3.006-.82l2.343 2.235c.212.202.213.53.004.733-.21.204-.55.205-.762.004L9.248 9.559c-.21-.202-.212-.53-.003-.733.21-.204.55-.205.761-.004zm-6.012 0c.21-.202.552-.2.761.003.21.203.208.531-.003.733l-2.343 2.236c-.212.201-.553.2-.762-.004-.21-.203-.208-.531.004-.733zm6.174-2.448l3.312.107c.297.01.53.25.52.535-.01.287-.26.51-.557.501l-3.311-.107c-.298-.01-.53-.25-.52-.536.01-.286.259-.51.556-.5zm-6.336 0c.297-.01.547.214.557.5.01.287-.223.526-.52.536l-3.312.107c-.298.01-.547-.214-.557-.5-.01-.287.223-.527.52-.536zM1.62 2.238c.193-.218.532-.245.76-.06l2.515 2.058c.227.185.254.513.062.73-.193.22-.532.246-.76.06L1.682 2.97c-.227-.186-.254-.513-.062-.731zm10.762 0c.192.218.165.545-.062.73L9.803 5.027c-.227.186-.566.16-.759-.06-.192-.217-.165-.545.062-.73l2.516-2.058c.227-.185.566-.158.759.06zM7 0c.297 0 .538.232.538.519V3.68c0 .287-.24.519-.538.519-.297 0-.538-.232-.538-.519V.52C6.462.232 6.702 0 7 0z"/>
        <path id="pu2x09j09i" d="M5 6.888c.212 0 .385.166.385.37v2.259c0 .204-.173.37-.385.37-.212 0-.385-.166-.385-.37V7.258c0-.204.173-.37.385-.37zm2.147-.586l1.674 1.597c.15.144.152.378.003.523-.15.146-.394.147-.544.003L6.606 6.828c-.15-.144-.152-.379-.003-.524.15-.145.393-.146.544-.002zm-4.294 0c.15-.144.394-.143.544.002.15.145.148.38-.003.524L1.72 8.425c-.15.144-.394.143-.544-.003-.149-.145-.148-.38.003-.523zm4.41-1.749l2.365.077c.213.007.379.178.372.382-.007.205-.185.365-.398.358l-2.365-.076c-.212-.007-.379-.179-.372-.383.007-.204.185-.365.398-.358zm-4.526 0c.213-.007.39.154.398.358.007.204-.16.376-.372.383L.398 5.37c-.213.007-.39-.153-.398-.358-.007-.204.16-.375.372-.382zM1.157 1.6c.137-.156.38-.175.542-.043l1.797 1.47c.162.132.181.366.044.522-.138.156-.38.175-.542.042L1.2 2.12c-.162-.132-.182-.366-.044-.521zm7.686 0c.138.155.118.39-.044.522L7.002 3.59c-.162.132-.404.113-.542-.043-.137-.156-.118-.39.044-.522l1.797-1.47c.162-.132.405-.113.542.043zM5 0c.212 0 .385.166.385.37V2.63c0 .204-.173.37-.385.37-.212 0-.385-.166-.385-.37V.37C4.615.166 4.788 0 5 0z"/>
        <circle id="djby6jw8yl" cx="87" cy="12" r="3"/>
    </defs>
    <g fill="none" fill-rule="evenodd">
        <g transform="translate(2 20) translate(21)">
            <use fill="#000" filter="url(#3f61ga78ra)" xlink:href="#vqyestqmnb"/>
            <use fill="url(#ldsvcurwbd)" stroke="url(#xg5f5neydc)" stroke-width=".769" xlink:href="#vqyestqmnb"/>
            <path fill="#363636" d="M47 40c.552 0 1 .448 1 1s-.448 1-1 1H8c-.552 0-1-.448-1-1s.448-1 1-1h39zm0-10c.552 0 1 .448 1 1s-.448 1-1 1H8c-.552 0-1-.448-1-1s.448-1 1-1h39zm0-10c.552 0 1 .448 1 1s-.448 1-1 1H8c-.552 0-1-.448-1-1s.448-1 1-1h39zM24.792 10c.552 0 1 .448 1 1s-.448 1-1 1H8c-.552 0-1-.448-1-1s.448-1 1-1h16.792z"/>
        </g>
        <g fill-rule="nonzero" transform="translate(2 20) translate(0 16)">
            <use fill="#000" filter="url(#oyd8q1ixae)" xlink:href="#5f5kobwdef"/>
            <use fill="url(#ucao39o64g)" xlink:href="#5f5kobwdef"/>
        </g>
        <g fill-rule="nonzero" transform="translate(2 20) translate(86 41)">
            <use fill="#000" filter="url(#15fvrqo0dh)" xlink:href="#pu2x09j09i"/>
            <use fill="url(#f5dorhik7j)" xlink:href="#pu2x09j09i"/>
        </g>
        <g transform="translate(2 20)">
            <use fill="#000" filter="url(#5huqlrscsk)" xlink:href="#djby6jw8yl"/>
            <use stroke="url(#2fgl3zyeam)" stroke-width=".769" xlink:href="#djby6jw8yl"/>
        </g>
    </g>
</svg>
