<svg xmlns="http://www.w3.org/2000/svg" xmlns:xlink="http://www.w3.org/1999/xlink" width="375" height="812" viewBox="0 0 375 812">
    <defs>
        <linearGradient id="i75878d9nc" x1="50%" x2="50%" y1="0%" y2="98.776%">
            <stop offset="0%" stop-color="#FFEDDB"/>
            <stop offset="33.976%" stop-color="#F9F4EE"/>
            <stop offset="56.511%" stop-color="#FAF7F3"/>
            <stop offset="78.193%" stop-color="#F9F4EF"/>
            <stop offset="100%" stop-color="#FFEDDB"/>
        </linearGradient>
        <linearGradient id="g65d1ckhnd" x1="86.877%" x2="42.198%" y1="70.895%" y2="69.315%">
            <stop offset="0%" stop-color="#F1DCC3" stop-opacity=".552"/>
            <stop offset="100%" stop-color="#F8F4EE"/>
        </linearGradient>
        <linearGradient id="qn1ibjajce" x1="85.714%" x2="60.702%" y1="82.479%" y2="46.98%">
            <stop offset="0%" stop-color="#F1DCC3" stop-opacity=".552"/>
            <stop offset="100%" stop-color="#FEEEDD"/>
        </linearGradient>
        <path id="rdtiq86jya" d="M0 0H375V812H0z"/>
    </defs>
    <g fill="none" fill-rule="evenodd">
        <g>
            <g transform="translate(-1) translate(1)">
                <mask id="jmhy4pumvb" fill="#fff">
                    <use xlink:href="#rdtiq86jya"/>
                </mask>
                <use fill="#D8D8D8" xlink:href="#rdtiq86jya"/>
                <g mask="url(#jmhy4pumvb)">
                    <g>
                        <path fill="url(#i75878d9nc)" d="M183 0H558V812H183z" transform="translate(-184)"/>
                        <g>
                            <path fill="url(#g65d1ckhnd)" fill-rule="nonzero" d="M224.855.372c123.977 0 224.482 100.504 224.482 224.482S348.832 449.336 224.855 449.336C100.875 449.336.372 348.832.372 224.854S100.876.372 224.855.372zm0 1C101.428 1.372 1.372 101.428 1.372 224.854s100.056 223.482 223.483 223.482c123.425 0 223.482-100.056 223.482-223.482S348.28 1.372 224.855 1.372zm0 5.063c120.63 0 218.419 97.789 218.419 218.419 0 120.63-97.79 218.42-218.42 218.42-120.63 0-218.419-97.79-218.419-218.42 0-120.63 97.79-218.42 218.42-218.42zm0 1c-120.078 0-217.42 97.341-217.42 217.419 0 120.078 97.342 217.42 217.42 217.42 120.077 0 217.419-97.342 217.419-217.42 0-120.078-97.342-217.42-217.42-217.42zm0 5.063c117.28 0 212.356 95.075 212.356 212.356 0 117.28-95.076 212.356-212.357 212.356-117.28 0-212.356-95.075-212.356-212.356 0-117.28 95.076-212.356 212.356-212.356zm0 1c-116.73 0-211.357 94.628-211.357 211.356S108.126 436.21 224.854 436.21c116.729 0 211.357-94.628 211.357-211.356S341.583 13.498 224.854 13.498zm-.001 5.063c113.933 0 206.293 92.36 206.293 206.293s-92.36 206.292-206.293 206.292c-113.932 0-206.293-92.36-206.293-206.292S110.922 18.561 224.854 18.561zm0 1c-113.38 0-205.293 91.913-205.293 205.293 0 113.38 91.913 205.292 205.293 205.292 113.38 0 205.293-91.912 205.293-205.292S338.235 19.561 224.854 19.561zm0 5.062c110.584 0 200.23 89.647 200.23 200.231 0 110.584-89.646 200.23-200.23 200.23-110.583 0-200.23-89.646-200.23-200.23 0-110.584 89.647-200.23 200.23-200.23zm0 1c-110.031 0-199.23 89.2-199.23 199.231 0 110.032 89.199 199.23 199.23 199.23 110.032 0 199.23-89.198 199.23-199.23s-89.198-199.23-199.23-199.23zm.001 5.065c107.235 0 194.166 86.93 194.166 194.166 0 107.235-86.931 194.166-194.166 194.166-107.236 0-194.166-86.93-194.166-194.166 0-107.236 86.93-194.166 194.166-194.166zm0 1c-106.683 0-193.166 86.483-193.166 193.166 0 106.683 86.483 193.166 193.166 193.166 106.683 0 193.166-86.483 193.166-193.166 0-106.683-86.483-193.166-193.166-193.166zm0 5.063c103.886 0 188.103 84.217 188.103 188.103 0 103.886-84.217 188.103-188.103 188.103-103.887 0-188.103-84.216-188.103-188.103 0-103.887 84.216-188.103 188.103-188.103zm0 1c-103.335 0-187.103 83.768-187.103 187.103 0 103.335 83.768 187.103 187.103 187.103 103.334 0 187.103-83.769 187.103-187.103S328.19 37.751 224.855 37.751zm0 5.063c100.537 0 182.04 81.502 182.04 182.04s-81.503 182.04-182.04 182.04c-100.539 0-182.04-81.501-182.04-182.04 0-100.539 81.501-182.04 182.04-182.04zm0 1c-99.987 0-181.04 81.054-181.04 181.04 0 99.986 81.053 181.04 181.04 181.04 99.985 0 181.04-81.054 181.04-181.04 0-99.986-81.055-181.04-181.04-181.04zm-.001 5.063c97.19 0 175.977 78.787 175.977 175.977s-78.787 175.977-175.977 175.977S48.878 322.043 48.878 224.854c0-97.19 78.787-175.977 175.976-175.977zm0 1c-96.637 0-174.976 78.34-174.976 174.977s78.34 174.977 174.976 174.977c96.638 0 174.977-78.34 174.977-174.977S321.491 49.877 224.854 49.877zm.001 5.064c93.84 0 169.913 76.073 169.913 169.913 0 93.84-76.073 169.913-169.913 169.913-93.841 0-169.914-76.073-169.914-169.913 0-93.84 76.073-169.913 169.914-169.913zm0 1c-93.289 0-168.914 75.625-168.914 168.913 0 93.288 75.625 168.913 168.914 168.913 93.288 0 168.913-75.625 168.913-168.913 0-93.288-75.625-168.913-168.913-168.913zm0 5.063c90.492 0 163.85 73.358 163.85 163.85 0 90.492-73.358 163.85-163.85 163.85-90.492 0-163.852-73.358-163.852-163.85 0-90.492 73.36-163.85 163.852-163.85zm0 1c-89.94 0-162.852 72.91-162.852 162.85s72.912 162.85 162.852 162.85 162.85-72.91 162.85-162.85-72.91-162.85-162.85-162.85zm0 5.063c87.142 0 157.787 70.644 157.787 157.787s-70.645 157.787-157.787 157.787c-87.144 0-157.787-70.644-157.787-157.787S137.71 67.067 224.855 67.067zm0 1c-86.592 0-156.787 70.196-156.787 156.787 0 86.591 70.195 156.787 156.787 156.787 86.59 0 156.787-70.197 156.787-156.787S311.445 68.067 224.855 68.067zm0 5.063c83.794 0 151.724 67.929 151.724 151.724 0 83.795-67.93 151.724-151.725 151.724-83.795 0-151.724-67.93-151.724-151.724 0-83.795 67.93-151.724 151.724-151.724zm0 1c-83.243 0-150.725 67.481-150.725 150.724s67.482 150.724 150.724 150.724c83.243 0 150.725-67.481 150.725-150.724S308.097 74.13 224.854 74.13zm0 5.063c80.445 0 145.66 65.215 145.66 145.661S305.3 370.515 224.856 370.515c-80.446 0-145.662-65.215-145.662-145.661S144.409 79.193 224.854 79.193zm0 1c-79.894 0-144.662 64.768-144.662 144.661s64.768 144.661 144.661 144.661c79.894 0 144.662-64.768 144.662-144.661S304.748 80.193 224.854 80.193zm-.001 5.063c77.098 0 139.598 62.5 139.598 139.598 0 77.098-62.5 139.598-139.598 139.598-77.098 0-139.597-62.5-139.597-139.598 0-77.098 62.5-139.598 139.597-139.598zm0 1c-76.545 0-138.597 62.052-138.597 138.598 0 76.546 62.052 138.598 138.597 138.598 76.545 0 138.598-62.053 138.598-138.598 0-76.546-62.053-138.598-138.598-138.598zm0 5.064c73.75 0 133.535 59.785 133.535 133.534s-59.785 133.534-133.535 133.534c-73.749 0-133.534-59.786-133.534-133.534 0-73.748 59.785-133.534 133.534-133.534zm0 1c-73.196 0-132.534 59.338-132.534 132.534s59.338 132.534 132.534 132.534c73.197 0 132.535-59.338 132.535-132.534S298.051 92.32 224.854 92.32zm.001 5.063c70.4 0 127.471 57.07 127.471 127.471 0 70.4-57.071 127.47-127.47 127.47-70.402 0-127.473-57.07-127.473-127.47S154.454 97.383 224.855 97.383zm0 1c-69.848 0-126.472 56.623-126.472 126.471 0 69.848 56.624 126.47 126.472 126.47 69.848 0 126.471-56.622 126.471-126.47S294.703 98.383 224.856 98.383zm0 5.063c67.05 0 121.407 54.357 121.407 121.408s-54.357 121.408-121.408 121.408-121.408-54.357-121.408-121.408 54.357-121.408 121.408-121.408zm0 1c-66.5 0-120.409 53.909-120.409 120.408s53.91 120.408 120.408 120.408c66.5 0 120.408-53.909 120.408-120.408s-53.909-120.408-120.408-120.408zm-.001 5.063c63.703 0 115.345 51.641 115.345 115.345 0 63.703-51.642 115.345-115.345 115.345-63.703 0-115.344-51.641-115.344-115.345s51.64-115.345 115.344-115.345zm0 1c-63.15 0-114.344 51.193-114.344 114.345 0 63.151 51.193 114.345 114.344 114.345 63.151 0 114.345-51.194 114.345-114.345 0-63.151-51.194-114.345-114.345-114.345zm0 5.063c60.355 0 109.282 48.927 109.282 109.282s-48.927 109.282-109.282 109.282c-60.354 0-109.28-48.928-109.28-109.282s48.926-109.282 109.28-109.282zm0 1c-59.802 0-108.28 48.48-108.28 108.282s48.478 108.282 108.28 108.282c59.803 0 108.282-48.48 108.282-108.282s-48.48-108.282-108.282-108.282zm.001 5.064c57.005 0 103.218 46.212 103.218 103.218S281.86 328.072 224.855 328.072c-57.007 0-103.22-46.212-103.22-103.218s46.213-103.218 103.22-103.218zm0 1c-56.454 0-102.22 45.764-102.22 102.218s45.766 102.218 102.22 102.218c56.453 0 102.218-45.764 102.218-102.218s-45.765-102.218-102.218-102.218zm0 5.063c53.657 0 97.155 43.498 97.155 97.155 0 53.657-43.498 97.155-97.155 97.155-53.657 0-97.156-43.498-97.156-97.155 0-53.657 43.499-97.155 97.156-97.155zm0 1c-53.105 0-96.156 43.05-96.156 96.155 0 53.104 43.05 96.155 96.156 96.155 53.105 0 96.155-43.05 96.155-96.155 0-53.105-43.05-96.155-96.155-96.155zm0 5.063c50.309 0 91.092 40.783 91.092 91.092 0 50.31-40.783 91.092-91.092 91.092-50.31 0-91.092-40.783-91.092-91.092 0-50.31 40.783-91.092 91.092-91.092zm0 1c-49.757 0-90.092 40.335-90.092 90.092s40.335 90.092 90.092 90.092 90.092-40.335 90.092-90.092-40.335-90.092-90.092-90.092zm0 5.063c46.96 0 85.028 38.07 85.028 85.029 0 46.96-38.069 85.029-85.029 85.029-46.96 0-85.029-38.07-85.029-85.029 0-46.96 38.07-85.03 85.03-85.03zm0 1c-46.408 0-84.03 37.621-84.03 84.029 0 46.408 37.622 84.029 84.03 84.029 46.407 0 84.028-37.621 84.028-84.029 0-46.408-37.621-84.03-84.029-84.03zm0 5.064c43.612 0 78.965 35.353 78.965 78.965s-35.353 78.965-78.966 78.965c-43.612 0-78.964-35.353-78.964-78.965s35.352-78.965 78.964-78.965zm0 1c-43.06 0-77.965 34.905-77.965 77.965s34.905 77.965 77.964 77.965c43.06 0 77.966-34.906 77.966-77.965 0-43.06-34.906-77.965-77.966-77.965zm-.001 5.063c40.263 0 72.903 32.64 72.903 72.902s-32.64 72.902-72.903 72.902c-40.263 0-72.902-32.64-72.902-72.902 0-40.263 32.64-72.902 72.902-72.902zm0 1c-39.71 0-71.902 32.192-71.902 71.902s32.192 71.902 71.902 71.902 71.903-32.192 71.903-71.902-32.192-71.902-71.903-71.902zm0 5.063c36.915 0 66.84 29.924 66.84 66.839s-29.925 66.839-66.84 66.839c-36.914 0-66.838-29.924-66.838-66.839s29.924-66.839 66.839-66.839zm0 1c-36.362 0-65.838 29.476-65.838 65.839s29.476 65.839 65.839 65.839c36.362 0 65.838-29.476 65.838-65.839s-29.476-65.839-65.838-65.839zm0 5.063c33.566 0 60.776 27.21 60.776 60.776s-27.21 60.776-60.776 60.776c-33.565 0-60.775-27.21-60.775-60.776s27.21-60.776 60.775-60.776zm0 1c-33.013 0-59.775 26.763-59.775 59.776 0 33.013 26.762 59.776 59.775 59.776 33.014 0 59.776-26.763 59.776-59.776 0-33.013-26.762-59.776-59.776-59.776zm0 5.063c30.218 0 54.713 24.495 54.713 54.713s-24.495 54.713-54.713 54.713-54.713-24.495-54.713-54.713 24.495-54.713 54.713-54.713zm0 1c-29.665 0-53.713 24.048-53.713 53.713 0 29.665 24.048 53.713 53.713 53.713 29.666 0 53.713-24.048 53.713-53.713 0-29.665-24.047-53.713-53.713-53.713zm0 5.063c26.868 0 48.65 21.782 48.65 48.65s-21.782 48.65-48.65 48.65-48.649-21.781-48.649-48.65 21.78-48.65 48.649-48.65zm0 1c-26.316 0-47.649 21.334-47.649 47.65s21.333 47.65 47.649 47.65c26.316 0 47.65-21.334 47.65-47.65s-21.334-47.65-47.65-47.65zm0 5.063c23.52 0 42.587 19.066 42.587 42.587 0 23.52-19.067 42.587-42.587 42.587-23.52 0-42.586-19.067-42.586-42.587 0-23.52 19.066-42.587 42.586-42.587zm0 1c-22.967 0-41.586 18.619-41.586 41.587 0 22.968 18.619 41.587 41.586 41.587 22.968 0 41.587-18.619 41.587-41.587 0-22.968-18.619-41.587-41.587-41.587zm.001 5.064c20.17 0 36.523 16.352 36.523 36.523 0 20.17-16.353 36.523-36.523 36.523-20.172 0-36.524-16.352-36.524-36.523 0-20.171 16.352-36.523 36.524-36.523zm0 1c-19.62 0-35.524 15.904-35.524 35.523 0 19.619 15.905 35.523 35.524 35.523 19.618 0 35.523-15.905 35.523-35.523 0-19.618-15.905-35.523-35.523-35.523zm0 5.063c16.822 0 30.46 13.637 30.46 30.46s-13.638 30.46-30.46 30.46c-16.824 0-30.46-13.637-30.46-30.46s13.636-30.46 30.46-30.46zm0 1c-16.271 0-29.46 13.189-29.46 29.46s13.189 29.46 29.46 29.46c16.27 0 29.46-13.19 29.46-29.46 0-16.27-13.19-29.46-29.46-29.46zm0 5.063c13.474 0 24.397 10.923 24.397 24.397 0 13.474-10.923 24.397-24.397 24.397-13.474 0-24.397-10.923-24.397-24.397 0-13.474 10.923-24.397 24.397-24.397zm0 1c-12.922 0-23.397 10.475-23.397 23.397 0 12.922 10.475 23.397 23.397 23.397 12.922 0 23.397-10.475 23.397-23.397 0-12.922-10.475-23.397-23.397-23.397zm0 5.063c10.124 0 18.333 8.21 18.333 18.334 0 10.125-8.209 18.334-18.334 18.334s-18.333-8.209-18.333-18.334 8.208-18.334 18.333-18.334zm0 1c-9.574 0-17.334 7.76-17.334 17.334 0 9.573 7.76 17.334 17.333 17.334 9.573 0 17.334-7.762 17.334-17.334 0-9.573-7.761-17.334-17.334-17.334zm0 5.065c6.776 0 12.27 5.493 12.27 12.269s-5.494 12.27-12.27 12.27c-6.777 0-12.27-5.493-12.27-12.27 0-6.777 5.493-12.27 12.27-12.27zm0 1c-6.225 0-11.27 5.045-11.27 11.269s5.045 11.27 11.27 11.27c6.224 0 11.27-5.046 11.27-11.27 0-6.224-5.046-11.27-11.27-11.27zm0 5.062c3.428 0 6.206 2.78 6.206 6.207 0 3.428-2.778 6.207-6.206 6.207-3.429 0-6.208-2.78-6.208-6.207 0-3.428 2.779-6.207 6.208-6.207zm0 1c-2.877 0-5.208 2.331-5.208 5.207s2.331 5.207 5.208 5.207c2.875 0 5.206-2.332 5.206-5.207s-2.33-5.207-5.206-5.207z" transform="translate(-184) translate(0 91)"/>
                        </g>
                        <g>
                            <path fill="url(#qn1ibjajce)" fill-rule="nonzero" d="M224.855.372c123.977 0 224.482 100.504 224.482 224.482S348.832 449.336 224.855 449.336C100.875 449.336.372 348.832.372 224.854S100.876.372 224.855.372zm0 1C101.428 1.372 1.372 101.428 1.372 224.854s100.056 223.482 223.483 223.482c123.425 0 223.482-100.056 223.482-223.482S348.28 1.372 224.855 1.372zm0 5.063c120.63 0 218.419 97.789 218.419 218.419 0 120.63-97.79 218.42-218.42 218.42-120.63 0-218.419-97.79-218.419-218.42 0-120.63 97.79-218.42 218.42-218.42zm0 1c-120.078 0-217.42 97.341-217.42 217.419 0 120.078 97.342 217.42 217.42 217.42 120.077 0 217.419-97.342 217.419-217.42 0-120.078-97.342-217.42-217.42-217.42zm0 5.063c117.28 0 212.356 95.075 212.356 212.356 0 117.28-95.076 212.356-212.357 212.356-117.28 0-212.356-95.075-212.356-212.356 0-117.28 95.076-212.356 212.356-212.356zm0 1c-116.73 0-211.357 94.628-211.357 211.356S108.126 436.21 224.854 436.21c116.729 0 211.357-94.628 211.357-211.356S341.583 13.498 224.854 13.498zm-.001 5.063c113.933 0 206.293 92.36 206.293 206.293s-92.36 206.292-206.293 206.292c-113.932 0-206.293-92.36-206.293-206.292S110.922 18.561 224.854 18.561zm0 1c-113.38 0-205.293 91.913-205.293 205.293 0 113.38 91.913 205.292 205.293 205.292 113.38 0 205.293-91.912 205.293-205.292S338.235 19.561 224.854 19.561zm0 5.062c110.584 0 200.23 89.647 200.23 200.231 0 110.584-89.646 200.23-200.23 200.23-110.583 0-200.23-89.646-200.23-200.23 0-110.584 89.647-200.23 200.23-200.23zm0 1c-110.031 0-199.23 89.2-199.23 199.231 0 110.032 89.199 199.23 199.23 199.23 110.032 0 199.23-89.198 199.23-199.23s-89.198-199.23-199.23-199.23zm.001 5.065c107.235 0 194.166 86.93 194.166 194.166 0 107.235-86.931 194.166-194.166 194.166-107.236 0-194.166-86.93-194.166-194.166 0-107.236 86.93-194.166 194.166-194.166zm0 1c-106.683 0-193.166 86.483-193.166 193.166 0 106.683 86.483 193.166 193.166 193.166 106.683 0 193.166-86.483 193.166-193.166 0-106.683-86.483-193.166-193.166-193.166zm0 5.063c103.886 0 188.103 84.217 188.103 188.103 0 103.886-84.217 188.103-188.103 188.103-103.887 0-188.103-84.216-188.103-188.103 0-103.887 84.216-188.103 188.103-188.103zm0 1c-103.335 0-187.103 83.768-187.103 187.103 0 103.335 83.768 187.103 187.103 187.103 103.334 0 187.103-83.769 187.103-187.103S328.19 37.751 224.855 37.751zm0 5.063c100.537 0 182.04 81.502 182.04 182.04s-81.503 182.04-182.04 182.04c-100.539 0-182.04-81.501-182.04-182.04 0-100.539 81.501-182.04 182.04-182.04zm0 1c-99.987 0-181.04 81.054-181.04 181.04 0 99.986 81.053 181.04 181.04 181.04 99.985 0 181.04-81.054 181.04-181.04 0-99.986-81.055-181.04-181.04-181.04zm-.001 5.063c97.19 0 175.977 78.787 175.977 175.977s-78.787 175.977-175.977 175.977S48.878 322.043 48.878 224.854c0-97.19 78.787-175.977 175.976-175.977zm0 1c-96.637 0-174.976 78.34-174.976 174.977s78.34 174.977 174.976 174.977c96.638 0 174.977-78.34 174.977-174.977S321.491 49.877 224.854 49.877zm.001 5.064c93.84 0 169.913 76.073 169.913 169.913 0 93.84-76.073 169.913-169.913 169.913-93.841 0-169.914-76.073-169.914-169.913 0-93.84 76.073-169.913 169.914-169.913zm0 1c-93.289 0-168.914 75.625-168.914 168.913 0 93.288 75.625 168.913 168.914 168.913 93.288 0 168.913-75.625 168.913-168.913 0-93.288-75.625-168.913-168.913-168.913zm0 5.063c90.492 0 163.85 73.358 163.85 163.85 0 90.492-73.358 163.85-163.85 163.85-90.492 0-163.852-73.358-163.852-163.85 0-90.492 73.36-163.85 163.852-163.85zm0 1c-89.94 0-162.852 72.91-162.852 162.85s72.912 162.85 162.852 162.85 162.85-72.91 162.85-162.85-72.91-162.85-162.85-162.85zm0 5.063c87.142 0 157.787 70.644 157.787 157.787s-70.645 157.787-157.787 157.787c-87.144 0-157.787-70.644-157.787-157.787S137.71 67.067 224.855 67.067zm0 1c-86.592 0-156.787 70.196-156.787 156.787 0 86.591 70.195 156.787 156.787 156.787 86.59 0 156.787-70.197 156.787-156.787S311.445 68.067 224.855 68.067zm0 5.063c83.794 0 151.724 67.929 151.724 151.724 0 83.795-67.93 151.724-151.725 151.724-83.795 0-151.724-67.93-151.724-151.724 0-83.795 67.93-151.724 151.724-151.724zm0 1c-83.243 0-150.725 67.481-150.725 150.724s67.482 150.724 150.724 150.724c83.243 0 150.725-67.481 150.725-150.724S308.097 74.13 224.854 74.13zm0 5.063c80.445 0 145.66 65.215 145.66 145.661S305.3 370.515 224.856 370.515c-80.446 0-145.662-65.215-145.662-145.661S144.409 79.193 224.854 79.193zm0 1c-79.894 0-144.662 64.768-144.662 144.661s64.768 144.661 144.661 144.661c79.894 0 144.662-64.768 144.662-144.661S304.748 80.193 224.854 80.193zm-.001 5.063c77.098 0 139.598 62.5 139.598 139.598 0 77.098-62.5 139.598-139.598 139.598-77.098 0-139.597-62.5-139.597-139.598 0-77.098 62.5-139.598 139.597-139.598zm0 1c-76.545 0-138.597 62.052-138.597 138.598 0 76.546 62.052 138.598 138.597 138.598 76.545 0 138.598-62.053 138.598-138.598 0-76.546-62.053-138.598-138.598-138.598zm0 5.064c73.75 0 133.535 59.785 133.535 133.534s-59.785 133.534-133.535 133.534c-73.749 0-133.534-59.786-133.534-133.534 0-73.748 59.785-133.534 133.534-133.534zm0 1c-73.196 0-132.534 59.338-132.534 132.534s59.338 132.534 132.534 132.534c73.197 0 132.535-59.338 132.535-132.534S298.051 92.32 224.854 92.32zm.001 5.063c70.4 0 127.471 57.07 127.471 127.471 0 70.4-57.071 127.47-127.47 127.47-70.402 0-127.473-57.07-127.473-127.47S154.454 97.383 224.855 97.383zm0 1c-69.848 0-126.472 56.623-126.472 126.471 0 69.848 56.624 126.47 126.472 126.47 69.848 0 126.471-56.622 126.471-126.47S294.703 98.383 224.856 98.383zm0 5.063c67.05 0 121.407 54.357 121.407 121.408s-54.357 121.408-121.408 121.408-121.408-54.357-121.408-121.408 54.357-121.408 121.408-121.408zm0 1c-66.5 0-120.409 53.909-120.409 120.408s53.91 120.408 120.408 120.408c66.5 0 120.408-53.909 120.408-120.408s-53.909-120.408-120.408-120.408zm-.001 5.063c63.703 0 115.345 51.641 115.345 115.345 0 63.703-51.642 115.345-115.345 115.345-63.703 0-115.344-51.641-115.344-115.345s51.64-115.345 115.344-115.345zm0 1c-63.15 0-114.344 51.193-114.344 114.345 0 63.151 51.193 114.345 114.344 114.345 63.151 0 114.345-51.194 114.345-114.345 0-63.151-51.194-114.345-114.345-114.345zm0 5.063c60.355 0 109.282 48.927 109.282 109.282s-48.927 109.282-109.282 109.282c-60.354 0-109.28-48.928-109.28-109.282s48.926-109.282 109.28-109.282zm0 1c-59.802 0-108.28 48.48-108.28 108.282s48.478 108.282 108.28 108.282c59.803 0 108.282-48.48 108.282-108.282s-48.48-108.282-108.282-108.282zm.001 5.064c57.005 0 103.218 46.212 103.218 103.218S281.86 328.072 224.855 328.072c-57.007 0-103.22-46.212-103.22-103.218s46.213-103.218 103.22-103.218zm0 1c-56.454 0-102.22 45.764-102.22 102.218s45.766 102.218 102.22 102.218c56.453 0 102.218-45.764 102.218-102.218s-45.765-102.218-102.218-102.218zm0 5.063c53.657 0 97.155 43.498 97.155 97.155 0 53.657-43.498 97.155-97.155 97.155-53.657 0-97.156-43.498-97.156-97.155 0-53.657 43.499-97.155 97.156-97.155zm0 1c-53.105 0-96.156 43.05-96.156 96.155 0 53.104 43.05 96.155 96.156 96.155 53.105 0 96.155-43.05 96.155-96.155 0-53.105-43.05-96.155-96.155-96.155zm0 5.063c50.309 0 91.092 40.783 91.092 91.092 0 50.31-40.783 91.092-91.092 91.092-50.31 0-91.092-40.783-91.092-91.092 0-50.31 40.783-91.092 91.092-91.092zm0 1c-49.757 0-90.092 40.335-90.092 90.092s40.335 90.092 90.092 90.092 90.092-40.335 90.092-90.092-40.335-90.092-90.092-90.092zm0 5.063c46.96 0 85.028 38.07 85.028 85.029 0 46.96-38.069 85.029-85.029 85.029-46.96 0-85.029-38.07-85.029-85.029 0-46.96 38.07-85.03 85.03-85.03zm0 1c-46.408 0-84.03 37.621-84.03 84.029 0 46.408 37.622 84.029 84.03 84.029 46.407 0 84.028-37.621 84.028-84.029 0-46.408-37.621-84.03-84.029-84.03zm0 5.064c43.612 0 78.965 35.353 78.965 78.965s-35.353 78.965-78.966 78.965c-43.612 0-78.964-35.353-78.964-78.965s35.352-78.965 78.964-78.965zm0 1c-43.06 0-77.965 34.905-77.965 77.965s34.905 77.965 77.964 77.965c43.06 0 77.966-34.906 77.966-77.965 0-43.06-34.906-77.965-77.966-77.965zm-.001 5.063c40.263 0 72.903 32.64 72.903 72.902s-32.64 72.902-72.903 72.902c-40.263 0-72.902-32.64-72.902-72.902 0-40.263 32.64-72.902 72.902-72.902zm0 1c-39.71 0-71.902 32.192-71.902 71.902s32.192 71.902 71.902 71.902 71.903-32.192 71.903-71.902-32.192-71.902-71.903-71.902zm0 5.063c36.915 0 66.84 29.924 66.84 66.839s-29.925 66.839-66.84 66.839c-36.914 0-66.838-29.924-66.838-66.839s29.924-66.839 66.839-66.839zm0 1c-36.362 0-65.838 29.476-65.838 65.839s29.476 65.839 65.839 65.839c36.362 0 65.838-29.476 65.838-65.839s-29.476-65.839-65.838-65.839zm0 5.063c33.566 0 60.776 27.21 60.776 60.776s-27.21 60.776-60.776 60.776c-33.565 0-60.775-27.21-60.775-60.776s27.21-60.776 60.775-60.776zm0 1c-33.013 0-59.775 26.763-59.775 59.776 0 33.013 26.762 59.776 59.775 59.776 33.014 0 59.776-26.763 59.776-59.776 0-33.013-26.762-59.776-59.776-59.776zm0 5.063c30.218 0 54.713 24.495 54.713 54.713s-24.495 54.713-54.713 54.713-54.713-24.495-54.713-54.713 24.495-54.713 54.713-54.713zm0 1c-29.665 0-53.713 24.048-53.713 53.713 0 29.665 24.048 53.713 53.713 53.713 29.666 0 53.713-24.048 53.713-53.713 0-29.665-24.047-53.713-53.713-53.713zm0 5.063c26.868 0 48.65 21.782 48.65 48.65s-21.782 48.65-48.65 48.65-48.649-21.781-48.649-48.65 21.78-48.65 48.649-48.65zm0 1c-26.316 0-47.649 21.334-47.649 47.65s21.333 47.65 47.649 47.65c26.316 0 47.65-21.334 47.65-47.65s-21.334-47.65-47.65-47.65zm0 5.063c23.52 0 42.587 19.066 42.587 42.587 0 23.52-19.067 42.587-42.587 42.587-23.52 0-42.586-19.067-42.586-42.587 0-23.52 19.066-42.587 42.586-42.587zm0 1c-22.967 0-41.586 18.619-41.586 41.587 0 22.968 18.619 41.587 41.586 41.587 22.968 0 41.587-18.619 41.587-41.587 0-22.968-18.619-41.587-41.587-41.587zm.001 5.064c20.17 0 36.523 16.352 36.523 36.523 0 20.17-16.353 36.523-36.523 36.523-20.172 0-36.524-16.352-36.524-36.523 0-20.171 16.352-36.523 36.524-36.523zm0 1c-19.62 0-35.524 15.904-35.524 35.523 0 19.619 15.905 35.523 35.524 35.523 19.618 0 35.523-15.905 35.523-35.523 0-19.618-15.905-35.523-35.523-35.523zm0 5.063c16.822 0 30.46 13.637 30.46 30.46s-13.638 30.46-30.46 30.46c-16.824 0-30.46-13.637-30.46-30.46s13.636-30.46 30.46-30.46zm0 1c-16.271 0-29.46 13.189-29.46 29.46s13.189 29.46 29.46 29.46c16.27 0 29.46-13.19 29.46-29.46 0-16.27-13.19-29.46-29.46-29.46zm0 5.063c13.474 0 24.397 10.923 24.397 24.397 0 13.474-10.923 24.397-24.397 24.397-13.474 0-24.397-10.923-24.397-24.397 0-13.474 10.923-24.397 24.397-24.397zm0 1c-12.922 0-23.397 10.475-23.397 23.397 0 12.922 10.475 23.397 23.397 23.397 12.922 0 23.397-10.475 23.397-23.397 0-12.922-10.475-23.397-23.397-23.397zm0 5.063c10.124 0 18.333 8.21 18.333 18.334 0 10.125-8.209 18.334-18.334 18.334s-18.333-8.209-18.333-18.334 8.208-18.334 18.333-18.334zm0 1c-9.574 0-17.334 7.76-17.334 17.334 0 9.573 7.76 17.334 17.333 17.334 9.573 0 17.334-7.762 17.334-17.334 0-9.573-7.761-17.334-17.334-17.334zm0 5.065c6.776 0 12.27 5.493 12.27 12.269s-5.494 12.27-12.27 12.27c-6.777 0-12.27-5.493-12.27-12.27 0-6.777 5.493-12.27 12.27-12.27zm0 1c-6.225 0-11.27 5.045-11.27 11.269s5.045 11.27 11.27 11.27c6.224 0 11.27-5.046 11.27-11.27 0-6.224-5.046-11.27-11.27-11.27zm0 5.062c3.428 0 6.206 2.78 6.206 6.207 0 3.428-2.778 6.207-6.206 6.207-3.429 0-6.208-2.78-6.208-6.207 0-3.428 2.779-6.207 6.208-6.207zm0 1c-2.877 0-5.208 2.331-5.208 5.207s2.331 5.207 5.208 5.207c2.875 0 5.206-2.332 5.206-5.207s-2.33-5.207-5.206-5.207z" transform="translate(-184) rotate(180 410.5 456.5)"/>
                        </g>
                    </g>
                </g>
            </g>
        </g>
    </g>
</svg>
