<svg xmlns="http://www.w3.org/2000/svg" xmlns:xlink="http://www.w3.org/1999/xlink" width="80" height="80" viewBox="0 0 80 80">
    <defs>
        <radialGradient id="prefix__o" cx="59.305%" cy="59.994%" r="208.714%" fx="59.305%" fy="59.994%" gradientTransform="matrix(.29756 -.63363 .21124 .67057 .29 .573)">
            <stop offset="0%" stop-color="#080603" stop-opacity="0"/>
            <stop offset="10.741%" stop-color="#D3995D"/>
            <stop offset="17.932%" stop-color="#B1895C" stop-opacity="0"/>
            <stop offset="28.494%" stop-color="#FFE5C7"/>
            <stop offset="40.204%" stop-color="#FFF"/>
            <stop offset="48.145%" stop-color="#F6D2A8"/>
            <stop offset="100%" stop-opacity="0"/>
        </radialGradient>
        <radialGradient id="prefix__p" cx="59.305%" cy="59.994%" r="214.763%" fx="59.305%" fy="59.994%" gradientTransform="matrix(.28918 -.61578 .19589 .68295 .304 .555)">
            <stop offset="0%" stop-color="#080603" stop-opacity="0"/>
            <stop offset="10.741%" stop-color="#D3995D"/>
            <stop offset="17.932%" stop-color="#B1895C" stop-opacity="0"/>
            <stop offset="28.494%" stop-color="#FFE5C7"/>
            <stop offset="40.204%" stop-color="#FFF"/>
            <stop offset="48.145%" stop-color="#F6D2A8"/>
            <stop offset="100%" stop-opacity="0"/>
        </radialGradient>
        <radialGradient id="prefix__q" cx="59.305%" cy="59.994%" r="223.224%" fx="59.305%" fy="59.994%" gradientTransform="matrix(.27822 -.59244 .17734 .69829 .322 .532)">
            <stop offset="0%" stop-color="#080603" stop-opacity="0"/>
            <stop offset="10.741%" stop-color="#D3995D"/>
            <stop offset="17.932%" stop-color="#B1895C" stop-opacity="0"/>
            <stop offset="28.494%" stop-color="#FFE5C7"/>
            <stop offset="40.204%" stop-color="#FFF"/>
            <stop offset="48.145%" stop-color="#F6D2A8"/>
            <stop offset="100%" stop-opacity="0"/>
        </radialGradient>
        <radialGradient id="prefix__r" cx="59.305%" cy="59.994%" r="233.858%" fx="59.305%" fy="59.994%" gradientTransform="matrix(.26557 -.5655 .15783 .71487 .34 .506)">
            <stop offset="0%" stop-color="#080603" stop-opacity="0"/>
            <stop offset="10.741%" stop-color="#D3995D"/>
            <stop offset="17.932%" stop-color="#B1895C" stop-opacity="0"/>
            <stop offset="28.494%" stop-color="#FFE5C7"/>
            <stop offset="40.204%" stop-color="#FFF"/>
            <stop offset="48.145%" stop-color="#F6D2A8"/>
            <stop offset="100%" stop-opacity="0"/>
        </radialGradient>
        <radialGradient id="prefix__s" cx="59.305%" cy="59.994%" r="245.992%" fx="59.305%" fy="59.994%" gradientTransform="matrix(.25247 -.5376 .13952 .73086 .36 .48)">
            <stop offset="0%" stop-color="#080603" stop-opacity="0"/>
            <stop offset="10.741%" stop-color="#D3995D"/>
            <stop offset="17.932%" stop-color="#B1895C" stop-opacity="0"/>
            <stop offset="28.494%" stop-color="#FFE5C7"/>
            <stop offset="40.204%" stop-color="#FFF"/>
            <stop offset="48.145%" stop-color="#F6D2A8"/>
            <stop offset="100%" stop-opacity="0"/>
        </radialGradient>
        <radialGradient id="prefix__t" cx="59.305%" cy="59.994%" r="261.51%" fx="59.305%" fy="59.994%" gradientTransform="matrix(.23748 -.5057 .12066 .74777 .38 .451)">
            <stop offset="0%" stop-color="#080603" stop-opacity="0"/>
            <stop offset="10.741%" stop-color="#D3995D"/>
            <stop offset="17.932%" stop-color="#B1895C" stop-opacity="0"/>
            <stop offset="28.494%" stop-color="#FFE5C7"/>
            <stop offset="40.204%" stop-color="#FFF"/>
            <stop offset="48.145%" stop-color="#F6D2A8"/>
            <stop offset="100%" stop-opacity="0"/>
        </radialGradient>
        <radialGradient id="prefix__u" cx="59.305%" cy="59.994%" r="279.919%" fx="59.305%" fy="59.994%" gradientTransform="matrix(.22186 -.47244 .10308 .76394 .4 .422)">
            <stop offset="0%" stop-color="#080603" stop-opacity="0"/>
            <stop offset="10.741%" stop-color="#D3995D"/>
            <stop offset="17.932%" stop-color="#B1895C" stop-opacity="0"/>
            <stop offset="28.494%" stop-color="#FFE5C7"/>
            <stop offset="40.204%" stop-color="#FFF"/>
            <stop offset="48.145%" stop-color="#F6D2A8"/>
            <stop offset="100%" stop-opacity="0"/>
        </radialGradient>
        <radialGradient id="prefix__v" cx="59.305%" cy="59.994%" r="300.028%" fx="59.305%" fy="59.994%" gradientTransform="matrix(.207 -.44078 .0881 .77803 .417 .395)">
            <stop offset="0%" stop-color="#080603" stop-opacity="0"/>
            <stop offset="9.163%" stop-color="#D3995D"/>
            <stop offset="11.423%" stop-color="#B1895C" stop-opacity="0"/>
            <stop offset="28.494%" stop-color="#FFE5C7"/>
            <stop offset="40.204%" stop-color="#FFF"/>
            <stop offset="48.145%" stop-color="#F6D2A8"/>
            <stop offset="100%" stop-opacity="0"/>
        </radialGradient>
        <radialGradient id="prefix__w" cx="59.305%" cy="59.994%" r="329.101%" fx="59.305%" fy="59.994%" gradientTransform="matrix(.1887 -.40184 .07178 .79371 .438 .362)">
            <stop offset="0%" stop-color="#080603" stop-opacity="0"/>
            <stop offset="10.741%" stop-color="#D3995D"/>
            <stop offset="17.932%" stop-color="#B1895C" stop-opacity="0"/>
            <stop offset="28.494%" stop-color="#FFE5C7"/>
            <stop offset="40.204%" stop-color="#FFF"/>
            <stop offset="48.145%" stop-color="#F6D2A8"/>
            <stop offset="100%" stop-opacity="0"/>
        </radialGradient>
        <radialGradient id="prefix__x" cx="59.305%" cy="59.994%" r="369.028%" fx="59.305%" fy="59.994%" gradientTransform="matrix(.1683 -.35836 .056 .8092 .46 .327)">
            <stop offset="0%" stop-color="#080603" stop-opacity="0"/>
            <stop offset="10.741%" stop-color="#D3995D"/>
            <stop offset="14.871%" stop-color="#B1895C" stop-opacity="0"/>
            <stop offset="28.494%" stop-color="#FFE5C7"/>
            <stop offset="40.204%" stop-color="#FFF"/>
            <stop offset="48.145%" stop-color="#F6D2A8"/>
            <stop offset="100%" stop-opacity="0"/>
        </radialGradient>
        <radialGradient id="prefix__y" cx="59.305%" cy="59.994%" r="422.789%" fx="59.305%" fy="59.994%" gradientTransform="matrix(.1469 -.3128 .04193 .82328 .48 .292)">
            <stop offset="0%" stop-color="#080603" stop-opacity="0"/>
            <stop offset="10.741%" stop-color="#D3995D"/>
            <stop offset="16.351%" stop-color="#B1895C" stop-opacity="0"/>
            <stop offset="28.494%" stop-color="#FFE5C7"/>
            <stop offset="40.204%" stop-color="#FFF"/>
            <stop offset="48.145%" stop-color="#F6D2A8"/>
            <stop offset="100%" stop-opacity="0"/>
        </radialGradient>
        <radialGradient id="prefix__z" cx="59.305%" cy="59.994%" r="487.228%" fx="59.305%" fy="59.994%" gradientTransform="matrix(.12747 -.27143 .03116 .83423 .499 .26)">
            <stop offset="0%" stop-color="#080603" stop-opacity="0"/>
            <stop offset="10.741%" stop-color="#D3995D"/>
            <stop offset="17.932%" stop-color="#B1895C" stop-opacity="0"/>
            <stop offset="28.494%" stop-color="#FFE5C7"/>
            <stop offset="40.204%" stop-color="#FFF"/>
            <stop offset="48.145%" stop-color="#F6D2A8"/>
            <stop offset="100%" stop-opacity="0"/>
        </radialGradient>
        <radialGradient id="prefix__A" cx="59.305%" cy="59.994%" r="605.038%" fx="59.305%" fy="59.994%" gradientTransform="matrix(.10265 -.21857 .01993 .84581 .52 .222)">
            <stop offset="0%" stop-color="#080603" stop-opacity="0"/>
            <stop offset="10.741%" stop-color="#D3995D"/>
            <stop offset="17.38%" stop-color="#B1895C" stop-opacity="0"/>
            <stop offset="28.494%" stop-color="#FFE5C7"/>
            <stop offset="40.204%" stop-color="#FFF"/>
            <stop offset="48.145%" stop-color="#F6D2A8"/>
            <stop offset="100%" stop-opacity="0"/>
        </radialGradient>
        <radialGradient id="prefix__B" cx="59.305%" cy="59.994%" r="769.656%" fx="59.305%" fy="59.994%" gradientTransform="matrix(.0807 -.17183 .0122 .85388 .538 .19)">
            <stop offset="0%" stop-color="#080603" stop-opacity="0"/>
            <stop offset="6.403%" stop-color="#D3995D"/>
            <stop offset="19.312%" stop-color="#B1895C" stop-opacity="0"/>
            <stop offset="34.902%" stop-color="#FFE5C7"/>
            <stop offset="40.204%" stop-color="#FFF"/>
            <stop offset="48.145%" stop-color="#F6D2A8"/>
            <stop offset="100%" stop-opacity="0"/>
        </radialGradient>
        <radialGradient id="prefix__C" cx="59.305%" cy="59.994%" r="1164.448%" fx="59.305%" fy="59.994%" gradientTransform="matrix(.05333 -.11357 .00528 .86116 .558 .15)">
            <stop offset="0%" stop-color="#080603" stop-opacity="0"/>
            <stop offset="10.741%" stop-color="#D3995D"/>
            <stop offset="17.932%" stop-color="#B1895C" stop-opacity="0"/>
            <stop offset="28.494%" stop-color="#FFE5C7"/>
            <stop offset="40.204%" stop-color="#FFF"/>
            <stop offset="48.145%" stop-color="#F6D2A8"/>
            <stop offset="100%" stop-opacity="0"/>
        </radialGradient>
        <radialGradient id="prefix__D" cx="59.305%" cy="59.994%" r="2126.037%" fx="59.305%" fy="59.994%" gradientTransform="matrix(.02921 -.0622 .00158 .8651 .575 .118)">
            <stop offset="0%" stop-color="#080603" stop-opacity="0"/>
            <stop offset="10.741%" stop-color="#D3995D"/>
            <stop offset="17.932%" stop-color="#B1895C" stop-opacity="0"/>
            <stop offset="28.494%" stop-color="#FFE5C7"/>
            <stop offset="40.204%" stop-color="#FFF"/>
            <stop offset="48.145%" stop-color="#F6D2A8"/>
            <stop offset="100%" stop-opacity="0"/>
        </radialGradient>
        <radialGradient id="prefix__E" cx="59.305%" cy="59.994%" r="4911.496%" fx="59.305%" fy="59.994%" gradientTransform="matrix(.01264 -.02693 .0003 .86646 .585 .096)">
            <stop offset="0%" stop-color="#080603" stop-opacity="0"/>
            <stop offset="10.741%" stop-color="#D3995D"/>
            <stop offset="17.932%" stop-color="#B1895C" stop-opacity="0"/>
            <stop offset="28.494%" stop-color="#FFE5C7"/>
            <stop offset="40.204%" stop-color="#FFF"/>
            <stop offset="48.145%" stop-color="#F6D2A8"/>
            <stop offset="100%" stop-opacity="0"/>
        </radialGradient>
        <radialGradient id="prefix__F" cx="59.305%" cy="59.994%" r="1621.258%" fx="59.305%" fy="59.994%" gradientTransform="matrix(.0383 -.08157 .00272 .86388 .569 .13)">
            <stop offset="0%" stop-color="#080603" stop-opacity="0"/>
            <stop offset="10.741%" stop-color="#D3995D"/>
            <stop offset="17.932%" stop-color="#B1895C" stop-opacity="0"/>
            <stop offset="28.494%" stop-color="#FFE5C7"/>
            <stop offset="40.204%" stop-color="#FFF"/>
            <stop offset="48.145%" stop-color="#F6D2A8"/>
            <stop offset="100%" stop-opacity="0"/>
        </radialGradient>
        <radialGradient id="prefix__G" cx="59.305%" cy="59.994%" r="910.802%" fx="59.305%" fy="59.994%" gradientTransform="matrix(.06819 -.1452 .00867 .85759 .547 .172)">
            <stop offset="0%" stop-color="#080603" stop-opacity="0"/>
            <stop offset="10.741%" stop-color="#D3995D"/>
            <stop offset="17.932%" stop-color="#B1895C" stop-opacity="0"/>
            <stop offset="28.494%" stop-color="#FFE5C7"/>
            <stop offset="40.204%" stop-color="#FFF"/>
            <stop offset="48.145%" stop-color="#F6D2A8"/>
            <stop offset="100%" stop-opacity="0"/>
        </radialGradient>
        <radialGradient id="prefix__H" cx="59.305%" cy="59.994%" r="632.755%" fx="59.305%" fy="59.994%" gradientTransform="matrix(.09815 -.209 .01818 .84763 .524 .215)">
            <stop offset="0%" stop-color="#080603" stop-opacity="0"/>
            <stop offset="10.741%" stop-color="#D3995D"/>
            <stop offset="17.932%" stop-color="#B1895C" stop-opacity="0"/>
            <stop offset="28.494%" stop-color="#FFE5C7"/>
            <stop offset="40.204%" stop-color="#FFF"/>
            <stop offset="48.145%" stop-color="#F6D2A8"/>
            <stop offset="100%" stop-opacity="0"/>
        </radialGradient>
        <radialGradient id="prefix__I" cx="59.305%" cy="59.994%" r="486.503%" fx="59.305%" fy="59.994%" gradientTransform="matrix(.12766 -.27183 .03125 .83413 .499 .26)">
            <stop offset="0%" stop-color="#080603" stop-opacity="0"/>
            <stop offset="10.741%" stop-color="#D3995D"/>
            <stop offset="17.932%" stop-color="#B1895C" stop-opacity="0"/>
            <stop offset="28.494%" stop-color="#FFE5C7"/>
            <stop offset="40.204%" stop-color="#FFF"/>
            <stop offset="48.145%" stop-color="#F6D2A8"/>
            <stop offset="100%" stop-opacity="0"/>
        </radialGradient>
        <radialGradient id="prefix__J" cx="59.305%" cy="59.994%" r="408.689%" fx="59.305%" fy="59.994%" gradientTransform="matrix(.15196 -.32359 .04504 .82014 .476 .3)">
            <stop offset="0%" stop-color="#080603" stop-opacity="0"/>
            <stop offset="10.741%" stop-color="#D3995D"/>
            <stop offset="17.932%" stop-color="#B1895C" stop-opacity="0"/>
            <stop offset="28.494%" stop-color="#FFE5C7"/>
            <stop offset="40.204%" stop-color="#FFF"/>
            <stop offset="48.145%" stop-color="#F6D2A8"/>
            <stop offset="100%" stop-opacity="0"/>
        </radialGradient>
        <radialGradient id="prefix__L" cx="35.262%" cy="68.055%" r="307.596%" fx="35.262%" fy="68.055%" gradientTransform="matrix(-.29744 .18473 -.05476 -.96265 .495 1.27)">
            <stop offset="0%" stop-color="#080603" stop-opacity="0"/>
            <stop offset="10.741%" stop-color="#D3995D"/>
            <stop offset="17.932%" stop-color="#B1895C"/>
            <stop offset="28.494%" stop-color="#FFE5C7"/>
            <stop offset="40.204%" stop-color="#FFF"/>
            <stop offset="48.145%" stop-color="#F6D2A8"/>
            <stop offset="100%" stop-opacity="0"/>
        </radialGradient>
        <linearGradient id="prefix__b" x1="96.606%" x2="22.991%" y1="-5.609%" y2="85.19%">
            <stop offset="0%" stop-color="#9F6019"/>
            <stop offset="41.672%" stop-color="#DDBB96"/>
            <stop offset="100%" stop-color="#9B662E"/>
        </linearGradient>
        <linearGradient id="prefix__d" x1="49.988%" x2="49.988%" y1="-6.262%" y2="71.938%">
            <stop offset="0%" stop-color="#FFF"/>
            <stop offset="100%" stop-color="#FFECD0"/>
        </linearGradient>
        <linearGradient id="prefix__c" x1="8.611%" x2="89.684%" y1="-12.584%" y2="110.619%">
            <stop offset="0%" stop-color="#B58B43"/>
            <stop offset="69.186%" stop-color="#FFFCF9"/>
            <stop offset="100%" stop-color="#AA7434"/>
        </linearGradient>
        <linearGradient id="prefix__e" x1="5.345%" x2="100%" y1="30.615%" y2="96.997%">
            <stop offset="0%" stop-color="#D1AC6A"/>
            <stop offset="10.741%" stop-color="#AB8347"/>
            <stop offset="22.436%" stop-color="#B1895C"/>
            <stop offset="53.569%" stop-color="#FFDEB7"/>
            <stop offset="73.245%" stop-color="#A2794B"/>
            <stop offset="100%" stop-color="#39260D"/>
        </linearGradient>
        <linearGradient id="prefix__h" x1=".272%" x2="99.728%" y1="0%" y2="73.99%">
            <stop offset="0%" stop-color="#BC9864"/>
            <stop offset="31.81%" stop-color="#FAD5A1"/>
            <stop offset="51.386%" stop-color="#FFDDAC"/>
            <stop offset="66.722%" stop-color="#ECC893"/>
            <stop offset="100%" stop-color="#B68C5A"/>
        </linearGradient>
        <linearGradient id="prefix__j" x1="1.106%" x2="100%" y1="4.63%" y2="65.623%">
            <stop offset="0%" stop-color="#FFF"/>
            <stop offset="100%" stop-color="#FFFBF6"/>
        </linearGradient>
        <linearGradient id="prefix__i" x1="0%" x2="104.213%" y1="3.948%" y2="96.052%">
            <stop offset="0%" stop-color="#BC9864"/>
            <stop offset="31.81%" stop-color="#FAD5A1"/>
            <stop offset="51.386%" stop-color="#FFDDAC"/>
            <stop offset="66.722%" stop-color="#ECC893"/>
            <stop offset="100%" stop-color="#B68C5A"/>
        </linearGradient>
        <linearGradient id="prefix__l" x1="0%" x2="103.295%" y1="80.984%" y2="80.984%">
            <stop offset="0%" stop-color="#B98F5D"/>
            <stop offset="42.665%" stop-color="#FFE1B5"/>
            <stop offset="53.249%" stop-color="#FFE3BA"/>
            <stop offset="100%" stop-color="#B98F5D"/>
        </linearGradient>
        <linearGradient id="prefix__K" x1="38.966%" x2="38.966%" y1="18.421%" y2="100%">
            <stop offset="0%" stop-color="#B98F5D"/>
            <stop offset="77.477%" stop-color="#FFE3BA"/>
            <stop offset="100%" stop-color="#B98F5D"/>
        </linearGradient>
        <filter id="prefix__a" width="172.7%" height="170.2%" x="-36.4%" y="-36.2%" filterUnits="objectBoundingBox">
            <feOffset dx="1" dy="2" in="SourceAlpha" result="shadowOffsetOuter1"/>
            <feGaussianBlur in="shadowOffsetOuter1" result="shadowBlurOuter1" stdDeviation="3"/>
            <feColorMatrix in="shadowBlurOuter1" result="shadowMatrixOuter1" values="0 0 0 0 0.309803922 0 0 0 0 0.184313725 0 0 0 0 0.0274509804 0 0 0 0.6 0"/>
            <feMerge>
                <feMergeNode in="shadowMatrixOuter1"/>
                <feMergeNode in="SourceGraphic"/>
            </feMerge>
        </filter>
        <filter id="prefix__g" width="106.4%" height="106.4%" x="-3.2%" y="-3.2%" filterUnits="objectBoundingBox">
            <feMorphology in="SourceAlpha" radius=".1" result="shadowSpreadInner1"/>
            <feGaussianBlur in="shadowSpreadInner1" result="shadowBlurInner1" stdDeviation=".5"/>
            <feOffset in="shadowBlurInner1" result="shadowOffsetInner1"/>
            <feComposite in="shadowOffsetInner1" in2="SourceAlpha" k2="-1" k3="1" operator="arithmetic" result="shadowInnerInner1"/>
            <feColorMatrix in="shadowInnerInner1" values="0 0 0 0 0.2362149 0 0 0 0 0.141786934 0 0 0 0 0.0130215264 0 0 0 1 0"/>
        </filter>
        <filter id="prefix__m" width="104.6%" height="107.6%" x="-2.3%" y="-3.8%" filterUnits="objectBoundingBox">
            <feGaussianBlur in="SourceAlpha" result="shadowBlurInner1" stdDeviation=".5"/>
            <feOffset dy="-1" in="shadowBlurInner1" result="shadowOffsetInner1"/>
            <feComposite in="shadowOffsetInner1" in2="SourceAlpha" k2="-1" k3="1" operator="arithmetic" result="shadowInnerInner1"/>
            <feColorMatrix in="shadowInnerInner1" values="0 0 0 0 0 0 0 0 0 0 0 0 0 0 0 0 0 0 0.15 0"/>
        </filter>
        <path id="prefix__f" d="M17.305 7.371l.038-.153-.038-.315-.002-.116-.031-.009-.003-.106-.007-.118-.035-.006c-.01-.062-.022-.125-.031-.187l-.052-.395c-.003-.011-.003-.022-.002-.034l-.037-.044-.004-.077-.04-.156-.204-.428-.034-.042.007-.04c-.004-.012-.007-.024-.007-.037l-.033-.006-.054-.108-.041-.076-.035-.082c-.1-.157-.207-.31-.298-.471-.046-.082-.101-.147-.179-.198-.04-.072-.07-.155-.125-.214-.159-.17-.257-.381-.404-.558l-.426-.363-.175-.26c-.011-.002-.023-.002-.035-.003-.003-.012-.005-.025-.005-.038-.084-.055-.137-.16-.26-.159-.021 0-.045-.025-.063-.043l-.36-.381-.076-.084v-.036l-.27-.087-.045-.036-.001-.038-.044-.035-.042-.037-.04-.038-.078-.042-.041-.037-.275-.007c-.106-.032-.206-.07-.269-.168-.01-.015-.032-.021-.049-.031l-.045-.033.001-.04-.045-.032-.193-.048c-.076-.054-.155-.098-.255-.094-.031.001-.066-.008-.095-.02-.214-.089-.414-.206-.636-.275-.011-.003-.018-.018-.027-.028-.076-.038-.157-.07-.226-.117-.04-.027-.063-.079-.093-.12-.126-.04-.263-.054-.361-.155l-.152-.048c-.105.007-.212.027-.315.016-.13-.014-.27.022-.392-.046-.165-.091-.349-.126-.53-.169l-.01-.031-.075-.004C9.462.17 9.273.154 9.084.224c-.01-.003-.019-.003-.028 0L8.85.186 8.733.152 8.648.11 8.49.1c-.002.006-.004.013-.004.02-.009.001-.017 0-.025-.003L8.285.11l-.36-.036-.517-.002-.24.039c-.005.01-.008.02-.01.03l-.071.011-.08-.007C7 .152 6.99.155 6.98.154l-.045.043-.049-.006C6.873.189 6.858.189 6.844.189h-.08l-.037.033-.007.007.01.078-.042.077c.038.033.061.071.043.123L6.647.502l-.004.033-.076.014.006-.003-.168.04.006-.003-.236.08c-.023.166-.157.195-.29.226-.006.008-.014.01-.024.007L5.845.93l-.197.044-.123.036-.117.044-.078.04-.045.033c-.038.016-.076.03-.115.045l-.078.042-.12.04-.048.029-.075.045-.05.059-.117.01-.085.07-.073.011c-.004.01-.006.021-.007.032-.115-.007-.182.08-.268.13l-.048.03-.074.047-.047.032c-.003.01-.005.022-.006.033l-.066.014-.045.034-.073.047-.05.028-.073.048-.077.041-.05.029-.116.121-.042.037-.046.005-.115.117-.039.034c-.013 0-.026.001-.038.003l-.034.043-.012.069c-.011.003-.023.005-.034.005l-.077.08-.038.042-.04.039-.044.035-.037.042-.038.04-.079.08-.051.067-.04.04-.04.039-.039.04-.037.043-.122.153-.036.043-.01.064-.037.008-.033.045-.04.04-.04.04-.04.038-.04.039-.047.071-.047.073-.103.053-.044.075-.04.077c-.009.083-.044.152-.118.198-.026.04-.053.078-.08.117l-.048.072-.03.047-.056.138-.19.247-.077.239-.041.037-.012.142c-.037.05-.079.098-.112.151-.043.07-.08.144-.119.216 0-.008-.003-.017-.006-.025L.993 5.5l-.036.077-.04.119c0 .013 0 .025-.002.037l-.039.117v.039l-.04.04-.005.04-.035.038c.01.037.04.089.025.109-.096.127-.026.246.008.368l.012.036c.001.012-.002.022-.008.031-.107.027-.133-.074-.196-.117-.017-.183.066-.344.116-.512 0-.011 0-.022.003-.033l-.078.003c.001.099.007.194-.12.233-.024.008-.028.075-.042.115.04.08.047.159 0 .238 0 .013 0 .025-.003.037l-.037.08c0 .013 0 .025-.003.037l-.002.151-.035.006c0 .052-.002.104-.003.155l-.038.038v.197l.001.035c.033.04.032.08 0 .12 0 .013-.002.025-.003.038.001.063-.019.087-.077.042l-.002.114.002.037.034.076c-.011.003-.023.005-.034.006l-.005.118-.036.076-.04.039.006.045v.145c.012.041.027.08.036.122.012.062.02.125.029.187l-.036.044-.075-.037-.042-.116v.003l-.04.19.003.038c.05.102.002.19-.04.28l-.003.036c.06.056.106.115.043.195l-.04.2v.067l.042.003.06.218.053.18c-.006.049.004.11-.023.144-.064.083-.015.14.026.203l-.003.195c.003.01.005.022.006.034l.04.002v.08h.04l-.004.043v.035l.042.079h.04l-.002.038H.355l-.001.04-.04.039-.04.116v.04l.08.078.042.117h.04l.038.042.003.075.037.041.004.04v.072l.034.043-.003.036-.064-.002c-.028-.057-.051-.116-.086-.169-.011-.016-.052-.015-.08-.021l-.002-.003.039.12v-.001l.035.076.008.035.038.045-.04.155.038.04.115.002.007.076.038.04.001.196.12.272.04.04c-.002.013-.002.026 0 .038l.039.04-.038.155.04.001.039-.076.038.001.122.192c.09.035.13.1.125.194l-.044.12-.002.038.005.116.036.001.039.077h-.079l.04.079.04-.078c.038 0 .075.002.112.003l.052.144c-.016.044-.041.065-.09.04-.023-.012-.048-.02-.073-.03l.04.154.04.04.12.118.04.038.04.039.039.039.036.037.047.045.033-.003c.008.008.014.016.017.026l.068.051.004.038.038.035.042.001-.004.044.033.005.13.146-.003.043v.04l.041.194h.04l.08.04.08.038h.038l.084.155.043.114.155.044.247.188.044.037c.304.272.652.486.993.711.007.018.009.042.022.052.111.075.224.148.337.223.037.057.09.085.16.079l.123.073.118.042.04.04.119.081-.038.036.12.077.118-.116c.002.013.002.025.002.037l.039.04.001.117.12.04.16-.079v.118l.038.001.003-.002v.039l.08.04.16.038h.078l.12-.118.08.004h.001l.043.035-.09.06c-.024.018-.046.039-.07.058l.12.039.08.039.04.002.158.038c.06.018.078.062.08.117.029-.011.057-.023.084-.035l.197.036c.014 0 .028 0 .042.002.15.041.313.045.44.151H7.05c.013 0 .026.003.038.005l.04-.005.019.002.019-.002c.012.003.024.004.036.005l.006.035.039.001h.08c0-.01.003-.021.004-.032l.036.032.04.038.123-.001.238.002.04-.195.08.118v.077l.04.04c.051-.021.092-.01.122.037h.079l.12.003.16-.001c.075-.078.025-.11-.062-.126.094-.123.21-.142.343-.11l.08.04c-.012.066-.053.093-.121.086-.082-.008-.115.037-.12.11l.077.003.043-.004h.041l.12.003.091-.039-.047-.19.395-.01.121-.077.043-.076c.038-.028.077-.055.115-.084l.084.003c.018.03.048.057.011.099-.024.027-.035.064-.052.097.137-.007.202-.108.273-.2l.163-.038.05.045-.172.088c.018.038.032.072.046.105h.039l.081-.037.039-.002c.03-.032.06-.08.109-.03.008.009-.015.048-.024.073l-.005.036v.04c.058.002.103.022.123.076h.037l.042-.038.08-.04.04-.038.08-.04c.027-.012.054-.026.08-.039l.002-.037.08-.033.041-.006-.04.117-.002.035.04.003h.038l.08-.037c.017-.014.034-.027.05-.042l-.015-.001.08-.199.048-.033c.148.008.27-.072.402-.116l.038-.04.36-.119.04-.038.157-.042.003-.036h.04c.054-.057.107-.053.161-.002l.04-.037.12-.038.04-.04.08-.077v-.079h-.16l-.04.038-.04.04-.04.04-.04.039-.12.038-.08.04c-.056 0-.098-.015-.086-.083.004-.011.006-.022.007-.033l.005.003.073-.006.04-.036.037-.003.001-.041c.012-.003.024-.004.036-.005l.04-.036c.001-.013.004-.024.007-.036l.043-.035c-.144-.055-.257-.005-.36.077.103-.082.216-.132.36-.077l.004.001.113-.005.08-.036c.01-.003.019-.004.028-.003l.009-.039c.013-.001.026-.003.04-.003l.044-.034.08-.038.04-.044.04.003.01-.034c.01 0 .018-.003.027-.007l.043.005.002-.001c.026-.014.052-.03.078-.043l-.002.001.082-.04-.002.003.042-.042.12-.04-.002.003.043-.037.001-.001.078-.04c.056-.075.12-.132.225-.136.033-.002.065-.038.097-.058.162-.086.333-.159.476-.277l.124-.154.039-.04.041-.037.042-.038c.078-.025.106-.086.118-.157-.131-.003-.131-.003-.16-.156 0-.012.002-.024.003-.035l.113-.086.202-.31c.262-.292.534-.577.768-.892.013 0 .025-.002.037-.004l.035-.043.043-.076.089-.109.032-.008.003-.075.033-.007.01-.07.032-.006.039-.079.045-.074.314-.395.09-.228c.01-.004.02-.006.03-.007l.202-.388.115-.16.043-.115.04-.079.037-.08.281-.74.013-.302.031-.009.117-.391.042-.116.061-.364c.011-.07.02-.141.03-.212l.03-.01c.047-.216.055-.436.048-.656.076-.165.132-.328.096-.52-.023-.121.012-.253.02-.38l-.037-.04V7.37z"/>
        <path id="prefix__k" d="M0 0L21.667 14.189 43.334 0 43.334 26.26 0 26.26z"/>
    </defs>
    <g fill="none" fill-rule="evenodd">
        <circle cx="40" cy="40" r="39" fill="#FFF6EB" stroke="#D5C1AA" stroke-width="2"/>
        <g filter="url(#prefix__a)" transform="translate(18 17)">
            <path fill="url(#prefix__b)" d="M0 19.907L21.667 2.265 43.334 19.907 43.334 46.167 0 46.167z"/>
            <rect width="36.536" height="43.202" x="3.399" fill="url(#prefix__d)" stroke="url(#prefix__c)" stroke-width=".769" rx="1"/>
            <g transform="translate(13.055 5.785)">
                <use fill="url(#prefix__e)" xlink:href="#prefix__f"/>
                <use fill="#000" filter="url(#prefix__g)" xlink:href="#prefix__f"/>
                <path fill="#FFF" stroke="url(#prefix__h)" stroke-width=".75" d="M11.485 5.441c.333 0 .602.27.602.604 0 .334-.27.604-.602.604-.333 0-.602-.27-.602-.604 0-.333.27-.604.602-.604h0z"/>
                <path fill="url(#prefix__j)" stroke="url(#prefix__i)" stroke-width=".75" d="M6.293 3.79c.232 0 .42.188.42.42v1.503H8.07c.232 0 .42.188.42.42 0 .233-.188.42-.42.42H6.714c.001.098 0 .2-.006.308.012.58.129 1.854.885 2.666.367.395.856.63 1.45.712.407-.969 1.534-2.429 2.09-2.786.226-.146.435-.176.622-.09.319.146 1.078.92 1.435 1.308 1.105 1.202 1.107 1.543 1.015 1.79-.228.61-.894.637-2.468.638H9.728c-.001 1.045-.011 1.239-.023 1.48-.006.103-.011.216-.017.415-.013.457-.263.88-.67 1.131-.24.15-.508.225-.773.225-.197 0-.391-.042-.571-.126-.21-.098-.3-.348-.203-.559.098-.21.347-.301.557-.203.164.076.375.057.55-.052.08-.05.265-.19.272-.44.006-.208.012-.326.017-.434.012-.231.021-.418.023-1.464-.773-.114-1.416-.438-1.914-.974-.334-.361-.567-.782-.731-1.205-.427.982-1.193 1.875-2.5 2.157-.03.006-.059.01-.088.01-.194 0-.367-.136-.41-.333-.048-.227.095-.45.322-.5.991-.213 1.68-.894 2.045-2.023.179-.553.236-1.087.254-1.418 0-.104.002-.182.004-.232H4.529c-.231 0-.419-.188-.419-.42 0-.233.188-.421.42-.421h1.344V4.21c0-.233.188-.421.42-.421zm5.221 4.415c-.389.29-1.173 1.349-1.56 2.053h1.552c.756 0 1.535 0 1.831-.078-.294-.487-1.395-1.634-1.823-1.975z"/>
                <path fill="url(#prefix__j)" d="M6.293 3.79c.232 0 .42.188.42.42v1.503H8.07c.232 0 .42.188.42.42 0 .233-.188.42-.42.42H6.714c.001.098 0 .2-.006.308.012.58.129 1.854.885 2.666.367.395.856.63 1.45.712.407-.969 1.534-2.429 2.09-2.786.226-.146.435-.176.622-.09.319.146 1.078.92 1.435 1.308 1.105 1.202 1.107 1.543 1.015 1.79-.228.61-.894.637-2.468.638H9.728c-.001 1.045-.011 1.239-.023 1.48-.006.103-.011.216-.017.415-.013.457-.263.88-.67 1.131-.24.15-.508.225-.773.225-.197 0-.391-.042-.571-.126-.21-.098-.3-.348-.203-.559.098-.21.347-.301.557-.203.164.076.375.057.55-.052.08-.05.265-.19.272-.44.006-.208.012-.326.017-.434.012-.231.021-.418.023-1.464-.773-.114-1.416-.438-1.914-.974-.334-.361-.567-.782-.731-1.205-.427.982-1.193 1.875-2.5 2.157-.03.006-.059.01-.088.01-.194 0-.367-.136-.41-.333-.048-.227.095-.45.322-.5.991-.213 1.68-.894 2.045-2.023.179-.553.236-1.087.254-1.418 0-.104.002-.182.004-.232H4.529c-.231 0-.419-.188-.419-.42 0-.233.188-.421.42-.421h1.344V4.21c0-.233.188-.421.42-.421zm5.221 4.415c-.389.29-1.173 1.349-1.56 2.053h1.552c.756 0 1.535 0 1.831-.078-.294-.487-1.395-1.634-1.823-1.975z"/>
                <path fill="#FFF" d="M11.485 5.441c.333 0 .602.27.602.604 0 .334-.27.604-.602.604-.333 0-.602-.27-.602-.604 0-.333.27-.604.602-.604z"/>
            </g>
            <g transform="translate(0 19.907)">
                <mask id="prefix__n" fill="#fff">
                    <use xlink:href="#prefix__k"/>
                </mask>
                <use fill="url(#prefix__l)" xlink:href="#prefix__k"/>
                <use fill="#000" filter="url(#prefix__m)" xlink:href="#prefix__k"/>
                <g stroke-width=".5" mask="url(#prefix__n)" opacity=".35">
                    <g opacity=".7">
                        <path stroke="url(#prefix__o)" d="M.356 41.117s39.212-7.26 54.012-15.665C69.168 17.046 82.816.807 106.651.234" transform="translate(-49.706 -22.448)"/>
                        <path stroke="url(#prefix__p)" d="M.738 41.117s38.296-6.834 53.366-14.807c14.95-7.91 28.783-23.392 51.782-23.784" transform="translate(-49.706 -22.448)"/>
                        <path stroke="url(#prefix__q)" d="M1.12 41.117s37.376-6.343 52.72-13.801C68.934 19.976 82.955 5.406 105.12 5.2" transform="translate(-49.706 -22.448)"/>
                        <path stroke="url(#prefix__r)" d="M1.503 41.117s36.588-5.854 52.265-12.796C69.06 21.55 83.326 7.894 104.74 7.876" transform="translate(-49.706 -22.448)"/>
                        <path stroke="url(#prefix__s)" d="M1.886 41.117s35.66-5.369 51.618-11.79c15.426-6.207 29.89-18.943 50.47-18.775" transform="translate(-49.706 -22.448)"/>
                        <path stroke="url(#prefix__t)" d="M1.886 41.117S36.747 36.23 53.05 30.334C68.666 24.69 83.384 12.88 103.21 13.232" transform="translate(-49.706 -22.448)"/>
                        <path stroke="url(#prefix__u)" d="M2.268 41.117s33.928-4.409 50.519-9.772c15.741-5.09 30.663-15.963 49.658-15.426" transform="translate(-49.706 -22.448)"/>
                        <path stroke="url(#prefix__v)" d="M2.65 41.117s33.121-4 50.065-8.908c15.926-4.613 31.11-14.71 49.348-13.98" transform="translate(-49.706 -22.448)"/>
                        <path stroke="url(#prefix__w)" d="M3.033 41.117s32.183-3.53 49.418-7.893c16.046-4.062 31.438-13.208 48.847-12.294" transform="translate(-49.706 -22.448)"/>
                        <path stroke="url(#prefix__x)" d="M3.415 41.117s31.37-3.061 48.965-6.873c16.226-3.514 31.887-11.699 48.535-10.603" transform="translate(-49.706 -22.448)"/>
                        <path stroke="url(#prefix__y)" d="M3.797 41.117s30.43-2.596 48.32-5.847c16.341-2.97 32.212-10.177 48.034-8.905" transform="translate(-49.706 -22.448)"/>
                        <path stroke="url(#prefix__z)" d="M4.18 41.117s29.492-2.2 47.673-4.965c16.456-2.502 32.536-8.908 47.533-7.423" transform="translate(-49.706 -22.448)"/>
                        <path stroke="url(#prefix__A)" d="M4.562 41.117s28.672-1.738 47.219-3.922c16.636-1.96 32.99-7.354 47.223-5.702" transform="translate(-49.706 -22.448)"/>
                        <path stroke="url(#prefix__B)" d="M4.944 41.117S32.68 39.774 51.517 38.1c16.75-1.49 33.311-6.062 46.722-4.176" transform="translate(-49.706 -22.448)"/>
                        <path stroke="url(#prefix__C)" d="M4.944 41.117s26.914-.876 46.119-1.94c16.932-.939 33.768-4.42 46.411-2.415" transform="translate(-49.706 -22.448)"/>
                        <path stroke="url(#prefix__D)" d="M5.327 41.117s25.98-.466 45.473-.979c17.045-.448 34.087-3.025 45.91-.806" transform="translate(-49.706 -22.448)"/>
                        <path stroke="url(#prefix__E)" d="M5.71 41.152s25.157-.044 45.017.006c17.232.044 34.548-1.362 45.6.723" transform="translate(-49.706 -22.448)"/>
                        <path stroke="url(#prefix__F)" d="M6.091 41.117s24.23.359 44.373.986c17.347.54 34.864-.116 45.099 2.453" transform="translate(-49.706 -22.448)"/>
                        <path stroke="url(#prefix__G)" d="M6.474 41.117s23.407.772 43.917 1.987c17.539 1.04 35.33 1.34 44.79 4.126" transform="translate(-49.706 -22.448)"/>
                        <path stroke="url(#prefix__H)" d="M6.856 41.117s22.486 1.182 43.273 2.991c17.657 1.537 35.643 2.81 44.286 5.797" transform="translate(-49.706 -22.448)"/>
                        <path stroke="url(#prefix__I)" d="M7.239 41.117s21.57 1.588 42.627 3.995c17.776 2.032 35.954 4.285 43.785 7.468" transform="translate(-49.706 -22.448)"/>
                        <path stroke="url(#prefix__J)" d="M7.62 41.117s70.192 6.557 85.648 13.755" transform="translate(-49.706 -22.448)"/>
                    </g>
                </g>
            </g>
            <path fill="url(#prefix__K)" d="M0 46.247L19.385 32.508 24.159 32.528 43.516 46.247z"/>
            <path stroke="url(#prefix__L)" stroke-width=".5" d="M1.571 45.976L19.135 33.683 23.962 33.683 42.187 45.976" opacity=".8"/>
        </g>
    </g>
</svg>
