<svg xmlns="http://www.w3.org/2000/svg" xmlns:xlink="http://www.w3.org/1999/xlink" width="75" height="61" viewBox="0 0 75 61">
    <defs>
        <linearGradient id="prefix__c" x1="-3.144%" x2="100%" y1="30.562%" y2="72.383%">
            <stop offset="0%" stop-color="#B6B6B6"/>
            <stop offset="14.289%" stop-color="#D9D9D9"/>
            <stop offset="46.13%" stop-color="#FFF"/>
            <stop offset="73.258%" stop-color="#AFAFAF"/>
            <stop offset="89.923%" stop-color="#565656"/>
            <stop offset="100%" stop-color="#3C3C3C"/>
        </linearGradient>
        <linearGradient id="prefix__f" x1="27.661%" x2="71.018%" y1="6.578%" y2="100%">
            <stop offset="0%" stop-color="#B6B6B6"/>
            <stop offset="14.289%" stop-color="#D9D9D9"/>
            <stop offset="46.13%" stop-color="#FFF"/>
            <stop offset="73.258%" stop-color="#AFAFAF"/>
            <stop offset="89.923%" stop-color="#565656"/>
            <stop offset="100%" stop-color="#3C3C3C"/>
        </linearGradient>
        <linearGradient id="prefix__g" x1="18.511%" x2="115.875%" y1="93.903%" y2="4.817%">
            <stop offset="0%" stop-color="#B6B6B6"/>
            <stop offset="14.289%" stop-color="#D9D9D9"/>
            <stop offset="46.13%" stop-color="#FFF"/>
            <stop offset="73.258%" stop-color="#AFAFAF"/>
            <stop offset="89.923%" stop-color="#565656"/>
            <stop offset="100%" stop-color="#3C3C3C"/>
        </linearGradient>
        <filter id="prefix__a" width="151.1%" height="176.4%" x="-22.5%" y="-29.2%" filterUnits="objectBoundingBox">
            <feMorphology in="SourceAlpha" operator="dilate" radius=".5" result="shadowSpreadOuter1"/>
            <feOffset dx="1" dy="2" in="shadowSpreadOuter1" result="shadowOffsetOuter1"/>
            <feGaussianBlur in="shadowOffsetOuter1" result="shadowBlurOuter1" stdDeviation="2"/>
            <feColorMatrix in="shadowBlurOuter1" values="0 0 0 0 0 0 0 0 0 0 0 0 0 0 0 0 0 0 0.582277098 0"/>
        </filter>
        <filter id="prefix__d" width="250.3%" height="197.3%" x="-66.4%" y="-37.2%" filterUnits="objectBoundingBox">
            <feMorphology in="SourceAlpha" operator="dilate" radius=".5" result="shadowSpreadOuter1"/>
            <feOffset dx="1" dy="2" in="shadowSpreadOuter1" result="shadowOffsetOuter1"/>
            <feGaussianBlur in="shadowOffsetOuter1" result="shadowBlurOuter1" stdDeviation="2"/>
            <feColorMatrix in="shadowBlurOuter1" values="0 0 0 0 0 0 0 0 0 0 0 0 0 0 0 0 0 0 0.582277098 0"/>
        </filter>
        <path id="prefix__b" d="M8 22.42c2.61 0 4.53-1.23 5.73-3.69.9-1.89 1.38-4.38 1.38-7.44 0-3.09-.48-5.58-1.38-7.44C12.53 1.39 10.61.16 8 .16c-2.64 0-4.53 1.23-5.73 3.69C1.34 5.71.89 8.17.89 11.29c0 3.09.45 5.58 1.38 7.44 1.2 2.46 3.09 3.69 5.73 3.69zm0-1.08c-2.22 0-3.81-1.11-4.8-3.33-.78-1.68-1.14-3.9-1.14-6.72s.36-5.07 1.14-6.72C4.19 2.35 5.78 1.24 8 1.24c2.19 0 3.78 1.11 4.8 3.33.78 1.68 1.17 3.9 1.17 6.72 0 2.79-.39 5.04-1.17 6.72-1.02 2.22-2.61 3.33-4.8 3.33zm22.32.66v-5.16h3.84v-1.05h-3.84V.58h-1.2L17.87 15.67v1.17h11.31V22h1.14zm-1.14-6.21H19.04L29.09 2.26h.09v13.53z"/>
        <path id="prefix__e" d="M50.404 43.336c1.68 0 3.048-.552 4.128-1.608 1.08-1.104 1.632-2.496 1.632-4.152 0-1.848-.528-3.288-1.56-4.32-1.008-1.008-2.328-1.488-3.96-1.488-.816 0-1.584.144-2.304.48-.792.336-1.44.84-1.92 1.464h-.072l.648-6.96h8.592v-.888H46.18l-.84 9.24h.912c.384-.792.984-1.416 1.752-1.848.768-.432 1.608-.648 2.52-.648 1.392 0 2.52.408 3.384 1.248.888.888 1.344 2.136 1.344 3.72 0 1.392-.456 2.568-1.368 3.528-.912.912-2.064 1.392-3.48 1.392-1.2 0-2.232-.336-3.072-.984-.912-.72-1.44-1.728-1.536-2.976h-.96c.12 1.536.744 2.736 1.896 3.6 1.008.792 2.232 1.2 3.672 1.2z"/>
    </defs>
    <g fill="none" transform="translate(6 10)">
        <use fill="#000" filter="url(#prefix__a)" xlink:href="#prefix__b"/>
        <use fill="#D9BC92" xlink:href="#prefix__b"/>
        <use fill="url(#prefix__c)" xlink:href="#prefix__b"/>
        <g>
            <use fill="#000" filter="url(#prefix__d)" xlink:href="#prefix__e"/>
            <use fill="#D9BC92" xlink:href="#prefix__e"/>
            <use fill="url(#prefix__f)" xlink:href="#prefix__e"/>
        </g>
        <path fill="url(#prefix__g)" d="M53.827 7.823L54.181 8.177 20.177 42.181 19.823 41.827z"/>
    </g>
</svg>
