<svg xmlns="http://www.w3.org/2000/svg" xmlns:xlink="http://www.w3.org/1999/xlink" width="75" height="61" viewBox="0 0 75 61">
    <defs>
        <linearGradient id="prefix__c" x1="-3.144%" x2="100%" y1="28.803%" y2="74.408%">
            <stop offset="0%" stop-color="#B6B6B6"/>
            <stop offset="14.289%" stop-color="#D9D9D9"/>
            <stop offset="46.13%" stop-color="#FFF"/>
            <stop offset="73.258%" stop-color="#AFAFAF"/>
            <stop offset="89.923%" stop-color="#565656"/>
            <stop offset="100%" stop-color="#3C3C3C"/>
        </linearGradient>
        <linearGradient id="prefix__f" x1="27.661%" x2="71.018%" y1="6.578%" y2="100%">
            <stop offset="0%" stop-color="#B6B6B6"/>
            <stop offset="14.289%" stop-color="#D9D9D9"/>
            <stop offset="46.13%" stop-color="#FFF"/>
            <stop offset="73.258%" stop-color="#AFAFAF"/>
            <stop offset="89.923%" stop-color="#565656"/>
            <stop offset="100%" stop-color="#3C3C3C"/>
        </linearGradient>
        <linearGradient id="prefix__g" x1="18.511%" x2="115.875%" y1="93.903%" y2="4.817%">
            <stop offset="0%" stop-color="#B6B6B6"/>
            <stop offset="14.289%" stop-color="#D9D9D9"/>
            <stop offset="46.13%" stop-color="#FFF"/>
            <stop offset="73.258%" stop-color="#AFAFAF"/>
            <stop offset="89.923%" stop-color="#565656"/>
            <stop offset="100%" stop-color="#3C3C3C"/>
        </linearGradient>
        <filter id="prefix__a" width="153.4%" height="176.4%" x="-23.5%" y="-29.2%" filterUnits="objectBoundingBox">
            <feMorphology in="SourceAlpha" operator="dilate" radius=".5" result="shadowSpreadOuter1"/>
            <feOffset dx="1" dy="2" in="shadowSpreadOuter1" result="shadowOffsetOuter1"/>
            <feGaussianBlur in="shadowOffsetOuter1" result="shadowBlurOuter1" stdDeviation="2"/>
            <feColorMatrix in="shadowBlurOuter1" values="0 0 0 0 0 0 0 0 0 0 0 0 0 0 0 0 0 0 0.582277098 0"/>
        </filter>
        <filter id="prefix__d" width="250.3%" height="197.3%" x="-66.4%" y="-37.2%" filterUnits="objectBoundingBox">
            <feMorphology in="SourceAlpha" operator="dilate" radius=".5" result="shadowSpreadOuter1"/>
            <feOffset dx="1" dy="2" in="shadowSpreadOuter1" result="shadowOffsetOuter1"/>
            <feGaussianBlur in="shadowOffsetOuter1" result="shadowBlurOuter1" stdDeviation="2"/>
            <feColorMatrix in="shadowBlurOuter1" values="0 0 0 0 0 0 0 0 0 0 0 0 0 0 0 0 0 0 0.582277098 0"/>
        </filter>
        <path id="prefix__b" d="M9 32.42c2.61 0 4.53-1.23 5.73-3.69.9-1.89 1.38-4.38 1.38-7.44 0-3.09-.48-5.58-1.38-7.44-1.2-2.46-3.12-3.69-5.73-3.69-2.64 0-4.53 1.23-5.73 3.69-.93 1.86-1.38 4.32-1.38 7.44 0 3.09.45 5.58 1.38 7.44 1.2 2.46 3.09 3.69 5.73 3.69zm0-1.08c-2.22 0-3.81-1.11-4.8-3.33-.78-1.68-1.14-3.9-1.14-6.72s.36-5.07 1.14-6.72c.99-2.22 2.58-3.33 4.8-3.33 2.19 0 3.78 1.11 4.8 3.33.78 1.68 1.17 3.9 1.17 6.72 0 2.79-.39 5.04-1.17 6.72-1.02 2.22-2.61 3.33-4.8 3.33zm24.75.66v-1.11H21.63c.3-1.89 2.13-3.99 5.52-6.3 2.34-1.62 3.81-2.76 4.44-3.42 1.41-1.47 2.13-3.15 2.13-5.04 0-1.83-.63-3.27-1.83-4.35-1.23-1.08-2.79-1.62-4.65-1.62-1.98 0-3.6.63-4.8 1.95-1.29 1.35-1.92 3.24-1.92 5.64h1.14c0-2.1.54-3.75 1.62-4.89.96-1.08 2.28-1.62 3.96-1.62 1.56 0 2.85.42 3.81 1.32.99.87 1.5 2.07 1.5 3.57 0 1.56-.66 3.03-1.95 4.38-.54.54-1.86 1.56-3.9 3.03-1.98 1.38-3.42 2.58-4.32 3.6-1.44 1.56-2.13 3.18-2.13 4.86h13.5z"/>
        <path id="prefix__e" d="M51.404 53.336c1.68 0 3.048-.552 4.128-1.608 1.08-1.104 1.632-2.496 1.632-4.152 0-1.848-.528-3.288-1.56-4.32-1.008-1.008-2.328-1.488-3.96-1.488-.816 0-1.584.144-2.304.48-.792.336-1.44.84-1.92 1.464h-.072l.648-6.96h8.592v-.888H47.18l-.84 9.24h.912c.384-.792.984-1.416 1.752-1.848.768-.432 1.608-.648 2.52-.648 1.392 0 2.52.408 3.384 1.248.888.888 1.344 2.136 1.344 3.72 0 1.392-.456 2.568-1.368 3.528-.912.912-2.064 1.392-3.48 1.392-1.2 0-2.232-.336-3.072-.984-.912-.72-1.44-1.728-1.536-2.976h-.96c.12 1.536.744 2.736 1.896 3.6 1.008.792 2.232 1.2 3.672 1.2z"/>
    </defs>
    <g fill="none" transform="translate(5)">
        <use fill="#000" filter="url(#prefix__a)" xlink:href="#prefix__b"/>
        <use fill="#D9BC92" xlink:href="#prefix__b"/>
        <use fill="url(#prefix__c)" xlink:href="#prefix__b"/>
        <g>
            <use fill="#000" filter="url(#prefix__d)" xlink:href="#prefix__e"/>
            <use fill="#D9BC92" xlink:href="#prefix__e"/>
            <use fill="url(#prefix__f)" xlink:href="#prefix__e"/>
        </g>
        <path fill="url(#prefix__g)" d="M54.827 17.823L55.181 18.177 21.177 52.181 20.823 51.827z"/>
    </g>
</svg>
