<svg xmlns="http://www.w3.org/2000/svg" xmlns:xlink="http://www.w3.org/1999/xlink" width="75" height="61" viewBox="0 0 75 61">
    <defs>
        <linearGradient id="prefix__c" x1="-3.144%" x2="100%" y1="29.236%" y2="73.91%">
            <stop offset="0%" stop-color="#B6B6B6"/>
            <stop offset="14.289%" stop-color="#D9D9D9"/>
            <stop offset="46.13%" stop-color="#FFF"/>
            <stop offset="73.258%" stop-color="#AFAFAF"/>
            <stop offset="89.923%" stop-color="#565656"/>
            <stop offset="100%" stop-color="#3C3C3C"/>
        </linearGradient>
        <linearGradient id="prefix__f" x1="27.661%" x2="71.018%" y1="6.578%" y2="100%">
            <stop offset="0%" stop-color="#B6B6B6"/>
            <stop offset="14.289%" stop-color="#D9D9D9"/>
            <stop offset="46.13%" stop-color="#FFF"/>
            <stop offset="73.258%" stop-color="#AFAFAF"/>
            <stop offset="89.923%" stop-color="#565656"/>
            <stop offset="100%" stop-color="#3C3C3C"/>
        </linearGradient>
        <linearGradient id="prefix__g" x1="18.511%" x2="115.875%" y1="93.903%" y2="4.817%">
            <stop offset="0%" stop-color="#B6B6B6"/>
            <stop offset="14.289%" stop-color="#D9D9D9"/>
            <stop offset="46.13%" stop-color="#FFF"/>
            <stop offset="73.258%" stop-color="#AFAFAF"/>
            <stop offset="89.923%" stop-color="#565656"/>
            <stop offset="100%" stop-color="#3C3C3C"/>
        </linearGradient>
        <filter id="prefix__a" width="152.8%" height="176.4%" x="-23.3%" y="-29.2%" filterUnits="objectBoundingBox">
            <feMorphology in="SourceAlpha" operator="dilate" radius=".5" result="shadowSpreadOuter1"/>
            <feOffset dx="1" dy="2" in="shadowSpreadOuter1" result="shadowOffsetOuter1"/>
            <feGaussianBlur in="shadowOffsetOuter1" result="shadowBlurOuter1" stdDeviation="2"/>
            <feColorMatrix in="shadowBlurOuter1" values="0 0 0 0 0 0 0 0 0 0 0 0 0 0 0 0 0 0 0.582277098 0"/>
        </filter>
        <filter id="prefix__d" width="250.3%" height="197.3%" x="-66.4%" y="-37.2%" filterUnits="objectBoundingBox">
            <feMorphology in="SourceAlpha" operator="dilate" radius=".5" result="shadowSpreadOuter1"/>
            <feOffset dx="1" dy="2" in="shadowSpreadOuter1" result="shadowOffsetOuter1"/>
            <feGaussianBlur in="shadowOffsetOuter1" result="shadowBlurOuter1" stdDeviation="2"/>
            <feColorMatrix in="shadowBlurOuter1" values="0 0 0 0 0 0 0 0 0 0 0 0 0 0 0 0 0 0 0.582277098 0"/>
        </filter>
        <path id="prefix__b" d="M9 32.42c2.61 0 4.53-1.23 5.73-3.69.9-1.89 1.38-4.38 1.38-7.44 0-3.09-.48-5.58-1.38-7.44-1.2-2.46-3.12-3.69-5.73-3.69-2.64 0-4.53 1.23-5.73 3.69-.93 1.86-1.38 4.32-1.38 7.44 0 3.09.45 5.58 1.38 7.44 1.2 2.46 3.09 3.69 5.73 3.69zm0-1.08c-2.22 0-3.81-1.11-4.8-3.33-.78-1.68-1.14-3.9-1.14-6.72s.36-5.07 1.14-6.72c.99-2.22 2.58-3.33 4.8-3.33 2.19 0 3.78 1.11 4.8 3.33.78 1.68 1.17 3.9 1.17 6.72 0 2.79-.39 5.04-1.17 6.72-1.02 2.22-2.61 3.33-4.8 3.33zm18.03 1.08c2.07 0 3.75-.6 5.07-1.8 1.32-1.2 1.98-2.76 1.98-4.65 0-1.26-.36-2.34-1.05-3.24-.69-.9-1.65-1.53-2.85-1.92 2.28-.78 3.45-2.43 3.45-4.98 0-1.68-.6-3.06-1.77-4.11-1.2-1.05-2.73-1.56-4.65-1.56-1.92 0-3.48.54-4.65 1.68-1.2 1.14-1.92 2.7-2.13 4.65h1.14c.21-1.65.81-2.94 1.77-3.84.96-.96 2.25-1.41 3.87-1.41s2.91.42 3.87 1.32c.9.84 1.38 1.95 1.38 3.33 0 1.41-.45 2.49-1.32 3.24-.87.78-2.13 1.17-3.78 1.17h-1.8v1.02h2.04c1.59 0 2.88.42 3.84 1.29.96.84 1.47 1.98 1.47 3.39 0 1.56-.54 2.82-1.62 3.84s-2.52 1.53-4.26 1.53c-1.47 0-2.73-.42-3.78-1.2-1.32-1.02-2.04-2.55-2.16-4.56h-1.17c.18 2.4 1.05 4.2 2.61 5.4 1.23.93 2.73 1.41 4.5 1.41z"/>
        <path id="prefix__e" d="M51.404 53.336c1.68 0 3.048-.552 4.128-1.608 1.08-1.104 1.632-2.496 1.632-4.152 0-1.848-.528-3.288-1.56-4.32-1.008-1.008-2.328-1.488-3.96-1.488-.816 0-1.584.144-2.304.48-.792.336-1.44.84-1.92 1.464h-.072l.648-6.96h8.592v-.888H47.18l-.84 9.24h.912c.384-.792.984-1.416 1.752-1.848.768-.432 1.608-.648 2.52-.648 1.392 0 2.52.408 3.384 1.248.888.888 1.344 2.136 1.344 3.72 0 1.392-.456 2.568-1.368 3.528-.912.912-2.064 1.392-3.48 1.392-1.2 0-2.232-.336-3.072-.984-.912-.72-1.44-1.728-1.536-2.976h-.96c.12 1.536.744 2.736 1.896 3.6 1.008.792 2.232 1.2 3.672 1.2z"/>
    </defs>
    <g fill="none" transform="translate(5)">
        <use fill="#000" filter="url(#prefix__a)" xlink:href="#prefix__b"/>
        <use fill="#D9BC92" xlink:href="#prefix__b"/>
        <use fill="url(#prefix__c)" xlink:href="#prefix__b"/>
        <g>
            <use fill="#000" filter="url(#prefix__d)" xlink:href="#prefix__e"/>
            <use fill="#D9BC92" xlink:href="#prefix__e"/>
            <use fill="url(#prefix__f)" xlink:href="#prefix__e"/>
        </g>
        <path fill="url(#prefix__g)" d="M54.827 17.823L55.181 18.177 21.177 52.181 20.823 51.827z"/>
    </g>
</svg>
