<svg xmlns="http://www.w3.org/2000/svg" xmlns:xlink="http://www.w3.org/1999/xlink" width="51" height="51" viewBox="0 0 51 51">
    <defs>
        <radialGradient id="prefix__c" cx="100%" cy="29.9%" r="121.088%" fx="100%" fy="29.9%">
            <stop offset="0%" stop-color="#9F6D36"/>
            <stop offset="28.69%" stop-color="#F8D4A1"/>
            <stop offset="100%" stop-color="#4C2A04"/>
        </radialGradient>
        <radialGradient id="prefix__d" cx="103.797%" cy="13.736%" r="153.657%" fx="103.797%" fy="13.736%">
            <stop offset="0%" stop-color="#FFF3D1"/>
            <stop offset="16.503%" stop-color="#FFF9EA"/>
            <stop offset="100%" stop-color="#EDD6A5"/>
        </radialGradient>
        <filter id="prefix__a" width="132.5%" height="132.5%" x="-16.3%" y="-13.8%" filterUnits="objectBoundingBox">
            <feOffset dy="1" in="SourceAlpha" result="shadowOffsetOuter1"/>
            <feGaussianBlur in="shadowOffsetOuter1" result="shadowBlurOuter1" stdDeviation="2"/>
            <feColorMatrix in="shadowBlurOuter1" values="0 0 0 0 0.807843137 0 0 0 0 0.658823529 0 0 0 0 0.498039216 0 0 0 1 0"/>
        </filter>
        <filter id="prefix__f" width="101.4%" height="101.4%" x="-.7%" y="-.7%" filterUnits="objectBoundingBox">
            <feOffset dy=".5" in="SourceAlpha" result="shadowOffsetInner1"/>
            <feComposite in="shadowOffsetInner1" in2="SourceAlpha" k2="-1" k3="1" operator="arithmetic" result="shadowInnerInner1"/>
            <feColorMatrix in="shadowInnerInner1" values="0 0 0 0 0.320029438 0 0 0 0 0.200796987 0 0 0 0 0.063420468 0 0 0 0.608719406 0"/>
        </filter>
        <circle id="prefix__b" cx="472" cy="5159" r="20"/>
        <path id="prefix__e" d="M457.071 5169.443c.151.074.259.258.403.345-.144-.085-.252-.273-.4-.343l-.003-.002zm28.746-6.918c.233-.626.228-1.49-2.567-4.539-.902-.984-2.825-2.944-3.628-3.315-.473-.218-1.004-.141-1.576.229-1.406.907-4.255 4.606-5.285 7.064-1.5-.212-2.736-.805-3.666-1.805-1.91-2.06-2.207-5.287-2.238-6.759.014-.272.02-.532.016-.78h3.43c.585 0 1.06-.478 1.059-1.065 0-.59-.474-1.065-1.06-1.065h-3.433v-3.809c0-.59-.473-1.066-1.06-1.066-.586 0-1.06.477-1.06 1.066v3.808h-3.401c-.586 0-1.061.476-1.061 1.066 0 .59.475 1.066 1.06 1.066h3.396c-.006.127-.011.325-.01.589-.046.838-.19 2.191-.642 3.593-.925 2.863-2.664 4.588-5.171 5.13-.526.12-.88.616-.823 1.154.056.537.505.948 1.044.955.074 0 .149-.008.225-.023 3.303-.715 5.24-2.98 6.32-5.468.417 1.073 1.004 2.139 1.85 3.053 1.26 1.36 2.886 2.18 4.838 2.469-.003 2.653-.027 3.126-.056 3.713-.014.272-.03.572-.045 1.1-.017.631-.485.99-.686 1.115-.444.275-.977.325-1.39.132-.255-.12-.547-.132-.812-.036-.264.097-.48.295-.598.551-.247.533-.019 1.167.512 1.417.453.212.946.321 1.446.32.67 0 1.347-.192 1.957-.57 1.026-.637 1.659-1.71 1.692-2.869.014-.505.03-.791.042-1.053.03-.61.056-1.102.059-3.749h4.496c4.4 0 6.223 0 6.826-1.618v-.001zm-26.357 8.537c.13.293.352.535.535.8-.183-.265-.406-.507-.535-.8zm-1.568.23v-.002c.147.07.254.258.398.343-.144-.087-.25-.273-.398-.341zm9.75-28.42l.534-.05-.534.05zm11.722 7.359c-.435 0-.851.195-1.158.541-.307.347-.48.816-.479 1.305 0 .489.172.958.479 1.304.307.347.723.541 1.158.542.434 0 .85-.195 1.158-.542.306-.346.479-.815.478-1.304 0-.49-.172-.958-.478-1.305-.307-.346-.724-.54-1.158-.541zm-24.436 9.972v-.002c-.144.175-.213.275-.22.367.005-.092.076-.19.22-.365zm34.993-3.863c.025.028.052.055.079.083-.02.266-.092.542-.044.796.075.4-.04.742-.199 1.087.014.46-.004.919-.1 1.372l-.064.02c-.02.148-.038.296-.062.444-.04.253-.085.506-.128.76l-.087.242-.243.82-.065.018c-.01.21-.019.42-.026.63-.195.516-.392 1.033-.586 1.549l-.08.167-.081.165-.09.24c-.081.11-.16.223-.24.334l-.42.812c-.021.003-.041.008-.06.015l-.191.478-.655.825-.093.154v.001c-.029.055-.054.11-.081.163l-.07.015c-.006.049-.011.098-.019.147l-.068.012-.007.158c-.023.005-.045.01-.067.018l-.185.226c-.029.054-.06.106-.09.16l-.073.09c-.025.005-.05.007-.076.008-.488.659-1.055 1.254-1.6 1.865l-.421.648-.236.18c-.003.024-.006.049-.006.073.059.32.059.32.332.326-.026.15-.082.277-.244.33l-.088.077-.086.079-.083.084-.257.32c-.298.249-.654.401-.993.58-.067.042-.132.118-.201.122-.218.008-.354.126-.47.285l-.163.083-.002.001-.089.079.005-.007-.255.085h.003l-.087.086.004-.006-.17.085.003-.004-.162.09-.004.003c-.03-.004-.06-.008-.09-.01-.018.008-.037.013-.057.014l-.02.071-.084-.006-.081.09-.168.082-.092.07-.083.007-.02.08c-.019 0-.038.002-.057.007l-.17.077h.003c-.08.001-.157.006-.236.01l-.009-.003c-.3-.115-.535-.01-.752.162.217-.172.453-.276.752-.162l-.089.074c-.006.024-.012.049-.016.073l-.081.077c-.026.002-.051.005-.076.01l-.002.086c-.026 0-.052.003-.077.005l-.085.079.001-.002-.15.011-.01-.006c-.003.024-.009.048-.016.07-.025.142.063.172.178.173l.167-.084.25-.08.083-.081h.001c.028-.03.056-.055.085-.083l.08-.081.003-.001.083-.081h.334v.163l-.167.163-.083.083c-.085.025-.17.053-.253.08l-.083.077c-.111-.106-.223-.115-.334.006l-.084-.002-.007.075-.327.088-.084.08-.75.247-.078.086c-.278.093-.53.26-.839.243l-.101.069-.166.415.033.003-.105.088-.168.075c-.026 0-.053 0-.08.002l-.082-.007c.002-.024.003-.048.003-.073l.085-.244-.086.012-.167.069-.003.078-.168.083h.001c-.056.026-.11.054-.168.082l-.083.08v-.001l-.167.083-.087.08-.038.002h-.038c-.043-.115-.137-.158-.254-.161h-.002v-.083l.008-.077c.02-.051.07-.133.05-.151-.101-.103-.163-.006-.227.062l-.08.003-.17.079h-.08l-.096-.22.357-.183-.103-.095-.34.08c-.147.192-.283.402-.569.418.036-.067.057-.147.108-.204.077-.086.014-.142-.023-.206l-.175-.005-.239.174-.09.16-.253.161c-.274.008-.548.014-.822.02l.097.399-.191.081c-.083-.003-.166-.005-.247-.009l-.088.001-.088.01-.161-.007-.002-.002c.011-.151.082-.245.251-.228.144.014.228-.042.253-.182-.058-.026-.112-.054-.168-.08h.002c-.277-.068-.52-.03-.716.23.182.033.286.1.13.261l-.334.002-.25-.005h-.166c-.06-.097-.146-.122-.253-.08l-.084-.08-.001-.162c-.056-.083-.112-.166-.166-.25v.002l-.083.41-.496-.006-.255.003-.085-.08-.073-.066-.01.066c-.056 0-.111 0-.168.002-.026-.002-.053-.004-.08-.004l-.013-.073c-.025-.003-.05-.005-.075-.01l-.04.002-.04-.003c-.027.004-.053.008-.08.01-.028-.004-.055-.007-.083-.008h-.092.002-.25c-.262-.224-.603-.23-.916-.318l-.087-.004-.41-.075-.173.075-.003-.002c-.004-.115-.042-.206-.165-.244-.11-.025-.22-.052-.332-.08l-.08-.004-.173-.083h.002l-.249-.08c.05-.04.097-.082.148-.12.06-.045.124-.084.186-.126l-.089-.074h-.002l-.167-.009-.25.246-.161.002-.337-.08c-.054-.029-.11-.056-.163-.085l-.002-.08-.006.004-.08-.003.002-.245-.335.165-.25-.083-.003-.243v-.002l-.08-.085c0-.026-.002-.051-.005-.077l-.247.244-.25-.163.079-.074-.247-.17-.083-.082-.247-.09-.258-.152c-.133.017-.264-.049-.331-.166-.235-.155-.471-.308-.703-.466-.027-.02-.032-.071-.047-.107-.71-.47-1.435-.919-2.069-1.487l-.091-.077-.515-.394c-.107-.031-.216-.06-.323-.092l-.09-.238-.175-.324h-.08l-.164-.082-.169-.082h-.083l-.086-.406v-.083l.006-.09-.271-.304c-.023-.003-.046-.007-.069-.013l.01-.087v-.003c-.031 0-.06-.004-.09-.004l-.076-.072c-.005-.026-.008-.053-.01-.08l-.142-.106c-.007-.02-.019-.04-.034-.055l-.07.007-.099-.096-.072-.073-.002-.003-.081-.08-.002-.002-.082-.081-.084-.08c-.083-.083-.167-.165-.251-.246-.027-.03-.055-.057-.082-.084-.03-.107-.055-.215-.083-.322.051.022.104.038.153.063.1.052.153.01.187-.082l-.107-.303-.235-.005-.083.162-.083-.163.164-.002-.083-.16c-.024-.002-.049-.003-.073-.003l-.01-.243.003-.079.09-.252c.012-.196-.07-.332-.258-.406l-.256-.4c-.026 0-.052 0-.079-.002l-.082.16c-.027-.002-.055-.004-.081-.004l.076-.322h.002l-.081-.085c-.004-.026-.004-.053-.002-.08l-.081-.083-.25-.569-.003-.41-.08-.083-.013-.16-.239-.004-.079-.082.081-.324c-.026-.033-.052-.064-.08-.095-.003-.025-.008-.049-.014-.072l-.075-.161.002.001c-.029-.082-.056-.166-.083-.249l.006.006c.057.013.142.01.165.044.073.11.121.234.18.353l.134.005.005-.075-.07-.091v-.15l-.01-.083-.076-.088-.006-.156-.08-.087-.082-.001c-.029-.08-.058-.16-.086-.243h-.002l-.165-.164-.004-.083.086-.244.081-.08.003-.082c.026 0 .053 0 .079-.002l.004-.08h-.082l-.088-.166v-.072l.008-.092-.041.001-.041-.002v-.163l-.085-.006c0-.024-.004-.048-.011-.071l.007-.407c-.086-.133-.189-.25-.055-.425.057-.071.035-.2.048-.302-.037-.125-.075-.25-.111-.376l-.124-.455-.088-.006v-.142l.082-.416c.131-.169.034-.291-.088-.408.003-.026.005-.051.006-.077.087-.186.185-.371.084-.584-.002-.026-.004-.052-.008-.077l.086-.401-.002-.005.088.242c.053.025.104.052.155.077l.076-.09c-.02-.131-.035-.262-.06-.392-.019-.086-.05-.17-.077-.254l.002-.305c-.005-.032-.01-.062-.012-.094h-.001l.084-.082c.026-.052.05-.106.074-.159l.01-.245.073-.013-.073-.16c0-.025 0-.05-.003-.076l.004-.24c.122.094.163.044.16-.086l.006-.08c.067-.084.069-.167 0-.252v-.242.001-.244l-.002.002.08-.08.006-.325c.025-.003.05-.008.073-.013l.004-.316c.005-.025.008-.05.007-.075l.075-.169c.006-.025.01-.05.01-.076.096-.166.082-.333 0-.5.027-.083.035-.223.086-.24.265-.082.252-.281.251-.483l-.002-.004.162-.006c-.005.023-.007.046-.006.069-.103.351-.277.688-.24 1.07.13.09.185.3.407.246.013-.019.019-.042.017-.064l-.025-.077c-.071-.254-.215-.503-.016-.77.03-.041-.032-.149-.05-.226l-.002-.002.074-.078.01-.083.081-.086.001-.08.08-.244c.004-.026.006-.053.006-.079l.084-.25.074-.158.09-.12c.007.017.011.035.013.052.082-.151.158-.305.249-.451.067-.112.153-.212.232-.317l.024-.297.086-.077.159-.5.398-.516c.038-.097.076-.193.116-.289l.063-.098.102-.15.165-.246c.144-.089.235-.243.245-.412.028-.056.055-.11.085-.163l.091-.157.214-.11.099-.151.1-.15.081-.08.084-.081.082-.084.083-.082.07-.096c.025-.006.05-.012.075-.016l.025-.135.073-.088.255-.321.077-.088.08-.085.085-.081c.026-.03.053-.056.081-.084l.108-.14c.056-.056.11-.112.163-.169l.08-.083.078-.086.09-.074.086-.082.077-.087.16-.168c.025 0 .048-.004.072-.011l.026-.144c.024-.03.048-.06.07-.09.026-.003.052-.005.078-.004l.003-.002.08-.07.24-.245.095-.011.088-.077.243-.253.102-.06.16-.087.155-.1c.034-.02.068-.04.102-.058l.153-.1.094-.07.138-.03c.002-.023.007-.046.013-.069l.096-.067c.052-.032.104-.063.154-.096l.1-.063c.18-.106.32-.287.56-.273.003-.023.008-.045.015-.067l.153-.025c.057-.048.117-.095.176-.144.08-.005.163-.014.243-.022l.105-.124.157-.094.1-.06.25-.083.162-.087.24-.094.094-.07.163-.085c.082-.029.163-.06.245-.09l.254-.077c.138-.029.275-.06.413-.09.01-.023.02-.048.032-.071.019.006.036 0 .05-.016.277-.066.557-.125.604-.471l.492-.17-.012.006.35-.083-.013.009.159-.031.009-.07.173.011h.002c.038-.108-.012-.187-.09-.257.028-.053.059-.106.087-.16l-.02-.164.014-.014.078-.07h.165l.093.002-.003.002.101.014.095-.091c.02.002.04-.004.056-.016l.165.014.149-.022c.005-.022.011-.043.02-.063.167-.03.334-.055.5-.081l1.08.003.75.077.363.013c.016.007.035.009.052.007.001-.015.004-.029.01-.042l.33.02.18.086.243.07.43.08c.018-.005.038-.005.057.002.394-.147.787-.114 1.18.006l.16.01.02.064c.377.09.76.163 1.103.354.258.143.545.066.817.096.215.024.438-.02.657-.033l.316.1c.205.211.492.24.753.324.064.086.11.194.195.252.144.098.313.165.47.244.019.02.033.051.057.058.463.145.88.39 1.325.575.062.026.134.044.2.043.207-.01.373.082.53.196l.401.1.096.065-.003.087.096.067c.033.022.08.034.1.065.132.203.34.286.561.351l.572.016.087.076.163.087.083.08c.028.027.058.052.089.078.028.025.06.049.09.074.003.026.004.053.001.08l.096.073.561.182c.003.026.003.051 0 .077l.161.175c.249.266.497.532.75.796.036.038.087.092.13.092.258-.004.366.215.542.33 0 .028.004.054.01.08.024.001.05.003.074.006l.363.546v-.001l.89.758c.307.37.51.81.842 1.166.115.125.176.3.26.449.162.105.277.242.374.412.188.338.41.658.62.986l.073.171.086.161.113.226c.022.003.045.006.067.011.001.027.007.054.015.079-.005.027-.01.054-.013.081l.07.09.425.895.083.326.01.159.076.093c-.003.024 0 .048.004.07.035.276.07.552.109.827.018.131.042.26.063.391l.076.014.013.245.006.223c.021.007.043.014.065.019l.004.242.079.657-.08.321v.08zm-10.875.352c1.035.92 3.696 4.013 4.409 5.329-.717.21-2.6.21-4.43.21h-3.752c.936-1.9 2.832-4.757 3.773-5.539z"/>
    </defs>
    <g fill="none" fill-rule="evenodd" transform="translate(-446 -5133)">
        <use fill="#000" filter="url(#prefix__a)" xlink:href="#prefix__b"/>
        <use fill="url(#prefix__c)" xlink:href="#prefix__b"/>
        <g>
            <use fill="url(#prefix__d)" xlink:href="#prefix__e"/>
            <use fill="#000" filter="url(#prefix__f)" xlink:href="#prefix__e"/>
        </g>
    </g>
</svg>
